<?xml version="1.0" encoding="UTF-8" standalone="no"?>
<!-- Created with Inkscape (http://www.inkscape.org/) -->

<svg
   width="210mm"
   height="297mm"
   viewBox="0 0 210 297"
   version="1.1"
   id="svg1"
   xmlns:inkscape="http://www.inkscape.org/namespaces/inkscape"
   xmlns:sodipodi="http://sodipodi.sourceforge.net/DTD/sodipodi-0.dtd"
   xmlns="http://www.w3.org/2000/svg"
   xmlns:svg="http://www.w3.org/2000/svg">
  <sodipodi:namedview
     id="namedview1"
     pagecolor="#ffffff"
     bordercolor="#000000"
     borderopacity="0.25"
     inkscape:showpageshadow="2"
     inkscape:pageopacity="0.0"
     inkscape:pagecheckerboard="0"
     inkscape:deskcolor="#d1d1d1"
     inkscape:document-units="mm">
    <inkscape:page
       x="0"
       y="0"
       width="210"
       height="297"
       id="page2"
       margin="0"
       bleed="0" />
  </sodipodi:namedview>
  <defs
     id="defs1">
    <inkscape:path-effect
       effect="bspline"
       id="path-effect26-2-8-3-3-5"
       is_visible="true"
       lpeversion="1.3"
       weight="33.333333"
       steps="2"
       helper_size="0"
       apply_no_weight="true"
       apply_with_weight="true"
       only_selected="false"
       uniform="false" />
    <inkscape:path-effect
       effect="powerstroke"
       message=""
       id="path-effect27-4-2-7-7-9"
       is_visible="true"
       lpeversion="1.3"
       scale_width="1"
       interpolator_type="CubicBezierJohan"
       interpolator_beta="0.2"
       start_linecap_type="zerowidth"
       end_linecap_type="zerowidth"
       offset_points="0,0.5"
       linejoin_type="extrp_arc"
       miter_limit="4"
       not_jump="false"
       sort_points="true" />
    <inkscape:path-effect
       effect="bspline"
       id="path-effect26-2-8-3-3-5-0"
       is_visible="true"
       lpeversion="1.3"
       weight="33.333333"
       steps="2"
       helper_size="0"
       apply_no_weight="true"
       apply_with_weight="true"
       only_selected="false"
       uniform="false" />
    <inkscape:path-effect
       effect="powerstroke"
       message=""
       id="path-effect27-4-2-7-7-9-2"
       is_visible="true"
       lpeversion="1.3"
       scale_width="1"
       interpolator_type="CubicBezierJohan"
       interpolator_beta="0.2"
       start_linecap_type="zerowidth"
       end_linecap_type="zerowidth"
       offset_points="0,0.5"
       linejoin_type="extrp_arc"
       miter_limit="4"
       not_jump="false"
       sort_points="true" />
  </defs>
  <g
     inkscape:label="Layer 1"
     inkscape:groupmode="layer"
     id="layer1">
    <g
       id="g127-9-2-3-3-6"
       transform="matrix(-1.5506466,0.1356639,-0.13577081,-1.5518671,593.57056,808.30881)"
       style="display:inline;fill:#011670;fill-opacity:1;stroke:#ffffff;stroke-width:1.22862;stroke-dasharray:none;stroke-opacity:1"
       inkscape:label="Amphitrichous Bacillus"
       inkscape:export-filename="Amphitrichous_Bacillus.svg"
       inkscape:export-xdpi="96"
       inkscape:export-ydpi="96">
      <path
         style="display:inline;fill:#24365b;fill-opacity:1;fill-rule:nonzero;stroke:none;stroke-width:0.436282;stroke-linecap:round;stroke-dasharray:none"
         d="m 148.13914,88.487093 c 0,0 -0.31097,0.391535 -0.31097,0.391535 0.70526,0.560132 1.89127,1.50046 2.95374,2.201867 0.45967,0.303461 0.94774,0.598367 1.43887,0.841926 0.45302,0.224664 0.92349,0.413176 1.39207,0.523555 0.44582,0.105018 0.88259,0.137496 1.31307,0.09993 0.41163,-0.03592 0.80752,-0.134955 1.1928,-0.285964 0.73772,-0.289143 1.41872,-0.761449 2.0955,-1.315543 0.65643,-0.537431 1.30543,-1.14853 1.93278,-1.635568 0.31347,-0.243359 0.61834,-0.453497 0.91585,-0.611204 0.29938,-0.158692 0.58593,-0.261393 0.86215,-0.294094 0.28026,-0.03318 0.56309,0.0046 0.85112,0.08613 0.29417,0.08324 0.58853,0.210601 0.8804,0.34653 0.30617,0.142585 0.59317,0.286389 0.88957,0.409036 0.30607,0.126649 0.60102,0.221212 0.89295,0.255283 0.30718,0.03585 0.60206,0.0033 0.87995,-0.06758 0.30069,-0.07673 0.58962,-0.200629 0.85804,-0.340498 0.60641,-0.31599 1.30314,-0.832381 1.70089,-1.114873 -0.41207,0.292667 -1.09191,0.774812 -1.72265,1.070926 -0.27242,0.127897 -0.56114,0.235205 -0.85684,0.29391 -0.27313,0.05422 -0.55408,0.06746 -0.83868,0.01665 -0.27003,-0.04821 -0.54379,-0.153799 -0.83289,-0.293967 -0.28286,-0.137141 -0.55203,-0.292465 -0.85585,-0.456628 -0.28425,-0.153587 -0.58738,-0.308164 -0.89918,-0.418383 -0.30633,-0.108282 -0.6333,-0.178459 -0.97726,-0.160876 -0.3399,0.01738 -0.68261,0.119321 -1.02463,0.275693 -0.33933,0.155145 -0.67991,0.364756 -1.01904,0.601062 -0.68135,0.47477 -1.36322,1.059445 -2.02053,1.545973 -0.68586,0.507658 -1.32077,0.893176 -1.96673,1.107964 -0.33254,0.110573 -0.66035,0.172984 -0.98966,0.185147 -0.34352,0.01269 -0.69099,-0.02916 -1.04906,-0.12941 -0.38135,-0.106761 -0.78156,-0.281464 -1.18897,-0.499766 -0.44026,-0.235907 -0.88756,-0.522057 -1.32116,-0.822983 -0.98155,-0.681205 -2.17303,-1.647978 -2.86468,-2.197304 0,0 -0.31097,0.391535 -0.31097,0.391535 z"
         id="path25-6-7-7-8-8"
         transform="matrix(2.7744248,0.48882117,0.48920603,-2.7722428,-164.30709,597.98294)"
         sodipodi:nodetypes="cccccc"
         inkscape:original-d="m 148.13914,88.487093 c 1.96601,1.561454 3.93197,3.122873 5.89802,4.684361 1.3295,-0.719832 2.65894,-1.439633 3.9884,-2.159448 1.32293,-1.347514 2.6458,-2.694973 3.9687,-4.042463 1.15395,1.146141 2.30785,2.292236 3.46177,3.43835 1.14065,-0.810128 2.28126,-1.620224 3.42189,-2.430339"
         inkscape:path-effect="#path-effect26-2-8-3-3-5;#path-effect27-4-2-7-7-9" />
      <path
         style="display:inline;fill:#24365b;fill-opacity:1;fill-rule:nonzero;stroke:none;stroke-width:0.436282;stroke-linecap:round;stroke-dasharray:none;stroke-opacity:1"
         d="m 148.13914,88.487093 c 0,0 -0.23502,0.441321 -0.23502,0.441321 0.64081,0.34126 1.7372,0.90618 2.55917,1.443739 0.36145,0.236385 0.71473,0.493742 1.02833,0.773614 0.28963,0.258468 0.5463,0.53682 0.74835,0.839628 0.19099,0.286222 0.33791,0.601896 0.43341,0.929985 0.0913,0.313768 0.13387,0.633243 0.12425,0.936557 -0.009,0.29367 -0.0674,0.566042 -0.1718,0.797196 -0.10145,0.224567 -0.2465,0.410271 -0.43542,0.541657 -0.0943,0.06555 -0.20454,0.120946 -0.33241,0.166536 -0.12733,0.0454 -0.26979,0.08026 -0.42729,0.105966 -0.31554,0.0515 -0.67586,0.0639 -1.07173,0.05902 -0.79115,-0.0098 -1.6849,-0.08798 -2.52296,-0.02332 -0.84761,0.06539 -1.64994,0.281055 -2.28468,0.434927 -0.3422,0.08296 -0.64365,0.150751 -0.91705,0.186508 -0.13988,0.01829 -0.2697,0.02779 -0.39046,0.02668 -0.12376,-0.0011 -0.23722,-0.01341 -0.34133,-0.03835 -0.2181,-0.05225 -0.40031,-0.161288 -0.55761,-0.307275 -0.17051,-0.15824 -0.31092,-0.359791 -0.42944,-0.575929 -0.1322,-0.241102 -0.241,-0.507845 -0.33138,-0.75841 -0.10557,-0.292674 -0.20166,-0.608843 -0.27321,-0.849487 0.0673,0.226412 0.16671,0.572458 0.25877,0.854448 0.0825,0.252697 0.18126,0.526121 0.30224,0.775924 0.10824,0.223515 0.24011,0.440841 0.40748,0.619218 0.15492,0.165093 0.345,0.302069 0.58425,0.379102 0.11439,0.03683 0.2385,0.05951 0.37235,0.07034 0.13048,0.01056 0.26955,0.0098 0.41735,2.6e-4 0.28778,-0.01858 0.60317,-0.07 0.95102,-0.13368 0.65672,-0.120226 1.43668,-0.286996 2.25151,-0.309206 0.81658,-0.02226 1.65049,0.09405 2.48372,0.14788 0.40349,0.02606 0.79946,0.03599 1.16356,-8.93e-4 0.18367,-0.01861 0.36247,-0.04942 0.53268,-0.09746 0.17131,-0.04836 0.33557,-0.114651 0.48792,-0.204768 0.31002,-0.183376 0.54751,-0.450803 0.71493,-0.762519 0.17072,-0.317862 0.2686,-0.681083 0.30252,-1.05622 0.0351,-0.388117 0.002,-0.792571 -0.0912,-1.187223 -0.0978,-0.413178 -0.26191,-0.815446 -0.48552,-1.185276 -0.23644,-0.391054 -0.53449,-0.738149 -0.85563,-1.046639 -0.34757,-0.333881 -0.73279,-0.632511 -1.11354,-0.897012 -0.87735,-0.609488 -1.97715,-1.195208 -2.62112,-1.538147 0,0 -0.23502,0.441321 -0.23502,0.441321 z"
         id="path25-6-7-7-8-8-8"
         transform="matrix(-2.7744248,-0.48882117,-0.48920603,2.7722428,689.88552,272.70499)"
         sodipodi:nodetypes="cccccc"
         inkscape:original-d="m 148.13914,88.487093 c 1.80647,0.962027 3.61289,1.924028 5.41941,2.886077 -0.10616,1.728676 -0.21231,3.457231 -0.31847,5.185901 -1.87219,-0.479874 -3.74426,-0.959718 -5.61646,-1.439593 -1.42759,0.65421 -2.85509,1.30838 -4.28268,1.962587 -0.34337,-1.154825 -0.68672,-2.309608 -1.03008,-3.464414"
         inkscape:path-effect="#path-effect26-2-8-3-3-5-0;#path-effect27-4-2-7-7-9-2" />
      <rect
         style="display:inline;fill:#38b26b;fill-opacity:1;fill-rule:nonzero;stroke:#24365b;stroke-width:1.22862;stroke-linecap:round;stroke-linejoin:round;stroke-miterlimit:4;stroke-dasharray:none;stroke-opacity:1;paint-order:normal"
         id="rect127-1-0-1-3-2"
         width="58.246716"
         height="17.510948"
         x="68.567581"
         y="490.6778"
         ry="8.3892403"
         transform="rotate(-20)" />
    </g>
  </g>
</svg>
