<?xml version="1.0" encoding="UTF-8" standalone="no"?>
<!-- Created with Inkscape (http://www.inkscape.org/) -->

<svg
   width="84.434143mm"
   height="85.393837mm"
   viewBox="0 0 84.434143 85.393837"
   version="1.1"
   id="svg1"
   inkscape:export-filename="Cryptosporidia_Cyst.svg"
   inkscape:export-xdpi="96"
   inkscape:export-ydpi="96"
   xmlns:inkscape="http://www.inkscape.org/namespaces/inkscape"
   xmlns:sodipodi="http://sodipodi.sourceforge.net/DTD/sodipodi-0.dtd"
   xmlns="http://www.w3.org/2000/svg"
   xmlns:svg="http://www.w3.org/2000/svg">
  <sodipodi:namedview
     id="namedview1"
     pagecolor="#ffffff"
     bordercolor="#000000"
     borderopacity="0.25"
     inkscape:showpageshadow="2"
     inkscape:pageopacity="0.0"
     inkscape:pagecheckerboard="0"
     inkscape:deskcolor="#d1d1d1"
     inkscape:document-units="mm">
    <inkscape:page
       x="-4.9175177e-13"
       y="0"
       width="84.434151"
       height="85.393837"
       id="page2"
       margin="0"
       bleed="0" />
  </sodipodi:namedview>
  <defs
     id="defs1">
    <inkscape:path-effect
       effect="bspline"
       id="path-effect200"
       is_visible="true"
       lpeversion="1.3"
       weight="33.333333"
       steps="2"
       helper_size="0"
       apply_no_weight="true"
       apply_with_weight="true"
       only_selected="false"
       uniform="false" />
  </defs>
  <g
     inkscape:label="Layer 1"
     inkscape:groupmode="layer"
     id="layer1"
     transform="translate(-73.059956,-117.90251)">
    <g
       id="g204"
       inkscape:label="Blastocystis_Vaccuolated"
       style="stroke-width:1;stroke-dasharray:none"
       transform="translate(-1297.5706,-583.8086)">
      <path
         style="fill:#5c7bbe;fill-opacity:1;fill-rule:evenodd;stroke:#24365b;stroke-width:1.00002;stroke-linecap:round;stroke-linejoin:round;stroke-dasharray:none;stroke-opacity:1"
         id="path198"
         sodipodi:type="arc"
         sodipodi:cx="1347.2212"
         sodipodi:cy="-845.12732"
         sodipodi:rx="42.769726"
         sodipodi:ry="41.128963"
         sodipodi:start="3.6423784"
         sodipodi:end="3.6420493"
         sodipodi:open="true"
         sodipodi:arc-type="arc"
         d="m 1309.7033,-864.87395 a 42.769726,41.128963 0 0 1 58.0492,-16.33355 42.769726,41.128963 0 0 1 16.9899,55.82087 42.769726,41.128963 0 0 1 -58.0463,16.34274 42.769726,41.128963 0 0 1 -16.9995,-55.81818"
         transform="matrix(0.50400559,0.86370039,-0.86831962,0.49600508,0,0)" />
      <path
         style="fill:#9aaed7;fill-opacity:1;fill-rule:evenodd;stroke:#24365b;stroke-width:2.34254;stroke-linecap:round;stroke-linejoin:round;stroke-dasharray:none;stroke-opacity:1"
         d="m 877.20961,1765.2704 c -1.9203,-2.2506 -2.82579,-3.0121 -4.23874,-4.026 -1.41294,-1.0139 -3.33332,-2.2802 -7.24636,-3.363 -3.91303,-1.0827 -9.81879,-1.9821 -19.43832,-2.4317 C 836.66665,1755 823.33331,1755 809.16665,1757.5 c -14.16667,2.5 -29.16666,7.5 -40.16667,12.4454 -11,4.9455 -17.99997,9.8363 -22.06666,13.3411 -4.06669,3.5047 -5.20009,5.6234 -6.70008,9.8446 -1.49999,4.2212 -3.36663,10.5451 -4.29993,16.207 C 735,1815 735,1820 735.44802,1825.0425 c 0.44801,5.0426 1.34405,10.1277 2.34404,14.2944 1,4.1666 2.10398,7.4149 3.32264,10.7057 1.21866,3.2908 2.55198,6.6241 4.91931,10.3655 2.36733,3.7414 5.76873,7.891 9.31122,11.6735 3.5425,3.7826 7.2261,7.1981 11.35876,10.1234 4.13266,2.9252 8.71434,5.3601 13.66751,7.7824 4.95317,2.4222 10.27784,4.8318 16.9445,6.4985 6.66667,1.6666 14.67534,2.5904 21.91773,2.5726 7.2424,-0.018 13.71852,-0.977 19.9202,-2.6231 6.20167,-1.6462 12.12893,-3.9794 17.70368,-6.8331 5.57475,-2.8537 10.79704,-6.228 15.42869,-10.4151 C 876.91795,1875 880.95898,1870 884.29231,1865 c 3.33333,-5 5.95898,-10 8.10513,-15 2.14616,-5 3.81282,-10 4.66667,-15 0.85384,-5 0.89487,-10 0.76374,-15 -0.13113,-5 -0.4344,-10 -1.26311,-15.3646 -0.82871,-5.3646 -2.18282,-11.0937 -4.19785,-16.0937 -2.01502,-5 -4.69098,-9.2709 -7.49645,-13.2761 -2.80547,-4.0051 -5.74054,-7.7447 -7.66083,-9.9952 z"
         id="path200"
         sodipodi:nodetypes="aaaaaaaaaaaaaaaaaaaaaaaaaaaaa"
         inkscape:original-d="m 876.19487,1763.7814 c -0.90554,-0.7616 -1.81107,-1.5231 -2.71661,-2.2847 -1.92035,-1.2662 -3.84069,-2.5325 -5.76104,-3.7987 -5.90575,-0.8993 -11.81149,-1.7987 -17.71724,-2.698 -13.33333,0 -26.66667,0 -40,0 -15,5 -29.99999,10 -44.99999,15 -7,4.8909 -13.99999,9.7817 -20.99999,14.6726 -1.13338,2.1186 -2.26676,4.2373 -3.40014,6.3559 -1.86662,6.3238 -3.73324,12.6477 -5.59986,18.9715 0,5 0,10 0,15 0.89603,5.0851 1.79207,10.1702 2.6881,15.2553 1.10397,3.2482 2.20793,6.4965 3.3119,9.7447 1.33333,3.3334 2.66667,6.6667 4,10 3.40136,4.1495 6.80272,8.2991 10.20408,12.4486 3.68363,3.4156 7.36727,6.8311 11.0509,10.2467 4.58167,2.4349 9.16335,4.8698 13.74502,7.3047 5.32467,2.4096 10.64934,4.8192 15.97401,7.2288 8.00866,0.9237 16.01733,1.8475 24.02599,2.7712 6.47613,-0.9592 12.95225,-1.9185 19.42838,-2.8777 5.92723,-2.3331 11.85447,-4.6663 17.7817,-6.9994 5.22228,-3.3743 10.44457,-6.7486 15.66685,-10.1229 4.04102,-5 8.08205,-10 12.12307,-15 2.62564,-5 5.25129,-10 7.87693,-15 1.66667,-5 3.33333,-10 5,-15 0.041,-5 0.082,-10 0.12307,-15 -0.30328,-5 -0.60655,-10 -0.90983,-15 -1.35413,-5.7292 -2.70826,-11.4583 -4.06239,-17.1875 -2.67593,-4.2708 -5.35185,-8.5417 -8.02778,-12.8125 -2.93504,-3.7395 -5.87009,-7.4791 -8.80513,-11.2186 z"
         inkscape:path-effect="#path-effect200"
         transform="matrix(0.21566315,0.37353956,-0.3658896,0.21124646,1897.891,56.765439)" />
      <ellipse
         style="fill:#38b26b;fill-opacity:1;fill-rule:evenodd;stroke:#24365b;stroke-width:1;stroke-linecap:round;stroke-linejoin:round;stroke-dasharray:none;stroke-opacity:1"
         id="path201"
         cx="1516.5476"
         cy="-599.5365"
         rx="3.7324665"
         ry="5.2561536"
         transform="rotate(50)" />
      <ellipse
         style="fill:#38b26b;fill-opacity:1;fill-rule:evenodd;stroke:#24365b;stroke-width:1;stroke-linecap:round;stroke-linejoin:round;stroke-dasharray:none;stroke-opacity:1"
         id="path202"
         cx="1342.7488"
         cy="-881.6723"
         rx="8.7169609"
         ry="7.7484107"
         transform="rotate(60)" />
      <ellipse
         style="fill:#38b26b;fill-opacity:1;fill-rule:evenodd;stroke:#24365b;stroke-width:1;stroke-linecap:round;stroke-linejoin:round;stroke-dasharray:none;stroke-opacity:1"
         id="path203"
         cx="1446.3405"
         cy="741.9834"
         rx="6.2706575"
         ry="7.8929319" />
      <ellipse
         style="fill:#38b26b;fill-opacity:1;fill-rule:evenodd;stroke:#24365b;stroke-width:1.00374;stroke-linecap:round;stroke-linejoin:round;stroke-dasharray:none;stroke-opacity:1"
         id="path204"
         cx="1266.7557"
         cy="-808.94678"
         rx="4.1077304"
         ry="5.3227844"
         transform="matrix(0.54388896,0.8391572,-0.89912006,0.43770208,0,0)" />
    </g>
  </g>
</svg>
