<?xml version="1.0" encoding="UTF-8" standalone="no"?>
<!-- Created with Inkscape (http://www.inkscape.org/) -->

<svg
   width="133.01234mm"
   height="142.64232mm"
   viewBox="0 0 133.01234 142.64232"
   version="1.1"
   id="svg1"
   xmlns="http://www.w3.org/2000/svg"
   xmlns:svg="http://www.w3.org/2000/svg">
  <defs
     id="defs1" />
  <g
     id="layer1"
     transform="translate(-60.854177,-86.254157)">
    <g
       id="g133"
       transform="matrix(-5.4781836,0,0,5.2886376,528.73751,-700.20943)"
       style="stroke-width:0.743139;stroke-dasharray:none">
      <path
         style="display:inline;fill:#5c7bbe;fill-opacity:1;fill-rule:nonzero;stroke:#24365b;stroke-width:0.743139;stroke-linecap:round;stroke-linejoin:round;stroke-miterlimit:4;stroke-dasharray:none;stroke-opacity:1;paint-order:normal"
         id="path129"
         d="m 67.110754,157.772 a 9.8112516,10.174388 0 0 1 11.208222,5.61612 9.8112516,10.174388 0 0 1 -3.124445,12.49552 9.8112516,10.174388 0 0 1 -12.427599,-0.73949 9.8112516,10.174388 0 0 1 -1.725668,-12.78412"
         transform="rotate(-2)" />
      <path
         style="fill:#5c7bbe;fill-opacity:1;fill-rule:nonzero;stroke:#24365b;stroke-width:0.743139;stroke-linecap:round;stroke-linejoin:round;stroke-miterlimit:4;stroke-dasharray:none;stroke-opacity:1;paint-order:normal"
         id="path130"
         d="m -59.650739,-162.87422 a 5.5739141,5.5248771 0 0 1 4.763457,4.04114 5.5739141,5.5248771 0 0 1 -2.042256,5.87589 5.5739141,5.5248771 0 0 1 -6.263802,0.27559 5.5739141,5.5248771 0 0 1 -2.559452,-5.67343"
         transform="rotate(177.5)" />
      <path
         style="fill:#38b26b;fill-opacity:1;fill-rule:nonzero;stroke:#24365b;stroke-width:0.743139;stroke-linecap:round;stroke-linejoin:round;stroke-miterlimit:4;stroke-dasharray:none;stroke-opacity:1;paint-order:normal"
         id="path131"
         d="m 76.816471,163.65607 a 3.2354178,3.1046536 0 0 1 2.860595,3.41093 3.2354178,3.1046536 0 0 1 -3.538454,2.76411 3.2354178,3.1046536 0 0 1 -2.900386,-3.37984 3.2354178,3.1046536 0 0 1 3.505837,-2.80213" />
      <path
         style="fill:#38b26b;fill-opacity:1;fill-rule:nonzero;stroke:#24365b;stroke-width:0.743139;stroke-linecap:round;stroke-linejoin:round;stroke-miterlimit:4;stroke-dasharray:none;stroke-opacity:1;paint-order:normal"
         id="path132"
         d="m 64.815461,154.27945 a 1.3730463,1.2913175 0 0 1 1.213979,1.41871 1.3730463,1.2913175 0 0 1 -1.501649,1.14967 1.3730463,1.2913175 0 0 1 -1.230866,-1.40577 1.3730463,1.2913175 0 0 1 1.487807,-1.16549" />
    </g>
  </g>
</svg>
