<?xml version="1.0" encoding="UTF-8" standalone="no"?>
<!-- Created with Inkscape (http://www.inkscape.org/) -->

<svg
   width="253.45285mm"
   height="365.20804mm"
   viewBox="0 0 253.45285 365.20804"
   version="1.1"
   id="svg1"
   xmlns:inkscape="http://www.inkscape.org/namespaces/inkscape"
   xmlns:sodipodi="http://sodipodi.sourceforge.net/DTD/sodipodi-0.dtd"
   xmlns="http://www.w3.org/2000/svg"
   xmlns:svg="http://www.w3.org/2000/svg">
  <sodipodi:namedview
     id="namedview1"
     pagecolor="#ffffff"
     bordercolor="#000000"
     borderopacity="0.25"
     inkscape:showpageshadow="2"
     inkscape:pageopacity="0.0"
     inkscape:pagecheckerboard="0"
     inkscape:deskcolor="#d1d1d1"
     inkscape:document-units="mm">
    <inkscape:page
       x="1.7589156e-14"
       y="0"
       width="253.45287"
       height="365.20804"
       id="page2"
       margin="0"
       bleed="0" />
  </sodipodi:namedview>
  <defs
     id="defs1">
    <inkscape:path-effect
       effect="powerstroke"
       message=""
       id="path-effect17"
       is_visible="true"
       lpeversion="1.3"
       scale_width="1"
       interpolator_type="CubicBezierJohan"
       interpolator_beta="0.2"
       start_linecap_type="zerowidth"
       end_linecap_type="zerowidth"
       offset_points="0.0081036309,3.0847543"
       linejoin_type="extrp_arc"
       miter_limit="4"
       not_jump="false"
       sort_points="true" />
    <inkscape:path-effect
       effect="bspline"
       id="path-effect16"
       is_visible="true"
       lpeversion="1.3"
       weight="33.333333"
       steps="2"
       helper_size="0"
       apply_no_weight="true"
       apply_with_weight="true"
       only_selected="false"
       uniform="false" />
    <inkscape:path-effect
       effect="powerstroke"
       message=""
       id="path-effect8"
       is_visible="true"
       lpeversion="1.3"
       scale_width="1"
       interpolator_type="CubicBezierJohan"
       interpolator_beta="0.2"
       start_linecap_type="zerowidth"
       end_linecap_type="zerowidth"
       offset_points="0.011320649,3.3149167"
       linejoin_type="extrp_arc"
       miter_limit="4"
       not_jump="false"
       sort_points="true" />
    <inkscape:path-effect
       effect="bspline"
       id="path-effect7"
       is_visible="true"
       lpeversion="1.3"
       weight="33.333333"
       steps="2"
       helper_size="0"
       apply_no_weight="true"
       apply_with_weight="true"
       only_selected="false"
       uniform="false" />
    <inkscape:path-effect
       effect="powerstroke"
       message=""
       id="path-effect6"
       is_visible="true"
       lpeversion="1.3"
       scale_width="1"
       interpolator_type="CubicBezierJohan"
       interpolator_beta="0.2"
       start_linecap_type="zerowidth"
       end_linecap_type="zerowidth"
       offset_points="0.010837353,3.271379"
       linejoin_type="extrp_arc"
       miter_limit="4"
       not_jump="false"
       sort_points="true" />
    <inkscape:path-effect
       effect="bspline"
       id="path-effect5"
       is_visible="true"
       lpeversion="1.3"
       weight="33.333333"
       steps="2"
       helper_size="0"
       apply_no_weight="true"
       apply_with_weight="true"
       only_selected="false"
       uniform="false" />
    <inkscape:path-effect
       effect="bspline"
       id="path-effect1"
       is_visible="true"
       lpeversion="1.3"
       weight="33.333333"
       steps="2"
       helper_size="0"
       apply_no_weight="true"
       apply_with_weight="true"
       only_selected="false"
       uniform="false" />
    <inkscape:path-effect
       effect="bspline"
       id="path-effect2-9"
       is_visible="true"
       lpeversion="1.3"
       weight="33.333333"
       steps="2"
       helper_size="0"
       apply_no_weight="true"
       apply_with_weight="true"
       only_selected="false"
       uniform="false" />
    <inkscape:path-effect
       effect="bspline"
       id="path-effect7-5"
       is_visible="true"
       lpeversion="1.3"
       weight="33.333333"
       steps="2"
       helper_size="0"
       apply_no_weight="true"
       apply_with_weight="true"
       only_selected="false"
       uniform="false" />
    <inkscape:path-effect
       effect="powerstroke"
       message=""
       id="path-effect8-7"
       is_visible="true"
       lpeversion="1.3"
       scale_width="1"
       interpolator_type="CubicBezierJohan"
       interpolator_beta="0.2"
       start_linecap_type="zerowidth"
       end_linecap_type="zerowidth"
       offset_points="0.0030102288,2.8594098"
       linejoin_type="extrp_arc"
       miter_limit="4"
       not_jump="false"
       sort_points="true" />
    <inkscape:path-effect
       effect="bspline"
       id="path-effect5-3"
       is_visible="true"
       lpeversion="1.3"
       weight="33.333333"
       steps="2"
       helper_size="0"
       apply_no_weight="true"
       apply_with_weight="true"
       only_selected="false"
       uniform="false" />
    <inkscape:path-effect
       effect="powerstroke"
       message=""
       id="path-effect6-43"
       is_visible="true"
       lpeversion="1.3"
       scale_width="1"
       interpolator_type="CubicBezierJohan"
       interpolator_beta="0.2"
       start_linecap_type="zerowidth"
       end_linecap_type="zerowidth"
       offset_points="0.017314044,3.2559963"
       linejoin_type="extrp_arc"
       miter_limit="4"
       not_jump="false"
       sort_points="true" />
    <inkscape:path-effect
       effect="bspline"
       id="path-effect16-3"
       is_visible="true"
       lpeversion="1.3"
       weight="33.333333"
       steps="2"
       helper_size="0"
       apply_no_weight="true"
       apply_with_weight="true"
       only_selected="false"
       uniform="false" />
    <inkscape:path-effect
       effect="powerstroke"
       message=""
       id="path-effect17-8"
       is_visible="true"
       lpeversion="1.3"
       scale_width="1"
       interpolator_type="CubicBezierJohan"
       interpolator_beta="0.2"
       start_linecap_type="zerowidth"
       end_linecap_type="zerowidth"
       offset_points="0.0082011368,3.276769"
       linejoin_type="extrp_arc"
       miter_limit="4"
       not_jump="false"
       sort_points="true" />
  </defs>
  <g
     id="g17"
     inkscape:label="Giardia"
     transform="translate(-140.95277,-217.72651)">
    <path
       style="fill:#5c7bbe;fill-opacity:1;stroke:#24365b;stroke-width:2.08333;stroke-dasharray:none;stroke-opacity:1"
       d="M 81.719381,133.79956 C 73.851149,119.76036 66.793519,110.84583 62.816749,100.9923 58.83998,91.138765 57.223813,78.271037 57.97705,69.595906 c 0.753237,-8.675131 4.010425,-15.249332 8.175342,-20.659639 4.164917,-5.410306 9.826407,-10.454933 18.236615,-14.329476 8.410209,-3.874543 21.053773,-7.219605 33.590123,-6.72697 12.53636,0.492635 28.076,5.066815 36.63903,9.93935 8.56303,4.872535 12.94214,11.5293 16.00579,18.041568 3.06365,6.512269 5.25787,13.757366 5.30198,21.530993 0.0441,7.773627 -2.07957,17.397506 -6.19883,26.044638 -4.11925,8.64714 -10.87613,17.6742 -18.17557,31.38646 -7.29944,13.71227 -14.85686,30.95188 -23.49303,42.13913 -8.63617,11.18724 -13.86789,10.87507 -21.6459,0.70089 -7.778008,-10.17417 -16.824987,-29.8241 -24.693219,-43.86329 z"
       id="path1"
       inkscape:path-effect="#path-effect1"
       inkscape:original-d="M 80.563811,128.23916 C 73.85115,119.76036 66.793519,110.84583 60.28217,102.62131 55.63293,91.541566 53.786454,78.702764 55.790016,66.855321 c 2.940271,-5.934546 6.197459,-12.508747 9.212011,-18.59322 5.315282,-4.73614 9.855334,-11.039335 16.24269,-14.472922 11.554499,-3.056931 24.198063,-6.401993 35.639773,-9.429084 13.631,4.01236 29.17064,8.58654 42.45917,12.498095 5.97572,4.426927 8.21664,12.490279 12.26159,18.639098 2.08235,6.875721 4.27657,14.120818 6.3123,20.842576 0.35903,9.334473 -2.14572,18.874263 -6.03875,27.365766 -4.46178,9.73207 -13.02783,17.40494 -19.24651,25.71298 -8.3802,19.11649 -15.93762,36.3561 -25.93631,59.16461 -7.27365,-0.43402 -12.50537,-0.7462 -18.86764,-1.12583 -9.193748,-19.96871 -18.240725,-39.61864 -27.264529,-59.21823 z"
       sodipodi:nodetypes="aaaaaaaaaascca"
       transform="matrix(1.44,0,0,1.44,99.545114,201.13368)" />
    <path
       d="m 101.98699,108.10382 c -3.811023,4.38518 -6.882663,6.68436 -10.098976,7.49135 -3.216314,0.80699 -6.614116,0.14935 -9.902313,-1.43994 -3.288196,-1.5893 -6.466787,-4.11025 -9.426164,-7.94648 -2.959377,-3.83623 -5.69954,-8.987738 -7.179229,-14.906492 -1.479688,-5.918754 -1.698902,-12.604754 -1.315279,-18.468704 0.383623,-5.863951 1.389573,-11.00547 3.169558,-15.406944 1.779985,-4.401474 4.503277,-8.456127 7.244157,-11.611632 2.740881,-3.155506 5.707847,-5.654589 8.98762,-7.495312 3.279773,-1.840724 7.137675,-3.176967 10.431568,-4.061629 3.293892,-0.884663 6.136118,-1.352724 9.501058,-1.793844 3.36493,-0.44112 7.27932,-0.858879 11.30903,-0.974548 4.02971,-0.115668 8.22944,0.0696 11.72889,0.394325 3.49945,0.324725 6.29069,0.78439 9.50263,1.651514 3.21194,0.867124 6.70626,2.108613 9.85591,3.924192 3.14966,1.815579 6.01503,4.228401 8.27909,6.538541 2.26406,2.31014 3.73876,4.330096 5.18663,6.313304 1.44787,1.983208 2.86891,3.929665 4.07074,7.411037 1.20182,3.481372 2.19372,8.551065 2.57734,14.415015 0.38363,5.863951 0.16441,12.549951 -1.31527,18.468704 -1.47969,5.918754 -4.21986,11.070263 -7.17923,14.906493 -2.95938,3.83623 -6.13797,6.35718 -9.42617,7.94647 -3.28819,1.5893 -6.686,2.24694 -9.90231,1.43995 -3.21632,-0.80699 -6.28767,-3.10596 -10.02355,-7.37695 -3.73588,-4.27099 -10.22636,-13.408256 -12.89051,-13.34114 -2.66415,0.06712 -9.37419,9.53754 -13.18522,13.92272 z"
       id="path2-3"
       style="fill:#889fd0;fill-opacity:1;stroke:#24365b;stroke-width:2.08333;stroke-dasharray:none;stroke-opacity:1"
       transform="matrix(-1.44,0,0,1.44,433.22198,206.73178)"
       inkscape:path-effect="#path-effect2-9"
       inkscape:original-d="m 101.17398,110.24493 c -2.64528,2.71531 -6.069651,4.54325 -9.104477,6.81487 -3.397803,-0.65764 -6.795605,-1.31528 -10.193408,-1.97292 -3.17859,-2.52095 -6.357181,-5.0419 -9.535771,-7.56285 C 69.60016,102.37252 66.859997,97.221012 64.119833,92.069503 63.90062,85.383504 63.681406,78.697504 63.462193,72.011505 64.448652,66.969603 64.457303,61.63296 66.421571,56.8858 c 2.593001,-3.860664 4.76798,-8.283589 7.935798,-11.815443 2.862256,-2.410885 5.829222,-4.909968 8.671211,-7.303782 3.717557,-1.287632 7.575459,-2.623876 11.342661,-3.928704 2.780955,-0.705134 5.649549,-1.013075 8.492489,-1.398553 3.88835,-0.527224 7.78329,-1.127155 11.70532,-1.24924 4.18254,-0.130195 8.37939,0.120302 12.5415,0.55326 2.85356,0.296839 5.61705,0.925023 8.49249,1.398553 3.54844,1.260718 7.04276,2.502207 10.48019,3.723483 2.86188,2.409879 5.72725,4.822702 8.72542,7.347352 1.52995,2.095629 3.00465,4.115586 4.45252,6.098795 1.44787,1.983208 2.86891,3.929666 4.29154,5.878299 0.98102,5.01411 1.97292,10.083803 2.95938,15.125705 -0.21921,6.685999 -0.43843,13.371999 -0.65764,20.057998 -2.74016,5.151509 -5.48033,10.303017 -8.22049,15.454527 -3.17859,2.52095 -6.35718,5.0419 -9.53577,7.56285 -3.3978,0.65764 -6.79561,1.31528 -10.19341,1.97292 -3.03483,-2.27162 -6.45757,-4.10115 -9.10448,-6.81487 -4.47346,-6.2977 -10.96394,-15.434967 -13.58387,-19.123285 -2.70837,3.822553 -9.41841,13.292975 -14.04245,19.819265 z"
       sodipodi:nodetypes="aaaaaaaaaaaaasascsaaaaaaaa" />
    <ellipse
       style="fill:#38b26b;fill-opacity:1;stroke:#24365b;stroke-width:3;stroke-dasharray:none;stroke-opacity:1"
       id="path3"
       cx="167.8291"
       cy="366.20096"
       rx="18.925743"
       ry="26.285755"
       transform="rotate(-9.6556143)" />
    <ellipse
       style="fill:#90dcaf;fill-opacity:1;stroke:#24365b;stroke-width:3.00247;stroke-dasharray:none;stroke-opacity:1"
       id="path3-8"
       cx="156.13837"
       cy="367.77499"
       rx="10.430481"
       ry="12.308931"
       transform="matrix(0.98991102,-0.14169043,0.19821829,0.9801579,0,0)" />
    <ellipse
       style="fill:#38b26b;fill-opacity:1;stroke:#24365b;stroke-width:3;stroke-dasharray:none;stroke-opacity:1"
       id="path3-84"
       cx="-361.3786"
       cy="277.32294"
       rx="18.925743"
       ry="26.285755"
       transform="matrix(-0.9858337,-0.16772573,-0.16772573,0.9858337,0,0)" />
    <ellipse
       style="fill:#90dcaf;fill-opacity:1;stroke:#24365b;stroke-width:3.00247;stroke-dasharray:none;stroke-opacity:1"
       id="path3-8-4"
       cx="-370.92563"
       cy="292.74921"
       rx="10.430481"
       ry="12.308931"
       transform="matrix(-0.98991102,-0.14169043,-0.19821829,0.9801579,0,0)" />
    <path
       style="fill:#24365b;fill-opacity:1;fill-rule:nonzero;stroke:none;stroke-width:0;stroke-dasharray:none;stroke-opacity:1"
       d="m 101.88777,120.86704 c 0.007,0.0778 -3.227579,0.61829 -3.220241,0.69608 0.386643,4.09815 1.098808,11.06646 2.244101,17.52751 0.94243,5.31663 2.33327,11.30848 4.64695,17.07293 2.10308,5.23977 4.88879,10.10688 8.0273,14.93743 2.95868,4.5538 6.14155,8.93437 8.99852,13.23233 2.87015,4.3178 5.37923,8.50937 7.37341,12.83679 2.09181,4.5393 3.54315,9.07329 4.286,13.84112 0.82189,5.27514 0.76562,10.8197 0.43058,15.85532 -0.41484,6.23497 -1.38282,13.0335 -1.9857,17.04267 0.53337,-3.54689 1.80973,-11.23894 2.44369,-17.00225 0.55093,-5.00852 0.90932,-10.62818 0.39824,-16.0559 -0.46514,-4.93972 -1.64161,-9.71301 -3.48424,-14.5568 -1.75493,-4.61324 -4.03845,-9.09708 -6.66925,-13.68587 -2.6165,-4.56387 -5.51251,-9.13671 -8.11649,-13.73978 -2.77444,-4.90439 -5.09784,-9.61696 -6.76519,-14.53744 -1.82876,-5.3968 -2.8622,-11.04803 -3.55891,-16.18541 -0.79483,-5.86099 -1.4013,-13.44632 -1.75518,-17.1972 -0.007,-0.0777 -3.28626,-0.004 -3.29359,-0.0815 z"
       id="path5"
       inkscape:path-effect="#path-effect5;#path-effect6"
       inkscape:original-d="m 101.88777,120.86704 c 1.12792,11.95877 2.25584,23.91754 3.38376,35.87632 6.63888,8.9668 13.27749,17.93323 19.91624,26.89985 4.22474,8.62192 8.44931,17.24349 12.67396,25.86524 -1.72438,11.46715 -3.44869,22.93385 -5.17304,34.40077"
       transform="matrix(1.44,0,0,1.44,120.96686,172.72224)"
       sodipodi:nodetypes="ccccc" />
    <path
       style="fill:#24365b;fill-opacity:1;fill-rule:nonzero;stroke:none;stroke-width:0;stroke-dasharray:none;stroke-opacity:1"
       d="m 99.864171,126.05805 c 0,1e-5 -3.314917,0.29034 -3.314917,0.29033 -3.9e-5,5.1371 0.150629,16.28652 -0.214987,26.38459 -0.170519,4.70961 -0.446332,9.59827 -0.758263,15.02959 -0.276218,4.80948 -0.575863,9.96326 -0.738609,14.49722 -0.157038,4.37495 -0.196939,8.39743 -0.03451,12.12465 0.157946,3.62442 0.506971,6.98004 1.128957,10.20396 0.612755,3.17606 1.478537,6.15567 2.456243,9.33177 0.984092,3.19685 2.063207,6.53685 3.151907,10.55447 1.10178,4.0659 2.18706,8.73357 3.07467,13.48741 0.91709,4.9117 1.60562,9.81872 1.91694,14.28422 0.32465,4.65672 0.24097,8.87822 0.0505,12.4724 -0.20752,3.91588 -0.53698,7.18702 -0.72717,9.83435 -0.21268,2.96047 -0.2718,5.23487 -0.28615,7.03941 -0.0182,2.28519 0.0253,3.99352 0.0253,5.44885 0,-1.38995 0.0286,-3.25046 0.16173,-5.44244 0.10967,-1.80617 0.3009,-4.04929 0.66884,-6.98978 0.29902,-2.38973 0.84105,-6.10768 1.20552,-9.81099 0.35505,-3.60754 0.62357,-7.88001 0.48251,-12.63006 -0.13529,-4.55606 -0.64617,-9.55336 -1.37998,-14.55855 -0.71038,-4.84539 -1.61679,-9.60816 -2.54154,-13.7865 -0.91212,-4.12124 -1.8206,-7.57872 -2.60075,-10.785 -0.7811,-3.21022 -1.41051,-6.07909 -1.795713,-9.07444 -0.388983,-3.02473 -0.531103,-6.19194 -0.496826,-9.65744 0.03534,-3.57314 0.258447,-7.46294 0.590771,-11.76135 0.343398,-4.4417 0.825648,-9.57375 1.262298,-14.36827 0.49029,-5.38358 0.92774,-10.38502 1.24265,-15.13202 0.7247,-10.924 0.78545,-20.94884 0.7855,-26.696 0,-10e-6 -3.314919,-0.29039 -3.314919,-0.29038 z"
       id="path6"
       inkscape:path-effect="#path-effect7;#path-effect8"
       inkscape:original-d="m 99.864171,126.05805 c 0,8.54939 0,17.09879 0,25.64818 -1.00048,10.91433 -2.000922,21.82823 -3.001383,32.74235 0,6.82146 0,13.64264 0,20.46397 2.000961,5.54812 4.001842,11.09602 6.002762,16.64402 2.00097,10.73244 4.00185,21.46444 6.00277,32.19665 -1.09144,7.64003 -2.18283,15.27977 -3.27424,22.91964 0,3.45622 0,6.91229 0,10.36841"
       transform="matrix(1.44,0,0,1.44,123.94797,168.66397)" />
    <path
       style="fill:#24365b;fill-opacity:1;fill-rule:nonzero;stroke:none;stroke-width:0;stroke-dasharray:none;stroke-opacity:1"
       d="m 97.884858,126.59636 c 0.0011,-0.0586 3.088532,-0.17765 3.089612,-0.23621 0.18062,-9.84179 0.42289,-23.29044 0.33283,-33.725984 -0.0794,-9.196234 -0.45261,-17.157956 -0.55258,-24.222312 -0.0896,-6.33342 0.0708,-12.001694 0.40092,-16.987765 0.15346,-2.317906 0.3442,-4.458607 0.64414,-6.353868 0.29155,-1.842206 0.6765,-3.388084 1.19661,-4.636036 0.97308,-2.335932 2.90249,-4.596336 5.83736,-6.194664 1.43707,-0.782519 3.32281,-1.517954 5.42529,-2.082673 2.0564,-0.55234 4.25564,-0.923571 6.32732,-1.021706 2.04244,-0.09666 4.17648,0.05753 6.28982,0.38152 2.08204,0.31919 4.1048,0.797157 5.9417,1.334357 1.80255,0.527174 3.42698,1.109684 5.15375,1.978694 1.72309,0.867159 3.58962,2.039065 5.88621,3.790912 2.292,1.74836 5.05151,4.104718 7.93674,6.686768 2.86504,2.563989 5.82093,5.320655 8.51591,7.871439 5.3662,5.079086 9.70421,9.346937 13.14417,13.082076 1.71797,1.865368 3.21171,3.601629 4.48798,5.373255 1.27499,1.769838 2.33261,3.574815 3.16966,5.568904 0.84414,2.011016 1.52343,4.360835 1.94708,6.779732 0.42605,2.432615 0.58787,4.901593 0.41641,7.147123 -0.17267,2.26093 -0.68019,4.376318 -1.26827,6.24341 -0.29574,0.938951 -0.61141,1.813741 -0.91456,2.612145 -0.30471,0.802493 -0.59663,1.527343 -0.8449,2.167723 -0.50029,1.29043 -0.80494,2.19499 -1.00565,2.87789 -0.20322,0.69146 -0.30124,1.16138 -0.37848,1.54334 -0.0782,0.38645 -0.14494,0.72095 -0.2062,1.03682 -0.0627,0.32354 -0.12081,0.6333 -0.18052,0.96731 -0.12463,0.69703 -0.25084,1.47144 -0.33779,2.20324 -0.0909,0.76517 -0.13787,1.48285 -0.17181,2.13624 -0.0376,0.72401 -0.0596,1.37647 -0.0572,1.95465 0.001,0.30985 0.009,0.58941 0.007,0.84936 -0.003,0.28063 -0.0166,0.53336 -0.056,0.77855 -0.0875,0.54407 -0.31155,1.08459 -0.48842,1.48947 0.16795,-0.38447 0.43926,-0.94921 0.58057,-1.46955 0.0669,-0.24633 0.11238,-0.50083 0.152,-0.78442 0.0366,-0.26179 0.0669,-0.54163 0.10727,-0.84412 0.0748,-0.56072 0.18547,-1.20332 0.32383,-1.90355 0.12616,-0.63846 0.27466,-1.32022 0.46976,-2.03978 0.18495,-0.68208 0.41647,-1.41754 0.64845,-2.0553 0.11207,-0.30809 0.22255,-0.58905 0.34213,-0.8937 0.11649,-0.29678 0.24201,-0.61702 0.38099,-0.9958 0.13363,-0.36417 0.28341,-0.78634 0.52683,-1.40593 0.24315,-0.6189 0.59161,-1.46522 1.13739,-2.70225 0.26837,-0.60825 0.5989,-1.34388 0.93998,-2.15319 0.34162,-0.810608 0.7027,-1.715582 1.04579,-2.697115 0.68049,-1.946797 1.30038,-4.222931 1.55705,-6.706431 0.25517,-2.469374 0.14159,-5.146359 -0.2484,-7.75688 -0.38778,-2.595681 -1.05282,-5.151215 -1.91841,-7.387499 -0.86656,-2.238787 -1.9761,-4.260484 -3.30295,-6.216944 -1.32118,-1.948102 -2.85488,-3.826978 -4.56377,-5.778522 -3.42116,-3.906971 -7.73378,-8.329094 -13.03258,-13.52082 -2.66242,-2.608624 -5.60169,-5.437819 -8.45851,-8.080399 -2.86662,-2.651653 -5.66566,-5.129843 -8.03117,-7.015715 -2.39323,-1.907973 -4.43345,-3.278898 -6.38127,-4.334393 -1.97428,-1.069836 -3.82103,-1.798586 -5.77582,-2.437699 -1.97003,-0.644076 -4.16855,-1.231768 -6.46324,-1.648585 -2.32413,-0.422165 -4.76012,-0.671529 -7.17215,-0.622801 -2.45047,0.04958 -4.99601,0.418673 -7.35302,0.986853 -2.39849,0.578178 -4.67252,1.379068 -6.54143,2.32243 -3.91916,1.97842 -6.80129,4.990947 -8.38526,8.451548 -0.812453,1.774645 -1.344095,3.778248 -1.725911,5.845237 -0.395509,2.141119 -0.652147,4.478584 -0.857643,6.851916 -0.445336,5.142841 -0.699966,10.978609 -0.687082,17.462101 0.01562,7.861688 0.329066,16.349449 0.344689,24.21112 0.03157,10.211628 -0.24611,23.838038 -0.424846,33.577058 -0.0011,0.0586 3.079936,0.29086 3.078861,0.34942 z"
       id="path15"
       inkscape:path-effect="#path-effect16;#path-effect17"
       inkscape:original-d="m 97.884858,126.59636 c 0.221068,-12.04477 0.442136,-24.08953 0.663204,-36.134293 -0.336917,-7.664849 -0.996089,-15.322311 -1.010751,-22.994548 -0.01095,-5.732178 0.203394,-11.471197 0.689495,-17.182737 0.331351,-3.893285 -0.159798,-8.093923 1.51612,-11.62362 1.410554,-2.970812 3.946694,-5.493566 6.774554,-7.17245 4.17275,-2.477348 9.22678,-3.579533 14.07779,-3.709182 4.61459,-0.12333 9.07008,1.878129 13.56104,2.808067 3.23033,1.064281 6.44227,2.377229 9.26453,4.275264 7.24175,4.870239 12.85864,11.805855 19.12542,17.879546 4.38875,4.253524 8.90564,8.399583 12.9343,12.995613 2.75728,3.145606 5.96794,6.115033 7.65808,9.941375 2.22124,5.02871 1.91969,10.825993 2.87953,16.238989 -1.81593,4.045065 -3.63185,8.090126 -5.44778,12.135196 -0.2667,0.98678 -0.5334,1.97356 -0.8001,2.96034 -0.16562,0.53722 -0.33124,1.07444 -0.49686,1.61166 -0.18066,0.75797 -0.36133,1.51594 -0.54199,2.27391 -0.098,0.68943 -0.19592,1.37886 -0.29388,2.06829 -0.0691,0.66033 -0.13813,1.32066 -0.2072,1.98099 -0.007,0.52745 -0.0135,1.05491 -0.0203,1.58236 -0.21244,0.48631 -0.42489,0.97263 -0.63733,1.45894"
       sodipodi:nodetypes="caaaaaaaaaaaaaaaaaaac"
       transform="matrix(1.44,0,0,1.44,126.67896,180.02481)" />
    <path
       style="fill:#24365b;fill-opacity:1;fill-rule:nonzero;stroke:none;stroke-width:0;stroke-dasharray:none;stroke-opacity:1"
       d="m 97.884858,126.59636 c 0.0011,-0.0593 3.280572,-0.17694 3.281652,-0.23621 0.18066,-9.84365 0.4218,-23.28619 0.32991,-33.727096 -0.081,-9.199636 -0.45286,-17.166045 -0.62051,-24.250783 -0.14958,-6.321235 -0.1102,-12.055974 0.14973,-16.983029 0.12153,-2.304121 0.29449,-4.428969 0.58312,-6.310139 0.28049,-1.828116 0.66017,-3.357729 1.17079,-4.588476 0.4866,-1.173327 1.21257,-2.325949 2.17795,-3.410392 0.94093,-1.056986 2.10115,-2.039345 3.45631,-2.891727 1.3322,-0.837889 3.0018,-1.641298 4.87188,-2.257886 1.83302,-0.604371 3.82761,-1.018708 5.83689,-1.115761 2.0003,-0.09653 4.30095,0.105668 6.66627,0.501809 2.32253,0.388975 4.62899,0.951609 6.64536,1.542777 1.97939,0.580358 3.68455,1.186986 5.44409,2.062522 1.75074,0.871164 3.61295,2.036852 5.90573,3.783232 2.28934,1.743765 5.04804,4.096706 7.91718,6.66768 2.84854,2.552519 5.77379,5.290954 8.40461,7.805499 5.23618,5.00476 9.3313,9.145184 12.7862,12.891053 1.72848,1.874043 3.29066,3.64592 4.64842,5.459404 1.35655,1.811881 2.50097,3.655082 3.38827,5.657915 0.8943,2.018607 1.60049,4.371189 2.039,6.790718 0.44092,2.432851 0.605,4.898009 0.43621,7.135947 -0.17005,2.254008 -0.67408,4.364378 -1.25928,6.228997 -0.29427,0.937622 -0.60857,1.811602 -0.91048,2.609501 -0.30349,0.802085 -0.59438,1.526985 -0.84194,2.168175 -0.49885,1.29205 -0.80218,2.19851 -1.00155,2.88336 -0.20187,0.69346 -0.29847,1.16534 -0.37386,1.54761 -0.0762,0.38654 -0.14125,0.72179 -0.20075,1.0381 -0.0609,0.32372 -0.11742,0.63487 -0.1755,0.9696 -0.12127,0.69887 -0.24424,1.47451 -0.32812,2.20785 -0.0877,0.76661 -0.13145,1.48536 -0.16254,2.13924 -0.0344,0.72476 -0.0537,1.3775 -0.0489,1.95624 0.003,0.31008 0.0116,0.58963 0.0103,0.84952 -0.001,0.28055 -0.0145,0.53321 -0.0531,0.77837 -0.0857,0.5445 -0.30854,1.08489 -0.48555,1.49009 0.16744,-0.38329 0.44069,-0.94987 0.58344,-1.46893 0.0677,-0.24638 0.1142,-0.50091 0.15498,-0.7846 0.0376,-0.26186 0.0692,-0.5417 0.11083,-0.84396 0.0772,-0.56019 0.19064,-1.20246 0.33213,-1.90196 0.12905,-0.63801 0.28066,-1.31862 0.47903,-2.03678 0.18793,-0.68036 0.42364,-1.41701 0.65812,-2.05069 0.11368,-0.30723 0.22582,-0.58739 0.34716,-0.89141 0.11823,-0.29623 0.24554,-0.61594 0.38643,-0.99452 0.13501,-0.36278 0.28714,-0.78515 0.53145,-1.40165 0.24442,-0.61681 0.59434,-1.46153 1.14149,-2.69679 0.269,-0.6073 0.60071,-1.34318 0.94293,-2.15274 0.34283,-0.810989 0.70532,-1.716899 1.04988,-2.699757 0.68336,-1.949285 1.30676,-4.230408 1.56604,-6.720844 0.25781,-2.476785 0.14502,-5.166811 -0.25995,-7.797118 -0.40262,-2.614998 -1.0986,-5.199386 -2.02703,-7.472931 -0.92901,-2.274951 -2.13718,-4.347563 -3.54128,-6.341354 -1.39828,-1.985532 -2.99444,-3.897522 -4.69682,-5.844777 -3.41514,-3.906402 -7.46822,-8.19854 -12.6528,-13.342726 -2.60233,-2.582046 -5.51266,-5.400285 -8.35503,-8.038699 -2.85204,-2.647391 -5.65308,-5.130074 -8.02094,-7.020255 -2.39707,-1.913489 -4.43963,-3.289338 -6.4461,-4.368094 -2.02695,-1.089766 -3.96723,-1.848819 -6.08969,-2.542332 -2.14055,-0.699389 -4.614,-1.37447 -7.13951,-1.866191 -2.55035,-0.496557 -5.20399,-0.816271 -7.66201,-0.768774 -2.51499,0.04867 -4.9674,0.491996 -7.19099,1.152985 -2.26555,0.673462 -4.34128,1.58666 -6.0753,2.595711 -1.78296,1.037573 -3.37979,2.283511 -4.73119,3.696227 -1.387095,1.45002 -2.519639,3.080417 -3.329322,4.845951 -0.822148,1.792421 -1.358676,3.812211 -1.736666,5.894232 -0.391852,2.158376 -0.633981,4.505884 -0.811573,6.893222 -0.381547,5.12833 -0.516813,11.036179 -0.447691,17.468588 0.07762,7.222755 0.37248,15.100199 0.398968,24.18189 0.02976,10.202926 -0.248987,23.834566 -0.427636,33.568896 -0.0011,0.0593 3.271866,0.2972 3.270778,0.35647 z"
       id="path15-0"
       inkscape:path-effect="#path-effect16-3;#path-effect17-8"
       inkscape:original-d="m 97.884858,126.59636 c 0.221068,-12.04477 0.442136,-24.08953 0.663204,-36.134293 -0.336917,-7.664849 -0.914124,-15.322906 -1.010751,-22.994548 -0.07215,-5.72813 -0.10277,-11.469923 0.322018,-17.182737 0.289739,-3.896603 -0.159798,-8.093923 1.51612,-11.62362 1.410561,-2.970812 4.017031,-5.380388 6.774551,-7.17245 3.66582,-2.382353 8.0069,-4.09287 12.37083,-4.357444 5.32787,-0.323015 10.45368,2.310857 15.63548,3.456329 3.22314,1.08586 6.44227,2.377229 9.26453,4.275264 7.24175,4.870239 12.90408,11.759322 19.12542,17.879546 4.1723,4.104485 8.31501,8.250146 12.19934,12.628136 2.94085,3.314588 6.54822,6.279996 8.39304,10.308852 2.28875,4.998343 1.91969,10.825993 2.87953,16.238989 -1.81593,4.045065 -3.63185,8.090126 -5.44778,12.135196 -0.2667,0.98678 -0.5334,1.97356 -0.8001,2.96034 -0.16562,0.53722 -0.33124,1.07444 -0.49686,1.61166 -0.18066,0.75797 -0.36133,1.51594 -0.54199,2.27391 -0.098,0.68943 -0.19592,1.37886 -0.29388,2.06829 -0.0691,0.66033 -0.13813,1.32066 -0.2072,1.98099 -0.007,0.52745 -0.0135,1.05491 -0.0203,1.58236 -0.21244,0.48631 -0.42489,0.97263 -0.63733,1.45894"
       sodipodi:nodetypes="caaaaaaaaaaaaaaaaaaac"
       transform="matrix(-1.44,0,0,1.44,408.78506,180.37647)" />
    <path
       style="fill:#24365b;fill-opacity:1;fill-rule:nonzero;stroke:none;stroke-width:0;stroke-dasharray:none;stroke-opacity:1"
       d="m 101.04093,121.45696 c 0.0147,0.12227 -3.174214,0.8765 -3.159555,0.99876 0.480504,4.0054 1.344544,10.72474 2.611175,17.01051 1.05335,5.22735 2.55826,11.1291 4.94627,16.82966 2.16858,5.17673 4.98408,10.00664 8.139,14.82147 2.97191,4.53554 6.15324,8.91456 9.01032,13.21365 2.8694,4.31764 5.37833,8.50978 7.37233,12.83798 2.09131,4.5394 3.54235,9.07371 4.28488,13.84205 0.82147,5.27525 0.76484,10.81985 0.42953,15.85555 -0.41517,6.2352 -1.38357,13.03521 -1.98619,17.04263 0.53327,-3.54622 1.80938,-11.23765 2.44319,-17.00229 0.55069,-5.00868 0.90869,-10.6282 0.39719,-16.05567 -0.46553,-4.93982 -1.64249,-9.71282 -3.48536,-14.55588 -1.75544,-4.61327 -4.03949,-9.09687 -6.67032,-13.68467 -2.74156,-4.7809 -5.39841,-8.95297 -8.13998,-13.73387 -2.79835,-4.89991 -5.16201,-9.59436 -6.90049,-14.48134 -1.90765,-5.36253 -3.05278,-10.95088 -3.85942,-16.01082 -0.90986,-5.70737 -1.6879,-13.04858 -2.12649,-16.7046 -0.0147,-0.12211 -3.29143,-0.10101 -3.30608,-0.22312 z"
       id="path5-8"
       inkscape:path-effect="#path-effect5-3;#path-effect6-43"
       inkscape:original-d="m 101.04093,121.45696 c 1.4102,11.76213 2.8204,23.52427 4.2306,35.2864 6.63888,8.9668 13.27749,17.93323 19.91624,26.89985 4.22474,8.62192 8.44931,17.24349 12.67396,25.86524 -1.72438,11.46715 -3.44869,22.93385 -5.17304,34.40077"
       transform="matrix(-1.44,0,0,1.44,413.48961,172.67354)"
       sodipodi:nodetypes="ccccc" />
    <path
       style="fill:#24365b;fill-opacity:1;fill-rule:nonzero;stroke:none;stroke-width:0;stroke-dasharray:none;stroke-opacity:1"
       d="m 99.864171,126.05805 c 0,0 -2.85941,0.0772 -2.85941,0.0772 -3e-6,5.22302 0.141008,16.36809 -0.251484,26.61925 -0.180445,4.71291 -0.467295,9.61153 -0.791384,15.0367 -0.287349,4.81016 -0.59943,9.96104 -0.774635,14.48831 -0.16913,4.37031 -0.221657,8.38359 -0.07289,12.09948 0.144678,3.61383 0.479448,6.95618 1.085256,10.16607 0.596409,3.16009 1.446464,6.1358 2.41053,9.31392 0.970063,3.19789 2.037289,6.54559 3.113749,10.57043 1.08958,4.07392 2.16243,8.74809 3.03774,13.50816 0.90441,4.91833 1.58061,9.83158 1.87972,14.30325 0.31192,4.66324 0.21542,8.88835 0.0135,12.48335 -0.21998,3.91712 -0.5606,7.18712 -0.76036,9.83273 -0.22344,2.959 -0.29179,5.23129 -0.31273,7.03595 -0.0265,2.2844 0.0123,3.99285 0.0123,5.44841 0,-1.38472 0.024,-3.25603 0.14872,-5.44289 0.10301,-1.80607 0.28513,-4.05142 0.64226,-6.99322 0.28976,-2.38691 0.82002,-6.115 1.17232,-9.81261 0.34363,-3.6065 0.59933,-7.8755 0.44555,-12.61912 -0.1475,-4.54965 -0.67068,-9.54064 -1.4172,-14.53951 -0.72265,-4.83892 -1.64142,-9.59498 -2.57848,-13.76576 -0.92436,-4.11423 -1.84454,-7.56286 -2.6389,-10.76903 -0.79467,-3.20738 -1.440445,-6.08449 -1.841434,-9.09231 -0.405059,-3.03835 -0.561538,-6.21839 -0.540527,-9.69532 0.02166,-3.58386 0.232088,-7.48185 0.55239,-11.78651 0.330975,-4.4481 0.800441,-9.57964 1.226271,-14.37719 0.47791,-5.38431 0.90429,-10.37948 1.20953,-15.12491 0.70547,-10.96729 0.749,-21.13786 0.749,-26.88763 0,0 -2.859409,-0.0772 -2.859409,-0.0772 z"
       id="path6-7"
       inkscape:path-effect="#path-effect7-5;#path-effect8-7"
       inkscape:original-d="m 99.864171,126.05805 c 0,8.54939 0,17.09879 0,25.64818 -1.00048,10.91433 -2.000922,21.82823 -3.001383,32.74235 0,6.82146 0,13.64264 0,20.46397 2.000961,5.54812 4.001842,11.09602 6.002762,16.64402 2.00097,10.73244 4.00185,21.46444 6.00277,32.19665 -1.09144,7.64003 -2.18283,15.27977 -3.27424,22.91964 0,3.45622 0,6.91229 0,10.36841"
       transform="matrix(-1.44,0,0,1.44,411.0431,169.59511)"
       sodipodi:nodetypes="cccccccc" />
  </g>
</svg>
