<?xml version="1.0" encoding="UTF-8" standalone="no"?>
<!-- Created with Inkscape (http://www.inkscape.org/) -->

<svg
   width="360.51147mm"
   height="246.34863mm"
   viewBox="0 0 360.51147 246.34863"
   version="1.1"
   id="svg1"
   xmlns="http://www.w3.org/2000/svg"
   xmlns:svg="http://www.w3.org/2000/svg">
  <defs
     id="defs1" />
  <g
     id="layer1"
     transform="translate(94.456334,-54.239497)">
    <g
       id="g69"
       transform="translate(-557.65547,-1443.2182)">
      <path
         id="path34-1"
         style="fill:#38b26b;fill-opacity:1;fill-rule:evenodd;stroke:#24365b;stroke-width:4;stroke-linejoin:bevel;stroke-dasharray:none"
         d="m 499.09522,1685.8203 c 12.07065,-6.5334 27.12954,-10.4611 43.74001,-14.58 16.61048,-4.119 41.16887,-3.7006 55.81256,-9.2583 14.64368,-5.5577 21.39785,-10.7857 31.73141,-19.6374 7.95444,-6.8138 21.4368,-3.5721 27.05593,3.5825 5.64806,7.1912 4.95929,19.8932 -2.94636,27.2738 -10.22529,9.5463 -15.96737,13.7512 -30.58655,19.8682 -14.61916,6.117 -40.46422,8.7215 -57.2426,12.5898 -16.77839,3.8682 -31.07404,5.4199 -43.27435,11.0557 -12.20032,5.6356 -18.871,15.0957 -27.87162,21.9344 -7.80745,5.9321 -20.65757,2.8621 -26.46366,-3.9053 -5.55552,-6.4753 -4.74112,-16.4206 0.15624,-25.5953 4.89737,-9.1748 17.81836,-16.7948 29.88899,-23.3281 z" />
      <path
         style="font-variation-settings:normal;opacity:1;vector-effect:none;fill:#24365b;fill-opacity:1;fill-rule:nonzero;stroke:none;stroke-width:1.5;stroke-linecap:butt;stroke-linejoin:bevel;stroke-miterlimit:4;stroke-dasharray:none;stroke-dashoffset:0;stroke-opacity:1;-inkscape-stroke:none;stop-color:#000000;stop-opacity:1"
         d="m 657.20155,1645.2774 c 0,0 3.41614,0.7604 3.41614,0.7604 1.19178,-5.3545 3.06818,-14.4009 5.6569,-22.2025 2.16442,-6.5229 5.28727,-13.8415 10.52708,-21.1768 4.67835,-6.5493 11.26232,-13.4244 19.87597,-19.1011 8.06166,-5.313 17.94217,-9.5955 29.58682,-11.393 5.69262,-0.8787 11.81158,-1.1638 18.14067,-1.0991 6.28105,0.064 12.67859,0.4709 18.95974,0.9518 6.27062,0.4801 12.37858,1.0301 18.04085,1.3709 5.70155,0.3431 10.94501,0.4739 15.46955,0.1111 4.59327,-0.3683 8.40929,-1.243 11.57858,-2.4678 3.24226,-1.2529 5.79824,-2.8686 7.81104,-4.6707 2.07634,-1.8591 3.57305,-3.9149 4.65342,-5.9771 1.12714,-2.1514 1.81597,-4.338 2.23275,-6.3727 0.91524,-4.4681 0.5734,-8.5111 -0.0689,-11.9348 -0.75828,-4.0418 -2.29009,-8.6248 -3.08204,-11.1839 0.83276,2.691 2.16464,7.0563 2.74327,11.2391 0.47642,3.4439 0.56839,7.3909 -0.5666,11.6508 -0.5165,1.9386 -1.29325,3.9708 -2.46443,5.9267 -1.12084,1.8719 -2.61126,3.6882 -4.60402,5.2933 -1.92923,1.5539 -4.34982,2.9266 -7.40562,3.96 -2.99,1.0111 -6.60696,1.7037 -10.99627,1.9136 -4.34555,0.2078 -9.43283,-0.057 -15.07764,-0.5423 -5.58711,-0.4807 -11.66989,-1.1744 -17.95628,-1.8024 -6.28773,-0.6282 -12.7745,-1.1894 -19.18167,-1.4014 -6.45235,-0.2135 -12.82005,-0.073 -18.83933,0.7075 -12.36867,1.6038 -23.00306,5.8707 -31.78335,11.3266 -9.36543,5.8194 -16.63745,12.9924 -21.89673,19.9379 -5.92078,7.819 -9.51424,15.6526 -11.98846,22.5611 -2.98113,8.3238 -5.00031,17.4754 -6.19756,22.8544 0,0 3.41614,0.7604 3.41614,0.7604 z"
         id="path34" />
      <path
         style="font-variation-settings:normal;opacity:1;vector-effect:none;fill:#24365b;fill-opacity:1;fill-rule:nonzero;stroke:none;stroke-width:1.5;stroke-linecap:butt;stroke-linejoin:bevel;stroke-miterlimit:4;stroke-dasharray:none;stroke-dashoffset:0;stroke-opacity:1;-inkscape-stroke:none;stop-color:#000000;stop-opacity:1"
         d="m 656.68122,1643.761 c 0,0 0.24306,3.4913 0.24306,3.4913 7.27487,-0.5065 19.16074,-1.2938 28.59855,-3.1889 4.15087,-0.8334 8.36564,-1.9651 12.16938,-3.5934 3.5152,-1.5048 6.84444,-3.5025 9.47826,-6.2438 2.50759,-2.61 4.23596,-5.7393 5.39394,-9.2297 1.10015,-3.3162 1.67775,-6.9308 1.95764,-10.7192 0.27046,-3.6607 0.26269,-7.4742 0.18203,-11.3544 -0.0783,-3.765 -0.22555,-7.573 -0.23793,-11.2663 -0.0241,-7.1861 0.46708,-14.0069 2.09238,-19.9852 0.7976,-2.9337 1.86644,-5.6589 3.2785,-8.1332 1.40389,-2.4599 3.15402,-4.6845 5.33362,-6.6285 2.18905,-1.9524 4.8414,-3.6476 7.83111,-5.1799 3.00059,-1.5379 6.29903,-2.8906 9.73383,-4.1656 6.98176,-2.5917 14.44538,-4.8461 20.97364,-7.618 6.8191,-2.8953 12.55986,-6.3082 17.1405,-9.8072 4.94323,-3.776 8.52515,-7.6385 10.85015,-11.2004 1.26208,-1.9335 2.16167,-3.7889 2.81831,-5.5432 0.70971,-1.896 1.14904,-3.7114 1.4354,-5.3981 0.64261,-3.7851 0.62449,-7.9933 0.66996,-10.5396 -0.0469,2.6259 -0.11912,6.6811 -0.92029,10.4921 -0.34969,1.6634 -0.86042,3.4331 -1.63988,5.2639 -0.72066,1.6927 -1.68168,3.464 -2.99313,5.2944 -2.41561,3.3714 -6.06702,7.0037 -11.03908,10.5175 -4.60834,3.2567 -10.34004,6.3989 -17.09668,9.0107 -6.46761,2.5001 -13.94402,4.5108 -21.12121,6.9128 -3.51864,1.1775 -6.98434,2.4615 -10.19101,3.9649 -3.19132,1.4963 -6.17077,3.2303 -8.72632,5.336 -2.56564,2.1142 -4.66471,4.5691 -6.37323,7.3018 -1.71489,2.743 -3.02387,5.7458 -4.01998,8.9307 -2.02062,6.4605 -2.76736,13.7236 -2.97464,21.1119 -0.10429,3.7174 -0.0743,7.7539 -0.10741,11.3598 -0.0353,3.8418 -0.14,7.4436 -0.49425,10.8272 -0.3667,3.5024 -0.98459,6.5894 -1.96929,9.2641 -1.02523,2.7849 -2.41455,5.0293 -4.22748,6.8016 -1.93383,1.8905 -4.502,3.396 -7.53511,4.6114 -3.27741,1.3133 -7.03694,2.2626 -10.94771,2.9821 -8.86723,1.6311 -20.45883,2.3174 -27.80869,2.8291 0,0 0.24306,3.4913 0.24306,3.4913 z"
         id="path60" />
      <path
         style="font-variation-settings:normal;opacity:1;vector-effect:none;fill:#24365b;fill-opacity:1;fill-rule:nonzero;stroke:none;stroke-width:1.5;stroke-linecap:butt;stroke-linejoin:bevel;stroke-miterlimit:4;stroke-dasharray:none;stroke-dashoffset:0;stroke-opacity:1;-inkscape-stroke:none;stop-color:#000000;stop-opacity:1"
         d="m 660.39999,1643.5916 c 0,0 2.64343,2.2936 2.64343,2.2936 3.60774,-4.1581 9.97515,-11.6478 15.49456,-17.4561 4.69713,-4.943 10.08198,-10.1166 15.9279,-14.2918 5.21791,-3.7266 10.94089,-6.7626 17.12961,-8.5873 5.79265,-1.7078 11.99988,-2.3564 18.59436,-1.5133 3.22296,0.4121 6.54613,1.182 9.9634,2.1996 3.39196,1.01 6.82626,2.2486 10.29252,3.587 6.99079,2.6995 13.87088,5.7072 20.55063,7.9311 6.83781,2.2765 13.22672,3.6466 18.68767,4.3184 2.85336,0.351 5.45632,0.5121 7.76481,0.5164 2.41315,0 4.5035,-0.1623 6.24709,-0.4623 1.8483,-0.318 3.31129,-0.7866 4.49816,-1.3321 1.28425,-0.5902 2.26182,-1.2786 3.0392,-1.9745 0.86629,-0.7756 1.52832,-1.6026 2.06127,-2.3534 0.5946,-0.8377 1.20865,-1.854 1.62206,-2.5086 -0.4417,0.6994 -1.03181,1.6075 -1.70727,2.4441 -0.57863,0.7166 -1.28842,1.4714 -2.19407,2.1527 -0.80968,0.6092 -1.80127,1.1802 -3.06824,1.6387 -1.16982,0.4233 -2.59665,0.7592 -4.38744,0.9417 -1.69197,0.1723 -3.72296,0.2092 -6.06978,0.072 -2.24455,-0.1308 -4.77485,-0.4206 -7.54507,-0.9002 -5.30365,-0.9182 -11.48805,-2.5341 -18.06735,-5.0302 -6.38226,-2.4213 -13.18187,-5.7033 -20.10696,-8.6935 -3.44944,-1.4895 -6.93339,-2.9053 -10.41655,-4.0968 -3.50828,-1.2002 -7.02204,-2.1752 -10.51434,-2.7725 -7.19123,-1.2298 -14.08876,-0.8263 -20.60812,0.8016 -6.94917,1.7353 -13.36323,4.8345 -19.16238,8.6767 -6.47385,4.2893 -12.33851,9.6174 -17.29959,14.592 -6.0453,6.0619 -12.24947,13.1755 -16.01294,17.513 0,0 2.64343,2.2936 2.64343,2.2936 z"
         id="path61" />
      <path
         style="font-variation-settings:normal;opacity:1;vector-effect:none;fill:#24365b;fill-opacity:1;fill-rule:nonzero;stroke:none;stroke-width:1.5;stroke-linecap:butt;stroke-linejoin:bevel;stroke-miterlimit:4;stroke-dasharray:none;stroke-dashoffset:0;stroke-opacity:1;-inkscape-stroke:none;stop-color:#000000;stop-opacity:1"
         d="m 656.68122,1641.516 c 0,0 3.23613,-1.3325 3.23613,-1.3325 -1.04246,-2.5317 -2.52937,-6.0148 -3.50761,-9.2841 -0.83303,-2.784 -1.48188,-5.9365 -1.40313,-9.4535 0.071,-3.1721 0.73871,-6.8595 2.16961,-10.8794 1.31559,-3.696 3.25784,-7.6124 5.85796,-11.4656 2.53223,-3.7526 5.50277,-7.1964 8.76488,-11.1551 3.02875,-3.6755 6.1763,-7.648 8.51741,-11.9667 2.31084,-4.2629 3.79653,-8.7832 4.94261,-13.2471 1.13323,-4.4138 1.93673,-8.7724 2.86454,-12.7677 0.46424,-1.999 0.95425,-3.8878 1.55174,-5.6579 0.59828,-1.7725 1.29903,-3.4095 2.17614,-4.8989 0.88014,-1.4946 1.94169,-2.8471 3.26359,-4.0386 1.33383,-1.2024 2.94769,-2.2543 4.93154,-3.1191 2.01503,-0.8783 4.41582,-1.5648 7.0786,-2.121 2.69611,-0.5632 5.63944,-0.9883 8.6798,-1.3461 6.26487,-0.7373 12.92206,-1.1992 18.90697,-1.9514 6.33344,-0.796 11.88287,-1.8957 16.45675,-3.1859 2.41846,-0.6822 4.55877,-1.4158 6.41241,-2.1868 1.94604,-0.8094 3.56933,-1.657 4.87474,-2.5289 1.38255,-0.9234 2.40969,-1.875 3.19251,-2.8167 0.84228,-1.0133 1.41608,-2.0332 1.82984,-3.0091 0.45431,-1.0716 0.73536,-2.1398 0.93697,-3.119 0.22293,-1.0827 0.38458,-2.2573 0.51921,-3.1728 -0.13726,0.9334 -0.30952,2.0705 -0.56435,3.1629 -0.22729,0.9743 -0.54297,2.0228 -1.03525,3.0646 -0.44778,0.9477 -1.05485,1.9198 -1.91972,2.8706 -0.80299,0.8827 -1.84201,1.7628 -3.22308,2.6069 -1.30519,0.7977 -2.9245,1.5686 -4.86552,2.2985 -1.84865,0.6951 -3.98181,1.35 -6.39136,1.9505 -4.5567,1.1356 -10.08161,2.0703 -16.3773,2.6919 -5.9491,0.5873 -12.59995,0.8788 -18.94719,1.4474 -3.07317,0.2753 -6.09355,0.6208 -8.89086,1.1133 -2.75405,0.4849 -5.34243,1.1207 -7.59234,1.9988 -2.23736,0.8733 -4.13543,1.9835 -5.75799,3.3141 -1.60964,1.32 -2.92369,2.8368 -4.0232,4.5109 -1.09091,1.6609 -1.96225,3.4642 -2.70182,5.3577 -0.73664,1.8861 -1.3459,3.87 -1.91138,5.8968 -1.13393,4.0642 -2.11275,8.3596 -3.37176,12.5515 -1.28066,4.264 -2.82266,8.3421 -5.03549,12.0723 -2.25371,3.7991 -5.27188,7.357 -8.41399,10.9049 -3.28045,3.7041 -6.61767,7.3145 -9.47623,11.2488 -3.00246,4.1323 -5.32216,8.4102 -6.95771,12.5441 -1.77529,4.4872 -2.75006,8.8111 -2.97533,12.7562 -0.25271,4.4259 0.44123,8.3329 1.32521,11.5941 1.03142,3.8052 2.59871,7.6059 3.61732,10.0796 0,0 3.23613,-1.3325 3.23613,-1.3325 z"
         id="path65" />
    </g>
  </g>
</svg>
