<?xml version="1.0" encoding="UTF-8" standalone="no"?>
<!-- Created with Inkscape (http://www.inkscape.org/) -->

<svg
   width="174.88187mm"
   height="75.862251mm"
   viewBox="0 0 174.88187 75.862251"
   version="1.1"
   id="svg1"
   inkscape:export-filename="Amphitrichous_Bacillus.svg"
   inkscape:export-xdpi="96"
   inkscape:export-ydpi="96"
   xmlns:inkscape="http://www.inkscape.org/namespaces/inkscape"
   xmlns:sodipodi="http://sodipodi.sourceforge.net/DTD/sodipodi-0.dtd"
   xmlns="http://www.w3.org/2000/svg"
   xmlns:svg="http://www.w3.org/2000/svg">
  <sodipodi:namedview
     id="namedview1"
     pagecolor="#ffffff"
     bordercolor="#000000"
     borderopacity="0.25"
     inkscape:showpageshadow="2"
     inkscape:pageopacity="0.0"
     inkscape:pagecheckerboard="0"
     inkscape:deskcolor="#d1d1d1"
     inkscape:document-units="mm">
    <inkscape:page
       x="0"
       y="0"
       width="174.88187"
       height="75.862251"
       id="page2"
       margin="0"
       bleed="0" />
  </sodipodi:namedview>
  <defs
     id="defs1">
    <inkscape:path-effect
       effect="bspline"
       id="path-effect26-2-8-3-3-6"
       is_visible="true"
       lpeversion="1.3"
       weight="33.333333"
       steps="2"
       helper_size="0"
       apply_no_weight="true"
       apply_with_weight="true"
       only_selected="false"
       uniform="false" />
    <inkscape:path-effect
       effect="powerstroke"
       message=""
       id="path-effect27-4-2-7-7-0"
       is_visible="true"
       lpeversion="1.3"
       scale_width="1"
       interpolator_type="CubicBezierJohan"
       interpolator_beta="0.2"
       start_linecap_type="zerowidth"
       end_linecap_type="zerowidth"
       offset_points="0,0.5"
       linejoin_type="extrp_arc"
       miter_limit="4"
       not_jump="false"
       sort_points="true" />
    <inkscape:path-effect
       effect="bspline"
       id="path-effect26-2-8-3-3-6-6"
       is_visible="true"
       lpeversion="1.3"
       weight="33.333333"
       steps="2"
       helper_size="0"
       apply_no_weight="true"
       apply_with_weight="true"
       only_selected="false"
       uniform="false" />
    <inkscape:path-effect
       effect="powerstroke"
       message=""
       id="path-effect27-4-2-7-7-0-7"
       is_visible="true"
       lpeversion="1.3"
       scale_width="1"
       interpolator_type="CubicBezierJohan"
       interpolator_beta="0.2"
       start_linecap_type="zerowidth"
       end_linecap_type="zerowidth"
       offset_points="0,0.5"
       linejoin_type="extrp_arc"
       miter_limit="4"
       not_jump="false"
       sort_points="true" />
    <inkscape:path-effect
       effect="bspline"
       id="path-effect26-2-8-3-3-6-6-1"
       is_visible="true"
       lpeversion="1.3"
       weight="33.333333"
       steps="2"
       helper_size="0"
       apply_no_weight="true"
       apply_with_weight="true"
       only_selected="false"
       uniform="false" />
    <inkscape:path-effect
       effect="powerstroke"
       message=""
       id="path-effect27-4-2-7-7-0-7-6"
       is_visible="true"
       lpeversion="1.3"
       scale_width="1"
       interpolator_type="CubicBezierJohan"
       interpolator_beta="0.2"
       start_linecap_type="zerowidth"
       end_linecap_type="zerowidth"
       offset_points="0,0.5"
       linejoin_type="extrp_arc"
       miter_limit="4"
       not_jump="false"
       sort_points="true" />
  </defs>
  <g
     inkscape:label="Layer 1"
     inkscape:groupmode="layer"
     id="layer1"
     transform="translate(-46.566664,-147.6375)">
    <g
       id="g127-9-2-3-3-4"
       transform="matrix(-1.5506466,0.1356639,-0.13577081,-1.5518671,363.97883,401.97318)"
       style="display:inline;fill:#011670;fill-opacity:1;stroke:#ffffff;stroke-width:1.22862;stroke-dasharray:none;stroke-opacity:1"
       inkscape:label="Lophotrichous Bacillus">
      <path
         style="display:inline;fill:#24365b;fill-opacity:1;fill-rule:nonzero;stroke:none;stroke-width:0.436282;stroke-linecap:round;stroke-dasharray:none"
         d="m 148.13914,88.487093 c 0,0 -0.31097,0.391535 -0.31097,0.391535 0.70526,0.560132 1.89127,1.50046 2.95374,2.201867 0.45967,0.303461 0.94774,0.598367 1.43887,0.841926 0.45302,0.224664 0.92349,0.413176 1.39207,0.523555 0.44582,0.105018 0.88259,0.137496 1.31307,0.09993 0.41163,-0.03592 0.80752,-0.134955 1.1928,-0.285964 0.73772,-0.289143 1.41872,-0.761449 2.0955,-1.315543 0.65643,-0.537431 1.30543,-1.14853 1.93278,-1.635568 0.31347,-0.243359 0.61834,-0.453497 0.91585,-0.611204 0.29938,-0.158692 0.58593,-0.261393 0.86215,-0.294094 0.28026,-0.03318 0.56309,0.0046 0.85112,0.08613 0.29417,0.08324 0.58853,0.210601 0.8804,0.34653 0.30617,0.142585 0.59317,0.286389 0.88957,0.409036 0.30607,0.126649 0.60102,0.221212 0.89295,0.255283 0.30718,0.03585 0.60206,0.0033 0.87995,-0.06758 0.30069,-0.07673 0.58962,-0.200629 0.85804,-0.340498 0.60641,-0.31599 1.30314,-0.832381 1.70089,-1.114873 -0.41207,0.292667 -1.09191,0.774812 -1.72265,1.070926 -0.27242,0.127897 -0.56114,0.235205 -0.85684,0.29391 -0.27313,0.05422 -0.55408,0.06746 -0.83868,0.01665 -0.27003,-0.04821 -0.54379,-0.153799 -0.83289,-0.293967 -0.28286,-0.137141 -0.55203,-0.292465 -0.85585,-0.456628 -0.28425,-0.153587 -0.58738,-0.308164 -0.89918,-0.418383 -0.30633,-0.108282 -0.6333,-0.178459 -0.97726,-0.160876 -0.3399,0.01738 -0.68261,0.119321 -1.02463,0.275693 -0.33933,0.155145 -0.67991,0.364756 -1.01904,0.601062 -0.68135,0.47477 -1.36322,1.059445 -2.02053,1.545973 -0.68586,0.507658 -1.32077,0.893176 -1.96673,1.107964 -0.33254,0.110573 -0.66035,0.172984 -0.98966,0.185147 -0.34352,0.01269 -0.69099,-0.02916 -1.04906,-0.12941 -0.38135,-0.106761 -0.78156,-0.281464 -1.18897,-0.499766 -0.44026,-0.235907 -0.88756,-0.522057 -1.32116,-0.822983 -0.98155,-0.681205 -2.17303,-1.647978 -2.86468,-2.197304 0,0 -0.31097,0.391535 -0.31097,0.391535 z"
         id="path25-6-7-7-8-7"
         inkscape:path-effect="#path-effect26-2-8-3-3-6;#path-effect27-4-2-7-7-0"
         inkscape:original-d="m 148.13914,88.487093 c 1.96601,1.561454 3.93197,3.122873 5.89802,4.684361 1.3295,-0.719832 2.65894,-1.439633 3.9884,-2.159448 1.32293,-1.347514 2.6458,-2.694973 3.9687,-4.042463 1.15395,1.146141 2.30785,2.292236 3.46177,3.43835 1.14065,-0.810128 2.28126,-1.620224 3.42189,-2.430339"
         transform="matrix(2.7744248,0.48882117,0.48920603,-2.7722428,-320.51953,317.10374)"
         sodipodi:nodetypes="cccccc" />
      <path
         style="display:inline;fill:#24365b;fill-opacity:1;fill-rule:nonzero;stroke:none;stroke-width:0.436282;stroke-linecap:round;stroke-dasharray:none;stroke-opacity:1"
         d="m 148.13914,88.487093 c 0,0 -0.31097,0.391535 -0.31097,0.391535 0.70526,0.560132 1.89127,1.50046 2.95374,2.201867 0.45967,0.303461 0.94774,0.598367 1.43887,0.841926 0.45302,0.224664 0.92349,0.413176 1.39207,0.523555 0.44582,0.105018 0.88259,0.137496 1.31307,0.09993 0.41163,-0.03592 0.80752,-0.134955 1.1928,-0.285964 0.73772,-0.289143 1.41872,-0.761449 2.0955,-1.315543 0.65643,-0.537431 1.30543,-1.14853 1.93278,-1.635568 0.31347,-0.243359 0.61834,-0.453497 0.91585,-0.611204 0.29938,-0.158692 0.58593,-0.261393 0.86215,-0.294094 0.28026,-0.03318 0.56309,0.0046 0.85112,0.08613 0.29417,0.08324 0.58853,0.210601 0.8804,0.34653 0.30617,0.142585 0.59317,0.286389 0.88957,0.409036 0.30607,0.126649 0.60102,0.221212 0.89295,0.255283 0.30718,0.03585 0.60206,0.0033 0.87995,-0.06758 0.30069,-0.07673 0.58962,-0.200629 0.85804,-0.340498 0.60641,-0.31599 1.30314,-0.832381 1.70089,-1.114873 -0.41207,0.292667 -1.09191,0.774812 -1.72265,1.070926 -0.27242,0.127897 -0.56114,0.235205 -0.85684,0.29391 -0.27313,0.05422 -0.55408,0.06746 -0.83868,0.01665 -0.27003,-0.04821 -0.54379,-0.153799 -0.83289,-0.293967 -0.28286,-0.137141 -0.55203,-0.292465 -0.85585,-0.456628 -0.28425,-0.153587 -0.58738,-0.308164 -0.89918,-0.418383 -0.30633,-0.108282 -0.6333,-0.178459 -0.97726,-0.160876 -0.3399,0.01738 -0.68261,0.119321 -1.02463,0.275693 -0.33933,0.155145 -0.67991,0.364756 -1.01904,0.601062 -0.68135,0.47477 -1.36322,1.059445 -2.02053,1.545973 -0.68586,0.507658 -1.32077,0.893176 -1.96673,1.107964 -0.33254,0.110573 -0.66035,0.172984 -0.98966,0.185147 -0.34352,0.01269 -0.69099,-0.02916 -1.04906,-0.12941 -0.38135,-0.106761 -0.78156,-0.281464 -1.18897,-0.499766 -0.44026,-0.235907 -0.88756,-0.522057 -1.32116,-0.822983 -0.98155,-0.681205 -2.17303,-1.647978 -2.86468,-2.197304 0,0 -0.31097,0.391535 -0.31097,0.391535 z"
         id="path25-6-7-7-8-7-1"
         inkscape:path-effect="#path-effect26-2-8-3-3-6-6;#path-effect27-4-2-7-7-0-7"
         inkscape:original-d="m 148.13914,88.487093 c 1.96601,1.561454 3.93197,3.122873 5.89802,4.684361 1.3295,-0.719832 2.65894,-1.439633 3.9884,-2.159448 1.32293,-1.347514 2.6458,-2.694973 3.9687,-4.042463 1.15395,1.146141 2.30785,2.292236 3.46177,3.43835 1.14065,-0.810128 2.28126,-1.620224 3.42189,-2.430339"
         transform="matrix(2.8172248,-3.2090362e-7,-3.0473934e-8,2.8150091,-283.57146,-104.88234)"
         sodipodi:nodetypes="cccccc" />
      <path
         style="display:inline;fill:#24365b;fill-opacity:1;fill-rule:nonzero;stroke:none;stroke-width:0.436282;stroke-linecap:round;stroke-dasharray:none;stroke-opacity:1"
         d="m 148.89752,86.824869 c 0,0 -0.47457,0.157412 -0.47457,0.157412 0.23568,0.710563 0.64073,1.938378 1.12836,2.929455 0.21216,0.431201 0.46355,0.871612 0.76636,1.276007 0.28004,0.373979 0.61088,0.72648 1.00791,1.017311 0.37565,0.275168 0.80033,0.487456 1.26434,0.638764 0.44354,0.144632 0.91957,0.23242 1.41722,0.2675 0.95333,0.0672 1.98064,-0.05976 2.98356,-0.343322 0.97191,-0.274792 1.89822,-0.691067 2.73251,-1.034089 0.4171,-0.171493 0.80674,-0.322917 1.17007,-0.432253 0.36594,-0.11012 0.69596,-0.174634 0.99218,-0.176438 0.29865,-0.0018 0.57225,0.06051 0.82577,0.164674 0.25977,0.106732 0.49799,0.257254 0.71748,0.426336 0.22585,0.173981 0.43235,0.36808 0.6192,0.55181 0.20082,0.19747 0.3673,0.370833 0.53423,0.524242 0.35512,0.326359 0.64171,0.49218 0.87222,0.592557 0.26833,0.116847 0.55496,0.176421 0.70543,0.21523 -0.16476,-0.0425 -0.41988,-0.112792 -0.68375,-0.259211 -0.21554,-0.119605 -0.4744,-0.307135 -0.79314,-0.650022 -0.14566,-0.156696 -0.30738,-0.350329 -0.49174,-0.558655 -0.17493,-0.197677 -0.37525,-0.413605 -0.59995,-0.612346 -0.21825,-0.193043 -0.46684,-0.376607 -0.74995,-0.51632 -0.27769,-0.137039 -0.59193,-0.233297 -0.94509,-0.253729 -0.34771,-0.02012 -0.72301,0.03335 -1.11745,0.129562 -0.39173,0.09555 -0.80618,0.234263 -1.23486,0.387837 -0.87674,0.314086 -1.77121,0.672701 -2.7109,0.896656 -0.95715,0.228115 -1.90718,0.301811 -2.75859,0.205427 -0.44297,-0.05015 -0.85195,-0.145378 -1.22067,-0.283428 -0.3851,-0.144181 -0.72169,-0.333278 -1.00907,-0.562737 -0.30401,-0.242735 -0.56413,-0.539275 -0.79207,-0.867216 -0.24708,-0.355483 -0.45802,-0.750501 -0.6426,-1.152861 -0.42131,-0.918427 -0.80089,-2.121133 -1.03787,-2.835565 0,0 -0.47457,0.157412 -0.47457,0.157412 z"
         id="path25-6-7-7-8-7-1-5"
         inkscape:path-effect="#path-effect26-2-8-3-3-6-6-1;#path-effect27-4-2-7-7-0-7-6"
         inkscape:original-d="m 148.89752,86.824869 c 0.66416,2.002336 1.3283,4.00462 1.99247,6.007004 2.0544,0.06679 4.10866,0.133576 6.16306,0.200366 1.77196,-1.065856 3.54381,-2.131642 5.31577,-3.197499 0.81596,1.13966 1.63186,2.279249 2.44781,3.418904 0.44773,0.115476 0.89544,0.230947 1.34316,0.346421"
         transform="matrix(2.7744248,0.48882117,0.48920603,-2.7722428,-322.84241,310.96565)"
         sodipodi:nodetypes="cccccc" />
      <rect
         style="display:inline;fill:#38b26b;fill-opacity:1;fill-rule:nonzero;stroke:#24365b;stroke-width:1.22862;stroke-linecap:round;stroke-linejoin:round;stroke-miterlimit:4;stroke-dasharray:none;stroke-opacity:1;paint-order:normal"
         id="rect127-1-0-1-3-3"
         width="58.246716"
         height="17.510948"
         x="17.842239"
         y="173.30988"
         ry="8.3892403"
         transform="rotate(-20,-2.3432963e-5,-6.280561e-6)" />
    </g>
  </g>
</svg>
