<?xml version="1.0" encoding="UTF-8" standalone="no"?>
<!-- Created with Inkscape (http://www.inkscape.org/) -->

<svg
   width="239.8649mm"
   height="167.07391mm"
   viewBox="0 0 239.8649 167.07391"
   version="1.1"
   id="svg1"
   xmlns="http://www.w3.org/2000/svg"
   xmlns:svg="http://www.w3.org/2000/svg">
  <defs
     id="defs1" />
  <g
     id="layer1"
     transform="translate(-22.75398,-39.952068)">
    <g
       id="g1"
       style="display:inline;stroke-width:4;stroke-dasharray:none"
       transform="translate(-90.45989,102.12994)">
      <g
         id="g136"
         transform="matrix(6.4971822,0,0,6.5473638,-670.8332,-891.50749)"
         style="display:inline;fill:#38b26b;fill-opacity:1;stroke:#24365b;stroke-width:0.613288;stroke-dasharray:none;stroke-opacity:1">
        <path
           style="fill:#38b26b;fill-opacity:1;fill-rule:nonzero;stroke:#24365b;stroke-width:0.613288;stroke-linecap:round;stroke-linejoin:round;stroke-miterlimit:4;stroke-dasharray:none;stroke-opacity:1;paint-order:normal"
           id="path136-0"
           d="m 144.84572,140.25209 a 7.3165617,7.1004601 0 0 1 -0.60978,9.75825 7.3165617,7.1004601 0 0 1 -10.07336,-0.082 7.3165617,7.1004601 0 0 1 -0.44107,-9.7668"
           transform="matrix(0,1,1,0,0,0)" />
        <path
           style="fill:#38b26b;fill-opacity:1;fill-rule:nonzero;stroke:#24365b;stroke-width:0.613288;stroke-linecap:round;stroke-linejoin:round;stroke-miterlimit:4;stroke-dasharray:none;stroke-opacity:1;paint-order:normal"
           id="path136-0-5"
           d="m 144.87799,-140.25769 a 7.3165617,7.1004601 0 0 1 -0.57584,9.72731 7.3165617,7.1004601 0 0 1 -10.03988,0.0113 7.3165617,7.1004601 0 0 1 -0.59911,-9.72599"
           transform="rotate(90)" />
        <path
           style="fill:#38b26b;fill-opacity:1;fill-rule:nonzero;stroke:#24365b;stroke-width:1.8369;stroke-linecap:round;stroke-linejoin:round;stroke-miterlimit:4;stroke-dasharray:none;stroke-opacity:1;paint-order:normal"
           d="m 25.368666,201.64167 33.410796,-0.19615"
           id="path136"
           transform="matrix(0,0.33387026,-0.33387026,0,207.49586,125.21381)" />
      </g>
      <path
         style="fill:#24365b;fill-opacity:1;fill-rule:nonzero;stroke:none;stroke-width:0.646022;stroke-dasharray:none;stroke-opacity:1"
         d="m 147.06677,144.20034 c 0,0 -0.0831,0.28825 -0.0831,0.28825 0.16534,0.0477 0.36854,0.10085 0.58047,0.16538 0.16686,0.0508 0.33976,0.10962 0.49218,0.18095 0.13566,0.0635 0.25238,0.13552 0.34062,0.22055 0.0413,0.0398 0.0768,0.0829 0.10568,0.13038 0.028,0.0461 0.0508,0.0984 0.066,0.15888 0.0151,0.0601 0.023,0.13118 0.0231,0.214 1.5e-4,0.0814 -0.007,0.17086 -0.0207,0.26801 -0.027,0.19353 -0.0765,0.40398 -0.1311,0.62645 -0.0541,0.22049 -0.11122,0.44523 -0.15003,0.66034 -0.0196,0.10885 -0.0346,0.21501 -0.0422,0.31704 -0.008,0.1036 -0.008,0.20277 0.002,0.29602 0.0209,0.19373 0.0854,0.35388 0.17301,0.4883 0.0937,0.14371 0.2154,0.26012 0.34193,0.35724 0.14223,0.10916 0.30091,0.20145 0.4444,0.2784 0.1848,0.0991 0.35601,0.18054 0.49273,0.25049 -0.12814,-0.0656 -0.31242,-0.16346 -0.48177,-0.26939 -0.13849,-0.0866 -0.28562,-0.18978 -0.41308,-0.30937 -0.11352,-0.10653 -0.21295,-0.22733 -0.28148,-0.36635 -0.0635,-0.12879 -0.10044,-0.27295 -0.0993,-0.43901 5.3e-4,-0.0806 0.01,-0.16762 0.0267,-0.2608 0.0165,-0.0918 0.04,-0.18843 0.0685,-0.28943 0.0567,-0.20115 0.13095,-0.41107 0.2061,-0.62863 0.0741,-0.21451 0.14824,-0.43404 0.19902,-0.64229 0.0258,-0.10585 0.0461,-0.21091 0.0574,-0.31318 0.0114,-0.10374 0.0138,-0.20711 0.002,-0.30743 -0.0121,-0.10328 -0.0385,-0.19959 -0.0772,-0.28919 -0.0398,-0.092 -0.0915,-0.17484 -0.15131,-0.24942 -0.1259,-0.15707 -0.28775,-0.27807 -0.44967,-0.37325 -0.18237,-0.10721 -0.3818,-0.19128 -0.55816,-0.25682 -0.21677,-0.0805 -0.44653,-0.15012 -0.59992,-0.19437 z"
         id="path46-3"
         transform="matrix(6.1917365,0,0,6.1917365,-608.60744,-839.22452)" />
      <path
         style="display:inline;fill:#24365b;fill-opacity:1;fill-rule:nonzero;stroke:none;stroke-width:0.646022;stroke-dasharray:none;stroke-opacity:1"
         d="m 147.06677,144.20034 c 0,0 -0.0831,0.28825 -0.0831,0.28825 0.16534,0.0477 0.36854,0.10085 0.58047,0.16538 0.16686,0.0508 0.33976,0.10962 0.49218,0.18095 0.13566,0.0635 0.25238,0.13552 0.34062,0.22055 0.0413,0.0398 0.0768,0.0829 0.10568,0.13038 0.028,0.0461 0.0508,0.0984 0.066,0.15888 0.0151,0.0601 0.023,0.13118 0.0231,0.214 1.5e-4,0.0814 -0.007,0.17086 -0.0207,0.26801 -0.027,0.19353 -0.0765,0.40398 -0.1311,0.62645 -0.0541,0.22049 -0.11122,0.44523 -0.15003,0.66034 -0.0196,0.10885 -0.0346,0.21501 -0.0422,0.31704 -0.008,0.1036 -0.008,0.20277 0.002,0.29602 0.0209,0.19373 0.0854,0.35388 0.17301,0.4883 0.0937,0.14371 0.2154,0.26012 0.34193,0.35724 0.14223,0.10916 0.30091,0.20145 0.4444,0.2784 0.1848,0.0991 0.35601,0.18054 0.49273,0.25049 -0.12814,-0.0656 -0.31242,-0.16346 -0.48177,-0.26939 -0.13849,-0.0866 -0.28562,-0.18978 -0.41308,-0.30937 -0.11352,-0.10653 -0.21295,-0.22733 -0.28148,-0.36635 -0.0635,-0.12879 -0.10044,-0.27295 -0.0993,-0.43901 5.3e-4,-0.0806 0.01,-0.16762 0.0267,-0.2608 0.0165,-0.0918 0.04,-0.18843 0.0685,-0.28943 0.0567,-0.20115 0.13095,-0.41107 0.2061,-0.62863 0.0741,-0.21451 0.14824,-0.43404 0.19902,-0.64229 0.0258,-0.10585 0.0461,-0.21091 0.0574,-0.31318 0.0114,-0.10374 0.0138,-0.20711 0.002,-0.30743 -0.0121,-0.10328 -0.0385,-0.19959 -0.0772,-0.28919 -0.0398,-0.092 -0.0915,-0.17484 -0.15131,-0.24942 -0.1259,-0.15707 -0.28775,-0.27807 -0.44967,-0.37325 -0.18237,-0.10721 -0.3818,-0.19128 -0.55816,-0.25682 -0.21677,-0.0805 -0.44653,-0.15012 -0.59992,-0.19437 z"
         id="path46-4"
         transform="matrix(6.1917365,0,0,-6.1917365,-615.46649,872.86568)" />
      <path
         style="display:inline;fill:#24365b;fill-opacity:1;fill-rule:nonzero;stroke:none;stroke-width:0.646022;stroke-dasharray:none;stroke-opacity:1"
         d="m 147.06677,144.20034 c 0,0 -0.0831,0.28825 -0.0831,0.28825 0.16534,0.0477 0.36854,0.10085 0.58047,0.16538 0.16686,0.0508 0.33976,0.10962 0.49218,0.18095 0.13566,0.0635 0.25238,0.13552 0.34062,0.22055 0.0413,0.0398 0.0768,0.0829 0.10568,0.13038 0.028,0.0461 0.0508,0.0984 0.066,0.15888 0.0151,0.0601 0.023,0.13118 0.0231,0.214 1.5e-4,0.0814 -0.007,0.17086 -0.0207,0.26801 -0.027,0.19353 -0.0765,0.40398 -0.1311,0.62645 -0.0541,0.22049 -0.11122,0.44523 -0.15003,0.66034 -0.0196,0.10885 -0.0346,0.21501 -0.0422,0.31704 -0.008,0.1036 -0.008,0.20277 0.002,0.29602 0.0209,0.19373 0.0854,0.35388 0.17301,0.4883 0.0937,0.14371 0.2154,0.26012 0.34193,0.35724 0.14223,0.10916 0.30091,0.20145 0.4444,0.2784 0.1848,0.0991 0.35601,0.18054 0.49273,0.25049 -0.12814,-0.0656 -0.31242,-0.16346 -0.48177,-0.26939 -0.13849,-0.0866 -0.28562,-0.18978 -0.41308,-0.30937 -0.11352,-0.10653 -0.21295,-0.22733 -0.28148,-0.36635 -0.0635,-0.12879 -0.10044,-0.27295 -0.0993,-0.43901 5.3e-4,-0.0806 0.01,-0.16762 0.0267,-0.2608 0.0165,-0.0918 0.04,-0.18843 0.0685,-0.28943 0.0567,-0.20115 0.13095,-0.41107 0.2061,-0.62863 0.0741,-0.21451 0.14824,-0.43404 0.19902,-0.64229 0.0258,-0.10585 0.0461,-0.21091 0.0574,-0.31318 0.0114,-0.10374 0.0138,-0.20711 0.002,-0.30743 -0.0121,-0.10328 -0.0385,-0.19959 -0.0772,-0.28919 -0.0398,-0.092 -0.0915,-0.17484 -0.15131,-0.24942 -0.1259,-0.15707 -0.28775,-0.27807 -0.44967,-0.37325 -0.18237,-0.10721 -0.3818,-0.19128 -0.55816,-0.25682 -0.21677,-0.0805 -0.44653,-0.15012 -0.59992,-0.19437 z"
         id="path46-2"
         transform="matrix(-6.1917365,0,0,6.1917365,1082.1013,-846.9566)" />
      <path
         style="fill:#24365b;fill-opacity:1;fill-rule:nonzero;stroke:none;stroke-width:0.646022;stroke-dasharray:none;stroke-opacity:1"
         d="m 124.94722,139.56035 c 0,0 -0.0424,-0.29698 -0.0424,-0.29698 -0.18911,0.027 -0.47464,0.0708 -0.75029,0.13039 -0.226,0.0489 -0.48411,0.11606 -0.74001,0.21552 -0.22805,0.0886 -0.46357,0.20622 -0.68661,0.36944 -0.20805,0.15226 -0.404,0.34323 -0.5757,0.58726 -0.16335,0.23217 -0.29936,0.50543 -0.42562,0.78722 -0.12408,0.27692 -0.23973,0.56417 -0.36166,0.83005 -0.12264,0.26744 -0.24936,0.50836 -0.39579,0.70095 -0.0737,0.097 -0.15152,0.18041 -0.23509,0.24836 -0.0847,0.0689 -0.17561,0.12203 -0.27484,0.15726 -0.10169,0.0361 -0.21427,0.054 -0.33664,0.0554 -0.12586,0.001 -0.26048,-0.0146 -0.40163,-0.045 -0.29958,-0.0646 -0.62423,-0.19324 -0.94775,-0.34997 -0.36325,-0.17598 -0.73594,-0.39292 -1.07072,-0.59954 -0.40871,-0.25225 -0.83494,-0.53579 -1.12427,-0.73077 0.24514,0.1652 0.75525,0.51479 1.11254,0.7492 0.32831,0.2154 0.69559,0.44682 1.05267,0.63932 0.31742,0.17112 0.64252,0.32031 0.94887,0.4067 0.14489,0.0409 0.28789,0.0684 0.4262,0.0771 0.13453,0.009 0.26622,-5.4e-4 0.39196,-0.0334 0.1236,-0.0323 0.23866,-0.0867 0.34647,-0.15981 0.10598,-0.0719 0.20374,-0.16106 0.29515,-0.26308 0.18041,-0.20135 0.33571,-0.45238 0.48093,-0.71804 0.14523,-0.26572 0.28074,-0.54621 0.41903,-0.80554 0.14298,-0.26813 0.28327,-0.5033 0.43781,-0.69107 0.15808,-0.19206 0.33102,-0.33461 0.50857,-0.44424 0.19119,-0.11805 0.39329,-0.20121 0.59382,-0.26362 0.22584,-0.0703 0.45844,-0.1167 0.67117,-0.15193 0.23341,-0.0386 0.56072,-0.0806 0.72629,-0.10424 z"
         id="path55"
         transform="matrix(6.1917365,0,0,6.1917365,-608.60744,-839.22452)" />
      <path
         style="fill:#24365b;fill-opacity:1;fill-rule:nonzero;stroke:none;stroke-width:0.646022;stroke-dasharray:none;stroke-opacity:1"
         d="m 128.05291,145.24868 c 0,0 -0.22746,-0.19561 -0.22746,-0.19561 -0.0902,0.10491 -0.22157,0.26271 -0.34222,0.42667 -0.098,0.13315 -0.20493,0.2916 -0.29375,0.46263 -0.0791,0.15221 -0.14846,0.3231 -0.18519,0.50754 -0.0344,0.17284 -0.04,0.35651 4.3e-4,0.54782 0.0382,0.18081 0.11579,0.35795 0.20892,0.52708 0.0915,0.16619 0.20126,0.33035 0.30972,0.48664 0.1107,0.15953 0.21568,0.30482 0.30897,0.44748 0.0942,0.14409 0.16792,0.27291 0.21206,0.38877 0.0453,0.11903 0.0597,0.2265 0.0527,0.32627 -0.008,0.10794 -0.0403,0.20796 -0.0872,0.30094 -0.0527,0.10443 -0.12345,0.20016 -0.19365,0.28302 -0.0861,0.10161 -0.18381,0.19803 -0.25374,0.26373 0.0742,-0.0697 0.16918,-0.15181 0.26967,-0.24879 0.0778,-0.0751 0.16324,-0.16415 0.23372,-0.26421 0.0628,-0.0892 0.11847,-0.1934 0.14812,-0.31577 0.0278,-0.11459 0.0328,-0.24529 -6e-5,-0.39466 -0.0313,-0.14248 -0.0955,-0.29607 -0.17512,-0.45695 -0.078,-0.15753 -0.17074,-0.32213 -0.26005,-0.48712 -0.0901,-0.16647 -0.17414,-0.32877 -0.23888,-0.48678 -0.0664,-0.16198 -0.10702,-0.30673 -0.11698,-0.43512 -0.0101,-0.13001 0.01,-0.25049 0.0481,-0.36398 0.0413,-0.12314 0.10535,-0.24271 0.18122,-0.35827 0.0854,-0.13011 0.18706,-0.25685 0.28515,-0.37254 0.12501,-0.14744 0.24626,-0.28076 0.34294,-0.39318 0,0 -0.22746,-0.19561 -0.22746,-0.19561 z"
         id="path56"
         transform="matrix(6.1917365,0,0,6.1917365,-608.60744,-839.22452)" />
      <path
         style="fill:#24365b;fill-opacity:1;fill-rule:nonzero;stroke:none;stroke-width:0.646022;stroke-dasharray:none;stroke-opacity:1"
         d="m 135.4739,145.93521 c 0,0 -0.18418,0.23681 -0.18418,0.23681 0.12141,0.0944 0.27189,0.20482 0.42542,0.3287 0.1208,0.0975 0.24397,0.2046 0.34721,0.31905 0.0913,0.10126 0.16792,0.20898 0.21795,0.32609 0.046,0.10763 0.0731,0.23114 0.0628,0.37834 -0.005,0.0725 -0.0196,0.15302 -0.0434,0.24158 -0.0234,0.0871 -0.055,0.17934 -0.0933,0.2763 -0.0762,0.19271 -0.17509,0.39409 -0.2793,0.59932 -0.10353,0.20389 -0.20928,0.4057 -0.29589,0.59512 -0.0438,0.0958 -0.0827,0.18831 -0.11398,0.27645 -0.0318,0.0894 -0.0558,0.17459 -0.0694,0.2543 -0.0139,0.0816 -0.0164,0.15629 -0.009,0.22465 0.007,0.0704 0.0243,0.13319 0.0488,0.18944 0.0253,0.0582 0.0583,0.10896 0.0958,0.15369 0.0391,0.0467 0.0836,0.0874 0.13017,0.12316 0.10141,0.078 0.22119,0.13918 0.32988,0.18861 0.14053,0.0639 0.27329,0.11446 0.37896,0.15943 -0.099,-0.0421 -0.24156,-0.10631 -0.36903,-0.17889 -0.1044,-0.0594 -0.21176,-0.1315 -0.29653,-0.21816 -0.0385,-0.0393 -0.0723,-0.0816 -0.0995,-0.12728 -0.0259,-0.0435 -0.0456,-0.0898 -0.0579,-0.13953 -0.0118,-0.0478 -0.0168,-0.0992 -0.0137,-0.15512 0.003,-0.0544 0.0139,-0.11397 0.0345,-0.17981 0.0203,-0.0648 0.05,-0.13638 0.0883,-0.21478 0.0377,-0.0771 0.0829,-0.15947 0.13404,-0.24679 0.10219,-0.17458 0.2215,-0.35864 0.34584,-0.55656 0.12249,-0.19498 0.24622,-0.39781 0.34813,-0.59732 0.0517,-0.10119 0.0984,-0.20266 0.1368,-0.30313 0.039,-0.1019 0.0702,-0.20444 0.0893,-0.30618 0.0402,-0.21344 0.0258,-0.41051 -0.0261,-0.59169 -0.0552,-0.19288 -0.15102,-0.36153 -0.25709,-0.50602 -0.11893,-0.162 -0.25914,-0.30457 -0.38529,-0.4211 -0.15475,-0.14295 -0.32357,-0.2782 -0.4358,-0.36549 0,0 -0.18418,0.23681 -0.18418,0.23681 z"
         id="path58"
         transform="matrix(6.1917365,0,0,6.1917365,-608.60744,-839.22452)" />
      <path
         style="display:inline;fill:#24365b;fill-opacity:1;fill-rule:nonzero;stroke:none;stroke-width:0.646022;stroke-dasharray:none;stroke-opacity:1"
         d="m 135.4739,145.93521 c 0,0 -0.18418,0.23681 -0.18418,0.23681 0.12141,0.0944 0.27189,0.20482 0.42542,0.3287 0.1208,0.0975 0.24397,0.2046 0.34721,0.31905 0.0913,0.10126 0.16792,0.20898 0.21795,0.32609 0.046,0.10763 0.0731,0.23114 0.0628,0.37834 -0.005,0.0725 -0.0196,0.15302 -0.0434,0.24158 -0.0234,0.0871 -0.055,0.17934 -0.0933,0.2763 -0.0762,0.19271 -0.17509,0.39409 -0.2793,0.59932 -0.10353,0.20389 -0.20928,0.4057 -0.29589,0.59512 -0.0438,0.0958 -0.0827,0.18831 -0.11398,0.27645 -0.0318,0.0894 -0.0558,0.17459 -0.0694,0.2543 -0.0139,0.0816 -0.0164,0.15629 -0.009,0.22465 0.007,0.0704 0.0243,0.13319 0.0488,0.18944 0.0253,0.0582 0.0583,0.10896 0.0958,0.15369 0.0391,0.0467 0.0836,0.0874 0.13017,0.12316 0.10141,0.078 0.22119,0.13918 0.32988,0.18861 0.14053,0.0639 0.27329,0.11446 0.37896,0.15943 -0.099,-0.0421 -0.24156,-0.10631 -0.36903,-0.17889 -0.1044,-0.0594 -0.21176,-0.1315 -0.29653,-0.21816 -0.0385,-0.0393 -0.0723,-0.0816 -0.0995,-0.12728 -0.0259,-0.0435 -0.0456,-0.0898 -0.0579,-0.13953 -0.0118,-0.0478 -0.0168,-0.0992 -0.0137,-0.15512 0.003,-0.0544 0.0139,-0.11397 0.0345,-0.17981 0.0203,-0.0648 0.05,-0.13638 0.0883,-0.21478 0.0377,-0.0771 0.0829,-0.15947 0.13404,-0.24679 0.10219,-0.17458 0.2215,-0.35864 0.34584,-0.55656 0.12249,-0.19498 0.24622,-0.39781 0.34813,-0.59732 0.0517,-0.10119 0.0984,-0.20266 0.1368,-0.30313 0.039,-0.1019 0.0702,-0.20444 0.0893,-0.30618 0.0402,-0.21344 0.0258,-0.41051 -0.0261,-0.59169 -0.0552,-0.19288 -0.15102,-0.36153 -0.25709,-0.50602 -0.11893,-0.162 -0.25914,-0.30457 -0.38529,-0.4211 -0.15475,-0.14295 -0.32357,-0.2782 -0.4358,-0.36549 0,0 -0.18418,0.23681 -0.18418,0.23681 z"
         id="path58-8"
         transform="matrix(6.1917365,0,0,-6.1917365,-634.27904,876.93573)" />
      <path
         style="fill:#24365b;fill-opacity:1;fill-rule:nonzero;stroke:none;stroke-width:0.646022;stroke-dasharray:none;stroke-opacity:1"
         d="m 127.88946,132.59704 c 0,0 0.18958,-0.23251 0.18958,-0.23251 -0.14614,-0.11915 -0.32845,-0.2613 -0.51856,-0.41821 -0.14922,-0.12317 -0.30511,-0.25778 -0.43838,-0.3933 -0.11927,-0.12129 -0.21833,-0.24109 -0.28525,-0.35749 -0.0312,-0.0542 -0.0548,-0.10665 -0.0704,-0.15734 -0.0151,-0.049 -0.0233,-0.0975 -0.0232,-0.1463 9e-5,-0.0484 0.009,-0.10212 0.0275,-0.16198 0.0185,-0.059 0.0463,-0.12171 0.0831,-0.18821 0.0733,-0.13259 0.17599,-0.2693 0.29375,-0.41043 0.11644,-0.13955 0.24371,-0.27878 0.35942,-0.41318 0.11805,-0.13712 0.22395,-0.26916 0.29754,-0.39509 0.077,-0.13185 0.11566,-0.25245 0.12888,-0.36223 0.0142,-0.11757 -9.4e-4,-0.22165 -0.0276,-0.3124 -0.0298,-0.1015 -0.0766,-0.19384 -0.12088,-0.27165 -0.0572,-0.10066 -0.11428,-0.18647 -0.157,-0.25842 0.0403,0.0678 0.095,0.16656 0.1374,0.26805 0.0346,0.0829 0.0651,0.17662 0.0764,0.27524 0.0101,0.0876 0.005,0.17926 -0.0244,0.27537 -0.0275,0.089 -0.0768,0.18388 -0.15903,0.28683 -0.0802,0.10049 -0.19097,0.20854 -0.32223,0.32906 -0.1272,0.11681 -0.26972,0.24158 -0.40746,0.37329 -0.13678,0.1308 -0.27161,0.27123 -0.37914,0.41895 -0.0547,0.0752 -0.10373,0.15403 -0.14278,0.2365 -0.0397,0.0839 -0.0697,0.17272 -0.0845,0.26619 -0.0151,0.0959 -0.0136,0.19077 9.1e-4,0.28327 0.0148,0.0948 0.043,0.18619 0.0797,0.27312 0.0772,0.18283 0.19542,0.35379 0.32108,0.5056 0.14197,0.17153 0.30628,0.33373 0.45604,0.47184 0.18463,0.17027 0.3831,0.33638 0.51991,0.44794 z"
         id="path67"
         transform="matrix(6.1917365,0,0,6.1917365,-608.60744,-839.22452)" />
      <path
         style="fill:#24365b;fill-opacity:1;fill-rule:nonzero;stroke:none;stroke-width:0.646022;stroke-dasharray:none;stroke-opacity:1"
         d="m 149.30244,139.29882 c 0,0 -0.0122,0.29975 -0.0122,0.29975 0.24055,0.01 0.77228,0.014 1.14049,0.0603 0.16426,0.0207 0.32766,0.0513 0.48059,0.0993 0.14186,0.0445 0.27564,0.10416 0.39555,0.18607 0.11713,0.08 0.22592,0.18531 0.33805,0.31113 0.10827,0.12149 0.21475,0.25703 0.32636,0.38668 0.11145,0.12945 0.22889,0.25353 0.36099,0.3501 0.067,0.049 0.13755,0.0907 0.21271,0.12263 0.0764,0.0324 0.15627,0.0542 0.2404,0.0637 0.0854,0.01 0.17346,0.006 0.26223,-0.006 0.0913,-0.0128 0.18497,-0.0355 0.2792,-0.065 0.19914,-0.0625 0.40847,-0.15803 0.61147,-0.26368 0.44991,-0.23417 1.1038,-0.65657 1.37937,-0.82567 -0.31147,0.19113 -0.90806,0.54862 -1.40757,0.76668 -0.20871,0.0911 -0.41863,0.16695 -0.61343,0.20812 -0.0918,0.0194 -0.17944,0.0309 -0.26162,0.033 -0.08,0.002 -0.1534,-0.005 -0.21959,-0.0215 -0.0644,-0.0161 -0.12321,-0.0416 -0.17792,-0.0747 -0.0539,-0.0326 -0.10458,-0.0731 -0.15324,-0.12027 -0.0968,-0.094 -0.1842,-0.21309 -0.27412,-0.34884 -0.0893,-0.13479 -0.17898,-0.28312 -0.28013,-0.42874 -0.10284,-0.14805 -0.21889,-0.29498 -0.36039,-0.4195 -0.1483,-0.1305 -0.31475,-0.22866 -0.48644,-0.30398 -0.18404,-0.0807 -0.37645,-0.13621 -0.56078,-0.17619 -0.43832,-0.0951 -0.9519,-0.12275 -1.20786,-0.13313 z"
         id="path99"
         transform="matrix(6.1917365,0,0,6.1917365,-608.60744,-839.22452)" />
      <path
         style="display:inline;fill:#24365b;fill-opacity:1;fill-rule:nonzero;stroke:none;stroke-width:0.646022;stroke-dasharray:none;stroke-opacity:1"
         d="m 149.30244,139.29882 c 0,0 -0.0122,0.29975 -0.0122,0.29975 0.24055,0.01 0.77228,0.014 1.14049,0.0603 0.16426,0.0207 0.32766,0.0513 0.48059,0.0993 0.14186,0.0445 0.27564,0.10416 0.39555,0.18607 0.11713,0.08 0.22592,0.18531 0.33805,0.31113 0.10827,0.12149 0.21475,0.25703 0.32636,0.38668 0.11145,0.12945 0.22889,0.25353 0.36099,0.3501 0.067,0.049 0.13755,0.0907 0.21271,0.12263 0.0764,0.0324 0.15627,0.0542 0.2404,0.0637 0.0854,0.01 0.17346,0.006 0.26223,-0.006 0.0913,-0.0128 0.18497,-0.0355 0.2792,-0.065 0.19914,-0.0625 0.40847,-0.15803 0.61147,-0.26368 0.44991,-0.23417 1.1038,-0.65657 1.37937,-0.82567 -0.31147,0.19113 -0.90806,0.54862 -1.40757,0.76668 -0.20871,0.0911 -0.41863,0.16695 -0.61343,0.20812 -0.0918,0.0194 -0.17944,0.0309 -0.26162,0.033 -0.08,0.002 -0.1534,-0.005 -0.21959,-0.0215 -0.0644,-0.0161 -0.12321,-0.0416 -0.17792,-0.0747 -0.0539,-0.0326 -0.10458,-0.0731 -0.15324,-0.12027 -0.0968,-0.094 -0.1842,-0.21309 -0.27412,-0.34884 -0.0893,-0.13479 -0.17898,-0.28312 -0.28013,-0.42874 -0.10284,-0.14805 -0.21889,-0.29498 -0.36039,-0.4195 -0.1483,-0.1305 -0.31475,-0.22866 -0.48644,-0.30398 -0.18404,-0.0807 -0.37645,-0.13621 -0.56078,-0.17619 -0.43832,-0.0951 -0.9519,-0.12275 -1.20786,-0.13313 z"
         id="path99-4"
         transform="matrix(0,6.1917365,-6.1917365,0,1071.3312,-856.79018)" />
      <path
         style="fill:#24365b;fill-opacity:1;fill-rule:nonzero;stroke:none;stroke-width:0.646022;stroke-dasharray:none;stroke-opacity:1"
         d="m 146.81788,132.98934 c 0,0 0.2151,0.20912 0.2151,0.20912 0.0816,-0.084 0.17351,-0.18286 0.27443,-0.28336 0.0815,-0.0812 0.17059,-0.16451 0.26519,-0.2371 0.0839,-0.0644 0.1743,-0.12208 0.27311,-0.16514 0.0908,-0.0396 0.19323,-0.0688 0.31167,-0.0783 0.11536,-0.009 0.25104,4.8e-4 0.41194,0.026 0.15538,0.0247 0.32003,0.0616 0.50211,0.1033 0.17408,0.0399 0.36191,0.0836 0.54942,0.11722 0.18667,0.0335 0.37784,0.0579 0.5671,0.0603 0.18951,0.002 0.37395,-0.0176 0.54608,-0.0588 0.17413,-0.0417 0.33493,-0.10494 0.47563,-0.1883 0.14418,-0.0854 0.26577,-0.19104 0.35939,-0.31437 0.0973,-0.12818 0.16228,-0.27264 0.19374,-0.42965 0.0329,-0.16439 0.0289,-0.34175 0.005,-0.52003 -0.0264,-0.19316 -0.0777,-0.39465 -0.13786,-0.58949 -0.13493,-0.43681 -0.38072,-1.02225 -0.49627,-1.31287 0.12446,0.31304 0.33812,0.8603 0.45586,1.32423 0.05,0.19689 0.0882,0.3971 0.10068,0.58603 0.0116,0.17508 9.4e-4,0.33957 -0.042,0.48389 -0.0405,0.13617 -0.10963,0.25445 -0.20281,0.3541 -0.0898,0.096 -0.20207,0.17493 -0.3324,0.23543 -0.12742,0.0591 -0.27154,0.10041 -0.42662,0.12244 -0.15337,0.0218 -0.31622,0.0246 -0.48184,0.008 -0.16568,-0.0168 -0.33588,-0.0531 -0.50815,-0.0993 -0.17401,-0.0466 -0.34864,-0.1028 -0.52071,-0.15776 -0.17585,-0.0562 -0.34914,-0.11108 -0.51695,-0.15329 -0.1735,-0.0436 -0.3449,-0.0747 -0.51006,-0.0784 -0.17627,-0.004 -0.3361,0.0231 -0.48094,0.0692 -0.15592,0.0496 -0.29327,0.12085 -0.41222,0.19685 -0.13315,0.0851 -0.25112,0.18132 -0.34863,0.26791 -0.11672,0.10365 -0.22721,0.21456 -0.30364,0.29317 0,0 0.2151,0.20912 0.2151,0.20912 z"
         id="path107"
         transform="matrix(6.1917365,0,0,6.1917365,-598.48653,-825.86492)" />
      <path
         style="display:inline;fill:#24365b;fill-opacity:1;fill-rule:nonzero;stroke:none;stroke-width:0.646022;stroke-dasharray:none;stroke-opacity:1"
         d="m 146.81788,132.98934 c 0,0 0.2151,0.20912 0.2151,0.20912 0.0816,-0.084 0.17351,-0.18286 0.27443,-0.28336 0.0815,-0.0812 0.17059,-0.16451 0.26519,-0.2371 0.0839,-0.0644 0.1743,-0.12208 0.27311,-0.16514 0.0908,-0.0396 0.19323,-0.0688 0.31167,-0.0783 0.11536,-0.009 0.25104,4.8e-4 0.41194,0.026 0.15538,0.0247 0.32003,0.0616 0.50211,0.1033 0.17408,0.0399 0.36191,0.0836 0.54942,0.11722 0.18667,0.0335 0.37784,0.0579 0.5671,0.0603 0.18951,0.002 0.37395,-0.0176 0.54608,-0.0588 0.17413,-0.0417 0.33493,-0.10494 0.47563,-0.1883 0.14418,-0.0854 0.26577,-0.19104 0.35939,-0.31437 0.0973,-0.12818 0.16228,-0.27264 0.19374,-0.42965 0.0329,-0.16439 0.0289,-0.34175 0.005,-0.52003 -0.0264,-0.19316 -0.0777,-0.39465 -0.13786,-0.58949 -0.13493,-0.43681 -0.38072,-1.02225 -0.49627,-1.31287 0.12446,0.31304 0.33812,0.8603 0.45586,1.32423 0.05,0.19689 0.0882,0.3971 0.10068,0.58603 0.0116,0.17508 9.4e-4,0.33957 -0.042,0.48389 -0.0405,0.13617 -0.10963,0.25445 -0.20281,0.3541 -0.0898,0.096 -0.20207,0.17493 -0.3324,0.23543 -0.12742,0.0591 -0.27154,0.10041 -0.42662,0.12244 -0.15337,0.0218 -0.31622,0.0246 -0.48184,0.008 -0.16568,-0.0168 -0.33588,-0.0531 -0.50815,-0.0993 -0.17401,-0.0466 -0.34864,-0.1028 -0.52071,-0.15776 -0.17585,-0.0562 -0.34914,-0.11108 -0.51695,-0.15329 -0.1735,-0.0436 -0.3449,-0.0747 -0.51006,-0.0784 -0.17627,-0.004 -0.3361,0.0231 -0.48094,0.0692 -0.15592,0.0496 -0.29327,0.12085 -0.41222,0.19685 -0.13315,0.0851 -0.25112,0.18132 -0.34863,0.26791 -0.11672,0.10365 -0.22721,0.21456 -0.30364,0.29317 0,0 0.2151,0.20912 0.2151,0.20912 z"
         id="path107-7"
         transform="matrix(-6.1917365,0,0,6.1917365,1076.8434,-822.34923)" />
      <path
         style="fill:#24365b;fill-opacity:1;fill-rule:nonzero;stroke:none;stroke-width:0.646022;stroke-dasharray:none;stroke-opacity:1"
         d="m 141.97953,130.92977 c 0,0 0.23565,-0.18566 0.23565,-0.18566 -0.11691,-0.14839 -0.26416,-0.32669 -0.41178,-0.52009 -0.11625,-0.15231 -0.23259,-0.31511 -0.3217,-0.47355 -0.0796,-0.14154 -0.13476,-0.27462 -0.15579,-0.39649 -0.01,-0.0566 -0.0122,-0.11105 -0.006,-0.16364 0.006,-0.051 0.0199,-0.10335 0.0462,-0.15727 0.0263,-0.0538 0.0664,-0.11194 0.12237,-0.17446 0.055,-0.0614 0.12262,-0.12423 0.20202,-0.18888 0.15795,-0.12862 0.35118,-0.2556 0.56226,-0.38764 0.20977,-0.13121 0.42973,-0.26288 0.63584,-0.39968 0.21047,-0.13969 0.40288,-0.28238 0.55614,-0.43413 0.15968,-0.1581 0.27176,-0.32131 0.35159,-0.48286 0.0856,-0.17323 0.13486,-0.34619 0.16454,-0.50908 0.0333,-0.18283 0.0436,-0.36368 0.047,-0.5219 0.004,-0.20365 -0.001,-0.3834 -0.001,-0.52954 0,0.137 -0.003,0.3352 -0.0206,0.52833 -0.0142,0.15795 -0.0395,0.33363 -0.0889,0.50838 -0.044,0.15541 -0.10786,0.31345 -0.20426,0.46605 -0.0896,0.14176 -0.20764,0.27969 -0.36661,0.40953 -0.15356,0.12541 -0.34534,0.24372 -0.56081,0.36188 -0.21281,0.1167 -0.43525,0.22617 -0.66091,0.34217 -0.22164,0.11394 -0.44047,0.23127 -0.62824,0.35626 -0.0954,0.0635 -0.1848,0.13029 -0.26401,0.2014 -0.0803,0.0721 -0.15241,0.1507 -0.20983,0.2374 -0.0592,0.0894 -0.10058,0.18372 -0.12592,0.28143 -0.026,0.10023 -0.0344,0.20108 -0.03,0.30008 0.009,0.2079 0.0752,0.41063 0.15716,0.59175 0.0925,0.20456 0.21561,0.40293 0.33042,0.57191 0.14109,0.20766 0.30148,0.41629 0.40994,0.55396 0,0 0.23565,-0.18566 0.23565,-0.18566 z"
         id="path109"
         transform="matrix(6.1917365,0,0,6.1917365,-608.8937,-838.65197)" />
      <path
         style="fill:#24365b;fill-opacity:1;fill-rule:nonzero;stroke:none;stroke-width:0.646022;stroke-dasharray:none;stroke-opacity:1"
         d="m 134.59123,131.38745 c 0,0 0.0957,0.28431 0.0957,0.28431 0.20614,-0.0694 0.50697,-0.17417 0.79281,-0.28733 0.23241,-0.092 0.49073,-0.20334 0.72905,-0.33189 0.21121,-0.11392 0.4207,-0.24865 0.5925,-0.40861 0.0815,-0.0759 0.15611,-0.1589 0.21884,-0.24982 0.0611,-0.0886 0.11103,-0.1848 0.14476,-0.28886 0.033,-0.10188 0.0487,-0.20621 0.0514,-0.31083 0.003,-0.10281 -0.007,-0.20611 -0.0259,-0.30834 -0.0365,-0.20096 -0.10756,-0.40421 -0.18868,-0.59864 -0.0808,-0.19373 -0.17547,-0.38729 -0.25921,-0.56198 -0.0873,-0.18207 -0.16264,-0.3435 -0.21372,-0.48731 -0.0524,-0.14769 -0.0779,-0.27421 -0.0854,-0.38537 -0.008,-0.11965 0.005,-0.22358 0.0285,-0.31605 0.027,-0.10424 0.0691,-0.19601 0.11285,-0.27467 0.0536,-0.0964 0.11749,-0.1861 0.16413,-0.24758 -0.0495,0.0652 -0.11426,0.1419 -0.18254,0.23582 -0.0529,0.0727 -0.11072,0.16094 -0.15618,0.26491 -0.0406,0.0929 -0.0736,0.20309 -0.0852,0.33591 -0.0108,0.12375 -0.003,0.26701 0.0338,0.43516 0.0354,0.16133 0.0964,0.34019 0.16427,0.53056 0.0666,0.18676 0.13832,0.38013 0.19642,0.57232 0.0584,0.19321 0.10024,0.37623 0.11167,0.54385 0.006,0.0841 0.004,0.16147 -0.007,0.23215 -0.0105,0.0716 -0.0292,0.13488 -0.0556,0.19108 -0.0269,0.0571 -0.0636,0.11167 -0.10945,0.16429 -0.0474,0.0543 -0.10474,0.10682 -0.17124,0.15774 -0.14199,0.10872 -0.32064,0.20639 -0.51765,0.2958 -0.22043,0.10003 -0.46417,0.18974 -0.69167,0.2683 -0.29055,0.10035 -0.56286,0.18657 -0.78319,0.26077 z"
         id="path111"
         transform="matrix(6.1917365,0,0,6.1917365,-605.74479,-838.07943)" />
      <path
         style="fill:#24365b;fill-opacity:1;fill-rule:nonzero;stroke:none;stroke-width:0.646022;stroke-dasharray:none;stroke-opacity:1"
         d="m 142.3279,146.5351 c 0,0 -0.22053,0.20338 -0.22053,0.20338 0.21876,0.23721 0.59306,0.58946 0.90479,0.9728 0.12063,0.14833 0.22879,0.30002 0.3104,0.45255 0.0777,0.14521 0.13081,0.28974 0.1499,0.43591 0.0192,0.14697 0.004,0.30062 -0.0423,0.4616 -0.0481,0.16829 -0.12749,0.33682 -0.2236,0.50077 -0.23288,0.39732 -0.60357,0.82182 -0.78623,1.01836 0.13807,-0.14855 0.6315,-0.63292 0.88391,-0.95134 0.1207,-0.15225 0.23416,-0.31756 0.31892,-0.49311 0.0812,-0.1682 0.13783,-0.34928 0.14918,-0.54313 0.0114,-0.19467 -0.0231,-0.39019 -0.0878,-0.58206 -0.0674,-0.20003 -0.16716,-0.39452 -0.27835,-0.57625 -0.26802,-0.43805 -0.67051,-0.89974 -0.85784,-1.10286 0,0 -0.22053,0.20338 -0.22053,0.20338 z"
         id="path117"
         transform="matrix(6.1917365,0,0,6.1917365,-608.60744,-839.22452)" />
    </g>
  </g>
</svg>
