<?xml version="1.0" encoding="UTF-8" standalone="no"?>
<!-- Created with Inkscape (http://www.inkscape.org/) -->

<svg
   width="180.75638mm"
   height="128.01617mm"
   viewBox="0 0 180.75638 128.01617"
   version="1.1"
   id="svg1"
   xmlns:inkscape="http://www.inkscape.org/namespaces/inkscape"
   xmlns:sodipodi="http://sodipodi.sourceforge.net/DTD/sodipodi-0.dtd"
   xmlns="http://www.w3.org/2000/svg"
   xmlns:svg="http://www.w3.org/2000/svg">
  <sodipodi:namedview
     id="namedview1"
     pagecolor="#ffffff"
     bordercolor="#000000"
     borderopacity="0.25"
     inkscape:showpageshadow="2"
     inkscape:pageopacity="0.0"
     inkscape:pagecheckerboard="0"
     inkscape:deskcolor="#d1d1d1"
     inkscape:document-units="mm">
    <inkscape:page
       x="0"
       y="5.0283985e-13"
       width="180.75638"
       height="128.01617"
       id="page2"
       margin="0"
       bleed="0" />
  </sodipodi:namedview>
  <defs
     id="defs1">
    <inkscape:path-effect
       effect="bspline"
       id="path-effect88"
       is_visible="true"
       lpeversion="1.3"
       weight="33.333333"
       steps="2"
       helper_size="0"
       apply_no_weight="true"
       apply_with_weight="true"
       only_selected="false"
       uniform="false" />
    <inkscape:path-effect
       effect="powerstroke"
       message=""
       id="path-effect89"
       is_visible="true"
       lpeversion="1.3"
       scale_width="2.5"
       interpolator_type="CubicBezierJohan"
       interpolator_beta="0.2"
       start_linecap_type="zerowidth"
       end_linecap_type="zerowidth"
       offset_points="0,0.49996186"
       linejoin_type="extrp_arc"
       miter_limit="4"
       not_jump="false"
       sort_points="true" />
    <inkscape:path-effect
       effect="bspline"
       id="path-effect92"
       is_visible="true"
       lpeversion="1.3"
       weight="33.333333"
       steps="2"
       helper_size="0"
       apply_no_weight="true"
       apply_with_weight="true"
       only_selected="false"
       uniform="false" />
    <inkscape:path-effect
       effect="powerstroke"
       message=""
       id="path-effect93"
       is_visible="true"
       lpeversion="1.3"
       scale_width="1"
       interpolator_type="CubicBezierJohan"
       interpolator_beta="0.2"
       start_linecap_type="zerowidth"
       end_linecap_type="zerowidth"
       offset_points="0,0.98224828"
       linejoin_type="extrp_arc"
       miter_limit="4"
       not_jump="false"
       sort_points="true" />
    <inkscape:path-effect
       effect="bspline"
       id="path-effect90"
       is_visible="true"
       lpeversion="1.3"
       weight="33.333333"
       steps="2"
       helper_size="0"
       apply_no_weight="true"
       apply_with_weight="true"
       only_selected="false"
       uniform="false" />
    <inkscape:path-effect
       effect="powerstroke"
       message=""
       id="path-effect91"
       is_visible="true"
       lpeversion="1.3"
       scale_width="2.5"
       interpolator_type="CubicBezierJohan"
       interpolator_beta="0.2"
       start_linecap_type="zerowidth"
       end_linecap_type="zerowidth"
       offset_points="0,0.49996186"
       linejoin_type="extrp_arc"
       miter_limit="4"
       not_jump="false"
       sort_points="true" />
    <inkscape:path-effect
       effect="bspline"
       id="path-effect94"
       is_visible="true"
       lpeversion="1.3"
       weight="33.333333"
       steps="2"
       helper_size="0"
       apply_no_weight="true"
       apply_with_weight="true"
       only_selected="false"
       uniform="false" />
    <inkscape:path-effect
       effect="powerstroke"
       message=""
       id="path-effect95"
       is_visible="true"
       lpeversion="1.3"
       scale_width="1"
       interpolator_type="CubicBezierJohan"
       interpolator_beta="0.2"
       start_linecap_type="zerowidth"
       end_linecap_type="zerowidth"
       offset_points="0,0.98224828"
       linejoin_type="extrp_arc"
       miter_limit="4"
       not_jump="false"
       sort_points="true" />
    <inkscape:path-effect
       effect="bspline"
       id="path-effect96"
       is_visible="true"
       lpeversion="1.3"
       weight="33.333333"
       steps="2"
       helper_size="0"
       apply_no_weight="true"
       apply_with_weight="true"
       only_selected="false"
       uniform="false" />
    <inkscape:path-effect
       effect="powerstroke"
       message=""
       id="path-effect97"
       is_visible="true"
       lpeversion="1.3"
       scale_width="1"
       interpolator_type="CubicBezierJohan"
       interpolator_beta="0.2"
       start_linecap_type="zerowidth"
       end_linecap_type="zerowidth"
       offset_points="0,0.98224828"
       linejoin_type="extrp_arc"
       miter_limit="4"
       not_jump="false"
       sort_points="true" />
    <inkscape:path-effect
       effect="bspline"
       id="path-effect98"
       is_visible="true"
       lpeversion="1.3"
       weight="33.333333"
       steps="2"
       helper_size="0"
       apply_no_weight="true"
       apply_with_weight="true"
       only_selected="false"
       uniform="false" />
    <inkscape:path-effect
       effect="powerstroke"
       message=""
       id="path-effect99"
       is_visible="true"
       lpeversion="1.3"
       scale_width="1"
       interpolator_type="CubicBezierJohan"
       interpolator_beta="0.2"
       start_linecap_type="zerowidth"
       end_linecap_type="zerowidth"
       offset_points="0,0.98224828"
       linejoin_type="extrp_arc"
       miter_limit="4"
       not_jump="false"
       sort_points="true" />
    <inkscape:path-effect
       effect="bspline"
       id="path-effect100"
       is_visible="true"
       lpeversion="1.3"
       weight="33.333333"
       steps="2"
       helper_size="0"
       apply_no_weight="true"
       apply_with_weight="true"
       only_selected="false"
       uniform="false" />
    <inkscape:path-effect
       effect="powerstroke"
       message=""
       id="path-effect101"
       is_visible="true"
       lpeversion="1.3"
       scale_width="1"
       interpolator_type="CubicBezierJohan"
       interpolator_beta="0.2"
       start_linecap_type="zerowidth"
       end_linecap_type="zerowidth"
       offset_points="0,0.98224828"
       linejoin_type="extrp_arc"
       miter_limit="4"
       not_jump="false"
       sort_points="true" />
    <inkscape:path-effect
       effect="bspline"
       id="path-effect102"
       is_visible="true"
       lpeversion="1.3"
       weight="33.333333"
       steps="2"
       helper_size="0"
       apply_no_weight="true"
       apply_with_weight="true"
       only_selected="false"
       uniform="false" />
    <inkscape:path-effect
       effect="powerstroke"
       message=""
       id="path-effect103"
       is_visible="true"
       lpeversion="1.3"
       scale_width="1"
       interpolator_type="CubicBezierJohan"
       interpolator_beta="0.2"
       start_linecap_type="zerowidth"
       end_linecap_type="zerowidth"
       offset_points="0,0.98224828"
       linejoin_type="extrp_arc"
       miter_limit="4"
       not_jump="false"
       sort_points="true" />
    <inkscape:path-effect
       effect="bspline"
       id="path-effect105"
       is_visible="true"
       lpeversion="1.3"
       weight="33.333333"
       steps="2"
       helper_size="0"
       apply_no_weight="true"
       apply_with_weight="true"
       only_selected="false"
       uniform="false" />
    <inkscape:path-effect
       effect="powerstroke"
       message=""
       id="path-effect113"
       is_visible="true"
       lpeversion="1.3"
       scale_width="1"
       interpolator_type="CubicBezierJohan"
       interpolator_beta="0.2"
       start_linecap_type="zerowidth"
       end_linecap_type="zerowidth"
       offset_points="0,0.98224828"
       linejoin_type="extrp_arc"
       miter_limit="4"
       not_jump="false"
       sort_points="true" />
  </defs>
  <g
     inkscape:label="Layer 1"
     inkscape:groupmode="layer"
     id="layer1"
     transform="translate(-45.243735,-99.21874)">
    <g
       id="g127-9-2-3-3-8"
       transform="matrix(1.5506466,0.1356639,0.13577081,-1.5518671,-52.36052,390.76742)"
       style="display:inline;fill:#011670;fill-opacity:1;stroke:#ffffff;stroke-width:1.22862;stroke-dasharray:none;stroke-opacity:1"
       inkscape:label="Peritrichous Bacillus"
       inkscape:export-filename="Peritrichous_Bacillus.svg"
       inkscape:export-xdpi="96"
       inkscape:export-ydpi="96">
      <path
         style="font-variation-settings:normal;display:inline;opacity:1;vector-effect:none;fill:#24365b;fill-opacity:1;fill-rule:nonzero;stroke:none;stroke-width:0.963278;stroke-linecap:butt;stroke-linejoin:bevel;stroke-miterlimit:4;stroke-dasharray:none;stroke-dashoffset:0;stroke-opacity:1;-inkscape-stroke:none;stop-color:#000000;stop-opacity:1"
         d="m 77.616367,151.71168 c 0,0 -0.08255,-1.24718 -0.08255,-1.24718 -0.50296,0.0333 -1.112384,0.10223 -2.303032,0.26145 -0.935024,0.12504 -2.157492,0.29572 -4.330797,0.59461 -0.967434,0.13305 -2.148216,0.29554 -3.406085,0.43297 -1.219843,0.13328 -2.545971,0.24695 -3.878708,0.29078 -1.304921,0.0429 -2.615845,0.0189 -3.844145,-0.11851 -1.216909,-0.13612 -2.336366,-0.38174 -3.286548,-0.77377 -0.947267,-0.39083 -1.751894,-0.93947 -2.462104,-1.56835 -0.71946,-0.63707 -1.336441,-1.35113 -1.901979,-2.0528 -0.582645,-0.7229 -1.093147,-1.40948 -1.614471,-2.00061 -0.265056,-0.30055 -0.528985,-0.57158 -0.799608,-0.8022 -0.276909,-0.23597 -0.560028,-0.42891 -0.856418,-0.56698 -0.304475,-0.14185 -0.614781,-0.2217 -0.925402,-0.25349 -0.320427,-0.0328 -0.641856,-0.0145 -0.959339,0.0398 -0.672089,0.11508 -1.353279,0.39709 -1.999352,0.73775 -0.726307,0.38296 -1.45873,0.86807 -2.113531,1.32816 -0.722349,0.50756 -1.658691,1.20947 -2.197895,1.605 0.599689,-0.4399 1.427164,-1.03727 2.229323,-1.5585 0.672761,-0.43715 1.419436,-0.88219 2.159086,-1.2176 0.660569,-0.29954 1.330174,-0.51879 1.96411,-0.57258 0.29702,-0.0252 0.584109,-0.0139 0.85816,0.041 0.264776,0.053 0.517465,0.14679 0.756849,0.28816 0.233492,0.1379 0.460313,0.32429 0.688268,0.55647 0.223278,0.22742 0.444595,0.4956 0.673277,0.80085 0.444492,0.59334 0.908119,1.31929 1.447097,2.09195 0.523776,0.75087 1.129342,1.55805 1.865999,2.30119 0.731855,0.73829 1.604294,1.42462 2.674691,1.94243 1.068829,0.51705 2.304437,0.85286 3.601283,1.06525 1.311676,0.21481 2.698183,0.30526 4.056905,0.32491 1.388781,0.0201 2.765468,-0.0337 4.017909,-0.10903 1.280118,-0.077 2.51206,-0.18214 3.468469,-0.25765 2.139707,-0.16893 3.433319,-0.23718 4.317705,-0.27319 1.174523,-0.0478 1.762427,-0.0498 2.265387,-0.0831 0,0 -0.08255,-1.24718 -0.08255,-1.24718 z"
         id="path88"
         inkscape:path-effect="#path-effect88;#path-effect89"
         inkscape:original-d="m 77.616367,151.71168 c -1.296142,0.0858 -2.592262,0.17158 -3.888432,0.25738 -6.736231,0.78341 -13.472049,1.56678 -20.208281,2.35019 -1.31978,-4.41136 -2.63948,-8.82246 -3.959258,-13.23382 -2.968722,2.17768 -5.937329,4.35528 -8.905995,6.53292"
         transform="matrix(0.98480776,0.17351148,0.1737849,-0.98480776,-17.037705,301.54378)"
         sodipodi:nodetypes="ccccc" />
      <path
         style="font-variation-settings:normal;display:inline;opacity:1;vector-effect:none;fill:#24365b;fill-opacity:1;fill-rule:nonzero;stroke:none;stroke-width:0.963278;stroke-linecap:butt;stroke-linejoin:bevel;stroke-miterlimit:4;stroke-dasharray:none;stroke-dashoffset:0;stroke-opacity:1;-inkscape-stroke:none;stop-color:#000000;stop-opacity:1"
         d="m 97.033632,164.64575 c 0,0 -0.683207,0.70572 -0.683207,0.70572 0.856509,0.82918 2.274486,2.1928 3.757235,3.39395 1.22099,0.98911 2.7183,2.06795 4.54931,3.02699 1.63438,0.85605 3.53953,1.60647 5.23999,2.38062 0.80708,0.36743 1.55823,0.73808 2.19492,1.127 0.31225,0.19074 0.59338,0.38369 0.83881,0.58058 0.24328,0.19517 0.44772,0.39122 0.61194,0.58937 0.32153,0.38799 0.51511,0.81825 0.61399,1.29026 0.0992,0.47349 0.10212,0.98522 0.0422,1.525 -0.0598,0.53916 -0.17972,1.085 -0.31236,1.6228 -0.13211,0.53567 -0.27716,1.06398 -0.37631,1.54232 -0.20421,0.98516 -0.21115,1.75589 -0.19294,2.36617 0.01,0.32124 0.0261,0.60294 0.0308,0.8588 0.005,0.26834 -0.003,0.50553 -0.0388,0.73396 -0.0792,0.50196 -0.29936,0.9691 -0.54878,1.37923 -0.30576,0.50277 -0.7095,0.99987 -0.97516,1.31379 0.22696,-0.26819 0.73386,-0.83234 1.05491,-1.25974 0.28696,-0.38203 0.58222,-0.84272 0.74257,-1.36942 0.0743,-0.24425 0.11907,-0.49817 0.15261,-0.77763 0.0323,-0.26937 0.0528,-0.54733 0.0824,-0.86344 0.0556,-0.59389 0.14182,-1.30627 0.40819,-2.20265 0.13073,-0.43994 0.31056,-0.94293 0.48697,-1.48489 0.17424,-0.53532 0.34758,-1.11798 0.45736,-1.71395 0.10988,-0.5965 0.15966,-1.22408 0.0764,-1.85094 -0.0846,-0.63664 -0.30596,-1.26715 -0.7294,-1.85452 -0.21162,-0.29354 -0.46645,-0.56657 -0.74952,-0.82204 -0.28575,-0.25788 -0.60419,-0.50139 -0.94314,-0.73291 -0.68705,-0.46927 -1.48125,-0.90451 -2.29278,-1.31604 -1.7236,-0.87404 -3.57446,-1.6856 -5.06728,-2.53902 -1.668,-0.95356 -3.03233,-2.01187 -4.1594,-2.9836 -1.329269,-1.14607 -2.764461,-2.57394 -3.588291,-3.37149 0,0 -0.683207,0.70572 -0.683207,0.70572 z"
         id="path91"
         inkscape:path-effect="#path-effect92;#path-effect93"
         inkscape:original-d="m 97.033632,164.64575 c 2.372776,2.29708 4.745548,4.59418 7.118338,6.89126 4.19034,1.2906 8.38052,2.58116 12.57077,3.87174 -1.19536,2.62819 -2.39066,5.25626 -3.58598,7.8844 0.26725,1.08162 0.5345,2.1632 0.80175,3.2448 -0.71775,0.84814 -1.43548,1.69624 -2.15321,2.54436"
         transform="translate(3.4065539e-6)" />
      <path
         style="font-variation-settings:normal;display:inline;opacity:1;vector-effect:none;fill:#24365b;fill-opacity:1;fill-rule:nonzero;stroke:none;stroke-width:0.963278;stroke-linecap:butt;stroke-linejoin:bevel;stroke-miterlimit:4;stroke-dasharray:none;stroke-dashoffset:0;stroke-opacity:1;-inkscape-stroke:none;stop-color:#000000;stop-opacity:1"
         d="m 95.575851,164.75942 c 0,0 -0.546796,1.12396 -0.546796,1.12396 1.289482,0.62732 3.028066,1.42196 4.845533,2.33792 1.380772,0.69588 2.813002,1.47292 3.980172,2.2902 0.53321,0.37337 1.00719,0.75221 1.39717,1.12924 0.37725,0.36472 0.65987,0.71235 0.84587,1.03732 0.0903,0.15785 0.15638,0.3077 0.20007,0.44957 0.0431,0.13987 0.0657,0.27577 0.0668,0.40923 0.001,0.13276 -0.0189,0.27158 -0.0689,0.41818 -0.0501,0.14699 -0.13154,0.3052 -0.25553,0.47288 -0.1253,0.16945 -0.29478,0.34833 -0.50595,0.53733 -0.21099,0.18885 -0.45568,0.38083 -0.72615,0.57814 -0.54619,0.39846 -1.1799,0.80597 -1.81248,1.23597 -0.64906,0.4412 -1.28513,0.89826 -1.83712,1.3966 -0.57262,0.51696 -1.04205,1.0674 -1.338145,1.67193 -0.311007,0.63498 -0.417263,1.30426 -0.406105,1.96536 0.01205,0.71417 0.162032,1.44487 0.366623,2.14226 0.463007,1.57827 1.442157,3.61259 1.911077,4.65349 -0.49576,-1.10049 -1.36342,-3.04827 -1.741844,-4.69773 -0.161342,-0.70324 -0.253994,-1.41555 -0.21101,-2.09084 0.03973,-0.62419 0.194902,-1.21149 0.514844,-1.73676 0.30406,-0.4992 0.76334,-0.95504 1.33538,-1.38932 0.55254,-0.41948 1.18951,-0.80367 1.86116,-1.18254 0.65183,-0.36769 1.32273,-0.72175 1.93739,-1.08705 0.30305,-0.1801 0.59638,-0.36564 0.864,-0.55794 0.26613,-0.19124 0.51722,-0.39654 0.73214,-0.61947 0.21688,-0.22494 0.39664,-0.46675 0.53478,-0.72671 0.13891,-0.26143 0.23301,-0.53618 0.28158,-0.82175 0.0488,-0.28683 0.0501,-0.57578 0.0114,-0.8624 -0.039,-0.28821 -0.11806,-0.57092 -0.2273,-0.84514 -0.22152,-0.55604 -0.57154,-1.08873 -0.98911,-1.58696 -0.43461,-0.51858 -0.9562,-1.01626 -1.51862,-1.48406 -1.22595,-1.01971 -2.71894,-1.95598 -4.10033,-2.74624 -1.737087,-0.99376 -3.677835,-1.96654 -4.853773,-2.53863 0,0 -0.546796,1.12396 -0.546796,1.12396 z"
         id="path89"
         inkscape:path-effect="#path-effect90;#path-effect91"
         inkscape:original-d="m 95.575851,164.75942 c 3.323031,1.61663 6.646079,3.23326 9.969109,4.8499 1.16463,1.82982 2.32919,3.65956 3.49382,5.48938 -3.88866,1.3077 -7.77711,2.61532 -11.665788,3.92302 1.43969,3.19582 2.879328,6.39152 4.318988,9.58728"
         transform="rotate(180,92.354685,160.44649)"
         sodipodi:nodetypes="ccccc" />
      <path
         style="font-variation-settings:normal;opacity:1;vector-effect:none;fill:#24365b;fill-opacity:1;fill-rule:nonzero;stroke:none;stroke-width:0.963278;stroke-linecap:butt;stroke-linejoin:bevel;stroke-miterlimit:4;stroke-dasharray:none;stroke-dashoffset:0;stroke-opacity:1;-inkscape-stroke:none;stop-color:#000000;stop-opacity:1"
         d="m 133.12128,143.55562 c 0,0 0.24264,0.95181 0.24264,0.95181 0.73987,-0.18861 1.93616,-0.51243 2.902,-0.69856 0.83465,-0.16085 1.68445,-0.26329 2.44166,-0.18981 0.6626,0.0643 1.30355,0.26878 1.96357,0.6581 0.62086,0.36622 1.24399,0.88662 1.91962,1.58958 0.32321,0.33629 0.66297,0.72108 1.03084,1.11264 0.3605,0.38372 0.75423,0.77962 1.18896,1.13276 0.4321,0.351 0.91159,0.66564 1.45306,0.89062 0.54129,0.22491 1.1343,0.35593 1.79112,0.35236 0.64959,-0.004 1.34589,-0.13923 2.04959,-0.35721 0.70932,-0.21973 1.44197,-0.52804 2.1638,-0.88711 1.4692,-0.73085 2.9164,-1.68297 4.08632,-2.58056 1.22544,-0.94019 2.15732,-1.82002 2.96568,-2.48895 0.42691,-0.35326 0.81335,-0.64521 1.19028,-0.8719 0.39343,-0.23662 0.7685,-0.39696 1.14919,-0.47645 0.40368,-0.0843 0.81696,-0.078 1.22817,-0.0131 0.44448,0.0702 0.8895,0.20936 1.31575,0.37888 0.97766,0.38881 2.0533,1.02867 2.74454,1.44183 -0.66858,-0.39962 -1.77449,-1.08789 -2.71676,-1.50773 -0.42092,-0.18754 -0.86669,-0.35123 -1.31833,-0.44811 -0.41767,-0.0896 -0.85205,-0.12476 -1.29003,-0.0627 -0.41547,0.0589 -0.82744,0.20392 -1.25783,0.42695 -0.41088,0.21291 -0.82978,0.49206 -1.28369,0.82662 -0.86056,0.6343 -1.83071,1.46175 -3.06902,2.32815 -1.1861,0.82987 -2.63554,1.70135 -4.07632,2.34316 -0.70918,0.31591 -1.41085,0.57391 -2.07279,0.74464 -0.66104,0.1705 -1.26569,0.24955 -1.78824,0.22153 -0.51552,-0.0276 -0.96401,-0.15966 -1.36632,-0.35925 -0.40616,-0.2015 -0.77506,-0.47685 -1.12279,-0.79941 -0.35202,-0.32655 -0.679,-0.6983 -0.99929,-1.08643 -0.32444,-0.39316 -0.63908,-0.79991 -0.96382,-1.18642 -0.67328,-0.80137 -1.35266,-1.47192 -2.09484,-1.98789 -0.80568,-0.56012 -1.65662,-0.91689 -2.58489,-1.06913 -1.01633,-0.16667 -2.08276,-0.0797 -2.99577,0.0583 -1.10848,0.16758 -2.3152,0.46885 -3.0687,0.66093 0,0 0.24264,0.95181 0.24264,0.95181 z"
         id="path93"
         inkscape:path-effect="#path-effect94;#path-effect95"
         inkscape:original-d="m 133.12128,143.55562 c 2.01986,-0.51489 4.03972,-1.0298 6.05958,-1.54472 1.30883,0.96691 2.6176,1.93377 3.92641,2.90065 1.30787,1.9521 2.6157,3.90413 3.92357,5.8562 3.37599,-1.85522 6.75185,-3.71037 10.12777,-5.56555 1.42556,-1.66559 2.85108,-3.33112 4.27662,-4.99668 1.83764,1.09838 3.67523,2.19671 5.51284,3.29507" />
      <path
         style="font-variation-settings:normal;opacity:1;vector-effect:none;fill:#24365b;fill-opacity:1;fill-rule:nonzero;stroke:none;stroke-width:0.963278;stroke-linecap:butt;stroke-linejoin:bevel;stroke-miterlimit:4;stroke-dasharray:none;stroke-dashoffset:0;stroke-opacity:1;-inkscape-stroke:none;stop-color:#000000;stop-opacity:1"
         d="m 132.9687,151.01548 c 0,0 -0.73702,0.64932 -0.73702,0.64932 0.5045,0.57263 1.37072,1.52769 2.3206,2.42037 0.76403,0.71801 1.70351,1.51529 2.85759,2.27716 1.04521,0.69 2.23327,1.3292 3.4908,1.95544 1.18795,0.5916 2.40521,1.15496 3.49368,1.69227 1.09769,0.54186 2.03455,1.0432 2.76927,1.5765 0.37504,0.27222 0.68948,0.54724 0.94198,0.83303 0.26154,0.29603 0.45569,0.60258 0.58169,0.92769 0.13341,0.34423 0.19202,0.71461 0.19823,1.0979 0.007,0.41422 -0.0479,0.84083 -0.1331,1.25571 -0.20141,0.9811 -0.62516,2.0886 -0.87926,2.72919 0.23014,-0.58019 0.74853,-1.78594 1.01269,-2.69615 0.11917,-0.4106 0.21688,-0.8453 0.25484,-1.27931 0.0351,-0.4013 0.0205,-0.81546 -0.0835,-1.22396 -0.0992,-0.3897 -0.27758,-0.76678 -0.53346,-1.13626 -0.24616,-0.35544 -0.55962,-0.69751 -0.93266,-1.03356 -0.72693,-0.65484 -1.66306,-1.2718 -2.72494,-1.91231 -1.05754,-0.63789 -2.22896,-1.29361 -3.34941,-1.96063 -1.19518,-0.7115 -2.27137,-1.3987 -3.19211,-2.10969 -1.00212,-0.77385 -1.8126,-1.57116 -2.48039,-2.28489 -0.73265,-0.78304 -1.72569,-1.95856 -2.13851,-2.42714 z"
         id="path95"
         inkscape:path-effect="#path-effect96;#path-effect97"
         inkscape:original-d="m 132.9687,151.01548 c 1.43754,1.63169 2.87508,3.26339 4.31263,4.89508 2.60938,1.25109 5.21866,2.50214 7.82798,3.75321 1.65119,1.08208 3.3023,2.16411 4.95345,3.24617 -0.72988,1.84008 -1.45974,3.68008 -2.1896,5.52012" />
      <path
         style="font-variation-settings:normal;opacity:1;vector-effect:none;fill:#24365b;fill-opacity:1;fill-rule:nonzero;stroke:none;stroke-width:0.963278;stroke-linecap:butt;stroke-linejoin:bevel;stroke-miterlimit:4;stroke-dasharray:none;stroke-dashoffset:0;stroke-opacity:1;-inkscape-stroke:none;stop-color:#000000;stop-opacity:1"
         d="m 119.35056,140.99248 c 0,0 0.9492,0.25264 0.9492,0.25264 0.2682,-1.00764 0.75712,-2.87529 0.93899,-4.4854 0.0778,-0.68894 0.11343,-1.41986 0.051,-2.13471 -0.0578,-0.66166 -0.20134,-1.33271 -0.49045,-1.95866 -0.27401,-0.59323 -0.66191,-1.10384 -1.09173,-1.56369 -0.41206,-0.44083 -0.87099,-0.84469 -1.31295,-1.23893 -0.4356,-0.38856 -0.85651,-0.76926 -1.22474,-1.18164 -0.36236,-0.40582 -0.67054,-0.83901 -0.88505,-1.33299 -0.21628,-0.49807 -0.34538,-1.07926 -0.39322,-1.71229 -0.0483,-0.6388 -0.0127,-1.31574 0.0898,-1.99107 0.10486,-0.69066 0.27849,-1.37176 0.49904,-2.00484 0.22905,-0.65749 0.50662,-1.25764 0.80959,-1.7702 0.31935,-0.54025 0.6689,-0.98642 1.03073,-1.36384 0.39154,-0.40842 0.8022,-0.741 1.20559,-1.01989 0.9499,-0.65671 2.07537,-1.14376 2.73056,-1.42138 -0.60815,0.25769 -1.84391,0.73505 -2.80476,1.30567 -0.42687,0.2535 -0.87311,0.56195 -1.30872,0.95186 -0.40309,0.3608 -0.80362,0.79699 -1.1796,1.33777 -0.3564,0.51262 -0.69009,1.11824 -0.97709,1.78805 -0.27625,0.64473 -0.50834,1.34707 -0.67109,2.07082 -0.15884,0.70631 -0.25209,1.43557 -0.25261,2.1463 -5e-4,0.7018 0.0894,1.39477 0.30325,2.0311 0.215,0.63992 0.54579,1.19727 0.92235,1.70096 0.37701,0.50429 0.80838,0.96502 1.20916,1.38863 0.42327,0.44737 0.79788,0.83885 1.12386,1.25373 0.33318,0.42404 0.57481,0.82367 0.72442,1.23746 0.15651,0.43286 0.22788,0.91892 0.23722,1.44378 0.0101,0.56884 -0.0529,1.17613 -0.15453,1.78863 -0.23163,1.39561 -0.76218,3.23283 -1.02745,4.22949 0,0 0.9492,0.25264 0.9492,0.25264 z"
         id="path97"
         inkscape:path-effect="#path-effect98;#path-effect99"
         inkscape:original-d="m 119.35056,140.99248 c 0.79374,-2.98213 1.58746,-5.96427 2.3812,-8.9464 -2.52436,-1.12999 -5.04864,-2.25996 -7.57295,-3.38993 0.80923,-3.39602 1.61845,-6.79192 2.42768,-10.18788 1.89019,-0.80091 3.7803,-1.60178 5.67046,-2.40268" />
      <path
         style="font-variation-settings:normal;opacity:1;vector-effect:none;fill:#24365b;fill-opacity:1;fill-rule:nonzero;stroke:none;stroke-width:0.963278;stroke-linecap:butt;stroke-linejoin:bevel;stroke-miterlimit:4;stroke-dasharray:none;stroke-dashoffset:0;stroke-opacity:1;-inkscape-stroke:none;stop-color:#000000;stop-opacity:1"
         d="m 104.29732,147.03199 c 0,0 0.97324,-0.13272 0.97324,-0.13272 -0.15177,-1.1129 -0.54312,-3.74164 -0.74195,-5.48016 -0.18008,-1.57462 -0.31431,-3.23654 -0.25142,-4.67027 0.0287,-0.65735 0.10463,-1.27796 0.19228,-1.91116 0.0814,-0.58763 0.17654,-1.20788 0.22239,-1.77621 0.0457,-0.56665 0.0485,-1.13668 -0.0616,-1.68871 -0.0548,-0.27478 -0.13735,-0.54423 -0.25553,-0.80694 -0.11792,-0.26215 -0.26924,-0.51294 -0.45871,-0.75301 -0.1884,-0.23873 -0.41154,-0.46268 -0.65812,-0.67313 -0.24748,-0.21123 -0.52226,-0.41199 -0.81564,-0.60285 -0.59136,-0.38471 -1.2715,-0.7377 -1.97997,-1.05928 -1.465682,-0.66527 -3.125231,-1.22749 -4.469701,-1.65814 -3.539549,-1.13374 -5.637515,-1.62145 -7.071392,-2.04069 1.304629,0.38145 3.706759,1.14588 6.941793,2.40626 1.315627,0.51257 2.917194,1.16181 4.29981,1.90036 0.66859,0.35714 1.28606,0.73492 1.8025,1.12961 0.25528,0.19509 0.48283,0.39202 0.67815,0.5899 0.19503,0.1976 0.35438,0.39258 0.47667,0.58359 0.12144,0.18968 0.20884,0.37877 0.27048,0.56837 0.0618,0.19013 0.0992,0.38516 0.11721,0.58727 0.0366,0.40997 -0.005,0.85619 -0.0931,1.35842 -0.0899,0.51567 -0.22385,1.0698 -0.35774,1.68287 -0.13895,0.63623 -0.27183,1.31007 -0.35167,2.04034 -0.17181,1.56908 -0.11441,3.34791 0.004,4.96351 0.14818,2.01927 0.4345,4.25505 0.61457,5.57549 0,0 0.97324,-0.13272 0.97324,-0.13272 z"
         id="path100"
         inkscape:path-effect="#path-effect100;#path-effect101"
         inkscape:original-d="m 104.29732,147.03199 c -0.51335,-3.76424 -1.02667,-7.52838 -1.53999,-11.29252 0.97188,-1.85969 2.01181,-3.91667 3.05178,-5.97372 -3.53337,-1.38288 -7.066612,-2.76571 -10.599935,-4.14857 -2.096012,-0.61284 -4.191959,-1.22564 -6.287938,-1.83846"
         transform="translate(-1.8618613,-0.10444325)" />
      <path
         style="font-variation-settings:normal;opacity:1;vector-effect:none;fill:#24365b;fill-opacity:1;fill-rule:nonzero;stroke:none;stroke-width:0.963278;stroke-linecap:butt;stroke-linejoin:bevel;stroke-miterlimit:4;stroke-dasharray:none;stroke-dashoffset:0;stroke-opacity:1;-inkscape-stroke:none;stop-color:#000000;stop-opacity:1"
         d="m 86.225421,170.81394 c 0,0 -0.767505,-0.61298 -0.767505,-0.61298 -0.245259,0.30708 -0.622021,0.78565 -0.929557,1.2732 -0.258563,0.4099 -0.536794,0.92891 -0.686782,1.51639 -0.06938,0.27173 -0.113256,0.56523 -0.113738,0.87556 -4.61e-4,0.29704 0.03875,0.60465 0.128893,0.92005 0.08653,0.30274 0.217938,0.60563 0.398915,0.90889 0.17475,0.29283 0.394911,0.58473 0.66446,0.87774 0.511956,0.55653 1.211123,1.12475 2.005634,1.70346 0.773163,0.56316 1.644089,1.14153 2.548494,1.74037 0.879417,0.5823 1.78538,1.18062 2.619701,1.77714 0.82874,0.59252 1.581322,1.17931 2.18039,1.75235 0.596385,0.57046 1.039908,1.12742 1.353607,1.66801 0.316676,0.54573 0.502972,1.07775 0.581405,1.59634 0.08035,0.53129 0.04831,1.05423 -0.07864,1.56748 -0.131934,0.53341 -0.365575,1.05282 -0.676812,1.55304 -0.328414,0.52784 -0.740993,1.03063 -1.198849,1.50617 -0.494858,0.51397 -1.045939,0.99941 -1.600686,1.44747 -1.311269,1.0591 -2.933932,2.12909 -3.883632,2.74532 0.862388,-0.55957 2.685861,-1.69849 3.967424,-2.63635 0.577292,-0.42247 1.161122,-0.88277 1.695295,-1.37375 0.493702,-0.45379 0.956281,-0.94392 1.341706,-1.47155 0.365304,-0.50007 0.666301,-1.04049 0.863505,-1.6201 0.190392,-0.55959 0.2843,-1.15669 0.244662,-1.78737 -0.03878,-0.61697 -0.204847,-1.25674 -0.522033,-1.91338 -0.313358,-0.64871 -0.77055,-1.30639 -1.386285,-1.96972 -0.613375,-0.66078 -1.379656,-1.32277 -2.197829,-1.97084 -0.824352,-0.65297 -1.720702,-1.30662 -2.567472,-1.92633 -0.880641,-0.64451 -1.69676,-1.24448 -2.410493,-1.82258 -0.742231,-0.60119 -1.313931,-1.13173 -1.688017,-1.59819 -0.18954,-0.23635 -0.323629,-0.4503 -0.417341,-0.64185 -0.09651,-0.19727 -0.151024,-0.37241 -0.17919,-0.52709 -0.02919,-0.16028 -0.03167,-0.30736 -0.01747,-0.44428 0.01497,-0.14432 0.04953,-0.2868 0.09968,-0.42905 0.111899,-0.31742 0.30343,-0.63881 0.531586,-0.96146 0.26146,-0.36976 0.613883,-0.79537 0.864473,-1.10913 0,0 -0.767505,-0.61298 -0.767505,-0.61298 z"
         id="path101"
         inkscape:path-effect="#path-effect102;#path-effect103"
         inkscape:original-d="m 86.225421,170.81394 c -1.259991,1.5776 -2.519964,3.15518 -3.779938,4.73279 4.880345,2.59671 9.760495,5.19332 14.640744,7.78998 -0.04288,2.32707 -0.08576,4.65403 -0.128642,6.98107 -2.729013,1.77075 -5.457902,3.54144 -8.186861,5.31216" />
      <path
         style="font-variation-settings:normal;opacity:1;vector-effect:none;fill:#24365b;fill-opacity:1;fill-rule:nonzero;stroke:none;stroke-width:0.963278;stroke-linecap:butt;stroke-linejoin:bevel;stroke-miterlimit:4;stroke-dasharray:none;stroke-dashoffset:0;stroke-opacity:1;-inkscape-stroke:none;stop-color:#000000;stop-opacity:1"
         d="m 122.01234,156.67157 c 0,0 -0.93648,0.29633 -0.93648,0.29633 0.1414,0.44688 0.38019,1.01666 0.60127,1.77572 0.16366,0.56192 0.32295,1.27121 0.37573,2.20714 0.0256,0.45422 0.0243,0.92724 0.0359,1.49127 0.0111,0.53412 0.034,1.10587 0.10991,1.67666 0.0762,0.57314 0.20548,1.1434 0.42807,1.68374 0.22787,0.55314 0.54669,1.05806 0.98444,1.49845 0.45144,0.45416 1.02012,0.82907 1.63537,1.1478 0.66253,0.34322 1.40247,0.63293 2.14025,0.88305 1.63084,0.55289 4.12255,1.15979 5.14243,1.433 -1.1621,-0.31131 -3.35208,-0.92329 -5.0671,-1.63338 -0.71598,-0.29644 -1.41459,-0.6336 -2.02265,-1.01914 -0.56741,-0.35976 -1.04825,-0.75672 -1.39735,-1.1972 -0.33234,-0.41932 -0.54742,-0.87963 -0.6799,-1.36708 -0.13007,-0.47861 -0.18054,-0.98346 -0.18391,-1.50072 -0.003,-0.51746 0.0404,-1.04114 0.0956,-1.55538 0.0563,-0.52367 0.12417,-1.03336 0.16472,-1.517 0.088,-1.04929 0.044,-1.88628 -0.0461,-2.57933 -0.1126,-0.86631 -0.31788,-1.62242 -0.44377,-2.02026 0,0 -0.93648,0.29633 -0.93648,0.29633 z"
         id="path105"
         inkscape:path-effect="#path-effect105;#path-effect113"
         inkscape:original-d="m 122.01234,156.67157 c 0.38297,1.2103 0.76594,2.4206 1.14891,3.63091 -0.44797,2.53094 -0.89591,5.06172 -1.34388,7.59266 3.5707,0.95654 7.14127,1.91306 10.71191,2.86959"
         sodipodi:nodetypes="cccc"
         transform="translate(0.64490662,1.6312066)" />
      <rect
         style="display:inline;fill:#38b26b;fill-opacity:1;fill-rule:nonzero;stroke:#24365b;stroke-width:1.22862;stroke-linecap:round;stroke-linejoin:round;stroke-miterlimit:4;stroke-dasharray:none;stroke-opacity:1;paint-order:normal"
         id="rect127-1-0-1-3-5"
         width="58.246716"
         height="17.510948"
         x="17.842239"
         y="173.30988"
         ry="8.3892403"
         transform="rotate(-20,-1.7247419e-5,-1.3001283e-5)" />
    </g>
  </g>
</svg>
