<?xml version="1.0" encoding="UTF-8" standalone="no"?>
<!-- Created with Inkscape (http://www.inkscape.org/) -->

<svg
   width="349.68494mm"
   height="45.578423mm"
   viewBox="0 0 349.68494 45.578423"
   version="1.1"
   id="svg1"
   inkscape:export-filename="bitmap.png"
   inkscape:export-xdpi="96"
   inkscape:export-ydpi="96"
   xmlns:inkscape="http://www.inkscape.org/namespaces/inkscape"
   xmlns:sodipodi="http://sodipodi.sourceforge.net/DTD/sodipodi-0.dtd"
   xmlns="http://www.w3.org/2000/svg"
   xmlns:svg="http://www.w3.org/2000/svg">
  <sodipodi:namedview
     id="namedview1"
     pagecolor="#ffffff"
     bordercolor="#000000"
     borderopacity="0.25"
     inkscape:showpageshadow="2"
     inkscape:pageopacity="0.0"
     inkscape:pagecheckerboard="0"
     inkscape:deskcolor="#d1d1d1"
     inkscape:document-units="mm">
    <inkscape:page
       x="-3.0157399e-14"
       y="0"
       width="349.68497"
       height="45.578423"
       id="page2"
       margin="0"
       bleed="0" />
  </sodipodi:namedview>
  <defs
     id="defs1">
    <inkscape:path-effect
       effect="bspline"
       id="path-effect72-6-7"
       is_visible="true"
       lpeversion="1.3"
       weight="33.333333"
       steps="2"
       helper_size="0"
       apply_no_weight="true"
       apply_with_weight="true"
       only_selected="false"
       uniform="false" />
  </defs>
  <g
     inkscape:label="Layer 1"
     inkscape:groupmode="layer"
     id="layer1"
     transform="translate(66.939587,-136.525)">
    <g
       id="g75"
       inkscape:label="Spirochete"
       transform="translate(-779.61074,-836.85528)">
      <path
         id="path71-9-1"
         style="font-variation-settings:normal;fill:#38b26b;fill-opacity:1;stroke:#24365b;stroke-width:3.57519;stroke-linecap:butt;stroke-linejoin:bevel;stroke-miterlimit:4;stroke-dasharray:none;stroke-dashoffset:0;stroke-opacity:1;stop-color:#000000"
         transform="matrix(0.531441,0,0,0.531441,488.21262,453.94239)"
         inkscape:path-effect="#path-effect72-6-7"
         inkscape:original-d="m 758.18504,1004.4294 c 11.67819,9.8384 23.35619,19.6766 35.03464,29.5152 8.50334,-11.3412 17.00617,-22.6817 25.50949,-34.02288 18.16386,-10.63561 36.32665,-21.2706 54.49053,-31.90622 13.3336,11.78217 26.6667,23.5639 40,35.3458 13.3336,10.1946 26.6664,20.3887 40,30.5833 8.50333,-10.9884 17.00616,-21.9761 25.50949,-32.9646 18.16386,-10.98835 36.32661,-21.97607 54.49051,-32.9645 13.0705,11.6993 26.2783,23.52151 39.2106,35.0971 9.9857,3.9933 7.7168,16.7075 11.6978,25.0753 -8.3876,3.8453 -14.7529,15.0617 -24.9174,11.5639 -12.9323,-11.5757 -26.1404,-23.3982 -39.2106,-35.0972 -9.6292,12.3111 -19.2581,24.6219 -28.88751,36.9333 -17.03787,9.6655 -34.07504,19.3306 -51.1125,28.9958 -13.3333,-10.1944 -26.6664,-20.3887 -40,-30.5833 -13.3333,-11.7819 -26.66665,-23.5639 -40,-35.3458 -8.92362,12.3993 -17.84704,24.7983 -26.77082,37.1979 -17.74342,9.5773 -35.48617,19.1542 -53.2292,28.7312 -11.67819,-9.8384 -23.35645,-19.6768 -35.03464,-29.5152 m 13.21961,-36.6391 c -13.15201,-11.70844 -26.30395,-23.41681 -39.4559,-35.1252 -18.5718,10.16049 -37.14325,20.32078 -55.71546,30.48149 -8.09502,11.81611 -16.18972,23.63181 -24.28455,35.44761 -13.3333,-10.1944 -26.6664,-20.3887 -40,-30.5833 -13.3333,-11.7819 -26.66665,-23.56385 -40,-35.3458 -17.94821,11.78197 -35.89603,23.5637 -53.84455,35.3459 -8.71866,10.1946 -17.437,20.3888 -26.15547,30.5832 -11.67818,-9.8384 -23.35645,-19.6768 -35.03463,-29.5152 -10.40978,-3.5258 -16.77511,7.6905 -25.16267,11.5358 3.98102,8.3678 1.71205,21.0819 11.94305,25.1033 11.67819,9.8384 23.35619,19.6766 35.03464,29.5152 17.74024,-11.1924 35.47941,-22.3842 53.21964,-33.5767 8.92697,-10.7844 17.85341,-21.5681 26.78038,-32.3524 13.3336,11.7821 26.6667,23.5639 40,35.3458 13.3336,10.1946 26.6664,20.3887 40,30.5833 17.74023,-10.8183 35.47937,-21.6359 53.21964,-32.4542 8.92698,-11.1585 17.85341,-22.3164 26.78037,-33.4749 13.15222,11.7086 26.30388,23.4167 39.4559,35.1252"
         d="m 758.18504,1004.4294 c 11.6782,9.8384 23.35619,19.6766 33.44709,18.9253 10.09089,-0.7513 18.59371,-12.0918 31.92731,-23.0802 13.33359,-10.98839 31.49638,-21.62338 47.24512,-21.0501 15.74874,0.57327 29.08184,12.355 42.41528,23.3433 13.33344,10.9882 26.66628,21.1823 37.58473,20.7854 10.91845,-0.3969 19.42125,-11.3846 32.75486,-22.3731 13.33361,-10.98837 31.49637,-21.97609 47.11357,-21.62064 15.6172,0.35544 28.825,12.17764 36.9485,21.51814 8.1235,9.3405 12.5891,18.913 10.3631,25.0538 -2.226,6.1408 -11.7463,10.5591 -21.7263,6.4019 -9.9799,-4.1571 -23.188,-15.9796 -34.5377,-15.6735 -11.3497,0.306 -20.9786,12.6168 -34.31225,23.6052 -13.33364,10.9885 -30.37082,20.6536 -45.55619,20.389 -15.18537,-0.2646 -28.51849,-10.4589 -41.85193,-21.4471 -13.33344,-10.9883 -26.66681,-22.7703 -37.79528,-22.4616 -11.12847,0.3087 -20.05187,12.7077 -33.38549,23.6961 -13.33363,10.9885 -31.07638,20.5654 -45.78698,20.4347 -14.71061,-0.1307 -26.38885,-9.9691 -38.06705,-19.8075 m 13.21961,-36.6391 c -13.15201,-11.70844 -26.30395,-23.41681 -42.16582,-24.19076 -15.86188,-0.77395 -34.43333,9.38634 -47.76694,20.37476 -13.33362,10.9884 -21.42834,22.8041 -32.14239,23.6148 -10.71406,0.8107 -24.04718,-9.3836 -37.38062,-20.3718 -13.33344,-10.9883 -26.66679,-22.77025 -42.30757,-22.77024 -15.64077,2e-5 -33.58859,11.78175 -46.92219,22.77014 -13.33359,10.9884 -22.05192,21.1826 -32.25026,21.3606 -10.19833,0.178 -21.87658,-9.6604 -31.34878,-12.914 -9.47219,-3.2536 -18.98109,1.1057 -21.18436,7.2123 -2.20327,6.1065 2.31034,15.5937 9.87365,24.1371 7.5633,8.5433 19.24129,18.3815 33.95062,17.7046 14.70933,-0.6769 32.44851,-11.8687 45.78213,-22.8572 13.33363,-10.9884 22.26006,-21.7721 33.39032,-21.2732 11.13026,0.4989 24.46339,12.2807 37.79683,23.269 13.33344,10.9882 26.66628,21.1823 42.20319,20.8704 15.53691,-0.3118 33.27604,-11.1294 46.60966,-22.1178 13.33361,-10.9884 22.26007,-22.1463 33.29965,-21.8712 11.03958,0.275 24.19122,11.9831 37.34327,23.6916"
         sodipodi:nodetypes="ccscscsccaccscscsccccscscsccaccscscscc" />
    </g>
  </g>
</svg>
