<?xml version="1.0" encoding="UTF-8" standalone="no"?>
<!-- Created with Inkscape (http://www.inkscape.org/) -->

<svg
   width="170.38675mm"
   height="173.41805mm"
   viewBox="0 0 170.38675 173.41805"
   version="1.1"
   id="svg1"
   xmlns:inkscape="http://www.inkscape.org/namespaces/inkscape"
   xmlns:sodipodi="http://sodipodi.sourceforge.net/DTD/sodipodi-0.dtd"
   xmlns="http://www.w3.org/2000/svg"
   xmlns:svg="http://www.w3.org/2000/svg">
  <sodipodi:namedview
     id="namedview1"
     pagecolor="#ffffff"
     bordercolor="#000000"
     borderopacity="0.25"
     inkscape:showpageshadow="2"
     inkscape:pageopacity="0.0"
     inkscape:pagecheckerboard="0"
     inkscape:deskcolor="#d1d1d1"
     inkscape:document-units="mm">
    <inkscape:page
       x="-3.2811231e-14"
       y="0"
       width="170.38673"
       height="173.41805"
       id="page2"
       margin="0"
       bleed="0" />
  </sodipodi:namedview>
  <defs
     id="defs1" />
  <g
     id="g1"
     inkscape:label="Staphylococcus"
     transform="translate(-9.489342,-20.313704)">
    <path
       style="display:inline;fill:#38b26b;fill-opacity:1;fill-rule:evenodd;stroke:#24365b;stroke-width:3.97435;stroke-linecap:round;stroke-dasharray:none;stroke-opacity:1"
       id="path236-0-6-5-8-7-5"
       d="m 128.35422,76.413115 a 26.293612,27.830052 45.619128 0 1 -25.47363,-27.003644 26.293612,27.830052 45.619128 0 1 28.44153,-27.10821 26.293612,27.830052 45.619128 0 1 25.66515,26.8211 26.293612,27.830052 45.619128 0 1 -28.26872,27.288824" />
    <path
       style="display:inline;fill:#38b26b;fill-opacity:1;fill-rule:evenodd;stroke:#24365b;stroke-width:3.97435;stroke-linecap:round;stroke-dasharray:none;stroke-opacity:1"
       id="path236-0-6-5-8-7"
       d="m 149.22441,115.69501 a 26.293612,27.830052 45.619128 0 1 -25.47363,-27.003644 26.293612,27.830052 45.619128 0 1 28.44153,-27.10821 26.293612,27.830052 45.619128 0 1 25.66515,26.8211 26.293612,27.830052 45.619128 0 1 -28.26872,27.288824" />
    <path
       style="display:inline;fill:#38b26b;fill-opacity:1;fill-rule:evenodd;stroke:#24365b;stroke-width:3.97435;stroke-linecap:round;stroke-dasharray:none;stroke-opacity:1"
       id="path236-0-6-5-8-7-9"
       d="m 93.345169,113.22672 a 26.293612,27.830052 45.619128 0 1 -25.47363,-27.003642 26.293612,27.830052 45.619128 0 1 28.44153,-27.10821 26.293612,27.830052 45.619128 0 1 25.665151,26.8211 26.293612,27.830052 45.619128 0 1 -28.268721,27.288822" />
    <path
       style="display:inline;fill:#38b26b;fill-opacity:1;fill-rule:evenodd;stroke:#24365b;stroke-width:3.97435;stroke-linecap:round;stroke-dasharray:none;stroke-opacity:1"
       id="path236-0-6-5-8-7-9-7"
       d="m 115.97466,154.99853 a 26.293612,27.830052 45.619128 0 1 -25.473637,-27.00364 26.293612,27.830052 45.619128 0 1 28.441537,-27.10821 26.293612,27.830052 45.619128 0 1 25.66514,26.8211 26.293612,27.830052 45.619128 0 1 -28.26871,27.28882" />
    <path
       style="display:inline;fill:#38b26b;fill-opacity:1;fill-rule:evenodd;stroke:#24365b;stroke-width:3.97435;stroke-linecap:round;stroke-dasharray:none;stroke-opacity:1"
       id="path236-0-6-5-8-7-9-2"
       d="M 36.99102,108.95189 A 26.293612,27.830052 45.619128 0 1 11.517386,81.948247 26.293612,27.830052 45.619128 0 1 39.95892,54.840037 26.293612,27.830052 45.619128 0 1 65.62407,81.661137 26.293612,27.830052 45.619128 0 1 37.35535,108.94996" />
    <path
       style="display:inline;fill:#38b26b;fill-opacity:1;fill-rule:evenodd;stroke:#24365b;stroke-width:3.97435;stroke-linecap:round;stroke-dasharray:none;stroke-opacity:1"
       id="path236-0-6-5-8-7-9-0"
       d="m 58.456371,151.71632 a 26.293612,27.830052 45.619128 0 1 -25.47363,-27.00364 26.293612,27.830052 45.619128 0 1 28.44153,-27.108216 26.293612,27.830052 45.619128 0 1 25.66515,26.821106 26.293612,27.830052 45.619128 0 1 -28.26872,27.28882" />
    <path
       style="display:inline;fill:#38b26b;fill-opacity:1;fill-rule:evenodd;stroke:#24365b;stroke-width:3.97435;stroke-linecap:round;stroke-dasharray:none;stroke-opacity:1"
       id="path236-0-6-5-8-7-9-0-0"
       d="m 83.908423,191.74456 a 26.293612,27.830052 45.619128 0 1 -25.47363,-27.00365 26.293612,27.830052 45.619128 0 1 28.44153,-27.10821 26.293612,27.830052 45.619128 0 1 25.665147,26.8211 26.293612,27.830052 45.619128 0 1 -28.268717,27.28883" />
  </g>
</svg>
