<?xml version="1.0" encoding="UTF-8" standalone="no"?>
<!-- Created with Inkscape (http://www.inkscape.org/) -->

<svg
   width="202.44289mm"
   height="115.48728mm"
   viewBox="0 0 202.44289 115.48728"
   version="1.1"
   id="svg1"
   xmlns="http://www.w3.org/2000/svg"
   xmlns:svg="http://www.w3.org/2000/svg">
  <defs
     id="defs1" />
  <g
     id="layer1"
     transform="translate(-47.360409,-115.35831)">
    <g
       id="g136-64-7-6-0"
       transform="matrix(-0.66587358,3.7763555,-3.8055228,-0.67101634,839.94466,-274.34493)"
       style="display:inline;fill:#38b26b;fill-opacity:1;stroke:#24365b;stroke-width:1.03913;stroke-dasharray:none;stroke-opacity:1">
      <path
         style="fill:#38b26b;fill-opacity:1;fill-rule:nonzero;stroke:#24365b;stroke-width:1.03913;stroke-linecap:round;stroke-linejoin:round;stroke-miterlimit:4;stroke-dasharray:none;stroke-opacity:1;paint-order:normal"
         id="path136-0-4-4-1-3"
         d="m 144.84572,140.25209 a 7.3165617,7.1004601 0 0 1 -0.60978,9.75825 7.3165617,7.1004601 0 0 1 -10.07336,-0.082 7.3165617,7.1004601 0 0 1 -0.44107,-9.7668"
         transform="matrix(0,1,1,0,0,0)" />
      <path
         style="fill:#38b26b;fill-opacity:1;fill-rule:nonzero;stroke:#24365b;stroke-width:1.03913;stroke-linecap:round;stroke-linejoin:round;stroke-miterlimit:4;stroke-dasharray:none;stroke-opacity:1;paint-order:normal"
         id="path136-0-5-3-3-1-7"
         d="m 144.87799,-140.25769 a 7.3165617,7.1004601 0 0 1 -0.57584,9.72731 7.3165617,7.1004601 0 0 1 -10.03988,0.0113 7.3165617,7.1004601 0 0 1 -0.59911,-9.72599"
         transform="rotate(90)" />
      <path
         style="fill:#38b26b;fill-opacity:1;fill-rule:nonzero;stroke:#24365b;stroke-width:3.11236;stroke-linecap:round;stroke-linejoin:round;stroke-miterlimit:4;stroke-dasharray:none;stroke-opacity:1;paint-order:normal"
         d="m 25.368666,201.64167 33.410796,-0.19615"
         id="path136-73-1-5-8"
         transform="matrix(0,0.33387026,-0.33387026,0,207.49586,125.21381)" />
      <path
         style="display:inline;fill:#38b26b;fill-opacity:1;fill-rule:evenodd;stroke:#24365b;stroke-width:0.180293;stroke-linecap:round;stroke-dasharray:none;stroke-opacity:1"
         id="path236-0-6-5-8"
         transform="matrix(5.0106074,2.8707032,-2.8928757,4.9722042,-211.3147,614.0117)"
         d="m 15.270901,-101.93317 a 1.2736883,1.2023342 0 0 1 -0.206774,1.68624 1.2736883,1.2023342 0 0 1 -1.78699,-0.18951 1.2736883,1.2023342 0 0 1 0.194741,-1.68751 1.2736883,1.2023342 0 0 1 1.788302,0.17815" />
      <g
         id="g136-6-4-2-9-6"
         transform="matrix(0.64278757,0.76017308,0.77196104,-0.64278762,-44.579621,152.64193)"
         style="display:inline;fill:#38b26b;fill-opacity:1;stroke:#24365b;stroke-width:1.03913;stroke-dasharray:none;stroke-opacity:1">
        <path
           style="fill:#38b26b;fill-opacity:1;fill-rule:nonzero;stroke:#24365b;stroke-width:1.03913;stroke-linecap:round;stroke-linejoin:round;stroke-miterlimit:4;stroke-dasharray:none;stroke-opacity:1;paint-order:normal"
           id="path136-0-2-7-4-8-0"
           d="m 144.84572,140.25209 a 7.3165617,7.1004601 0 0 1 -0.60978,9.75825 7.3165617,7.1004601 0 0 1 -10.07336,-0.082 7.3165617,7.1004601 0 0 1 -0.44107,-9.7668"
           transform="matrix(0,1,1,0,0,0)" />
        <path
           style="fill:#38b26b;fill-opacity:1;fill-rule:nonzero;stroke:#24365b;stroke-width:1.03913;stroke-linecap:round;stroke-linejoin:round;stroke-miterlimit:4;stroke-dasharray:none;stroke-opacity:1;paint-order:normal"
           id="path136-0-5-1-2-7-4-4"
           d="m 144.87799,-140.25769 a 7.3165617,7.1004601 0 0 1 -0.57584,9.72731 7.3165617,7.1004601 0 0 1 -10.03988,0.0113 7.3165617,7.1004601 0 0 1 -0.59911,-9.72599"
           transform="rotate(90)" />
        <path
           style="fill:#38b26b;fill-opacity:1;fill-rule:nonzero;stroke:#24365b;stroke-width:3.11236;stroke-linecap:round;stroke-linejoin:round;stroke-miterlimit:4;stroke-dasharray:none;stroke-opacity:1;paint-order:normal"
           d="m 25.368666,201.64167 33.410796,-0.19615"
           id="path136-7-1-5-8-6"
           transform="matrix(0,0.33387026,-0.33387026,0,207.49586,125.21381)" />
      </g>
    </g>
  </g>
</svg>
