<?xml version="1.0" encoding="UTF-8" standalone="no"?>
<!-- Created with Inkscape (http://www.inkscape.org/) -->

<svg
   width="298.28836mm"
   height="158.73685mm"
   viewBox="0 0 298.28836 158.73685"
   version="1.1"
   id="svg1"
   xmlns="http://www.w3.org/2000/svg"
   xmlns:svg="http://www.w3.org/2000/svg">
  <defs
     id="defs1" />
  <g
     id="layer1"
     transform="translate(97.366642,-148.43125)">
    <g
       id="g20-6-8-5-0"
       transform="matrix(1.3321104,-2.8856056,2.8567168,1.34558,-516.78872,271.69764)"
       style="display:inline;fill:#5c7bbe;fill-opacity:1;stroke:#24365b;stroke-width:1.26265;stroke-dasharray:none;stroke-opacity:1">
      <path
         style="fill:#5c7bbe;fill-opacity:1;stroke:#24365b;stroke-width:1.26265;stroke-linecap:butt;stroke-linejoin:round;stroke-dasharray:none;stroke-opacity:1"
         d="m 75.86626,127.67152 c -2.593532,9.37159 -6.734464,25.45584 -6.488913,38.09869 0.245551,12.64284 4.877304,21.84371 8.826174,27.79226 3.948871,5.94855 7.214367,8.64404 11.021467,10.0253 3.807099,1.38126 8.155334,1.44814 11.611492,0.86613 3.45615,-0.58201 6.01981,-1.81284 8.29879,-3.47428 2.27899,-1.66144 4.27306,-3.75331 5.36802,-6.02498 1.09496,-2.27166 1.2907,-4.72291 1.08344,-7.36522 -0.20726,-2.64231 -0.81749,-5.47552 -1.81503,-8.0105 -0.99755,-2.53497 -2.3823,-4.77151 -4.2117,-7.76788 -1.8294,-2.99638 -4.10324,-6.75226 -5.88132,-10.45216 -1.77807,-3.6999 -3.06023,-7.34351 -4.192093,-11.19712 -1.13186,-3.85362 -2.113388,-7.91715 -2.807472,-11.62792 -0.694083,-3.71077 -1.100697,-7.06863 -1.256074,-10.54931 -0.155377,-3.48067 -0.0595,-7.08387 -0.403871,-9.90986 -0.344368,-2.82599 -1.12895,-4.87462 -2.371248,-6.26947 -1.242297,-1.39485 -2.942228,-2.13584 -4.446052,-2.39737 -1.503825,-0.26153 -2.811462,-0.0436 -4.053754,0.63204 -1.242293,0.67564 -2.419163,1.80892 -3.530689,3.70506 -1.111525,1.89614 -2.157634,4.555 -4.751167,13.92659 z"
         id="path14-7-6-0-9"
         transform="translate(0.2878384,-1.8832156)" />
      <ellipse
         style="fill:#38b26b;fill-opacity:1;stroke:#24365b;stroke-width:1.26265;stroke-dasharray:none;stroke-opacity:1"
         id="path15-2-2-9-9"
         cx="97.388222"
         cy="186.93045"
         rx="10.083117"
         ry="9.0228767" />
      <path
         style="fill:#38b26b;fill-opacity:1;stroke:#24365b;stroke-width:1.26265;stroke-dasharray:none;stroke-opacity:1"
         d="m 83.879435,115.6583 c 0.11613,0.0263 -1.344066,9.52848 -3.098546,15.82718 -1.754481,6.29869 -3.803111,9.39343 -4.500527,11.77994 -0.697416,2.3865 -0.0436,4.06463 0.948061,5.02359 0.99166,0.95896 2.32109,1.19869 3.487099,0.98074 1.16601,-0.21795 2.16853,-0.89356 2.865956,-2.12497 0.697425,-1.2314 1.089716,-3.0185 0.505006,-5.21335 -0.584709,-2.19485 -2.146391,-4.79735 -2.081009,-10.82363 0.06538,-6.02627 1.757829,-15.4758 1.87396,-15.4495 z"
         id="path16-7-7-6-4" />
      <path
         style="fill:#38b26b;fill-opacity:1;stroke:#24365b;stroke-width:1.26265;stroke-dasharray:none;stroke-opacity:1"
         d="m 83.563532,117.27826 c 0.03654,-0.1499 0.10963,-0.4497 0.292629,-0.88212 0.182999,-0.43242 0.475889,-0.99741 1.035285,-1.33994 0.559395,-0.34253 1.385227,-0.46255 2.188329,-0.0885 0.803103,0.37409 1.583382,1.24225 2.123465,1.45918 0.540083,0.21694 0.8399,-0.21737 1.232644,-0.51616 0.392744,-0.29879 0.878358,-0.46202 1.01446,-0.82495 0.136103,-0.36294 -0.07732,-0.92554 -0.4536,-1.47835 -0.37628,-0.55282 -0.915388,-1.0958 -1.547286,-1.4681 -0.631898,-0.37229 -1.356546,-0.57388 -2.111184,-0.57388 -0.754639,0 -1.539223,0.20159 -2.203957,0.61842 -0.664734,0.41682 -1.209586,1.04885 -1.457494,1.95878 -0.247909,0.90993 -0.198873,2.09769 -0.174354,2.69159 0.02452,0.5939 0.02452,0.59389 0.06106,0.44399 z"
         id="path17-4-0-3-5" />
      <path
         style="fill:#38b26b;fill-opacity:1;stroke:#24365b;stroke-width:1.26265;stroke-dasharray:none;stroke-opacity:1"
         d="m 89.367052,116.58567 c -0.01738,0.30471 0.842894,8.32532 1.251249,14.85065 0.408356,6.52534 0.364769,11.55484 -0.276759,15.11696 -0.641528,3.56211 -1.880952,5.65652 -1.69427,7.13965 0.186681,1.48312 1.799434,2.35488 3.096209,2.28948 1.296776,-0.0654 2.277504,-1.06791 2.822364,-2.23392 0.544861,-1.16601 0.653831,-2.49544 0.577548,-4.05376 -0.07628,-1.55832 -0.337809,-3.34542 -1.03018,-6.48212 -0.69237,-3.1367 -1.81551,-7.62269 -2.82464,-13.57157 -1.00913,-5.94888 -1.904147,-13.36008 -1.921521,-13.05537 z"
         id="path18-1-7-8-1" />
    </g>
  </g>
</svg>
