<?xml version="1.0" encoding="UTF-8" standalone="no"?>
<!-- Created with Inkscape (http://www.inkscape.org/) -->

<svg
   width="316.98483mm"
   height="445.41507mm"
   viewBox="0 0 316.98483 445.41507"
   version="1.1"
   id="svg1"
   xmlns="http://www.w3.org/2000/svg"
   xmlns:svg="http://www.w3.org/2000/svg">
  <defs
     id="defs1" />
  <g
     id="layer1"
     transform="translate(-2.1166551,48.94792)">
    <g
       id="g94-9-5-1-7"
       transform="matrix(0.35269274,-0.24695815,0.24695815,0.35269274,144.00148,67.28475)"
       style="display:inline;fill:#20a96d;fill-opacity:1;stroke-width:9.29026;stroke-dasharray:none">
      <path
         style="font-variation-settings:normal;display:inline;opacity:1;fill:#5c7bbe;fill-opacity:1;fill-rule:nonzero;stroke:#24365b;stroke-width:4.48026;stroke-linecap:butt;stroke-linejoin:miter;stroke-miterlimit:4;stroke-dasharray:none;stroke-dashoffset:0;stroke-opacity:1;stop-color:#000000;stop-opacity:1"
         d="m -177.57906,317.69754 c -5.56011,-5.18037 -11.12023,-10.36077 -15.87789,-14.63007 -4.75767,-4.2693 -8.71263,-7.62733 -11.38782,-12.86939 -2.67519,-5.24206 -4.07028,-12.36754 -4.02993,-18.09221 0.0403,-5.72467 1.51615,-10.04781 3.99292,-15.32923 2.47677,-5.28142 5.9543,-11.5206 9.78955,-17.51932 3.83524,-5.99872 8.02798,-11.75664 11.68799,-17.11301 3.66001,-5.35637 6.78708,-10.31087 9.91423,-15.2655"
         id="path96-5-8-0-6"
         transform="matrix(2.0736,0,0,2.0736,118.36008,-241.23382)" />
      <path
         style="font-variation-settings:normal;display:inline;opacity:1;fill:#5c7bbe;fill-opacity:1;fill-rule:nonzero;stroke:#24365b;stroke-width:4.48026;stroke-linecap:butt;stroke-linejoin:miter;stroke-miterlimit:4;stroke-dasharray:none;stroke-dashoffset:0;stroke-opacity:1;stop-color:#000000;stop-opacity:1"
         d="m -101.33752,360.54521 c 6.857914,-9.31452 13.715818,-18.62903 20.781746,-26.2042 7.065928,-7.57518 14.339583,-13.41077 18.954822,-19.51431 4.615239,-6.10354 6.571844,-12.47461 7.038811,-19.31979 0.466968,-6.84517 -0.555713,-14.16399 -2.502962,-20.65042 -1.947248,-6.48642 -4.818924,-12.14007 -8.202685,-16.90011 -3.383761,-4.76004 -7.279378,-8.62619 -10.090114,-13.55424 -2.810737,-4.92806 -4.536438,-10.9177 -5.21546,-17.42688 -0.679023,-6.50918 -0.311345,-13.53751 -0.700195,-19.16041 -0.38885,-5.62291 -1.534195,-9.8401 -4.268566,-14.71466 -2.734371,-4.87455 -7.057578,-10.40618 -12.129614,-16.00684 -5.072033,-5.60066 -10.892563,-11.26999 -16.761963,-16.67864 -5.86941,-5.40864 -11.78735,-10.55628 -17.70538,-15.704"
         id="path95-6-0-3-0"
         transform="matrix(2.0736,0,0,2.0736,118.36008,-241.23382)" />
      <path
         style="fill:#5c7bbe;fill-opacity:1;stroke:#24365b;stroke-width:4.48026;stroke-linecap:butt;stroke-linejoin:round;stroke-dasharray:none;stroke-opacity:1"
         d="m -147.39768,129.48271 c -13.09439,-5.86878 -16.06682,19.84558 -19.90764,43.17748 -3.84081,23.3319 -8.54973,44.28006 -13.41458,60.83231 -4.86485,16.55226 -9.88505,28.70663 -8.74841,44.06361 1.13665,15.35699 8.43001,33.91477 16.44029,49.32166 8.01028,15.40689 16.73671,27.66131 23.08255,36.67529 6.34585,9.01397 10.31068,14.7869 13.71405,20.00168 3.40338,5.21478 6.24486,9.87073 10.54768,8.37716 4.30282,-1.49356 10.06646,-9.13648 16.97247,-19.64443 6.90602,-10.50795 14.953567,-23.87967 21.940728,-40.20293 6.987162,-16.32325 12.913098,-35.59609 12.55294,-56.39317 -0.360158,-20.79707 -7.006368,-43.11588 -21.938087,-73.00231 -14.931721,-29.88642 -38.147591,-67.33758 -51.241991,-73.20635 z"
         id="path21-8-7-0-9"
         transform="matrix(2.0736,0,0,2.0736,118.36009,-241.23382)" />
      <g
         id="path22-9-7-4-7"
         style="opacity:1;stroke-width:9.29026;stroke-dasharray:none"
         transform="translate(-0.03273627,-0.38939225)">
        <path
           style="font-variation-settings:normal;opacity:1;fill:#24365b;fill-opacity:1;fill-rule:nonzero;stroke:none;stroke-width:4.48026;stroke-linecap:butt;stroke-linejoin:miter;stroke-miterlimit:4;stroke-dasharray:none;stroke-dashoffset:0;stroke-opacity:1;stop-color:#000000;stop-opacity:1"
           d="m -128.96359,395.43179 c 0,0 -3.81308,1.17495 -3.81308,1.17495 0.93421,3.03179 2.41347,7.62221 3.45657,11.95995 0.89181,3.70858 1.7114,8.13115 1.97921,13.38824 0.23927,4.69682 0.0504,10.30346 -0.89091,16.03894 -0.87018,5.30198 -2.38185,10.68082 -4.75134,15.30974 -2.28606,4.46593 -5.36925,8.24553 -8.64945,12.08555 -1.55008,1.81464 -3.16232,3.66712 -4.58177,5.47597 -1.41549,1.8038 -2.72404,3.66794 -3.72243,5.61876 -0.99825,1.95054 -1.66785,3.95342 -2.00323,5.99771 -0.33416,2.03688 -0.3318,4.08585 -0.0147,6.13455 0.31666,2.04602 0.94492,4.07813 1.85142,6.09097 0.90927,2.01899 2.10042,4.02305 3.54453,6.01014 1.45375,2.00032 3.17017,3.99207 5.03526,5.87103 1.88756,1.90159 3.93315,3.69367 6.03223,5.27683 2.13193,1.60795 4.31947,3.00091 6.46496,4.08346 2.18766,1.10382 4.33617,1.88737 6.35055,2.25038 2.06939,0.37293 3.96436,0.29541 5.68325,-0.0745 1.76949,-0.38079 3.35721,-1.07234 4.7675,-1.90811 1.46414,-0.86769 2.76689,-1.90879 3.90796,-2.96519 1.19496,-1.10629 2.25338,-2.26791 3.15751,-3.32195 1.99194,-2.32222 3.43415,-4.35899 4.555,-6.07141 1.243116,-1.8992 2.594323,-4.21662 3.339445,-5.44165 -0.850287,1.39793 -2.061079,3.32983 -3.523905,5.31342 -1.21442,1.64676 -2.76647,3.5615 -4.87827,5.73634 -0.95907,0.98769 -2.06107,2.05797 -3.28346,3.05807 -1.16871,0.95616 -2.46589,1.86371 -3.88436,2.58744 -1.36547,0.6967 -2.84647,1.22484 -4.44264,1.46356 -1.54461,0.23101 -3.2118,0.1935 -5.01121,-0.23738 -1.76431,-0.42247 -3.68584,-1.2294 -5.68371,-2.36155 -1.95603,-1.10844 -3.96196,-2.51569 -5.92131,-4.13558 -1.92857,-1.59444 -3.79879,-3.38417 -5.50744,-5.26817 -1.6902,-1.86366 -3.21032,-3.80653 -4.45936,-5.71891 -1.23937,-1.89757 -2.20162,-3.74943 -2.89026,-5.54914 -0.68588,-1.79245 -1.09585,-3.52124 -1.24474,-5.18493 -0.14865,-1.66105 -0.0377,-3.26264 0.32249,-4.81116 0.36136,-1.55366 0.97868,-3.07597 1.86207,-4.57099 0.89613,-1.51655 2.08534,-3.0426 3.49213,-4.65343 1.42465,-1.63129 3.02149,-3.29299 4.70914,-5.09032 3.45498,-3.67951 7.13494,-7.7672 9.97606,-12.80216 2.96402,-5.25276 4.86017,-11.25059 6.01014,-16.98771 1.24766,-6.22452 1.6591,-12.32949 1.57154,-17.48998 -0.099,-5.835 -0.84048,-10.75576 -1.70122,-14.84729 -1.02013,-4.84918 -2.45005,-9.53614 -3.39706,-12.60946 0,0 -3.81308,1.17495 -3.81308,1.17495 z"
           id="path87-5-3-4-5"
           transform="matrix(2.0736,0,0,2.0736,118.32494,-241.65187)" />
        <path
           style="font-variation-settings:normal;opacity:1;fill:#24365b;fill-opacity:1;fill-rule:nonzero;stroke:none;stroke-width:4.48026;stroke-linecap:butt;stroke-linejoin:miter;stroke-miterlimit:4;stroke-dasharray:none;stroke-dashoffset:0;stroke-opacity:1;stop-color:#000000;stop-opacity:1"
           d="m -129.43357,391.49188 c 0,0 -3.30563,-2.23448 -3.30563,-2.23448 -3.0733,4.54655 -7.64913,11.54483 -12.46559,16.77431 -2.11269,2.29387 -4.46593,4.49083 -7.12829,6.37129 -2.45634,1.73495 -5.23104,3.24098 -8.43105,4.32178 -3.03213,1.02411 -6.52514,1.69182 -10.35297,1.89069 -3.64657,0.18946 -7.56151,-0.0496 -11.56075,-0.79428 -7.59731,-1.41469 -15.44829,-4.65365 -21.8687,-10.05326 -3.09799,-2.60543 -5.88982,-5.73991 -8.40624,-9.33265 -2.47838,-3.53844 -4.66563,-7.48714 -6.60174,-11.74692 -3.83588,-8.43962 -6.59552,-17.89851 -8.69776,-27.38199 -2.09444,-9.44824 -3.5029,-18.76815 -4.74106,-27.47915 -1.27467,-8.96786 -2.33669,-17.03107 -3.77565,-24.24203 -1.49226,-7.47806 -3.32799,-13.67556 -5.97429,-19.39093 -2.83713,-6.1275 -6.5347,-11.52268 -11.30502,-16.84895 -5.31311,-5.93232 -12.06962,-11.88364 -18.47448,-17.17149 -7.46289,-6.16135 -17.0465,-13.48924 -22.6215,-17.81115 5.85841,4.54161 14.81269,11.51437 22.43461,18.03354 6.32041,5.40596 12.90357,11.4755 18.00518,17.51972 4.56969,5.41401 7.98967,10.83798 10.51901,16.91259 2.35635,5.65918 3.90378,11.77253 5.10429,19.17504 1.16413,7.17823 1.94913,15.16511 2.95134,24.21998 0.96843,8.74966 2.11557,18.22952 3.97012,27.89028 1.85826,9.68008 4.42634,19.54743 8.18953,28.50333 1.90428,4.53193 4.1129,8.8268 6.68936,12.75006 2.6171,3.98515 5.6098,7.5808 9.04078,10.65015 7.10434,6.35551 15.8013,10.23928 24.29159,12.08101 4.4635,0.96823 8.88775,1.37472 13.07548,1.28134 4.39103,-0.0979 8.53673,-0.74471 12.2716,-1.88142 3.97213,-1.20891 7.42519,-2.95411 10.45515,-4.96741 3.26944,-2.17242 6.09035,-4.6877 8.53365,-7.22129 5.53076,-5.73512 10.49176,-13.15561 13.48466,-17.58323 0,0 -3.30563,-2.23448 -3.30563,-2.23448 z"
           id="path88-5-7-4-9"
           transform="matrix(2.0736,0,0,2.0736,118.32494,-241.65187)" />
        <path
           style="font-variation-settings:normal;opacity:1;fill:#24365b;fill-opacity:1;fill-rule:nonzero;stroke:none;stroke-width:4.48026;stroke-linecap:butt;stroke-linejoin:miter;stroke-miterlimit:4;stroke-dasharray:none;stroke-dashoffset:0;stroke-opacity:1;stop-color:#000000;stop-opacity:1"
           d="m -128.96359,395.43179 c 0,0 2.05643,3.41924 2.05643,3.41924 0.24994,-0.15032 0.27834,-0.16787 0.18819,-0.14164 -0.11471,0.0334 -0.3949,0.11117 -0.75046,0.0808 -0.30941,-0.0264 -0.54457,-0.13492 -0.53343,-0.17063 0.008,-0.0249 0.21261,0.046 0.5881,0.32472 0.36377,0.27 0.86514,0.71409 1.50547,1.37411 0.60661,0.62527 1.31539,1.4207 2.13251,2.41015 1.54532,1.87123 3.44019,4.39025 5.72113,7.67817 2.14909,3.09785 4.66532,6.93108 7.61234,11.10922 2.81426,3.9899 6.07054,8.35387 9.76912,12.56154 3.599598,4.09507 7.674079,8.10636 11.979255,11.39284 2.123826,1.62128 4.317016,3.07623 6.547216,4.27713 2.214894,1.19267 4.481914,2.14317 6.764746,2.75189 4.563067,1.21674 8.989938,1.01277 13.041291,-0.0407 4.038846,-1.05023 7.709876,-2.9446 10.82093,-5.12678 3.153236,-2.21176 5.797847,-4.76382 7.844087,-7.77528 2.084002,-3.06704 3.504871,-6.54847 4.246014,-10.52296 0.752721,-4.03658 0.806349,-8.62686 0.703989,-13.02292 -0.107698,-4.62534 -0.382681,-9.17076 -0.361971,-13.1412 0.02201,-4.21897 0.365058,-7.7841 1.182691,-11.07499 0.883934,-3.55775 2.310421,-6.72399 4.352777,-9.78239 2.271352,-3.40131 5.335831,-6.7039 8.357892,-9.6468 3.534582,-3.44199 7.691783,-7.0275 10.70768,-9.61811 -2.934878,2.52102 -7.286619,6.20561 -10.808814,9.51234 -3.070576,2.88275 -6.237966,6.13107 -8.637994,9.48907 -2.165487,3.02985 -3.752977,6.20347 -4.810923,9.81866 -0.978951,3.34524 -1.483363,6.98092 -1.673469,11.26906 -0.178734,4.03162 -0.06882,8.60495 -0.135695,13.18247 -0.06419,4.39426 -0.299631,8.7811 -1.176212,12.53407 -0.850086,3.63954 -2.305751,6.70395 -4.293788,9.32176 -1.952686,2.57125 -4.433441,4.73115 -7.401439,6.59702 -2.95366,1.85686 -6.298991,3.36325 -9.83419,4.10412 -3.526997,0.73915 -7.196915,0.70807 -10.866923,-0.44277 -1.851825,-0.58069 -3.746953,-1.45859 -5.659725,-2.58607 -1.92467,-1.13448 -3.851326,-2.51228 -5.75056,-4.07122 -3.858065,-3.16679 -7.554339,-7.04059 -10.84914,-11.04722 -3.378471,-4.10839 -6.360115,-8.38704 -8.969715,-12.37236 -2.72804,-4.16619 -5.0767,-8.04593 -7.15854,-11.32541 -2.20144,-3.4679 -4.07437,-6.22894 -5.65011,-8.36839 -0.8349,-1.13359 -1.59945,-2.11054 -2.29799,-2.93746 -0.72749,-0.86121 -1.41735,-1.60023 -2.07227,-2.19789 -0.697,-0.63606 -1.40813,-1.16298 -2.1629,-1.5505 -0.83562,-0.42904 -1.71671,-0.68195 -2.63586,-0.71877 -1.00099,-0.0401 -1.82775,0.18551 -2.42051,0.41746 -0.60371,0.23623 -1.11077,0.54419 -1.26564,0.63734 0,0 2.05641,3.41925 2.05641,3.41925 z"
           id="path90-2-7-4-7"
           transform="matrix(2.0736,0,0,2.0736,118.32494,-241.65187)" />
        <path
           style="font-variation-settings:normal;opacity:1;fill:#24365b;fill-opacity:1;fill-rule:nonzero;stroke:none;stroke-width:4.48026;stroke-linecap:butt;stroke-linejoin:miter;stroke-miterlimit:4;stroke-dasharray:none;stroke-dashoffset:0;stroke-opacity:1;stop-color:#000000;stop-opacity:1"
           d="m -153.13071,131.59291 c 0,0 5.40696,-2.77292 5.40696,-2.77292 -2.15844,-4.20877 -6.5162,-12.39022 -9.78672,-19.36458 -2.85146,-6.08071 -5.99134,-13.465473 -8.79059,-22.380258 -2.50731,-7.985261 -4.8293,-17.431927 -6.21453,-27.496667 -1.29827,-9.432943 -1.76124,-19.363302 -0.72729,-28.857355 1.0056,-9.234205 3.42335,-17.934921 7.44716,-25.1092203 1.99983,-3.5656219 4.38741,-6.738509 7.1821,-9.4161649 2.81289,-2.6950937 6.0468,-4.8969412 9.73304,-6.4968628 3.75673,-1.630514 8.03364,-2.65505 12.56133,-3.354922 4.60676,-0.712096 9.45313,-1.084219 14.1399,-1.423384 4.89783,-0.354439 9.52665,-0.667818 13.86384,-1.271322 2.21776,-0.308592 4.31762,-0.68815 6.28244,-1.176013 2.01482,-0.500277 3.874915,-1.111388 5.561655,-1.868047 3.528468,-1.582843 6.230112,-3.774124 8.356096,-6.244394 2.297319,-2.66935 3.974981,-5.72835 5.271057,-8.806203 1.447538,-3.437539 2.499421,-7.102254 3.329993,-10.463897 0.935876,-3.787848 1.834966,-8.274525 2.470442,-11.297944 -0.665374,3.165666 -1.568728,7.35612 -2.64996,11.250861 -0.927802,3.342065 -2.106773,6.932292 -3.694329,10.267269 -1.422299,2.987818 -3.212624,5.861567 -5.56117,8.289949 -2.166232,2.239872 -4.827096,4.123779 -8.188001,5.399328 -1.609995,0.611034 -3.391983,1.087432 -5.338753,1.458079 -1.89893,0.361535 -3.93773,0.619358 -6.10892,0.806784 -4.26134,0.367855 -8.80682,0.449816 -13.74109,0.561114 -4.67701,0.105494 -9.67362,0.237721 -14.47662,0.726166 -4.71214,0.479204 -9.43406,1.317055 -13.76519,2.90534 -4.29989,1.576833 -8.16707,3.871703 -11.59801,6.7806865 -3.40398,2.88613 -6.34237,6.3460009 -8.83499,10.2381655 -5.00427,7.814026 -8.1603,17.285487 -9.76133,27.221944 -1.64674,10.21984 -1.6509,20.866711 -0.7514,30.895903 0.95997,10.703261 2.9568,20.818235 5.20275,29.359152 2.53081,9.62389 5.4846,17.617743 8.23339,24.182283 3.36456,8.03507 7.15171,15.57352 9.53978,20.23005 z"
           id="path92-1-9-7-8"
           transform="matrix(2.0736,0,0,2.0736,118.32494,-241.65187)" />
        <ellipse
           style="fill:#38b26b;fill-opacity:1;fill-rule:nonzero;stroke:#24365b;stroke-width:9.29026;stroke-linecap:round;stroke-linejoin:bevel;stroke-miterlimit:4;stroke-dasharray:none;stroke-opacity:1;paint-order:normal"
           id="path94-5-3-6-5"
           cx="-377.34448"
           cy="-113.76664"
           transform="rotate(-87)"
           rx="56.361927"
           ry="37.768303" />
      </g>
    </g>
  </g>
</svg>
