<?xml version="1.0" encoding="UTF-8" standalone="no"?>
<!-- Created with Inkscape (http://www.inkscape.org/) -->

<svg
   width="375.65979mm"
   height="93.399605mm"
   viewBox="0 0 375.65979 93.399605"
   version="1.1"
   id="svg1"
   xmlns="http://www.w3.org/2000/svg"
   xmlns:svg="http://www.w3.org/2000/svg">
  <defs
     id="defs1" />
  <g
     id="layer1"
     transform="translate(119.32707,-124.35418)">
    <g
       id="g30"
       transform="translate(-923.6674,-1237.7915)">
      <path
         style="font-variation-settings:normal;fill:#38b26b;fill-opacity:1;stroke:#24365b;stroke-width:6.77403;stroke-linecap:butt;stroke-linejoin:bevel;stroke-miterlimit:4;stroke-dasharray:none;stroke-dashoffset:0;stroke-opacity:1;stop-color:#000000"
         d="m 931.85054,1281.7063 c 28.08083,-15.4818 79.96726,-38.5938 131.95986,-36.8164 51.9925,1.7773 104.0911,28.444 133.4737,45.1107 29.3827,16.6666 36.0493,23.3333 40.4571,29.9999 4.4077,6.6667 6.5564,13.3334 7.0856,20.0001 0.5292,6.6667 -0.5613,13.3333 -4.969,20 -4.4077,6.6667 -12.1327,13.3333 -19.8577,15.6083 -7.725,2.275 -15.45,0.1584 -25.45,-3.7923 -10,-3.9507 -22.275,-9.7355 -35.0792,-15.3438 -12.8041,-5.6083 -26.1375,-11.0403 -39.4708,-17.0896 -13.3333,-6.0493 -26.6667,-12.716 -42.401,-16.0493 -15.7343,-3.3334 -33.8695,-3.3333 -57.2028,3.3333 -23.33339,6.6667 -51.86482,20.0001 -69.46385,26.6667 -17.59902,6.6667 -24.26568,6.6667 -30.93234,4.7558 -6.66666,-1.9109 -13.33336,-5.7328 -17.99358,-11.0113 -4.66022,-5.2785 -7.31398,-12.0136 -8.11078,-17.9543 -0.7968,-5.9407 0.26335,-11.0868 2.93104,-17.5857 2.66768,-6.4988 6.94292,-14.3504 35.02375,-29.8321 z"
         id="path23-9"
         transform="matrix(0.59049,0,0,0.59049,278.6513,629.10825)" />
      <path
         style="font-variation-settings:normal;opacity:1;vector-effect:none;fill:#23375b;fill-opacity:1;fill-rule:nonzero;stroke:none;stroke-width:1.5;stroke-linecap:butt;stroke-linejoin:bevel;stroke-miterlimit:4;stroke-dasharray:none;stroke-dashoffset:0;stroke-opacity:1;-inkscape-stroke:none;stop-color:#000000;stop-opacity:1"
         d="m 1009.0001,1435.0006 c 0,0 -4.357,2.2912 -4.357,2.2912 2.0342,3.8683 5.7335,11.0172 10.8213,16.8269 2.2305,2.5469 4.9379,5.1225 8.3148,7.4787 3.1208,2.1775 6.8118,4.1679 11.2712,5.8116 4.1906,1.5446 9.0486,2.7775 14.3257,3.6055 5.0501,0.7924 10.5141,1.2177 16.0941,1.1658 5.3997,-0.05 10.9321,-0.5481 16.2586,-1.6061 5.2032,-1.0335 10.2462,-2.6092 14.7544,-4.8447 4.4569,-2.2102 8.2695,-5.0078 11.6746,-8.0436 3.3703,-3.0048 6.3563,-6.2575 9.1531,-9.3883 2.8264,-3.164 5.4191,-6.1556 8.1292,-8.8236 2.7112,-2.6692 5.4487,-4.9193 8.4554,-6.5442 3.051,-1.6488 6.4532,-2.6898 9.9866,-3.2396 3.6121,-0.5622 7.3282,-0.6061 10.9051,-0.2819 3.6932,0.3347 7.2235,1.0601 10.3643,2.0074 3.2864,0.9913 6.1373,2.2215 8.3865,3.5224 2.3798,1.3766 4.1151,2.8486 5.4136,4.3488 1.4075,1.626 2.3296,3.3188 2.9602,4.9832 0.705,1.8603 1.0666,3.7474 1.2752,5.475 0.243,2.0131 0.3066,4.1196 0.3408,5.7152 -0.033,-1.5163 -0.047,-3.7804 -0.1912,-5.7298 -0.1284,-1.7328 -0.3794,-3.6714 -0.9676,-5.6158 -0.5276,-1.7437 -1.3508,-3.5818 -2.7042,-5.3995 -1.2517,-1.6813 -2.9719,-3.3667 -5.383,-4.9722 -2.2716,-1.5127 -5.1655,-2.9599 -8.5179,-4.1721 -3.2033,-1.1582 -6.8376,-2.1051 -10.6841,-2.6552 -3.7207,-0.5321 -7.668,-0.6963 -11.5895,-0.2972 -3.832,0.39 -7.6785,1.3223 -11.2563,3.0078 -3.5366,1.6661 -6.7076,4.0168 -9.7322,6.6971 -2.9884,2.6481 -5.8696,5.6522 -8.7811,8.6061 -2.9391,2.982 -5.8982,5.9025 -9.1538,8.5413 -3.2687,2.6494 -6.7624,4.9525 -10.7029,6.6969 -3.9999,1.7708 -8.5409,3.0046 -13.3275,3.7638 -4.8938,0.7762 -10.0009,1.0497 -15.0057,0.9134 -5.1713,-0.1409 -10.1978,-0.7176 -14.7923,-1.6137 -4.8124,-0.9385 -9.0865,-2.2136 -12.622,-3.6831 -3.7221,-1.547 -6.6731,-3.3274 -9.0831,-5.173 -2.609,-1.9981 -4.6861,-4.1526 -6.4143,-6.2953 -3.9844,-4.94 -7.1227,-11.3022 -9.262,-15.3704 0,0 -4.357,2.2912 -4.357,2.2912 z"
         id="path29"
         transform="rotate(-20,1006.1645,1434.5006)" />
    </g>
  </g>
</svg>
