<?xml version="1.0" encoding="UTF-8" standalone="no"?>
<!-- Created with Inkscape (http://www.inkscape.org/) -->

<svg
   width="211.43832mm"
   height="81.797554mm"
   viewBox="0 0 211.43832 81.797554"
   version="1.1"
   id="svg1"
   xmlns="http://www.w3.org/2000/svg"
   xmlns:svg="http://www.w3.org/2000/svg">
  <defs
     id="defs1" />
  <g
     id="layer1"
     transform="translate(-5.2916641,-112.18328)">
    <path
       style="font-variation-settings:normal;fill:#38b26b;fill-opacity:1;stroke:#24365b;stroke-width:6.77403;stroke-linecap:butt;stroke-linejoin:bevel;stroke-miterlimit:4;stroke-dasharray:none;stroke-dashoffset:0;stroke-opacity:1;stop-color:#000000"
       d="m 931.85054,1281.7063 c 28.08083,-15.4818 79.96726,-38.5938 131.95986,-36.8164 51.9925,1.7773 104.0911,28.444 133.4737,45.1107 29.3827,16.6666 36.0493,23.3333 40.4571,29.9999 4.4077,6.6667 6.5564,13.3334 7.0856,20.0001 0.5292,6.6667 -0.5613,13.3333 -4.969,20 -4.4077,6.6667 -12.1327,13.3333 -19.8577,15.6083 -7.725,2.275 -15.45,0.1584 -25.45,-3.7923 -10,-3.9507 -22.275,-9.7355 -35.0792,-15.3438 -12.8041,-5.6083 -26.1375,-11.0403 -39.4708,-17.0896 -13.3333,-6.0493 -26.6667,-12.716 -42.401,-16.0493 -15.7343,-3.3334 -33.8695,-3.3333 -57.2028,3.3333 -23.33339,6.6667 -51.86482,20.0001 -69.46385,26.6667 -17.59902,6.6667 -24.26568,6.6667 -30.93234,4.7558 -6.66666,-1.9109 -13.33336,-5.7328 -17.99358,-11.0113 -4.66022,-5.2785 -7.31398,-12.0136 -8.11078,-17.9543 -0.7968,-5.9407 0.26335,-11.0868 2.93104,-17.5857 2.66768,-6.4988 6.94292,-14.3504 35.02375,-29.8321 z"
       id="path23"
       transform="matrix(0.59049,0,0,0.59049,-520.39736,-620.85416)" />
  </g>
</svg>
