<?xml version="1.0" encoding="UTF-8" standalone="no"?>
<!-- Created with Inkscape (http://www.inkscape.org/) -->

<svg
   width="186.02417mm"
   height="59.744602mm"
   viewBox="0 0 186.02417 59.744602"
   version="1.1"
   id="svg1"
   xmlns="http://www.w3.org/2000/svg"
   xmlns:svg="http://www.w3.org/2000/svg">
  <defs
     id="defs1" />
  <g
     id="layer1"
     transform="translate(-34.13125,-127)">
    <g
       id="g26"
       transform="matrix(2.3579477,0,0,2.3579477,13.006984,-98.23121)">
      <path
         style="fill:none;fill-rule:evenodd;stroke:#24365b;stroke-width:1.521;stroke-linecap:butt;stroke-miterlimit:0;stroke-dasharray:none;stroke-opacity:1;paint-order:markers fill stroke"
         d="m 75.939519,52.730839 c 6.53578,-0.02964 13.071557,-0.05928 19.607337,-0.08892"
         id="path4-4-6-6"
         transform="matrix(3.2382644,0,0,0.94884435,-230.13388,53.009026)" />
      <path
         style="fill:none;fill-rule:evenodd;stroke:#24365b;stroke-width:1.521;stroke-linecap:butt;stroke-miterlimit:0;stroke-dasharray:none;stroke-opacity:1;paint-order:markers fill stroke"
         d="m 75.939519,52.730839 c 6.53578,-0.02964 13.071557,-0.05928 19.607337,-0.08892"
         id="path4-4-6-6-6"
         transform="matrix(3.1676702,0,0,0.95017459,-219.64887,70.031461)" />
      <path
         style="fill:none;fill-rule:evenodd;stroke:#90dcaf;stroke-width:1.521;stroke-linecap:butt;stroke-miterlimit:0;stroke-dasharray:none;stroke-opacity:1;paint-order:markers fill stroke"
         d="m 75.939519,52.730839 c 6.53578,-0.02964 13.071557,-0.05928 19.607337,-0.08892"
         id="path4-9-3-2-9-0-4"
         transform="matrix(3.1303671,0,0,0.95130603,-216.15921,46.164907)" />
      <path
         style="fill:none;fill-rule:evenodd;stroke:#90dcaf;stroke-width:1.521;stroke-linecap:butt;stroke-miterlimit:0;stroke-dasharray:none;stroke-opacity:1;paint-order:markers fill stroke"
         d="m 75.939519,52.730839 c 6.53578,-0.02964 13.071557,-0.05928 19.607337,-0.08892"
         id="path4-9-3-2-9-0-4-0"
         transform="matrix(3.0577363,0,0,0.95268097,-214.53934,60.133597)" />
      <path
         style="fill:none;fill-rule:evenodd;stroke:#5879bc;stroke-width:1.521;stroke-linecap:butt;stroke-miterlimit:0;stroke-dasharray:none;stroke-opacity:1;paint-order:markers fill stroke"
         d="m 75.939519,52.730839 c 6.53578,-0.02964 13.071557,-0.05928 19.607337,-0.08892"
         id="path4-9-3-2-9-0-4-4"
         transform="matrix(2.9306355,0,0,0.955132,-192.17196,49.331227)" />
      <path
         style="fill:none;fill-rule:evenodd;stroke:#5879bc;stroke-width:1.521;stroke-linecap:butt;stroke-miterlimit:0;stroke-dasharray:none;stroke-opacity:1;paint-order:markers fill stroke"
         d="m 75.939519,52.730839 c 6.53578,-0.02964 13.071557,-0.05928 19.607337,-0.08892"
         id="path4-9-3-2-9-0-4-4-2"
         transform="matrix(2.9306355,0,0,0.955132,-209.40464,63.097761)" />
      <path
         style="fill:none;fill-rule:evenodd;stroke:#38b26b;stroke-width:1.521;stroke-linecap:butt;stroke-miterlimit:0;stroke-dasharray:none;stroke-opacity:1;paint-order:markers fill stroke"
         d="m 75.939519,52.730839 c 6.53578,-0.02964 13.071557,-0.05928 19.607337,-0.08892"
         id="path4-9-3-2-9-0-4-4-5"
         transform="matrix(2.924797,0,0,0.95528249,-213.13884,56.493301)" />
      <path
         style="fill:none;fill-rule:evenodd;stroke:#38b26b;stroke-width:1.521;stroke-linecap:butt;stroke-miterlimit:0;stroke-dasharray:none;stroke-opacity:1;paint-order:markers fill stroke"
         d="m 75.939519,52.730839 c 6.53578,-0.02964 13.071557,-0.05928 19.607337,-0.08892"
         id="path4-9-3-2-9-0-4-4-5-0"
         transform="matrix(3.4898447,0,0,0.94487439,-255.77707,67.1243)" />
    </g>
  </g>
</svg>
