<?xml version="1.0" encoding="UTF-8" standalone="no"?>
<!-- Created with Inkscape (http://www.inkscape.org/) -->

<svg
   width="137.76463mm"
   height="58.575363mm"
   viewBox="0 0 137.76463 58.575363"
   version="1.1"
   id="svg1"
   xmlns="http://www.w3.org/2000/svg"
   xmlns:svg="http://www.w3.org/2000/svg">
  <defs
     id="defs1" />
  <g
     id="layer1"
     transform="translate(-77.258327,-75.141673)">
    <g
       id="g55"
       transform="matrix(0.43046721,0,0,0.43046721,8.398662,190.55528)">
      <path
         style="fill:none;fill-opacity:1;fill-rule:evenodd;stroke:#38b26b;stroke-width:15.923;stroke-linecap:butt;stroke-linejoin:bevel;stroke-miterlimit:0;stroke-dasharray:none;stroke-opacity:1;paint-order:markers fill stroke"
         d="m 160.00002,-140.00007 c 13.33334,0 26.66666,1e-5 43.33353,1e-5 16.66687,0 36.66647,0 56.66667,-10.00021 20.0002,-10.0002 39.9998,-29.99982 60.00001,-50.00002 20.0002,-20.00021 39.9998,-39.99983 60.00001,-49.99983 20.0002,-10 39.99979,-10 56.66659,-10 16.66681,0 29.99988,-1e-5 43.33322,-1e-5"
         id="path54" />
      <path
         style="fill:#38b26b;fill-opacity:1;fill-rule:evenodd;stroke:none;stroke-width:19.5016;stroke-linecap:butt;stroke-linejoin:bevel;stroke-miterlimit:0;stroke-dasharray:none;stroke-opacity:1;paint-order:markers fill stroke"
         d="m 180.00002,-140.00007 v -60.00002 l 10,-1e-5 10,1e-5 v 60.00002 z"
         id="path55-4" />
      <path
         style="fill:#38b26b;fill-opacity:1;fill-rule:evenodd;stroke:none;stroke-width:19.5017;stroke-linecap:butt;stroke-linejoin:bevel;stroke-miterlimit:0;stroke-dasharray:none;stroke-opacity:1;paint-order:markers fill stroke"
         d="m 220.00002,-140.00007 v -60.00002 l 10,-1e-5 10,1e-5 v 60.00002 z"
         id="path55-4-3" />
      <path
         style="fill:#38b26b;fill-opacity:1;fill-rule:evenodd;stroke:none;stroke-width:16.7649;stroke-linecap:butt;stroke-linejoin:bevel;stroke-miterlimit:0;stroke-dasharray:none;stroke-opacity:1;paint-order:markers fill stroke"
         d="m 260.00003,-155.61158 v -44.34115 l 10,-0.0474 10,0.0474 v 44.34115 z"
         id="path55-4-3-3-9" />
      <path
         style="fill:#38b26b;fill-opacity:1;fill-rule:evenodd;stroke:none;stroke-width:16.7317;stroke-linecap:butt;stroke-linejoin:bevel;stroke-miterlimit:0;stroke-dasharray:none;stroke-opacity:1;paint-order:markers fill stroke"
         d="m 360.00004,-200.0001 v -44.16574 l 10,-0.0472 10,0.0472 v 44.16574 z"
         id="path55-4-3-3-9-4" />
      <path
         style="fill:#38b26b;fill-opacity:1;fill-rule:evenodd;stroke:none;stroke-width:19.4913;stroke-linecap:butt;stroke-linejoin:bevel;stroke-miterlimit:0;stroke-dasharray:none;stroke-opacity:1;paint-order:markers fill stroke"
         d="m 440.00005,-200.0001 v -59.93597 l 10,-0.0641 10,0.0641 v 59.93597 z"
         id="path55-4-3-3-9-4-2" />
      <path
         style="fill:#38b26b;fill-opacity:1;fill-rule:evenodd;stroke:none;stroke-width:19.1009;stroke-linecap:butt;stroke-linejoin:bevel;stroke-miterlimit:0;stroke-dasharray:none;stroke-opacity:1;paint-order:markers fill stroke"
         d="m 400.00004,-200.0001 v -57.55874 l 10,-0.0614 10,0.0614 v 57.55874 z"
         id="path55-4-3-3-9-3" />
      <path
         style="fill:none;fill-opacity:1;fill-rule:evenodd;stroke:#24365b;stroke-width:15.923;stroke-linecap:butt;stroke-linejoin:bevel;stroke-miterlimit:0;stroke-dasharray:none;stroke-opacity:1;paint-order:markers fill stroke"
         d="m 160.00021,-140.00026 c 13.2865,0.0585 26.57273,0.11707 43.21631,0.14633 16.64358,0.0293 36.64278,0.0293 55.69832,-9.11833 19.05554,-9.1476 37.16549,-27.44206 55.2758,-45.73688 m 11.25668,-10.96359 c 18.18424,-18.10913 36.36848,-36.21827 55.4608,-45.27283 19.09232,-9.05456 39.09191,-9.05456 55.75875,-9.05459 16.66684,-4e-5 29.99998,-10e-5 43.33337,-1.7e-4"
         id="path54-5"
         transform="matrix(1,0,0,-1,-1.9346617e-4,-400.00039)" />
      <path
         style="fill:#24365b;fill-opacity:1;fill-rule:evenodd;stroke:none;stroke-width:19.5145;stroke-linecap:butt;stroke-linejoin:bevel;stroke-miterlimit:0;stroke-dasharray:none;stroke-opacity:1;paint-order:markers fill stroke"
         d="m 179.99982,-260.07943 v 60.07913 l 10,1e-5 10,-1e-5 v -60.07913 z"
         id="path55-4-2" />
      <path
         style="fill:#24365b;fill-opacity:1;fill-rule:evenodd;stroke:none;stroke-width:19.5017;stroke-linecap:butt;stroke-linejoin:bevel;stroke-miterlimit:0;stroke-dasharray:none;stroke-opacity:1;paint-order:markers fill stroke"
         d="m 219.99982,-260.00032 v 60.00002 l 10,1e-5 10,-1e-5 v -60.00002 z"
         id="path55-4-3-7" />
      <path
         style="fill:#24365b;fill-opacity:1;fill-rule:evenodd;stroke:none;stroke-width:16.7649;stroke-linecap:butt;stroke-linejoin:bevel;stroke-miterlimit:0;stroke-dasharray:none;stroke-opacity:1;paint-order:markers fill stroke"
         d="m 259.99983,-244.38881 v 44.34115 l 10,0.0474 10,-0.0474 v -44.34115 z"
         id="path55-4-3-3-9-7" />
      <path
         style="fill:#24365b;fill-opacity:1;fill-rule:evenodd;stroke:none;stroke-width:16.7317;stroke-linecap:butt;stroke-linejoin:bevel;stroke-miterlimit:0;stroke-dasharray:none;stroke-opacity:1;paint-order:markers fill stroke"
         d="m 359.99984,-200.00029 v 44.16574 l 10,0.0472 10,-0.0472 v -44.16574 z"
         id="path55-4-3-3-9-4-7" />
      <path
         style="fill:#24365b;fill-opacity:1;fill-rule:evenodd;stroke:none;stroke-width:19.4913;stroke-linecap:butt;stroke-linejoin:bevel;stroke-miterlimit:0;stroke-dasharray:none;stroke-opacity:1;paint-order:markers fill stroke"
         d="m 439.99985,-200.00029 v 59.93603 l 10,0.0641 10,-0.0641 v -59.93603 z"
         id="path55-4-3-3-9-4-2-7" />
      <path
         style="fill:#24365b;fill-opacity:1;fill-rule:evenodd;stroke:none;stroke-width:19.1009;stroke-linecap:butt;stroke-linejoin:bevel;stroke-miterlimit:0;stroke-dasharray:none;stroke-opacity:1;paint-order:markers fill stroke"
         d="m 399.99984,-200.00029 v 57.55874 l 10,0.0614 10,-0.0614 v -57.55874 z"
         id="path55-4-3-3-9-3-1" />
    </g>
  </g>
</svg>
