<?xml version="1.0" encoding="UTF-8" standalone="no"?>
<!-- Created with Inkscape (http://www.inkscape.org/) -->

<svg
   width="233.7467mm"
   height="168.94923mm"
   viewBox="0 0 233.7467 168.94923"
   version="1.1"
   id="svg1"
   xmlns="http://www.w3.org/2000/svg"
   xmlns:svg="http://www.w3.org/2000/svg">
  <defs
     id="defs1" />
  <g
     id="layer1"
     transform="translate(-20.637495,-71.966653)">
    <g
       id="g25"
       transform="matrix(2.3579477,0,0,2.3579477,-17.814847,-269.76442)"
       style="stroke-width:2.45977;stroke-dasharray:none">
      <path
         style="fill:none;fill-rule:evenodd;stroke:#24365b;stroke-width:2.45977;stroke-miterlimit:0;stroke-dasharray:none;stroke-opacity:1"
         id="path1"
         d="m 23.18969,175.89702 a 16.044001,15.460583 0 0 1 -4.618311,-17.24903 16.044001,15.460583 0 0 1 15.305282,-9.99047" />
      <path
         style="fill:none;fill-rule:evenodd;stroke:#24365b;stroke-width:2.45977;stroke-miterlimit:0;stroke-dasharray:none;stroke-opacity:1"
         id="path1-0"
         d="m 48.597193,170.08105 a 16.044001,15.460583 0 0 1 -9.554759,8.61782 16.044001,15.460583 0 0 1 -13.036578,-1.10653" />
      <path
         style="fill:none;fill-rule:evenodd;stroke:#24365b;stroke-width:2.45977;stroke-miterlimit:0;stroke-dasharray:none;stroke-opacity:1"
         id="path1-2"
         d="m 35.462169,148.84257 a 16.044001,15.460583 0 0 1 10.825025,5.78951 16.044001,15.460583 0 0 1 3.324961,11.49201" />
      <path
         style="fill:none;fill-rule:evenodd;stroke:#90dcaf;stroke-width:2.45977;stroke-miterlimit:0;stroke-dasharray:none;stroke-opacity:1"
         id="path1-7"
         d="m 41.26121,193.8022 a 16.044001,15.460583 0 0 1 10.72684,-9.01189 16.044001,15.460583 0 0 1 13.941819,2.75101" />
      <path
         style="fill:none;fill-rule:evenodd;stroke:#90dcaf;stroke-width:2.45977;stroke-miterlimit:0;stroke-dasharray:none;stroke-opacity:1"
         id="path1-0-6"
         d="m 59.281843,215.01064 a 16.044001,15.460583 0 0 1 -14.405587,-3.93549 16.044001,15.460583 0 0 1 -4.761023,-13.68" />
      <path
         style="fill:none;fill-rule:evenodd;stroke:#90dcaf;stroke-width:2.45977;stroke-miterlimit:0;stroke-dasharray:none;stroke-opacity:1"
         id="path1-2-0"
         d="m 68.382292,189.78779 a 16.044001,15.460583 0 0 1 3.482799,13.33143 16.044001,15.460583 0 0 1 -8.912895,10.73422" />
      <path
         style="fill:none;fill-rule:evenodd;stroke:#5879bc;stroke-width:2.45977;stroke-miterlimit:0;stroke-dasharray:none;stroke-opacity:1"
         id="path1-01"
         d="M 61.286606,173.3061 A 16.044001,15.460583 0 0 1 57.582194,154.13609" />
      <path
         style="fill:none;fill-rule:evenodd;stroke:#5879bc;stroke-width:2.45977;stroke-miterlimit:0;stroke-dasharray:none;stroke-opacity:1"
         id="path1-0-1"
         d="m 80.919796,174.28307 a 16.044001,15.460583 0 0 1 -16.817028,0.71838" />
      <path
         style="fill:none;fill-rule:evenodd;stroke:#5879bc;stroke-width:2.45977;stroke-miterlimit:0;stroke-dasharray:none;stroke-opacity:1"
         id="path1-0-1-7"
         d="M 84.932753,152.69672 A 16.044001,15.460583 0 0 1 83.544879,172.0569" />
      <path
         style="fill:none;fill-rule:evenodd;stroke:#5879bc;stroke-width:2.45977;stroke-miterlimit:0;stroke-dasharray:none;stroke-opacity:1"
         id="path1-2-2"
         d="m 59.06568,152.19904 a 16.044001,15.460583 0 0 1 11.972914,-6.02487 16.044001,15.460583 0 0 1 12.504532,4.92093" />
      <path
         style="fill:none;fill-rule:evenodd;stroke:#38b26b;stroke-width:2.45977;stroke-miterlimit:0;stroke-dasharray:none;stroke-opacity:1"
         id="path1-01-2"
         d="m 82.09407,192.45415 a 16.044001,15.460583 0 0 1 1.884532,-8.79026" />
      <path
         style="fill:none;fill-rule:evenodd;stroke:#38b26b;stroke-width:2.45977;stroke-miterlimit:0;stroke-dasharray:none;stroke-opacity:1"
         id="path1-0-1-5"
         d="m 87.776584,202.68862 a 16.044001,15.460583 0 0 1 -5.086692,-8.10794" />
      <path
         style="fill:none;fill-rule:evenodd;stroke:#38b26b;stroke-width:2.45977;stroke-miterlimit:0;stroke-dasharray:none;stroke-opacity:1"
         id="path1-0-1-7-3"
         d="m 111.32916,182.22452 a 16.044001,15.460583 0 0 1 -1.39693,19.36959 16.044001,15.460583 0 0 1 -19.941509,2.77921" />
      <path
         style="fill:none;fill-rule:evenodd;stroke:#38b26b;stroke-width:2.45977;stroke-miterlimit:0;stroke-dasharray:none;stroke-opacity:1"
         id="path1-2-2-9"
         d="m 85.462081,181.72684 a 16.044001,15.460583 0 0 1 11.972913,-6.02487 16.044001,15.460583 0 0 1 12.504536,4.92093" />
    </g>
  </g>
</svg>
