<?xml version="1.0" encoding="UTF-8" standalone="no"?>
<!-- Created with Inkscape (http://www.inkscape.org/) -->

<svg
   width="136.16937mm"
   height="143.81633mm"
   viewBox="0 0 136.16937 143.81633"
   version="1.1"
   id="svg1"
   xmlns="http://www.w3.org/2000/svg"
   xmlns:svg="http://www.w3.org/2000/svg">
  <defs
     id="defs1" />
  <g
     id="layer1"
     transform="translate(-62.177081,-41.539584)">
    <g
       id="g27"
       transform="matrix(2.3579477,0,0,2.3579477,-10.258923,12.28553)">
      <path
         style="fill:none;fill-rule:evenodd;stroke:#24365b;stroke-width:1.521;stroke-linecap:butt;stroke-miterlimit:0;stroke-dasharray:none;stroke-opacity:1;paint-order:markers fill stroke"
         d="m 75.939519,52.730839 c 6.53578,-0.02964 13.071557,-0.05928 19.607337,-0.08892"
         id="path4"
         transform="translate(-38.406968,4.4840249)" />
      <path
         style="fill:none;fill-rule:evenodd;stroke:#24365b;stroke-width:1.521;stroke-linecap:butt;stroke-miterlimit:0;stroke-dasharray:none;stroke-opacity:1;paint-order:markers fill stroke"
         d="m 75.939519,52.730839 c 6.53578,-0.02964 13.071557,-0.05928 19.607337,-0.08892"
         id="path4-4"
         transform="translate(-43.449027,10.090642)" />
      <path
         style="fill:none;fill-rule:evenodd;stroke:#24365b;stroke-width:1.521;stroke-linecap:butt;stroke-miterlimit:0;stroke-dasharray:none;stroke-opacity:1;paint-order:markers fill stroke"
         d="m 75.939519,52.730839 c 6.53578,-0.02964 13.071557,-0.05928 19.607337,-0.08892"
         id="path4-4-8"
         transform="translate(-34.535368,-5.1026695)" />
      <path
         style="fill:none;fill-rule:evenodd;stroke:#24365b;stroke-width:1.521;stroke-linecap:butt;stroke-miterlimit:0;stroke-dasharray:none;stroke-opacity:1;paint-order:markers fill stroke"
         d="m 75.939519,52.730839 c 6.53578,-0.02964 13.071557,-0.05928 19.607337,-0.08892"
         id="path4-4-6"
         transform="translate(-36.070574,16.149912)" />
      <path
         style="fill:none;fill-rule:evenodd;stroke:#5879bc;stroke-width:1.521;stroke-linecap:butt;stroke-miterlimit:0;stroke-dasharray:none;stroke-opacity:1;paint-order:markers fill stroke"
         d="m 75.939519,52.730839 c 6.53578,-0.02964 13.071557,-0.05928 19.607337,-0.08892"
         id="path4-9"
         transform="translate(-26.783652,7.5297496)" />
      <path
         style="fill:none;fill-rule:evenodd;stroke:#5879bc;stroke-width:1.521;stroke-linecap:butt;stroke-miterlimit:0;stroke-dasharray:none;stroke-opacity:1;paint-order:markers fill stroke"
         d="m 75.939519,52.730839 c 6.53578,-0.02964 13.071557,-0.05928 19.607337,-0.08892"
         id="path4-9-3"
         transform="translate(-17.884671,3.5171457)" />
      <path
         style="fill:none;fill-rule:evenodd;stroke:#90dcaf;stroke-width:1.521;stroke-linecap:butt;stroke-miterlimit:0;stroke-dasharray:none;stroke-opacity:1;paint-order:markers fill stroke"
         d="m 75.939519,52.730839 c 6.53578,-0.02964 13.071557,-0.05928 19.607337,-0.08892"
         id="path4-9-3-2"
         transform="translate(-29.40618,0.54633983)" />
      <path
         style="fill:none;fill-rule:evenodd;stroke:#90dcaf;stroke-width:1.521;stroke-linecap:butt;stroke-miterlimit:0;stroke-dasharray:none;stroke-opacity:1;paint-order:markers fill stroke"
         d="m 75.939519,52.730839 c 6.53578,-0.02964 13.071557,-0.05928 19.607337,-0.08892"
         id="path4-9-3-2-5"
         transform="translate(-45.216133,-7.5433722)" />
      <path
         style="fill:none;fill-rule:evenodd;stroke:#90dcaf;stroke-width:1.521;stroke-linecap:butt;stroke-miterlimit:0;stroke-dasharray:none;stroke-opacity:1;paint-order:markers fill stroke"
         d="m 75.939519,52.730839 c 6.53578,-0.02964 13.071557,-0.05928 19.607337,-0.08892"
         id="path4-9-3-2-5-4"
         transform="translate(-38.284982,-13.27238)" />
      <path
         style="fill:none;fill-rule:evenodd;stroke:#90dcaf;stroke-width:1.521;stroke-linecap:butt;stroke-miterlimit:0;stroke-dasharray:none;stroke-opacity:1;paint-order:markers fill stroke"
         d="m 75.939519,52.730839 c 6.53578,-0.02964 13.071557,-0.05928 19.607337,-0.08892"
         id="path4-9-3-2-9"
         transform="translate(-30.693618,13.373343)" />
      <path
         style="fill:none;fill-rule:evenodd;stroke:#90dcaf;stroke-width:1.521;stroke-linecap:butt;stroke-miterlimit:0;stroke-dasharray:none;stroke-opacity:1;paint-order:markers fill stroke"
         d="m 75.939519,52.730839 c 6.53578,-0.02964 13.071557,-0.05928 19.607337,-0.08892"
         id="path4-9-3-2-9-0"
         transform="translate(-27.499857,19.907396)" />
      <path
         style="fill:none;fill-rule:evenodd;stroke:#38b26b;stroke-width:1.521;stroke-linecap:butt;stroke-miterlimit:0;stroke-dasharray:none;stroke-opacity:1;paint-order:markers fill stroke"
         d="m 75.939519,52.730839 c 6.53578,-0.02964 13.071557,-0.05928 19.607337,-0.08892"
         id="path4-9-3-2-1"
         transform="translate(-23.128404,-2.4425157)" />
      <path
         style="fill:none;fill-rule:evenodd;stroke:#38b26b;stroke-width:1.521;stroke-linecap:butt;stroke-miterlimit:0;stroke-dasharray:none;stroke-opacity:1;paint-order:markers fill stroke"
         d="m 75.939519,52.730839 c 6.53578,-0.02964 13.071557,-0.05928 19.607337,-0.08892"
         id="path4-9-3-2-1-8"
         transform="translate(-32.419947,-9.9927921)" />
      <path
         style="fill:none;fill-rule:evenodd;stroke:#38b26b;stroke-width:1.521;stroke-linecap:butt;stroke-miterlimit:0;stroke-dasharray:none;stroke-opacity:1;paint-order:markers fill stroke"
         d="m 75.939519,52.730839 c 6.53578,-0.02964 13.071557,-0.05928 19.607337,-0.08892"
         id="path4-9-3-2-1-6"
         transform="translate(-22.04081,9.8733718)" />
      <path
         style="fill:none;fill-rule:evenodd;stroke:#5879bc;stroke-width:1.521;stroke-linecap:butt;stroke-miterlimit:0;stroke-dasharray:none;stroke-opacity:1;paint-order:markers fill stroke"
         d="m 75.939519,52.730839 c 6.53578,-0.02964 13.071557,-0.05928 19.607337,-0.08892"
         id="path4-9-3-2-2"
         transform="translate(-44.84665,-2.4051619)" />
      <path
         style="fill:none;fill-rule:evenodd;stroke:#5879bc;stroke-width:1.521;stroke-linecap:butt;stroke-miterlimit:0;stroke-dasharray:none;stroke-opacity:1;paint-order:markers fill stroke"
         d="m 75.939519,52.730839 c 6.53578,-0.02964 13.071557,-0.05928 19.607337,-0.08892"
         id="path4-9-3-2-2-7"
         transform="translate(-22.977121,-7.8941781)" />
      <path
         style="fill:none;fill-rule:evenodd;stroke:#24365b;stroke-width:1.521;stroke-linecap:butt;stroke-miterlimit:0;stroke-dasharray:none;stroke-opacity:1;paint-order:markers fill stroke"
         d="m 75.939519,52.730839 c 6.53578,-0.02964 13.071557,-0.05928 19.607337,-0.08892"
         id="path4-0"
         transform="matrix(-1,0,0,1,157.59595,-24.998034)" />
      <path
         style="fill:none;fill-rule:evenodd;stroke:#24365b;stroke-width:1.521;stroke-linecap:butt;stroke-miterlimit:0;stroke-dasharray:none;stroke-opacity:1;paint-order:markers fill stroke"
         d="m 75.939519,52.730839 c 6.53578,-0.02964 13.071557,-0.05928 19.607337,-0.08892"
         id="path4-4-1"
         transform="matrix(-1,0,0,1,162.63801,-19.391424)" />
      <path
         style="fill:none;fill-rule:evenodd;stroke:#24365b;stroke-width:1.521;stroke-linecap:butt;stroke-miterlimit:0;stroke-dasharray:none;stroke-opacity:1;paint-order:markers fill stroke"
         d="m 75.939519,52.730839 c 6.53578,-0.02964 13.071557,-0.05928 19.607337,-0.08892"
         id="path4-4-8-9"
         transform="matrix(-1,0,0,1,153.72435,-34.584734)" />
      <path
         style="fill:none;fill-rule:evenodd;stroke:#24365b;stroke-width:1.521;stroke-linecap:butt;stroke-miterlimit:0;stroke-dasharray:none;stroke-opacity:1;paint-order:markers fill stroke"
         d="m 75.939519,52.730839 c 6.53578,-0.02964 13.071557,-0.05928 19.607337,-0.08892"
         id="path4-4-6-1"
         transform="matrix(-1,0,0,1,155.25955,-13.332144)" />
      <path
         style="fill:none;fill-rule:evenodd;stroke:#5879bc;stroke-width:1.521;stroke-linecap:butt;stroke-miterlimit:0;stroke-dasharray:none;stroke-opacity:1;paint-order:markers fill stroke"
         d="m 75.939519,52.730839 c 6.53578,-0.02964 13.071557,-0.05928 19.607337,-0.08892"
         id="path4-9-0"
         transform="matrix(-1,0,0,1,145.97263,-21.952314)" />
      <path
         style="fill:none;fill-rule:evenodd;stroke:#5879bc;stroke-width:1.521;stroke-linecap:butt;stroke-miterlimit:0;stroke-dasharray:none;stroke-opacity:1;paint-order:markers fill stroke"
         d="m 75.939519,52.730839 c 6.53578,-0.02964 13.071557,-0.05928 19.607337,-0.08892"
         id="path4-9-3-9"
         transform="matrix(-1,0,0,1,137.07365,-25.964914)" />
      <path
         style="fill:none;fill-rule:evenodd;stroke:#90dcaf;stroke-width:1.521;stroke-linecap:butt;stroke-miterlimit:0;stroke-dasharray:none;stroke-opacity:1;paint-order:markers fill stroke"
         d="m 75.939519,52.730839 c 6.53578,-0.02964 13.071557,-0.05928 19.607337,-0.08892"
         id="path4-9-3-2-7"
         transform="matrix(-1,0,0,1,148.59516,-28.935724)" />
      <path
         style="fill:none;fill-rule:evenodd;stroke:#90dcaf;stroke-width:1.521;stroke-linecap:butt;stroke-miterlimit:0;stroke-dasharray:none;stroke-opacity:1;paint-order:markers fill stroke"
         d="m 75.939519,52.730839 c 6.53578,-0.02964 13.071557,-0.05928 19.607337,-0.08892"
         id="path4-9-3-2-5-5"
         transform="matrix(-1,0,0,1,164.40511,-37.025434)" />
      <path
         style="fill:none;fill-rule:evenodd;stroke:#90dcaf;stroke-width:1.521;stroke-linecap:butt;stroke-miterlimit:0;stroke-dasharray:none;stroke-opacity:1;paint-order:markers fill stroke"
         d="m 75.939519,52.730839 c 6.53578,-0.02964 13.071557,-0.05928 19.607337,-0.08892"
         id="path4-9-3-2-9-4"
         transform="matrix(-1,0,0,1,149.8826,-16.108714)" />
      <path
         style="fill:none;fill-rule:evenodd;stroke:#38b26b;stroke-width:1.521;stroke-linecap:butt;stroke-miterlimit:0;stroke-dasharray:none;stroke-opacity:1;paint-order:markers fill stroke"
         d="m 75.939519,52.730839 c 6.53578,-0.02964 13.071557,-0.05928 19.607337,-0.08892"
         id="path4-9-3-2-1-7"
         transform="matrix(-1,0,0,1,142.31738,-31.924574)" />
      <path
         style="fill:none;fill-rule:evenodd;stroke:#38b26b;stroke-width:1.521;stroke-linecap:butt;stroke-miterlimit:0;stroke-dasharray:none;stroke-opacity:1;paint-order:markers fill stroke"
         d="m 75.939519,52.730839 c 6.53578,-0.02964 13.071557,-0.05928 19.607337,-0.08892"
         id="path4-9-3-2-1-8-9"
         transform="matrix(-1,0,0,1,151.60893,-39.474854)" />
      <path
         style="fill:none;fill-rule:evenodd;stroke:#38b26b;stroke-width:1.521;stroke-linecap:butt;stroke-miterlimit:0;stroke-dasharray:none;stroke-opacity:1;paint-order:markers fill stroke"
         d="m 75.939519,52.730839 c 6.53578,-0.02964 13.071557,-0.05928 19.607337,-0.08892"
         id="path4-9-3-2-1-6-0"
         transform="matrix(-1,0,0,1,141.22979,-19.608694)" />
      <path
         style="fill:none;fill-rule:evenodd;stroke:#5879bc;stroke-width:1.521;stroke-linecap:butt;stroke-miterlimit:0;stroke-dasharray:none;stroke-opacity:1;paint-order:markers fill stroke"
         d="m 75.939519,52.730839 c 6.53578,-0.02964 13.071557,-0.05928 19.607337,-0.08892"
         id="path4-9-3-2-2-5"
         transform="matrix(-1,0,0,1,164.03563,-31.887224)" />
      <path
         style="fill:none;fill-rule:evenodd;stroke:#5879bc;stroke-width:1.521;stroke-linecap:butt;stroke-miterlimit:0;stroke-dasharray:none;stroke-opacity:1;paint-order:markers fill stroke"
         d="m 75.939519,52.730839 c 6.53578,-0.02964 13.071557,-0.05928 19.607337,-0.08892"
         id="path4-9-3-2-2-7-2"
         transform="matrix(-1,0,0,1,142.1661,-37.376234)" />
    </g>
  </g>
</svg>
