<?xml version="1.0" encoding="UTF-8" standalone="no"?>
<!-- Created with Inkscape (http://www.inkscape.org/) -->

<svg
   width="390.03818mm"
   height="928.94922mm"
   viewBox="0 0 390.03818 928.94922"
   version="1.1"
   id="svg1"
   inkscape:export-filename="Amphitrichous_Bacillus.svg"
   inkscape:export-xdpi="96"
   inkscape:export-ydpi="96"
   xmlns:inkscape="http://www.inkscape.org/namespaces/inkscape"
   xmlns:sodipodi="http://sodipodi.sourceforge.net/DTD/sodipodi-0.dtd"
   xmlns="http://www.w3.org/2000/svg"
   xmlns:svg="http://www.w3.org/2000/svg">
  <sodipodi:namedview
     id="namedview1"
     pagecolor="#ffffff"
     bordercolor="#000000"
     borderopacity="0.25"
     inkscape:showpageshadow="2"
     inkscape:pageopacity="0.0"
     inkscape:pagecheckerboard="0"
     inkscape:deskcolor="#d1d1d1"
     inkscape:document-units="mm">
    <inkscape:page
       x="0"
       y="0"
       width="390.03818"
       height="928.94922"
       id="page2"
       margin="0"
       bleed="0" />
  </sodipodi:namedview>
  <defs
     id="defs1">
    <inkscape:path-effect
       effect="bspline"
       id="path-effect127"
       is_visible="true"
       lpeversion="1.3"
       weight="33.333333"
       steps="2"
       helper_size="0"
       apply_no_weight="true"
       apply_with_weight="true"
       only_selected="false"
       uniform="false" />
  </defs>
  <g
     inkscape:label="Layer 1"
     inkscape:groupmode="layer"
     id="layer1"
     transform="translate(70.643348,262.46668)">
    <g
       id="g128"
       style="display:inline;fill:#011670;fill-opacity:1;stroke:#24365b;stroke-width:0.963278;stroke-dasharray:none;stroke-opacity:1"
       transform="matrix(-1.5506466,0.1356639,-0.13577081,-1.5518671,-435.54317,480.2307)"
       inkscape:label="Afferent Neuron"
       inkscape:export-filename="Afferent neuron.svg"
       inkscape:export-xdpi="96"
       inkscape:export-ydpi="96">
      <path
         style="font-variation-settings:normal;opacity:1;fill:#5c7bbe;fill-opacity:1;stroke:#24365b;stroke-width:0.963278;stroke-linecap:butt;stroke-linejoin:bevel;stroke-miterlimit:4;stroke-dasharray:none;stroke-dashoffset:0;stroke-opacity:1;stop-color:#000000;stop-opacity:1"
         d="m -346.19897,-73.037243 c -4.64742,3.975961 -9.29484,7.951919 -12.35118,12.023846 -3.05634,4.071927 -4.52154,8.23966 -5.49724,12.450309 -0.97571,4.210649 -1.46187,8.463972 -0.93701,14.187214 0.52486,5.723242 2.05835,12.905143 7.09465,18.106221 5.03629,5.201078 13.54501,8.389794 18.00482,10.9423864 4.45981,2.5525924 4.8562,4.45575782 4.93441,29.8937716 0.0782,25.438014 -0.16335,73.99961 -5.18808,121.546145 -5.02474,47.54654 -14.8314,93.94228 -21.43671,126.35971 -6.60531,32.41743 -10.00848,50.85266 -12.96064,60.0187 -2.95216,9.16604 -5.45295,9.0618 -8.89948,9.53978 -3.44653,0.47798 -7.83855,1.53817 -13.01962,2.40108 -5.18108,0.86291 -11.15091,1.52848 -16.79905,2.13356 -5.64813,0.60508 -10.97424,1.14963 -16.11992,2.11992 -5.14568,0.97029 -10.11064,2.36626 -14.6812,3.60959 -4.57057,1.24334 -8.74629,2.33391 -13.74569,3.68184 -4.9994,1.34793 -10.8221,2.9531 -15.60033,5.43515 -4.77823,2.48205 -8.51167,5.84084 -10.44911,9.55471 -1.93744,3.71388 -2.06204,7.30224 -3.65559,10.40498 -1.59354,3.10275 -3.98302,4.40938 -6.72559,7.49892 -2.74258,3.08953 -5.51847,7.7871 -6.6291,11.8786 -1.11063,4.0915 -0.55595,7.57657 -0.93916,9.49798 -0.3832,1.92141 -1.70424,2.27893 -2.72956,2.94108 -1.02533,0.66215 -1.75485,1.6289 -3.97278,2.40829 -2.21794,0.77938 -5.92399,1.37131 -8.40464,2.61708 -2.48065,1.24577 -3.73563,3.14531 -4.8798,5.16487 -1.14418,2.01956 -2.17749,4.15903 -2.12408,5.70209 0.0534,1.54305 1.19354,2.48957 1.76413,2.10987 0.57059,-0.3797 0.57159,-2.08562 1.14373,-4.08167 0.57215,-1.99606 1.16144,-3.17443 2.77041,-5.17621 1.60896,-2.00178 3.12968,-2.6116 4.2887,-2.82084 1.15901,-0.20924 1.95626,-0.0179 2.69758,1.07436 0.74133,1.09224 1.42665,3.08521 2.21578,5.04737 0.78914,1.96215 1.68199,3.89323 2.52278,5.54515 0.84079,1.65192 1.62942,3.02448 2.04966,3.20865 0.42023,0.18417 0.47202,-0.82009 0.16109,-2.38567 -0.31094,-1.56558 -0.98455,-3.69228 -1.9492,-5.76928 -0.96465,-2.07701 -2.22028,-4.10415 -1.05708,-6.63395 1.16321,-2.52979 4.27805,-4.78398 6.46078,-5.23757 2.18273,-0.45358 3.10545,1.13058 4.55614,2.97578 1.45068,1.84519 3.42921,3.95127 4.77047,6.21652 1.34127,2.26525 2.04513,4.68944 2.73946,5.74011 0.69433,1.05068 1.37904,0.72773 1.66802,-0.3438 0.28897,-1.07153 -0.51657,-2.56205 -1.56337,-4.54502 -1.04679,-1.98298 -2.33476,-4.45823 -3.88646,-6.51032 -1.5517,-2.05208 -3.36702,-3.68082 -4.46375,-5.92466 -1.09674,-2.24384 -1.47481,-5.10267 -1.39137,-7.38424 0.0834,-2.28156 0.62841,-3.98572 1.77584,-6.43633 1.14743,-2.45061 2.22866,-4.27553 3.88673,-5.85744 1.65807,-1.58192 3.58154,-2.47079 5.29649,-2.32087 1.71495,0.14992 3.19055,1.35288 4.78393,2.79587 1.59339,1.443 3.30447,3.12595 4.58336,5.38571 1.27889,2.25977 2.1255,5.09623 2.42454,8.6516 0.29904,3.55537 0.0505,7.82945 -0.4808,11.32717 -0.5313,3.49771 -1.34531,6.21884 -1.75023,8.33144 -0.40492,2.11259 -0.40072,3.61646 0.007,4.40388 0.40745,0.78742 1.21814,0.85829 1.9208,-0.70747 0.70266,-1.56576 1.29724,-4.76808 1.86974,-8.15479 0.57251,-3.3867 1.12291,-6.95759 1.14876,-10.8055 0.0258,-3.84791 -0.47283,-7.97245 -1.64516,-11.52414 -1.17233,-3.55169 -3.01816,-6.53011 -4.87687,-8.6258 -1.85871,-2.09568 -3.73007,-3.30837 -4.06394,-5.80212 -0.33386,-2.49375 0.8698,-6.26827 2.90201,-9.41998 2.0322,-3.1517 4.89281,-5.68033 8.27222,-7.52609 3.37942,-1.84576 7.27746,-3.00853 10.97057,-3.86708 3.69311,-0.85854 7.18093,-1.41279 11.0312,-2.47239 3.85026,-1.05961 8.06251,-2.62445 12.34726,-3.88609 4.28475,-1.26164 8.64167,-2.21995 13.43716,-2.92559 4.7955,-0.70563 10.0293,-1.15853 14.8465,-1.96185 4.81719,-0.80331 9.21731,-1.95695 13.57292,-2.59931 4.35561,-0.64237 8.66619,-0.77338 10.75317,-0.0572 2.08699,0.71615 1.95011,2.27945 0.75032,4.32253 -1.19979,2.04308 -3.46245,4.56583 -5.17404,7.43016 -1.7116,2.86433 -2.87202,6.07007 -4.28319,9.2957 -1.41118,3.22562 -3.07303,6.47095 -5.49734,9.39856 -2.42431,2.92761 -5.61097,5.53732 -8.57398,7.41319 -2.96301,1.87587 -5.7022,3.01777 -8.59101,3.80128 -2.88881,0.78351 -5.92705,1.20859 -9.00389,1.89964 -3.07684,0.69106 -6.19208,1.64807 -8.49729,3.42445 -2.30521,1.77638 -3.80022,4.37205 -5.42005,6.72391 -1.61983,2.35185 -3.36437,4.45975 -4.94055,6.50289 -1.57617,2.04314 -2.98388,4.02141 -4.7411,5.9925 -1.75721,1.97109 -3.86375,3.93481 -6.24448,5.87834 -2.38073,1.94352 -5.03539,3.86665 -7.11404,5.51071 -2.07865,1.64406 -3.58112,3.00894 -3.54916,4.07918 0.032,1.07024 1.59837,1.84579 2.36371,1.6979 0.76533,-0.14788 0.72954,-1.2192 1.69967,-2.61 0.97013,-1.39079 2.94605,-3.1009 4.43908,-4.19442 1.49303,-1.09351 2.50303,-1.57032 3.48018,-0.8884 0.97716,0.68193 1.92142,2.52256 2.81264,4.03931 0.89123,1.51674 1.72937,2.70949 2.80326,3.36313 1.07389,0.65364 2.38347,0.76812 2.73848,0.3022 0.35501,-0.46593 -0.2446,-1.51225 -1.54368,-3.45158 -1.29907,-1.93933 -3.29755,-4.77159 -3.39268,-6.91481 -0.0951,-2.14322 1.71307,-3.59722 3.48105,-5.37584 1.76798,-1.77861 3.4956,-3.88171 5.12366,-5.96848 1.62805,-2.08678 3.15636,-4.15701 4.7223,-6.09535 1.56594,-1.93834 3.16938,-3.74463 5.09181,-5.15957 1.92244,-1.41493 4.16377,-2.43842 8.71562,-4.05967 4.55185,-1.62124 9.19347,-3.12214 9.74014,-2.00039 0.54667,1.12175 -4.11186,5.22516 -7.15586,8.07365 -3.044,2.84849 -4.47325,4.44184 -5.84633,6.21223 -1.37309,1.77038 -2.68986,3.71759 -3.65423,6.39124 -0.96437,2.67365 -1.57625,6.07355 -2.15814,9.13083 -0.58189,3.05728 -1.13375,5.77175 -1.16881,7.96637 -0.0351,2.19462 0.44669,3.86924 1.29505,4.3148 0.84835,0.44556 2.06326,-0.33799 2.31472,-2.80147 0.25145,-2.46347 -0.46057,-6.60674 -0.12821,-10.4026 0.33235,-3.79586 1.70904,-7.24395 3.77897,-10.47986 2.06994,-3.23591 4.83299,-6.25939 8.14988,-9.76984 3.31689,-3.51046 7.18744,-7.50771 8.35715,-6.87173 1.16971,0.63599 -0.36147,5.90504 -0.45708,10.57618 -0.0956,4.67115 1.24442,8.744 2.43757,11.62406 1.19316,2.88006 2.23937,4.56714 2.01645,5.67789 -0.22292,1.11075 -1.71499,1.6451 -3.5525,2.41337 -1.83751,0.76827 -4.02037,1.77044 -5.73721,3.43593 -1.71683,1.66548 -2.96754,3.99419 -3.08327,5.10707 -0.11573,1.11289 0.90353,1.00986 1.92333,0.18697 1.0198,-0.8229 1.92941,-2.35447 3.31458,-3.69824 1.38518,-1.34377 3.24586,-2.49968 4.73572,-3.07532 1.48985,-0.57564 2.60878,-0.57098 2.97322,-0.0682 0.36444,0.50279 -0.0256,1.50362 -0.30368,2.59333 -0.27806,1.08971 -0.44408,2.26818 -0.60075,3.69867 -0.15667,1.43049 -0.30398,3.11292 0.11816,4.0603 0.42214,0.94737 1.41372,1.15963 1.98864,0.36223 0.57491,-0.79741 0.73313,-2.60446 0.80238,-4.62288 0.0693,-2.01842 0.0495,-4.24811 0.87308,-4.70984 0.82357,-0.46173 2.49032,0.8445 3.54437,2.20763 1.05405,1.36314 1.49527,2.78306 2.37576,4.21004 0.8805,1.42697 2.20023,2.86091 2.7576,2.5957 0.55737,-0.26521 0.35234,-2.22959 -0.72157,-4.25377 -1.07392,-2.02417 -3.01667,-4.10802 -4.39609,-5.40046 -1.37942,-1.29243 -2.19538,-1.79333 -3.61643,-4.28846 -1.42104,-2.49513 -3.447,-6.98419 -4.55791,-11.69944 -1.11092,-4.71525 -1.30667,-9.65634 0.1553,-13.76692 1.46198,-4.11058 4.58162,-7.39039 7.00598,-9.95943 2.42436,-2.56905 4.15325,-4.42715 5.26915,-3.92148 1.1159,0.50566 1.61871,3.37512 3.40385,6.31215 1.78514,2.93703 4.85251,5.94145 7.30526,9.0295 2.45274,3.08804 4.2907,6.25953 5.1301,9.11197 0.8394,2.85244 0.78958,5.57447 -0.25806,7.85077 -1.04764,2.27629 -3.09306,4.10673 -5.06628,6.00633 -1.97322,1.89959 -3.87413,3.86824 -4.20192,5.8175 -0.32779,1.94925 0.91759,3.87901 2.35025,6.3589 1.43266,2.47989 3.05253,5.50979 4.38583,6.7566 1.33331,1.24681 2.37998,0.71042 2.4202,-0.10771 0.0402,-0.81812 -0.92602,-1.91793 -2.17903,-3.72282 -1.25302,-1.80488 -2.79274,-4.31474 -3.13619,-6.49274 -0.34345,-2.178 0.5094,-4.024 2.08159,-5.86447 1.57219,-1.84047 3.86363,-3.67529 5.25719,-5.0446 1.39356,-1.36931 1.88914,-2.27303 2.40917,-1.87704 0.52003,0.39598 0.77694,2.61607 1.05664,4.86959 0.2797,2.25353 0.58218,4.54038 1.20349,6.41563 0.6213,1.87525 1.56141,3.33879 2.24165,4.89987 0.68025,1.56109 1.10058,3.21963 1.91335,4.10161 0.81277,0.88198 2.01795,0.98734 2.30124,0.26398 0.28328,-0.72336 -0.35536,-2.2754 -1.15684,-4.00406 -0.80149,-1.72866 -1.76577,-3.63384 -2.32862,-5.81793 -0.56285,-2.18409 -0.72424,-4.64696 -1.55186,-8.86349 -0.82762,-4.21653 -2.32145,-10.18649 -5.0353,-15.25863 -2.71384,-5.07215 -6.64757,-9.24616 -9.54412,-14.11774 -2.89655,-4.87158 -4.75572,-10.44047 -4.20315,-15.78564 0.55256,-5.34517 3.3159,-11.06861 6.94276,-15.02134 3.62687,-3.95273 8.1171,-6.13454 12.5038,-7.13247 4.3867,-0.99792 8.66961,-0.81188 12.88718,0.12193 4.21756,0.93381 8.36952,2.61534 12.75908,4.36021 4.38956,1.74487 9.01645,3.55297 12.37223,4.98689 3.35579,1.43391 5.44025,2.49355 6.87012,3.41774 1.42986,0.9242 2.20504,1.7129 2.21684,3.86189 0.0118,2.14899 -0.73978,5.65816 -1.71759,9.21347 -0.97782,3.5553 -2.1818,7.15652 -2.66974,11.19501 -0.48795,4.03849 -0.25981,8.51401 -0.95774,11.43267 -0.69793,2.91867 -2.32186,4.28024 -4.38711,6.28991 -2.06524,2.00967 -4.57171,4.66734 -6.80368,6.835 -2.23198,2.16765 -4.18932,3.84515 -6.72673,5.19312 -2.5374,1.34797 -5.65458,2.36628 -7.88715,4.29212 -2.23257,1.92584 -3.58031,4.7591 -4.71841,7.17125 -1.1381,2.41214 -2.06648,4.40302 -2.12778,5.82079 -0.0613,1.41778 0.74448,2.26237 1.27788,2.45028 0.5334,0.18792 0.79438,-0.28086 1.55745,-1.99831 0.76306,-1.71746 2.02818,-4.68352 3.36151,-6.90593 1.33334,-2.22241 2.73481,-3.70101 4.26133,-4.80768 1.52651,-1.10668 3.17796,-1.84135 4.84266,-2.44042 1.6647,-0.59907 3.34255,-1.0625 3.46826,-0.34511 0.12571,0.7174 -1.3007,2.61552 -2.179,4.19381 -0.87831,1.57828 -1.20842,2.83659 -1.54204,4.3144 -0.33363,1.47782 -0.67075,3.17504 -0.84741,4.83389 -0.17667,1.65885 -0.19287,3.27923 0.29335,4.00958 0.48622,0.73034 1.47483,0.5706 1.97867,-0.52592 0.50385,-1.09652 0.33359,-3.09923 0.55923,-5.24084 0.22564,-2.1416 0.84717,-4.42198 1.66538,-5.58836 0.8182,-1.16638 1.82782,-1.21839 3.21378,-0.35264 1.38595,0.86576 3.11994,2.63161 4.84419,4.36558 1.72426,1.73397 3.42978,3.42691 4.32973,4.81124 0.89996,1.38433 0.99429,2.45999 1.47297,2.94138 0.47867,0.48138 1.34166,0.36846 1.56109,-0.52282 0.21944,-0.89127 -0.20471,-2.56086 -1.27389,-4.19271 -1.06918,-1.63184 -2.78334,-3.22583 -4.50545,-4.85196 -1.72211,-1.62613 -3.45206,-3.2843 -4.6178,-5.58899 -1.16574,-2.30469 -1.76719,-5.25576 -0.70051,-7.62708 1.06668,-2.37131 3.80135,-4.16264 5.70546,-5.98468 1.90411,-1.82205 2.97748,-3.67467 3.96184,-3.79271 0.98436,-0.11803 1.87964,1.49856 2.78569,3.35147 0.90605,1.85291 1.8228,3.94203 2.73138,6.12495 0.90857,2.18292 1.80891,4.45951 2.43298,6.66204 0.62408,2.20253 0.97185,4.33086 1.01631,6.15568 0.0445,1.82483 -0.21441,3.34602 -0.536,4.68635 -0.32158,1.34034 -0.70587,2.49974 -0.36034,2.85961 0.34552,0.35986 1.42085,-0.0798 2.33585,-1.36829 0.91499,-1.28845 1.66959,-3.42559 1.41776,-6.69716 -0.25184,-3.27156 -1.51012,-7.67738 -3.50043,-12.36211 -1.99032,-4.68474 -4.71258,-9.64811 -4.91938,-16.72108 -0.20681,-7.07296 2.10182,-16.25477 3.74306,-22.04657 1.64123,-5.79179 2.61493,-8.19299 3.70565,-9.18545 1.09072,-0.99245 2.2984,-0.57609 5.15066,0.84984 2.85226,1.42593 7.34896,3.86136 11.6565,7.27434 4.30754,3.41298 8.42564,7.8033 10.41471,10.82222 1.98906,3.01891 1.78897,4.60232 1.39257,6.44618 -0.3964,1.84387 -0.98909,3.94809 -1.36962,6.49985 -0.38053,2.55177 -0.54887,5.55092 -0.28263,8.43118 0.26624,2.88025 0.96705,5.64144 1.35977,7.79497 0.39272,2.15353 0.47731,3.69925 0.10783,5.04835 -0.36948,1.3491 -1.19302,2.50149 -2.18126,3.56103 -0.98825,1.05954 -2.14114,2.02617 -3.08101,3.07149 -0.93987,1.04532 -1.66666,2.16928 -2.19323,3.1593 -0.52657,0.99002 -0.85287,1.84603 -0.82641,2.62028 0.0265,0.77425 0.40571,1.46669 0.61794,1.37536 0.21223,-0.0913 0.25744,-0.96641 0.72572,-2.00861 0.46829,-1.0422 1.35965,-2.25145 2.3668,-3.16806 1.00715,-0.91662 2.13003,-1.54053 3.09586,-2.52353 0.96584,-0.98301 1.77456,-2.32506 2.43838,-2.61239 0.66382,-0.28733 1.18269,0.4801 1.40394,1.30003 0.22125,0.81992 0.14487,1.69228 0.73961,2.49777 0.59474,0.80548 1.86058,1.54403 3.04778,2.4013 1.1872,0.85728 2.29568,1.83322 3.25724,2.5138 0.96157,0.68057 1.77616,1.06573 2.07204,0.91618 0.29588,-0.14955 0.073,-0.83381 -0.88504,-1.78695 -0.95807,-0.95315 -2.6513,-2.17513 -3.67395,-3.23112 -1.02265,-1.05599 -1.37464,-1.94592 -1.55466,-3.57263 -0.18002,-1.62671 -0.18806,-3.99011 -0.73875,-6.29363 -0.55069,-2.30351 -1.64401,-4.54699 -2.26404,-7.28616 -0.62004,-2.73916 -0.76674,-5.97385 -0.65877,-8.43458 0.10797,-2.46074 0.47061,-4.14737 0.75459,-6.16311 0.28397,-2.01574 0.48928,-4.36055 1.98661,-3.04828 1.49733,1.31227 4.28663,6.28151 6.67205,12.18222 2.38542,5.90072 4.36674,12.73232 5.30808,13.02941 0.94134,0.29709 0.84262,-5.94035 -2.91345,-15.82715 -3.75607,-9.8868 -11.16933,-23.42232 -25.35603,-33.25445 -14.1867,-9.83214 -35.14612,-15.96022 -48.05174,-20.89775 -12.90563,-4.93753 -17.75652,-8.68418 -12.42021,-38.2896 5.3363,-29.60541 20.85908,-85.06614 28.50535,-141.59137 7.64627,-56.52523 7.41716,-113.598522 8.5381,-144.282689 1.12094,-30.6841674 3.54369,-33.8871493 8.20557,-39.084316 4.66188,-5.197166 11.48674,-12.298199 13.14229,-20.290498 1.65555,-7.992298 -1.87081,-16.907779 -5.57756,-23.675718 -3.70674,-6.76794 -7.6,-11.404095 -11.23409,-14.180541 -3.63409,-2.776447 -7.0088,-3.693043 -9.04362,-5.004457 -2.03482,-1.311414 -2.72966,-3.01756 -2.67596,-5.100991 0.0537,-2.08343 0.8559,-4.544014 3.16672,-6.38439 2.31082,-1.840376 6.13007,-3.060443 8.87849,-4.03668 2.74842,-0.976237 4.42586,-1.708587 8.22364,-2.496618 3.79777,-0.788031 9.7156,-1.631692 14.78177,-3.51208 5.06618,-1.880387 9.2804,-4.797362 14.73491,-6.088842 5.45451,-1.29147 12.14896,-0.9574 16.70495,0.47694 4.55599,1.43435 6.97323,3.968801 8.55134,5.111427 1.57812,1.142625 2.31692,0.893266 2.3703,-0.07533 0.0534,-0.968596 -0.57865,-2.656361 -2.09258,-4.173009 -1.51394,-1.516647 -3.90967,-2.862097 -5.93725,-4.106787 -2.02758,-1.2447 -3.6869,-2.38856 -4.05532,-3.92485 -0.36842,-1.53629 0.55406,-3.46489 2.72412,-4.92373 2.17005,-1.45884 5.58752,-2.44785 8.39697,-3.85051 2.80945,-1.40266 5.01067,-3.21885 6.24191,-5.25921 1.23123,-2.04036 1.49233,-4.30464 1.05879,-5.48617 -0.43353,-1.18153 -1.56166,-1.28015 -2.20738,-0.39704 -0.64571,0.8831 -0.80898,2.74786 -1.60459,4.15157 -0.79561,1.40371 -2.22349,2.34629 -4.46183,3.35905 -2.23835,1.01275 -5.28701,2.09562 -7.88337,3.83214 -2.59636,1.73653 -4.74022,4.12655 -6.18821,5.93316 -1.44799,1.80661 -2.19995,3.0296 -4.65862,4.10345 -2.45867,1.07386 -6.62378,1.99847 -10.25581,2.96975 -3.63202,0.97129 -6.73053,1.98914 -9.73187,3.12296 -3.00134,1.133817 -5.90519,2.383474 -8.44253,3.128257 -2.53735,0.744782 -4.70791,0.984606 -6.45593,0.08 -1.74802,-0.904607 -3.07331,-2.953546 -2.73141,-5.557866 0.34189,-2.60432 2.35097,-5.76377 4.19954,-8.46278 1.84856,-2.69902 3.5365,-4.93744 3.47019,-7.76882 -0.0663,-2.83139 -1.88683,-6.25557 -3.73917,-9.65123 -1.85235,-3.39565 -3.73642,-6.76259 -4.12839,-9.82158 -0.39197,-3.05899 0.70815,-5.80985 0.83184,-7.22258 0.12369,-1.41274 -0.72905,-1.48728 -1.78209,-0.50534 -1.05303,0.98194 -2.30628,3.02025 -2.71559,5.23986 -0.40931,2.21961 0.0254,4.62026 1.47074,7.75381 1.44539,3.13355 3.9013,6.9996 5.02668,10.10518 1.12538,3.10558 0.92009,5.45029 0.1529,7.23089 -0.76719,1.7806 -2.0962,2.99689 -3.69151,3.64928 -1.59531,0.65239 -3.45675,0.74081 -6.38158,-0.61075 -2.92484,-1.35156 -6.91273,-4.14294 -9.99259,-7.18838 -3.07986,-3.04544 -5.25141,-6.34468 -7.05331,-9.20081 -1.8019,-2.85613 -3.19986,-5.21137 -3.11331,-7.81197 0.0865,-2.6006 1.67474,-5.41748 1.56186,-6.87384 -0.11289,-1.45636 -1.92682,-1.55214 -3.24013,-0.18904 -1.3133,1.36311 -2.12592,4.185 -1.91136,6.93515 0.21457,2.75016 1.45629,5.42842 3.04249,8.48454 1.5862,3.05613 3.51679,6.48992 5.45916,8.85739 1.94237,2.36747 3.89641,3.66849 6.15007,5.56086 2.25366,1.89238 4.8068,4.37597 6.83647,5.74642 2.02966,1.37045 3.53574,1.62769 4.44179,2.46403 0.90606,0.83634 1.21204,2.25169 0.78906,4.62745 -0.42298,2.375757 -1.57489,5.711645 -5.38004,8.226837 -3.80516,2.515193 -7.94556,3.601399 -12.46751,3.711907 -4.52194,0.110508 -7.6124,-1.230196 -11.3706,-3.774731 -3.75819,-2.544536 -8.18377,-6.292672 -11.52892,-10.306483 -3.34515,-4.01382 -5.60968,-8.29307 -5.3084,-11.37487 0.30128,-3.08179 3.16831,-4.96598 5.15143,-7.49263 1.98312,-2.52665 3.08221,-5.69553 3.79001,-9.08718 0.7078,-3.39165 1.02424,-7.00574 0.78877,-9.72632 -0.23547,-2.72058 -1.02284,-4.5475 -1.60965,-4.33192 -0.58681,0.21558 -0.97302,2.47357 -1.32982,5.47206 -0.3568,2.9985 -0.68415,6.73713 -2.43761,10.49262 -1.75346,3.75549 -4.93282,7.52734 -7.4903,8.38692 -2.55748,0.85958 -4.4928,-1.19327 -5.51272,-3.41732 -1.01993,-2.22405 -1.12441,-4.61916 -0.33331,-6.77908 0.7911,-2.15991 2.47768,-4.08446 3.72773,-6.28277 1.25006,-2.19831 2.06344,-4.67011 2.52334,-6.51364 0.45991,-1.84354 0.5663,-3.05862 0.0198,-3.15348 -0.54654,-0.0949 -1.74597,0.93048 -2.68538,2.45185 -0.9394,1.52137 -1.61874,3.53865 -2.6976,5.45364 -1.07886,1.915 -2.55713,3.72754 -3.48911,5.30772 -0.93197,1.58019 -1.31752,2.92781 -1.85812,4.79569 -0.54059,1.86789 -1.23616,4.2558 -3.25687,5.178 -2.0207,0.92221 -5.36637,0.37859 -8.03707,-1.29908 -2.67069,-1.67767 -4.66621,-4.4892 -5.64243,-7.33504 -0.97622,-2.84584 -0.93302,-5.72572 -0.65496,-8.4799 0.27806,-2.75418 0.79096,-5.38246 0.7202,-7.08634 -0.0708,-1.70387 -0.72517,-2.48316 -1.48541,-1.8746 -0.76023,0.60856 -1.62625,2.60489 -2.27402,4.62036 -0.64777,2.01546 -1.07725,4.04995 -1.16548,6.85184 -0.0882,2.80189 0.16482,6.371 1.36301,9.55249 1.1982,3.18149 3.34145,5.97518 6.22509,7.57755 2.88364,1.60237 6.50742,2.01335 9.37486,2.51518 2.86744,0.50184 4.97826,1.0945 7.00475,2.61667 2.02649,1.52217 3.94125,3.93926 6.52625,7.20817 2.585,3.26892 4.38893,5.55247 8.11316,9.742688 3.72424,4.19022 6.42047,6.946494 7.8167,9.888136 1.39624,2.941642 -0.23136,4.30629 -3.35037,4.40223 -3.11901,0.09594 -7.7292,-1.076808 -11.93512,-3.459325 -4.20592,-2.382518 -8.00723,-5.974556 -13.63911,-9.330829 -5.63187,-3.35627 -10.51483,-5.39806 -16.17597,-7.28844 -5.66113,-1.89038 -9.77829,-2.65841 -11.70867,-5.73127 -1.93037,-3.07286 -1.67374,-8.45016 -1.48735,-13.23742 0.18638,-4.78725 0.30248,-8.98396 -0.1918,-12.66903 -0.49427,-3.68507 -1.59888,-6.85829 -0.99304,-9.83005 0.60584,-2.97176 2.92205,-5.74189 2.78864,-6.48809 -0.13342,-0.74621 -2.71636,0.53148 -4.51477,2.049 -1.79841,1.51752 -2.8121,3.27473 -3.00471,5.23228 -0.1926,1.95756 0.4359,4.11537 1.14346,7.46018 0.70756,3.34481 1.40619,7.36969 0.78017,9.85134 -0.62601,2.48165 -2.62057,3.16644 -5.22666,1.7897 -2.6061,-1.37674 -5.82349,-4.81491 -8.68066,-6.98852 -2.85717,-2.1736 -5.35396,-3.08255 -7.30747,-3.3789 -1.95352,-0.29636 -3.36365,0.0199 -3.79848,0.50955 -0.43483,0.48965 0.10563,1.15266 1.61857,2.02243 1.51293,0.86976 3.9982,1.9462 6.11062,3.11018 2.11241,1.16399 3.85185,2.41544 5.39629,3.94784 1.54445,1.53241 2.89381,3.34567 4.45913,4.48716 1.56532,1.14149 3.34651,1.61114 4.51582,2.96919 1.16932,1.35805 1.72669,3.60438 2.42391,6.40692 0.69723,2.80254 1.53425,6.16109 6.55492,8.7381 5.02068,2.57702 13.99665,4.32788 21.58054,8.085142 7.58389,3.757261 13.16575,9.144763 18.63798,12.520012 5.47224,3.375249 10.53128,4.445398 14.19056,5.17343 3.65929,0.728032 5.91862,1.113909 6.97422,2.153014 1.0556,1.039105 0.90743,2.731362 0.75926,4.423653"
         id="path126"
         sodipodi:nodetypes="cccccccccccccccccccccccccccccccccccccccccccccccccccccccccccccccccccccccccccccccccccccccccccccccccccccccccccscccccccccccccccccsccccccccccccccccccccccccccccccccccccccccccccccccccccccccccccccccccccccccccccccccccccccccccccccccccccccccccccccccccccccccccccccccccccccccccccccccccccccccccccccccccccccccccccccccccccccccccccccccccccccccccccccccccccccccccccccccccccccccccccccccccccccc"
         inkscape:original-d="m -346.19897,-73.037243 c -4.64742,3.975961 -9.29484,7.951918 -13.94227,11.927889 -1.46525,4.167884 -2.93044,8.335621 -4.39568,12.50344 -0.48618,4.253475 -0.97233,8.506799 -1.45851,12.76019 1.53589,7.193091 3.06938,14.374994 4.60756,21.578805 8.53441,3.198344 17.04313,6.3870601 25.56458,9.5805469 0.39816,1.9116992 0.79455,3.81486439 1.19451,5.7351494 -0.24352,48.9557417 -0.48509,97.5173377 -0.72731,146.2118927 -9.80725,46.39852 -19.61391,92.79426 -29.42116,139.19279 -3.40337,18.43633 -6.80654,36.87156 -10.20992,55.3079 -2.50094,-0.10426 -5.00173,-0.20851 -7.50267,-0.31276 -4.39212,1.06021 -8.78414,2.12041 -13.17634,3.18065 -5.96995,0.66558 -11.93978,1.33115 -17.90985,1.99674 -5.3262,0.54457 -10.65231,1.08913 -15.97862,1.6337 -4.96505,1.396 -9.93001,2.79196 -14.89516,4.18799 -4.17598,1.09064 -8.3517,2.18122 -12.52768,3.27187 -5.82282,1.60521 -11.64552,3.21038 -17.46846,4.81562 -3.73352,3.35886 -7.46696,6.71765 -11.20055,10.07657 -0.14129,4.06883 -0.26589,7.65719 -0.42386,12.20627 -3.02912,1.65641 -5.4186,2.96304 -8.12786,4.44454 -2.77589,4.69757 -5.55178,9.39514 -8.32775,14.09286 0.55471,3.48528 1.10939,6.97035 1.6641,10.45564 -1.32112,0.35753 -2.64216,0.71505 -3.96327,1.07258 -0.72954,0.96677 -1.45906,1.93352 -2.18862,2.90032 -3.70631,0.59197 -7.41236,1.1839 -11.11866,1.77587 -1.255,1.89957 -2.50998,3.79911 -3.765,5.69872 -1.03333,2.13951 -2.06664,4.27898 -3.09999,6.41853 1.14018,0.94656 2.2803,1.89308 3.42048,2.83964 10e-4,-1.70596 0.002,-3.41188 0.003,-5.11786 1.14328,-2.28613 1.73258,-3.4645 3.42979,-6.85825 1.52072,-0.60981 3.04144,-1.21963 4.56221,-1.82946 0.79726,0.19135 1.59451,0.3827 2.39179,0.57406 0.68537,1.99313 1.37069,3.9861 2.05605,5.97921 0.89291,1.9312 1.78576,3.86228 2.67867,5.79348 0.78867,1.37264 1.5773,2.7452 2.36598,4.11784 0.0518,-1.0043 0.10357,-2.00856 0.15537,-3.01288 -0.67366,-2.12684 -1.34727,-4.25354 -2.02092,-6.38037 -1.25565,-2.02718 -2.51128,-4.05432 -3.95516,-6.38538 3.77029,-2.72853 6.88513,-4.98272 10.3278,-7.47416 0.92279,1.58427 1.84552,3.16843 2.7683,4.7527 1.97858,2.10612 3.95711,4.2122 5.93573,6.31837 0.70391,2.42433 1.40777,4.84852 2.11168,7.27284 0.87307,0.0763 1.74612,0.15265 2.75295,-1.29846 -0.80554,-1.49052 -1.61108,-2.98104 -2.41664,-4.4716 -1.28803,-2.47539 -2.576,-4.95064 -3.86404,-7.42604 -1.81536,-1.62877 -3.63068,-3.25751 -5.44607,-4.88631 -0.37808,-2.85888 -0.75616,-5.71771 -1.13424,-8.57664 0.54498,-1.7042 1.08994,-3.40836 1.80415,-5.64175 1.58065,-2.66783 2.66188,-4.49275 3.99286,-6.73919 1.98516,-0.91739 3.90863,-1.80626 5.86293,-2.70939 1.4756,1.20297 2.9512,2.40593 4.42684,3.60892 1.71113,1.68299 3.42221,3.36595 5.13337,5.04898 0.84662,2.8365 1.69323,5.67296 2.53987,8.50952 -0.24856,4.27418 -0.49711,8.54826 -0.74567,12.82252 -0.81403,2.72117 -1.62804,5.4423 -2.44208,8.16353 0.005,1.50396 0.009,3.00783 0.0126,4.5118 0.81071,0.0709 1.6214,0.14171 2.43213,0.21261 0.59459,-3.20239 1.18917,-6.40471 1.78377,-9.60716 0.55041,-3.57096 1.10081,-7.14185 1.65123,-10.71288 -0.49872,-4.12479 -0.99741,-8.24933 -1.49612,-12.37411 -1.84594,-2.9786 -3.69177,-5.95702 -5.53772,-8.93563 -1.87147,-1.21276 -3.74283,-2.42545 -5.6143,-3.63822 1.20373,-3.77473 2.4074,-7.54925 3.61114,-11.32398 2.86067,-2.52868 5.72128,-5.05731 8.582,-7.58604 3.89811,-1.16279 7.79615,-2.32556 11.69435,-3.48838 3.48802,-0.55427 6.97584,-1.10852 10.46386,-1.66279 4.21251,-1.56494 8.42476,-3.12978 12.63726,-4.69472 4.357,-0.95834 8.71392,-1.91665 13.07101,-2.87501 5.2339,-0.45291 10.4677,-0.90581 15.70171,-1.35873 4.40038,-1.15371 8.8005,-2.30735 13.20088,-3.46106 4.31084,-0.13102 8.62142,-0.26203 12.93227,-0.39305 -0.13689,1.56333 -0.27376,3.12663 -0.41065,4.68999 -2.26269,2.5228 -4.52535,5.04555 -6.78809,7.5684 -1.16044,3.20581 -2.32087,6.41155 -3.48134,9.61742 -1.66188,3.24538 -3.32373,6.49071 -4.98564,9.73616 -3.18671,2.60977 -6.37337,5.21948 -9.56014,7.8293 -2.73925,1.14192 -5.47844,2.28382 -8.21775,3.42576 -3.03831,0.42508 -6.07655,0.85016 -9.11493,1.27525 -3.1153,0.95702 -6.23054,1.91403 -9.34591,2.87107 -1.49505,2.59572 -2.99006,5.19139 -4.48514,7.78717 -1.74458,2.10793 -3.48912,4.21583 -5.23373,6.3238 -1.40774,1.97831 -2.81545,3.95658 -4.22322,5.93493 -2.10666,1.96383 -4.2132,3.92755 -6.31986,5.89138 -2.6548,1.92322 -5.30946,3.84634 -7.96427,5.76958 -1.50249,1.3649 -3.00496,2.72977 -4.50749,4.09469 1.56645,0.77556 3.13286,1.5511 4.69933,2.32668 -0.0358,-1.07134 -0.0716,-2.14266 -0.10739,-3.21403 1.97606,-1.71022 3.95198,-3.42033 5.92803,-5.13055 1.01001,-0.47681 2.02001,-0.95362 3.03004,-1.43045 0.94428,1.84068 1.88854,3.68131 2.83283,5.52202 0.83816,1.19278 1.6763,2.38553 2.51447,3.57833 1.30961,0.11448 2.61919,0.22897 3.92883,0.34345 -0.59962,-1.04634 -1.19923,-2.09266 -1.79887,-3.13902 -1.99851,-2.8323 -3.99699,-5.66456 -5.99554,-8.49691 1.8083,-1.45409 3.61649,-2.90809 5.42479,-4.36218 1.72766,-2.10314 3.45528,-4.20624 5.18298,-6.30943 1.52841,-2.07036 3.05672,-4.14059 4.58513,-6.21095 1.60347,-1.80632 3.20691,-3.61261 4.81041,-5.41897 2.24137,-1.02351 4.4827,-2.047 6.72412,-3.07054 6.86228,-2.21895 11.5039,-3.71985 17.25575,-5.57974 -4.65851,4.10339 -9.31704,8.2068 -13.97571,12.31034 -1.42933,1.59344 -2.85858,3.18679 -4.2879,4.78023 -1.31685,1.94733 -2.63362,3.89454 -3.95047,5.84187 -0.61189,3.39997 -1.22377,6.79987 -1.83567,10.19991 -0.55188,2.71452 -1.10374,5.42899 -1.65563,8.14357 0.48177,1.67466 0.96353,3.34928 1.4453,5.02398 1.21493,-0.78358 2.42984,-1.56713 3.64479,-2.35072 -0.71204,-4.14336 -1.42406,-8.28663 -2.13611,-12.43007 1.37676,-3.44828 2.75345,-6.89637 4.13021,-10.34466 2.76311,-3.02353 5.52616,-6.04701 8.28933,-9.07061 3.87061,-3.99731 7.74116,-7.99456 11.61184,-11.99194 -1.53126,5.26935 -3.06244,10.5384 -4.59371,15.80776 1.34005,4.07293 2.68008,8.14578 4.02016,12.21879 1.04623,1.68711 2.09244,3.37419 3.13869,5.06134 -1.49209,0.53436 -2.98416,1.0687 -4.47629,1.60306 -2.18289,1.00219 -4.36575,2.00435 -6.54869,3.00656 -1.25073,2.32876 -2.50144,4.65747 -3.7522,6.98627 1.03889,0.0908 2.07775,0.18164 3.16855,-0.32028 0.9096,-1.53157 1.81921,-3.06314 2.72885,-4.59475 1.86072,-1.15593 3.7214,-2.31184 5.58216,-3.46779 1.11895,0.005 2.23788,0.009 3.35686,0.014 -0.3901,1.00092 -0.78016,2.00175 -1.17026,3.00267 -0.16602,1.1785 -0.33204,2.35697 -0.49807,3.5355 -0.14732,1.68245 -0.29463,3.36488 -0.44194,5.04737 0.9916,0.21226 1.98318,0.42452 2.97479,0.63679 0.15823,-1.80708 0.31645,-3.61413 0.47467,-5.42125 -0.0197,-2.22972 -0.0395,-4.45941 -0.0592,-6.68919 1.66687,1.30632 3.33362,2.61255 5.00049,3.91886 0.44123,1.41996 0.88245,2.83988 1.32369,4.25987 1.31975,1.43396 2.63948,2.8679 3.95926,4.3019 -0.20503,-1.96442 -0.41007,-3.9288 -0.61511,-5.89326 -1.94279,-2.08389 -3.88554,-4.16774 -5.82837,-6.25168 -0.81601,-0.50093 -1.63197,-1.00184 -2.44799,-1.50277 -2.02607,-4.48932 -4.05203,-8.97838 -6.0781,-13.46769 -0.19576,-4.94119 -0.39151,-9.88228 -0.58727,-14.82357 3.11971,-3.27987 6.23935,-6.55968 9.35913,-9.83962 1.72893,-1.85815 3.45783,-3.71625 5.1868,-5.57443 0.50283,2.86951 1.00565,5.73897 1.50848,8.60854 3.06744,3.00449 6.13481,6.00891 9.20231,9.01345 1.79377,3.19718 3.5875,6.3943 5.40457,9.32588 -0.0499,2.72204 -0.0997,5.44407 -0.14946,8.16619 -2.04546,1.83047 -4.09088,3.66091 -6.13638,5.49142 -1.90094,1.96868 -3.80185,3.93733 -5.70283,5.90606 1.24541,1.92978 2.49079,3.85953 3.73621,5.78936 1.6199,3.02996 3.23976,6.05986 4.85968,9.08988 1.04669,-0.5364 2.09336,-1.07279 3.14007,-1.6092 -0.96627,-1.09984 -1.93251,-2.19965 -2.89879,-3.29951 -1.53975,-2.50991 -3.07947,-5.01977 -4.61925,-7.52973 0.85288,-1.84604 1.70573,-3.69204 2.55862,-5.53811 2.29149,-1.83487 4.58293,-3.66969 6.87447,-5.50459 0.0982,-1.12164 0.19641,-2.24326 1.77431,-3.23556 0.25691,2.22009 0.51382,4.44018 0.77074,6.66034 0.30248,2.28689 0.60496,4.57374 0.90745,6.86067 0.94012,1.46357 1.88023,2.92711 2.82038,4.39071 0.42033,1.65857 0.84066,3.31711 1.26101,4.97571 1.2052,0.10536 2.41038,0.21072 3.61561,0.31608 -0.63866,-1.55208 -1.2773,-3.10412 -1.91597,-4.65623 -0.9643,-1.90521 -1.92858,-3.81039 -2.89289,-5.71564 -0.16139,-2.46293 -0.32278,-4.9258 -0.48417,-7.38878 -1.49385,-5.97008 -2.98768,-11.94004 -4.48156,-17.91023 -3.93381,-4.1741 -7.86754,-8.34811 -11.80143,-12.52229 -2.32179,-5.41455 -4.64354,-10.829 -5.37658,-16.10477 2.76333,-5.72344 5.52667,-11.44688 8.29008,-17.17049 4.49032,-2.18185 8.98055,-4.36366 13.47096,-6.54556 4.28299,0.18605 8.5659,0.37209 12.84898,0.55814 4.15205,1.68157 8.30401,3.3631 12.45615,5.0447 4.62698,1.80814 9.25387,3.61624 13.88094,5.42442 2.0845,1.05965 4.16896,2.11928 6.2535,3.17896 0.77519,0.78872 1.55037,1.57742 2.32558,2.36615 -0.7516,3.50925 -1.50319,7.01842 -2.25481,10.52774 -1.20401,3.60129 -2.40799,7.20251 -3.61202,10.80387 0.22814,4.47562 0.45628,8.95114 0.68442,13.42684 -1.624,1.36163 -3.24793,2.7232 -4.8719,4.0848 -2.50652,2.65774 -5.01299,5.31541 -7.51956,7.9732 -1.95738,1.67752 -3.91472,3.35502 -5.87215,5.03258 -3.11738,1.01837 -6.23456,2.03669 -9.35193,3.05506 -1.34777,2.83331 -2.69552,5.66657 -4.04331,8.49995 -0.9284,1.99091 -1.85678,3.98179 -2.78519,5.97274 0.8058,0.8446 1.61159,1.68919 2.41741,2.5338 0.26099,-0.46878 0.52196,-0.93756 0.78295,-1.40635 1.26514,-2.96612 2.53026,-5.93218 3.79542,-8.89836 1.40151,-1.47864 2.80298,-2.95724 4.20452,-4.4359 1.65149,-0.73469 3.30294,-1.46936 4.95447,-2.20406 1.67787,-0.46344 3.35572,-0.92687 5.03363,-1.39032 -1.42649,1.89824 -2.8529,3.79636 -4.27939,5.69459 -0.33012,1.25834 -0.66023,2.51665 -0.99035,3.77502 -0.33712,1.69726 -0.67424,3.39448 -1.01138,5.09177 -0.0162,1.62041 -0.0324,3.24079 -0.0486,4.86123 1.02898,0.0899 2.05794,0.1799 3.1552,-0.50982 -0.17026,-2.00271 -0.34052,-4.00542 -0.51079,-6.00819 0.62155,-2.28044 1.24308,-4.56082 1.86464,-6.8413 1.01485,-0.0523 2.02447,-0.10434 3.0445,-0.15684 1.75188,1.78406 3.48587,3.54991 5.22886,5.32492 1.70552,1.69293 3.41104,3.38587 5.11661,5.07885 0.0943,1.07568 0.18871,2.15134 0.28301,3.22704 0.86301,-0.11292 1.726,-0.22585 2.58902,-0.33878 -0.42415,-1.66962 -0.8483,-3.33921 -1.27246,-5.00887 -1.7142,-1.59403 -3.42836,-3.18802 -5.1426,-4.78209 -1.72998,-1.65819 -3.45993,-3.31636 -5.18995,-4.97459 -0.60146,-2.95115 -1.20291,-5.90222 -1.80438,-8.85342 2.73483,-1.79143 5.4695,-3.58276 8.20433,-5.37419 1.07339,-1.85266 2.14676,-3.70528 3.22017,-5.55798 0.8953,1.61663 1.79059,3.23322 2.68592,4.84988 0.91677,2.08916 1.83352,4.17828 2.75031,6.26748 0.90036,2.27664 1.80069,4.55323 2.70107,6.82991 0.34778,2.12838 0.69555,4.25671 1.04334,6.38513 -0.25887,1.52123 -0.51774,3.04242 -0.77662,4.56368 -0.38429,1.15941 -0.76858,2.31881 -1.15288,3.47825 1.07535,-0.43971 2.15068,-0.87941 3.22606,-1.31913 0.75461,-2.13718 1.50921,-4.27432 2.26384,-6.41155 -1.2583,-4.4059 -2.51658,-8.81172 -3.7749,-13.21771 -2.72231,-4.96348 -5.44457,-9.92685 -8.16694,-14.89043 2.30877,-9.18235 4.61739,-18.36416 6.92615,-27.54651 0.97372,-2.40124 1.94741,-4.80244 2.92114,-7.20373 1.20771,0.41638 2.41539,0.83274 3.62312,1.24912 4.49679,2.43548 8.99349,4.87091 13.49037,7.30644 4.10928,4.39879 8.21846,8.79749 12.41452,13.23517 -0.20009,1.58341 -0.40019,3.16682 -0.60028,4.75028 -0.5927,2.10427 -1.18539,4.20849 -1.77811,6.3128 -0.16834,2.99922 -0.33668,5.99837 -0.50503,8.99764 0.70083,2.76124 1.40164,5.52243 2.10248,8.28373 0.0846,1.54576 0.16919,3.09148 0.25379,4.63727 -0.82356,1.15241 -1.6471,2.3048 -2.47068,3.45724 -1.15291,0.96664 -2.3058,1.93327 -3.45873,2.89993 -0.72681,1.12398 -1.4536,2.24794 -2.18043,3.37195 -0.32631,0.85603 -0.65261,1.71204 -0.97893,2.56809 0.37925,0.69245 0.75849,1.38489 1.13775,2.07735 0.0452,-0.87511 0.0904,-1.7502 0.13561,-2.62533 0.89137,-1.20927 1.78273,-2.41852 2.67412,-3.62782 1.12291,-0.62393 2.24579,-1.24784 3.36871,-1.87177 0.80875,-1.34208 1.61747,-2.68413 2.42624,-4.02624 0.51887,0.76745 1.03774,1.53488 1.55662,2.30234 -0.0764,0.87239 -0.15275,1.74475 -0.22915,2.61716 1.26587,0.73856 2.53171,1.47711 3.79761,2.21569 1.1085,0.97597 2.21698,1.95191 3.3255,2.9279 0.81461,0.38516 1.6292,0.77032 2.44383,1.15549 -0.22287,-0.68427 -0.44573,-1.36853 -0.6686,-2.05282 -1.69326,-1.222 -3.38649,-2.44398 -5.07979,-3.666 -0.352,-0.88996 -0.70399,-1.77989 -1.056,-2.66986 -0.008,-2.36345 -0.0161,-4.72685 -0.0241,-7.09035 -1.09335,-2.24353 -2.18667,-4.48701 -3.28004,-6.73059 -0.1467,-3.23475 -0.2934,-6.46944 -0.4401,-9.70425 0.36264,-1.68666 0.72528,-3.37329 1.08793,-5.05998 0.2053,-2.34479 0.41061,-4.6896 0.61591,-7.0344 2.78936,4.96934 5.57866,9.93858 8.36808,14.90802 1.98143,6.83199 3.96274,13.66359 5.94416,20.49558 -0.0987,-6.23781 -0.1975,-12.47525 -0.2962,-18.71307 -7.41341,-13.53578 -14.82666,-27.0713 -22.24022,-40.60736 -20.95984,-6.1282 -41.91926,-12.25629 -62.87952,-18.38462 -4.85099,-3.74673 -9.70188,-7.49338 -14.55297,-11.24019 15.5237,-55.46402 31.04648,-110.92475 46.57018,-166.38877 -0.23116,-57.58644 -0.46027,-114.659732 -0.69348,-172.7558977 2.47509,-3.2721661 4.89784,-6.4751504 7.35996,-9.7301774 6.86164,-7.1393069 13.6865,-14.2403369 20.51135,-21.3413669 -3.51375,-8.883568 -7.04012,-17.799048 -10.56017,-26.698571 -3.89343,-4.636357 -7.78669,-9.272512 -11.68004,-13.908777 -3.37483,-0.91663 -6.74954,-1.833225 -10.12431,-2.749838 -0.69487,-1.706214 -1.38971,-3.41236 -2.08456,-5.118541 0.80224,-2.460682 1.60445,-4.921266 2.40668,-7.381899 3.81941,-1.220117 7.63866,-2.440185 11.45799,-3.660278 1.67751,-0.732381 3.35495,-1.464732 5.03243,-2.197098 5.91807,-0.843696 11.8359,-1.687358 17.75386,-2.531036 4.21439,-2.917093 8.42861,-5.83407 12.64291,-8.75111 6.69472,0.33409 13.38917,0.66816 20.08376,1.00224 2.41739,2.53461 4.83463,5.069061 7.25203,7.603682 0.73883,-0.24937 1.47763,-0.498728 2.21644,-0.748092 -0.63205,-1.687831 -1.26408,-3.375595 -1.89612,-5.06339 -2.39583,-1.3455 -4.79156,-2.69095 -7.18734,-4.03642 -1.65938,-1.14392 -3.3187,-2.28778 -4.97805,-3.43168 0.92251,-1.92868 1.84499,-3.85728 2.76749,-5.78592 3.41761,-0.98904 6.83508,-1.97805 10.25262,-2.96707 2.20136,-1.8163 4.40258,-3.63249 6.60394,-5.44879 0.26111,-2.26442 0.52221,-4.5287 0.78332,-6.79313 -1.12818,-0.0986 -2.25631,-0.19725 -3.38446,-0.29587 -0.16328,1.86483 -0.32656,3.72959 -0.48983,5.59438 -1.42794,0.94263 -2.85582,1.88521 -4.28373,2.82782 -3.04878,1.0829 -6.09744,2.16577 -9.14616,3.24865 -2.144,2.39017 -4.28786,4.78019 -6.43185,7.17036 -0.752,1.22305 -1.50394,2.44604 -2.25594,3.66909 -4.16535,0.92466 -8.33046,1.84927 -12.49583,2.77393 -3.09868,1.01791 -6.19719,2.03576 -9.29586,3.05367 -2.90401,1.249727 -5.80786,2.499384 -8.71187,3.749111 -2.17068,0.239838 -4.34124,0.479662 -6.51192,0.7195 -1.32536,-2.049054 -2.65065,-4.097991 -3.97602,-6.147051 2.00916,-3.15958 4.01824,-6.31903 6.02737,-9.47855 1.688,-2.23851 3.37594,-4.47693 5.06391,-6.71539 -1.82059,-3.42431 -3.64111,-6.84849 -5.46166,-10.27273 -1.88414,-3.36707 -3.76821,-6.73401 -5.65231,-10.10102 1.10016,-2.75097 2.20028,-5.50183 3.30042,-8.25275 -0.85276,-0.0745 -1.7055,-0.14909 -2.55825,-0.22364 -1.25332,2.03843 -2.50657,4.07674 -3.75989,6.11517 0.4347,2.40079 0.86937,4.80144 1.30407,7.20224 2.45607,3.8663 4.91198,7.73235 7.36805,11.59866 -0.20531,2.34485 -0.41061,4.68956 -0.61591,7.0344 -1.32908,1.21635 -2.65808,2.43265 -3.98715,3.649 -1.86155,0.0884 -3.72299,0.17685 -5.58453,0.26528 -3.98813,-2.79155 -7.97602,-5.58293 -11.96414,-8.37448 -2.17161,-3.29933 -4.34315,-6.59857 -6.51469,-9.89781 -1.43226,-2.41302 -2.83023,-4.76826 -4.24538,-7.15247 1.58826,-2.81699 3.17645,-5.63387 4.76468,-8.4508 -1.814,-0.0958 -3.62793,-0.19158 -5.44189,-0.28736 -0.81265,2.822 -1.62528,5.64389 -2.43791,8.46584 1.24176,2.67836 2.48348,5.35662 3.72523,8.03493 1.93066,3.43394 3.86125,6.86773 5.79187,10.3016 1.95412,1.30107 3.90816,2.60209 5.86224,3.90314 2.55324,2.4837 5.10638,4.96729 7.65958,7.45094 1.50613,0.25725 3.01221,0.51449 4.51831,0.77173 0.30601,1.41544 0.61199,2.83079 0.918,4.24622 -1.15198,3.336085 -2.30388,6.671974 -3.45585,10.008061 -7.05661,-0.586201 -11.35097,-0.08684 -16.552,4.3423 -3.09063,-1.340779 -6.18109,-2.681482 -9.27172,-4.022262 -4.42576,-3.748294 -8.85134,-7.496429 -13.27702,-11.244649 -2.26462,-4.27941 -4.52915,-8.55866 -6.79373,-12.83799 2.86714,-1.88426 5.73417,-3.76845 8.60125,-5.65268 1.09915,-3.16907 2.19825,-6.33795 3.2974,-9.50701 0.31645,-3.61424 0.63289,-7.22833 0.94934,-10.8425 -0.78739,-1.82699 -1.57476,-3.65391 -2.36214,-5.48087 -0.38624,2.25812 -0.77245,4.51611 -1.15869,6.77423 -0.32736,3.73887 -0.65471,7.4775 -0.98207,11.21638 -3.17956,3.7721 -6.35892,7.54395 -9.53848,11.31605 -1.9354,-2.05294 -3.87072,-4.10579 -5.80608,-6.15868 -0.10448,-2.39521 -0.20897,-4.79032 -0.31345,-7.18549 1.68668,-1.92466 3.37326,-3.84921 5.05994,-5.77388 0.81343,-2.47195 1.6268,-4.94375 2.44023,-7.41569 0.10639,-1.21513 0.21278,-2.43021 0.31917,-3.64532 -1.19947,1.02539 -2.3989,2.05073 -3.59835,3.0761 -0.67936,2.01737 -1.3587,4.03465 -2.03805,6.05198 -1.47837,1.81266 -2.95664,3.6252 -4.43502,5.43786 -0.38557,1.34771 -0.77112,2.69533 -1.1567,4.04304 -0.69561,2.38806 -1.39118,4.77597 -2.08679,7.16402 -3.3458,-0.54364 -6.69147,-1.08726 -10.03721,-1.63089 -1.99565,-2.81171 -3.99117,-5.62324 -5.98681,-8.43493 0.0432,-2.87999 0.0864,-5.75987 0.1296,-8.6398 0.51292,-2.62843 1.02581,-5.25671 1.53874,-7.88515 -0.65444,-0.77931 -1.30885,-1.5586 -1.96327,-2.33789 -0.86605,1.99641 -1.73207,3.99274 -2.5981,5.9891 -0.42951,2.03457 -0.85899,4.06906 -1.28849,6.10359 0.25305,3.56925 0.50609,7.13836 0.75914,10.70754 2.14334,2.7938 4.28659,5.58749 6.42988,8.38124 3.62399,0.411 7.24777,0.82197 10.87176,1.23296 2.11089,0.59268 4.22171,1.18534 6.33253,1.778 1.9665,2.4324 3.86908,4.85913 5.77171,7.2859 1.22228,5.72664 3.33211,7.76854 8.20392,10.385159 1.70907,6.937622 5.42229,8.699061 11.42006,11.674383 -1.62767,1.364704 -3.25527,2.729353 -4.88291,4.09403 -4.61038,-1.172797 -9.22057,-2.345547 -13.83086,-3.51832 -3.80155,-3.592259 -7.60286,-7.184298 -11.40441,-10.776562 -6.16293,-6.22751 -11.2171,-7.85984 -19.55001,-8.17474 -4.11742,-0.76809 -8.23458,-1.53612 -12.35199,-2.30421 0.25665,-5.37763 0.5133,-10.75493 0.76995,-16.13256 0.11611,-4.19688 0.23221,-8.39359 0.34831,-12.59038 -1.10465,-3.17335 -2.20926,-6.34657 -3.31388,-9.51985 2.3163,-2.77024 4.63251,-5.54037 6.94877,-8.31055 -2.58309,1.27777 -5.16603,2.55546 -7.74911,3.83323 -1.01374,1.75727 -2.02743,3.51448 -3.04115,5.27172 0.62851,2.15787 1.25701,4.31568 1.8855,6.47348 0.78663,4.53182 1.48526,8.5567 2.22791,12.83518 -1.99468,0.68482 -3.98924,1.36961 -5.98391,2.05443 -3.21752,-3.4383 -6.43491,-6.87647 -9.65237,-10.3147 -2.49688,-0.90899 -4.99367,-1.81793 -7.49051,-2.7269 -1.41019,0.31626 -2.82032,0.63251 -4.23048,0.94877 0.5405,0.66305 1.08096,1.32606 1.62146,1.98911 2.48537,1.07648 4.97064,2.15292 7.45596,3.22938 1.73951,1.25151 3.47895,2.50296 5.21843,3.75444 1.34941,1.81333 2.69877,3.62659 4.04815,5.43989 1.78126,0.46968 3.56245,0.93933 5.34368,1.409 0.5574,2.24643 1.11477,4.49276 1.67216,6.73915 0.83706,3.35869 1.67408,6.71724 2.51112,10.07586 9.50839,0.2365 18.28501,3.00934 27.43227,5.350979 4.69571,6.973912 10.64672,11.978942 17.38287,16.777621 5.05925,1.070193 10.11829,2.140342 15.17744,3.210514 2.25942,0.385892 4.51875,0.771769 6.77813,1.157654 -0.14818,1.692325 -0.29635,3.384582 -0.44452,5.076873"
         inkscape:path-effect="#path-effect127" />
      <path
         style="fill:#38b26b;fill-opacity:1;fill-rule:evenodd;stroke:#24365b;stroke-width:0.963278;stroke-linecap:round;stroke-linejoin:bevel;stroke-dasharray:none;stroke-dashoffset:107.717;stroke-opacity:1"
         id="path128"
         transform="matrix(-0.99620065,-0.08708767,0.08722383,-0.99618874,0,0)"
         sodipodi:type="arc"
         sodipodi:cx="341.91412"
         sodipodi:cy="8.26791"
         sodipodi:rx="15.973701"
         sodipodi:ry="15.340785"
         sodipodi:start="5.6147128"
         sodipodi:end="5.6012455"
         sodipodi:open="true"
         sodipodi:arc-type="arc"
         d="m 354.44979,-1.2401242 a 15.973701,15.340785 0 0 1 -2.59321,21.5149312 15.973701,15.340785 0 0 1 -22.41118,-2.418013 15.973701,15.340785 0 0 1 2.44231,-21.531213 15.973701,15.340785 0 0 1 22.42762,2.2730294" />
    </g>
  </g>
</svg>
