<?xml version="1.0" encoding="UTF-8" standalone="no"?>
<!-- Created with Inkscape (http://www.inkscape.org/) -->

<svg
   width="54.549442mm"
   height="118.44329mm"
   viewBox="0 0 54.549442 118.44329"
   version="1.1"
   id="svg1"
   inkscape:export-filename="Goblet_Cell_Section.svg"
   inkscape:export-xdpi="96"
   inkscape:export-ydpi="96"
   xmlns:inkscape="http://www.inkscape.org/namespaces/inkscape"
   xmlns:sodipodi="http://sodipodi.sourceforge.net/DTD/sodipodi-0.dtd"
   xmlns="http://www.w3.org/2000/svg"
   xmlns:svg="http://www.w3.org/2000/svg">
  <sodipodi:namedview
     id="namedview1"
     pagecolor="#ffffff"
     bordercolor="#000000"
     borderopacity="0.25"
     inkscape:showpageshadow="2"
     inkscape:pageopacity="0.0"
     inkscape:pagecheckerboard="0"
     inkscape:deskcolor="#d1d1d1"
     inkscape:document-units="mm">
    <inkscape:page
       x="9.4196078e-16"
       y="-2.0130382e-14"
       width="54.549438"
       height="118.4433"
       id="page2"
       margin="0"
       bleed="0" />
  </sodipodi:namedview>
  <defs
     id="defs1">
    <inkscape:path-effect
       effect="bspline"
       id="path-effect133-04-0-1-8"
       is_visible="true"
       lpeversion="1.3"
       weight="33.333333"
       steps="2"
       helper_size="0"
       apply_no_weight="true"
       apply_with_weight="true"
       only_selected="false"
       uniform="false" />
  </defs>
  <g
     inkscape:label="Layer 1"
     inkscape:groupmode="layer"
     id="layer1"
     transform="translate(-92.868739,-102.65836)">
    <g
       id="g7"
       inkscape:label="Goblet cell section"
       transform="translate(-1166.727,-926.83291)">
      <g
         id="g134-7-6-94-6"
         inkscape:label="Crypt Columnar ISC"
         style="stroke:#24365b;stroke-width:2.82251;stroke-dasharray:none;stroke-opacity:1"
         transform="matrix(0.531441,0,0,0.531441,967.68742,467.04355)">
        <path
           id="path133-5-1-2-8"
           style="font-variation-settings:normal;opacity:1;fill:#5c7bbe;fill-opacity:1;stroke:#24365b;stroke-width:6.96917;stroke-linecap:butt;stroke-linejoin:bevel;stroke-miterlimit:4;stroke-dasharray:none;stroke-dashoffset:0;stroke-opacity:1;stop-color:#000000;stop-opacity:1"
           inkscape:path-effect="#path-effect133-04-0-1-8"
           inkscape:original-d="m 884.81137,1319.3877 c 1.81091,119.0534 3.6218,238.1061 5.43272,357.1601 11.36701,25.5543 22.7337,51.1079 34.10085,76.6626 -24.70071,11.5455 -49.40056,23.0906 -74.10085,34.6359 -43.41468,0 -86.82909,0 -130.244,0 -24.70245,-11.6913 -49.40446,-23.3823 -74.10693,-35.0736 11.36904,-25.4085 22.73793,-50.8166 34.1069,-76.2249 3.16909,-117.9215 6.33817,-235.8429 9.50726,-353.7646 10.16427,-20.9276 20.32835,-41.8548 30.49277,-62.7827 14.46536,-5.8855 28.9303,-11.7709 43.39545,-17.6563 16.67577,0 33.35129,0 50.02731,0 12.2017,5.8855 24.40301,11.7708 36.60454,17.6563 11.59468,19.7958 23.18932,39.5915 34.78398,59.3872 z"
           d="m 879.9195,1369.0165 c 6.70278,69.4246 8.51367,188.4773 15.10263,260.7815 6.58896,72.3041 17.95564,97.8577 11.28887,116.4078 -6.66677,18.5501 -31.36662,30.0952 -65.42411,35.8678 -34.05748,5.7727 -77.47189,5.7727 -111.53058,-0.073 -34.05868,-5.8457 -58.76067,-17.5367 -65.42738,-36.0866 -6.66672,-18.5499 4.70216,-43.958 11.97119,-115.6229 7.26903,-71.6649 10.43811,-189.5863 17.10479,-259.0109 6.66668,-69.4247 16.83076,-90.3519 29.14565,-103.7586 12.31488,-13.4067 26.77984,-19.2921 42.3503,-22.2348 15.57045,-2.9427 32.24597,-2.9427 46.68483,10e-5 14.43885,2.9427 26.64015,8.828 38.53827,21.6687 11.89812,12.8406 23.49276,32.6363 30.19554,102.0608 z"
           transform="matrix(0.405,0,0,0.405,282.62397,556.31075)"
           sodipodi:nodetypes="sccccccsssszs" />
        <path
           style="fill:#38b26b;fill-opacity:1;fill-rule:evenodd;stroke:#24365b;stroke-width:2.52386;stroke-linecap:round;stroke-linejoin:bevel;stroke-dasharray:none;stroke-dashoffset:107.717;stroke-opacity:1"
           id="path134-69-3-2-3"
           sodipodi:type="arc"
           sodipodi:cx="-1227.3092"
           sodipodi:cy="599.58942"
           sodipodi:rx="21.572096"
           sodipodi:ry="24.164251"
           sodipodi:start="5.6147128"
           sodipodi:end="5.6012455"
           sodipodi:open="true"
           sodipodi:arc-type="arc"
           d="m -1210.3801,584.6127 a 21.572096,24.164251 0 0 1 -3.5021,33.88955 21.572096,24.164251 0 0 1 -30.2657,-3.80877 21.572096,24.164251 0 0 1 3.2983,-33.91519 21.572096,24.164251 0 0 1 30.2879,3.58039"
           transform="rotate(-90)" />
      </g>
    </g>
  </g>
</svg>
