<?xml version="1.0" encoding="UTF-8" standalone="no"?>
<!-- Created with Inkscape (http://www.inkscape.org/) -->

<svg
   width="119.65933mm"
   height="168.9747mm"
   viewBox="0 0 119.65933 168.9747"
   version="1.1"
   id="svg1"
   inkscape:export-filename="Amphitrichous_Bacillus.svg"
   inkscape:export-xdpi="96"
   inkscape:export-ydpi="96"
   xmlns:inkscape="http://www.inkscape.org/namespaces/inkscape"
   xmlns:sodipodi="http://sodipodi.sourceforge.net/DTD/sodipodi-0.dtd"
   xmlns="http://www.w3.org/2000/svg"
   xmlns:svg="http://www.w3.org/2000/svg">
  <sodipodi:namedview
     id="namedview1"
     pagecolor="#ffffff"
     bordercolor="#000000"
     borderopacity="0.25"
     inkscape:showpageshadow="2"
     inkscape:pageopacity="0.0"
     inkscape:pagecheckerboard="0"
     inkscape:deskcolor="#d1d1d1"
     inkscape:document-units="mm">
    <inkscape:page
       x="0"
       y="-4.4822163e-22"
       width="119.65933"
       height="168.9747"
       id="page2"
       margin="0"
       bleed="0" />
  </sodipodi:namedview>
  <defs
     id="defs1">
    <inkscape:path-effect
       effect="bspline"
       id="path-effect133"
       is_visible="true"
       lpeversion="1.3"
       weight="33.333333"
       steps="2"
       helper_size="0"
       apply_no_weight="true"
       apply_with_weight="true"
       only_selected="false"
       uniform="false" />
  </defs>
  <g
     inkscape:label="Layer 1"
     inkscape:groupmode="layer"
     id="layer1"
     transform="translate(-138.90624,-103.71666)">
    <g
       id="g134"
       inkscape:label="Enterocyte"
       style="stroke:#24365b;stroke-width:1.85185;stroke-dasharray:none;stroke-opacity:1"
       transform="matrix(0.81,0,0,0.81,-497.94057,-949.09703)">
      <path
         id="path133"
         style="font-variation-settings:normal;opacity:1;fill:#5c7bbe;fill-opacity:1;stroke:#24365b;stroke-width:4.57247;stroke-linecap:butt;stroke-linejoin:bevel;stroke-miterlimit:4;stroke-dasharray:none;stroke-dashoffset:0;stroke-opacity:1;stop-color:#000000;stop-opacity:1"
         inkscape:path-effect="#path-effect133"
         inkscape:original-d="m 1040.2168,1280.0005 c 0,113.3334 0,226.6671 0,340.0002 -7.5205,6.6988 -15.0409,13.3975 -22.5615,20.0963 -5.8129,6.6347 -11.6257,13.2691 -17.4385,19.9037 -93.40561,0 -186.80928,0 -280.21671,0 -6.06675,-5.8382 -12.13346,-11.6763 -18.20023,-17.5144 -7.26664,-7.4953 -14.53303,-14.9902 -21.7998,-22.4856 0,-113.3334 0,-226.6668 0,-340.0002 1e-5,-20.0004 1e-5,-40 2e-5,-60 0,-6.6668 0,-13.3333 0,-20 6.6668,-5.6446 13.3332,-11.2888 20,-16.9333 6.6668,5.6445 13.33334,11.2889 20.00001,16.9333 0,6.6668 0,13.3334 0,20 0,13.3336 0,26.6667 0,40 0,6.6668 0,13.3334 0,20.0001 6.6668,0 13.33333,0 20,0 6.6668,0 13.33333,0 20,0 0,-6.6668 0,-13.3334 0,-20.0001 0,-20.0004 0,-40 0,-60 0,-6.6668 0,-13.3333 0,-20 0,-6.6668 0,-13.3333 0,-20 6.6668,-5.6446 13.3332,-11.2888 20,-16.9333 6.6668,5.6445 13.33334,11.2889 20.00001,16.9333 0,6.6668 0,13.3333 0,20 0,26.6672 0,53.3334 0,80 0,6.6668 0,13.3334 0,20.0001 6.6668,0 13.33333,0 20,0 6.6668,0 13.33333,0 20,0 0,-6.6668 0,-13.3334 0,-20.0001 0,-20.0004 0,-40 0,-60 0,-6.6668 0,-13.3333 0,-20 6.6668,-5.6446 13.3332,-11.2888 20,-16.9333 6.6668,5.6445 13.33334,11.2889 20,16.9333 0,6.6668 0,13.3334 0,20 0,20.0004 0,40 0,60 0,6.6668 0,13.3334 0,20.0001 6.66681,0 13.33334,0 20.00001,0 6.6668,0 13.33333,0 20,0 0,-6.6668 0,-13.3334 0,-20.0001 0,-26.6672 0,-53.3333 0,-80 0,-6.6668 0,-13.3333 0,-20 6.6668,-5.6446 13.3332,-11.2888 20,-16.9333 6.6668,5.6445 13.33334,11.2889 20,16.9333 0,6.6668 0,13.3333 0,20 0,26.6672 0,53.3334 0,80 0,6.6668 0,13.3334 0,20.0001 6.66681,0 13.33334,0 20.00001,0 6.6668,0 13.33333,0 19.99998,0 0,-6.6668 0,-13.3334 0,-20.0001 0,-6.6668 0,-13.3333 0,-20 0,-6.6668 0,-13.3333 0,-20 6.6668,-5.6446 13.3332,-11.2888 20,-16.9333 6.6668,5.6445 13.3334,11.2889 20,16.9333 0,6.6668 0,13.3334 0,20 0.072,13.3336 0.1445,26.6667 0.2167,40 z"
         d="m 1040.1807,1330.0006 c 0.036,63.3333 0.036,176.667 -3.7242,236.6829 -3.7602,60.016 -11.2806,66.7147 -17.9474,73.3814 -6.6667,6.6668 -12.4795,13.3012 -62.08869,16.6185 -49.60922,3.3173 -143.01289,3.3173 -192.75,0.3982 -49.7371,-2.9191 -55.80381,-8.7572 -62.47051,-15.4239 -6.66671,-6.6667 -13.93306,-14.1616 -17.56645,-74.576 -3.63339,-60.4144 -3.63339,-173.7478 -3.63339,-240.4147 1e-5,-66.6669 1e-5,-86.6665 2e-5,-99.9999 0,-13.3334 0,-19.9999 3.33341,-26.1555 3.33342,-6.1557 9.99981,-11.7999 16.66659,-11.7999 6.66678,0 13.33336,5.6444 16.66668,11.8 3.33333,6.1556 3.33333,12.8222 3.33333,22.8223 0,10.0001 0,23.3332 0,33.3333 0,10 0,16.6666 3.3334,20 3.3334,3.3333 9.99993,3.3333 16.66666,3.3333 6.66674,0 13.33327,0 16.6666,-3.3334 3.33334,-3.3334 3.33334,-10 3.33334,-23.3335 0,-13.3336 0,-33.3332 0,-46.6666 0,-13.3334 0,-19.9999 0,-26.6666 0,-6.6668 0,-13.3333 3.33341,-19.4889 3.33342,-6.1557 9.99981,-11.7999 16.66659,-11.7999 6.66678,0 13.33336,5.6444 16.66668,11.8 3.33333,6.1556 3.33333,12.8221 3.33333,29.4891 0,16.6669 0,43.3331 0,59.9998 0,16.6667 0,23.3333 3.3334,26.6667 3.3334,3.3333 9.99993,3.3333 16.66666,3.3333 6.66674,0 13.33327,0 16.6666,-3.3334 3.33334,-3.3334 3.33334,-10 3.33334,-23.3335 0,-13.3336 0,-33.3332 0,-46.6666 0,-13.3334 0,-19.9999 3.33341,-26.1555 3.33342,-6.1557 9.99981,-11.7999 16.66659,-11.7999 6.66678,0 13.33335,5.6444 16.66668,11.8 3.33332,6.1556 3.33332,12.8222 3.33332,26.1557 0,13.3335 0,33.3331 0,46.6665 0,13.3334 0,20 3.3334,23.3334 3.33341,3.3333 9.99994,3.3333 16.66667,3.3333 6.66674,0 13.33327,0 16.6666,-3.3334 3.33334,-3.3334 3.33334,-10 3.33334,-26.6669 0,-16.667 0,-43.3331 0,-59.9998 0,-16.6668 0,-23.3333 3.33341,-29.4889 3.33342,-6.1557 9.99981,-11.7999 16.66659,-11.7999 6.66678,0 13.33335,5.6444 16.66668,11.8 3.33332,6.1556 3.33332,12.8221 3.33332,29.4891 0,16.6669 0,43.3331 0,59.9998 0,16.6667 0,23.3333 3.3334,26.6667 3.33341,3.3333 9.99994,3.3333 16.66667,3.3333 6.66674,0 13.33327,0 16.66659,-3.3334 3.33333,-3.3334 3.33333,-10 3.33333,-16.6667 0,-6.6668 0,-13.3333 0,-20 0,-6.6668 0,-13.3333 3.3334,-19.4889 3.3334,-6.1557 9.9998,-11.7999 16.6666,-11.7999 6.6668,0 13.3334,5.6444 16.6667,11.8 3.3333,6.1556 3.3333,12.8222 3.3694,22.8223 0.036,10.0001 0.1084,23.3332 0.1445,86.6666 z"
         transform="matrix(0.405,0,0,0.405,511.75654,835.46767)"
         sodipodi:nodetypes="cccccccsscccsscscssscccsscscsscccsscscsscccsscscssccccc" />
      <path
         style="fill:#38b26b;fill-opacity:1;fill-rule:evenodd;stroke:#24365b;stroke-width:1.85185;stroke-linecap:round;stroke-linejoin:bevel;stroke-dasharray:none;stroke-dashoffset:107.717;stroke-opacity:1"
         id="path134"
         sodipodi:type="arc"
         sodipodi:cx="-1467.1323"
         sodipodi:cy="874.95789"
         sodipodi:rx="21.420387"
         sodipodi:ry="30.435436"
         sodipodi:start="5.6147128"
         sodipodi:end="5.6012455"
         sodipodi:open="true"
         sodipodi:arc-type="arc"
         d="m -1450.3223,856.09437 a 21.420387,30.435436 0 0 1 -3.4774,42.68467 21.420387,30.435436 0 0 1 -30.0529,-4.79723 21.420387,30.435436 0 0 1 3.2751,-42.71697 21.420387,30.435436 0 0 1 30.0749,4.50958"
         transform="rotate(-90)" />
    </g>
  </g>
</svg>
