<?xml version="1.0" encoding="UTF-8" standalone="no"?>
<!-- Created with Inkscape (http://www.inkscape.org/) -->

<svg
   width="215.82674mm"
   height="126.00153mm"
   viewBox="0 0 215.82674 126.00153"
   version="1.1"
   id="svg1"
   inkscape:export-filename="Enteroendocrine_Cellsvg"
   inkscape:export-xdpi="96"
   inkscape:export-ydpi="96"
   xmlns:inkscape="http://www.inkscape.org/namespaces/inkscape"
   xmlns:sodipodi="http://sodipodi.sourceforge.net/DTD/sodipodi-0.dtd"
   xmlns="http://www.w3.org/2000/svg"
   xmlns:svg="http://www.w3.org/2000/svg">
  <sodipodi:namedview
     id="namedview1"
     pagecolor="#ffffff"
     bordercolor="#000000"
     borderopacity="0.25"
     inkscape:showpageshadow="2"
     inkscape:pageopacity="0.0"
     inkscape:pagecheckerboard="0"
     inkscape:deskcolor="#d1d1d1"
     inkscape:document-units="mm">
    <inkscape:page
       x="0"
       y="0"
       width="215.82674"
       height="126.00153"
       id="page2"
       margin="0"
       bleed="0" />
  </sodipodi:namedview>
  <defs
     id="defs1">
    <inkscape:path-effect
       effect="bspline"
       id="path-effect133-7-43-9"
       is_visible="true"
       lpeversion="1.3"
       weight="33.333333"
       steps="2"
       helper_size="0"
       apply_no_weight="true"
       apply_with_weight="true"
       only_selected="false"
       uniform="false" />
    <inkscape:path-effect
       effect="bspline"
       id="path-effect133-8-2-04-9"
       is_visible="true"
       lpeversion="1.3"
       weight="33.333333"
       steps="2"
       helper_size="0"
       apply_no_weight="true"
       apply_with_weight="true"
       only_selected="false"
       uniform="false" />
    <inkscape:path-effect
       effect="bspline"
       id="path-effect133-8-2-04-2-0"
       is_visible="true"
       lpeversion="1.3"
       weight="33.333333"
       steps="2"
       helper_size="0"
       apply_no_weight="true"
       apply_with_weight="true"
       only_selected="false"
       uniform="false" />
  </defs>
  <g
     inkscape:label="Layer 1"
     inkscape:groupmode="layer"
     id="layer1"
     transform="translate(104.24593,-11.906222)">
    <g
       id="g7"
       inkscape:label="Goblet cell section"
       transform="translate(-1166.727,-926.83291)">
      <g
         id="g18"
         inkscape:label="Enteroendocrine_Cell_Section"
         style="stroke:#24365b;stroke-width:2.82251;stroke-dasharray:none;stroke-opacity:1"
         transform="matrix(0.531441,0,0,0.531441,571.67309,196.02937)">
        <path
           id="path133-8-0-31"
           style="font-variation-settings:normal;fill:#5c7bbe;fill-opacity:1;stroke:#24365b;stroke-width:9.55991;stroke-linecap:butt;stroke-linejoin:bevel;stroke-miterlimit:4;stroke-dasharray:none;stroke-dashoffset:0;stroke-opacity:1;stop-color:#000000"
           inkscape:path-effect="#path-effect133-7-43-9"
           inkscape:original-d="m 1040.2168,1144.5029 c -5.3674,45.8209 -10.7349,91.642 -16.1023,137.4629 21.6128,45.821 43.2255,91.6421 64.8383,137.4632 6.3376,107.7217 12.6752,215.4435 19.0128,323.1648 -2.8222,10.1583 -5.6445,20.3167 -8.4667,30.475 -10.833,23.7552 -21.6659,47.5103 -32.4989,71.2655 -69.28576,8.603 -138.57145,17.2061 -207.85715,25.8091 -69.28572,-8.603 -138.57141,-17.2061 -207.8572,-25.8091 -10.36564,-24.108 -20.73123,-48.2158 -31.09691,-72.3238 -2.64584,-9.8056 -5.29165,-19.6111 -7.9375,-29.4167 5.70222,-106.2026 11.40436,-212.4037 17.10658,-318.6062 21.42991,-47.4591 42.8598,-94.9181 64.28948,-142.3766 -4.54905,-45.7024 -9.09811,-91.4049 -13.64724,-137.1081 1e-5,-18.6015 1e-5,-37.2022 2e-5,-55.804 6.66684,-5.6446 13.33324,-11.2888 20,-16.9333 6.66677,5.6445 13.33318,11.2887 20.00001,16.9333 0,11.935 0,23.8692 0,35.804 0,6.6668 0,13.3332 0,20.0001 6.6668,0 13.3332,0 20,0 6.6668,0 13.33323,0 20,0 0,-6.6668 0,-13.3333 0,-20.0001 0,-12.3636 0,-24.7266 0,-37.0904 6.66684,-5.6446 13.33324,-11.2888 20,-16.9333 6.66677,5.6445 13.33334,11.2889 20.00001,16.9333 0,12.3635 0,24.7269 0,37.0904 0,6.6668 0,13.3332 0,20.0001 6.6668,0 13.3332,0 20,0 6.6668,0 13.33323,0 20,0 0,-6.6668 0,-13.3333 0,-20.0001 0,-7.31 0,-14.6195 0,-21.9296 6.66684,-5.6446 13.33323,-11.2888 20,-16.9333 6.66677,5.6445 13.33317,11.2887 20,16.9333 0,7.3101 0,14.6196 0,21.9296 0,6.6668 0,13.3332 0,20.0001 6.66681,0 13.33321,0 20.00001,0 6.6668,0 13.33323,0 20,0 0,-6.6668 0,-13.3333 0,-20.0001 0,-15.0521 0,-30.1034 0,-45.1557 6.66684,-5.6446 13.33323,-11.2888 20,-16.9333 6.66677,5.6445 13.33317,11.2887 20,16.9333 0,15.0522 0,30.1036 0,45.1557 0,6.6668 0,13.3332 0,20.0001 6.66681,0 13.3332,0 20.00001,0 6.6668,0 13.33322,0 19.99998,0 0,-6.6668 0,-13.3333 0,-20.0001 0,-5.8058 0,-11.6112 0,-17.4171 6.6668,-5.6445 13.3332,-11.2887 20,-16.9333 6.6668,5.6446 13.3334,11.2889 20,16.9333 0.072,12.4723 0.1445,24.9447 0.2167,37.4171 z"
           d="m 1037.497,1161.1771 c -2.6476,29.1467 -8.0151,74.9678 0.1076,120.7888 8.1226,45.8209 29.7354,91.642 43.7106,168.4134 13.9752,76.7714 20.3128,184.4932 22.0705,243.433 1.7577,58.9398 -1.0646,69.0982 -7.8922,86.055 -6.8276,16.9567 -17.6605,40.7118 -57.7199,56.8909 -40.05936,16.1791 -109.34505,24.7822 -178.63076,24.7822 -69.28571,0 -138.5714,-8.6031 -178.39713,-24.9586 -39.82572,-16.3555 -50.1913,-40.4633 -56.69706,-57.4201 -6.50575,-16.9568 -9.15157,-26.7623 -7.62338,-84.7664 1.52819,-58.0041 7.23033,-164.2052 20.79641,-241.036 13.56607,-76.8308 34.99596,-124.2898 43.43626,-170.8702 8.44031,-46.5805 3.89125,-92.283 1.61669,-124.4353 -2.27456,-32.1524 -2.27456,-50.7531 1.05887,-62.8763 3.33343,-12.1232 9.99983,-17.7674 16.66658,-17.7674 6.66676,0 13.33316,5.6442 16.66659,14.434 3.33342,8.7898 3.33342,20.724 3.33342,30.0248 0,9.3008 0,15.9672 3.3334,19.3007 3.3334,3.3334 9.9998,3.3334 16.6666,3.3334 6.6668,0 13.33323,0 16.66661,-3.3334 3.33339,-3.3334 3.33339,-9.9999 3.33339,-19.5151 0,-9.5152 0,-21.8782 3.33342,-30.8824 3.33343,-9.0042 9.99983,-14.6484 16.66658,-14.6484 6.66676,0 13.33336,5.6444 16.66668,14.6483 3.33333,9.004 3.33333,21.3674 3.33333,30.8826 0,9.5151 0,16.1815 3.3334,19.515 3.3334,3.3334 9.9998,3.3334 16.6666,3.3334 6.6668,0 13.33323,0 16.66661,-3.3334 3.33339,-3.3334 3.33339,-9.9999 3.33339,-16.9883 0,-6.9884 0,-14.2979 3.33342,-20.7752 3.33343,-6.4774 9.99982,-12.1216 16.66658,-12.1216 6.66676,0 13.33316,5.6442 16.66658,12.1216 3.33342,6.4773 3.33342,13.7868 3.33342,20.7752 0,6.9884 0,13.6548 3.3334,16.9883 3.33341,3.3334 9.99981,3.3334 16.66661,3.3334 6.6668,0 13.33323,0 16.66661,-3.3334 3.33339,-3.3334 3.33339,-9.9999 3.33339,-20.8593 0,-10.8595 0,-25.9108 3.33342,-36.2592 3.33343,-10.3485 9.99982,-15.9927 16.66658,-15.9927 6.66676,0 13.33316,5.6442 16.66658,15.9926 3.33342,10.3484 3.33342,25.3998 3.33342,36.2593 0,10.8594 0,17.5258 3.3334,20.8593 3.33341,3.3334 9.9998,3.3334 16.6666,3.3334 6.66681,0 13.33323,0 16.66661,-3.3334 3.33338,-3.3334 3.33338,-9.9999 3.33338,-16.2362 0,-6.2363 0,-12.0417 3.3334,-17.7669 3.3334,-5.7252 9.9998,-11.3694 16.6666,-11.3694 6.6668,0 13.3334,5.6443 16.7028,14.7027 3.3694,9.0583 3.4417,21.5307 0.7941,50.6773 z"
           transform="matrix(0.295245,0,0,0.295245,873.1955,1083.6118)"
           sodipodi:nodetypes="ccccccccccccscccscscscccscscscccscscscccscscscccc" />
        <path
           style="fill:#38b26b;fill-opacity:1;fill-rule:evenodd;stroke:#24365b;stroke-width:3.56948;stroke-linecap:round;stroke-linejoin:bevel;stroke-dasharray:none;stroke-dashoffset:107.717;stroke-opacity:1"
           id="path134-8-97-4"
           sodipodi:type="arc"
           sodipodi:cx="-1545.239"
           sodipodi:cy="1111.4366"
           sodipodi:rx="30.459515"
           sodipodi:ry="32.070118"
           sodipodi:start="5.6147128"
           sodipodi:end="5.6012455"
           sodipodi:open="true"
           sodipodi:arc-type="arc"
           d="m -1521.3353,1091.56 a 30.459515,32.070118 0 0 1 -4.9449,44.9772 30.459515,32.070118 0 0 1 -42.7348,-5.0549 30.459515,32.070118 0 0 1 4.6571,-45.0113 30.459515,32.070118 0 0 1 42.7662,4.7518"
           transform="rotate(-90)" />
        <path
           style="fill:#90dcaf;fill-opacity:1;fill-rule:evenodd;stroke:#24365b;stroke-width:2.82251;stroke-linecap:round;stroke-linejoin:bevel;stroke-dasharray:none;stroke-dashoffset:107.717;stroke-opacity:1"
           id="path141-5-48-8"
           sodipodi:type="arc"
           sodipodi:cx="1077.8988"
           sodipodi:cy="1597.1393"
           sodipodi:rx="3.1500003"
           sodipodi:ry="3.1500015"
           sodipodi:start="5.6147128"
           sodipodi:end="5.6012455"
           sodipodi:open="true"
           sodipodi:arc-type="arc"
           d="m 1080.3708,1595.1869 a 3.1500003,3.1500015 0 0 1 -0.5114,4.4178 3.1500003,3.1500015 0 0 1 -4.4194,-0.4965 3.1500003,3.1500015 0 0 1 0.4816,-4.4211 3.1500003,3.1500015 0 0 1 4.4227,0.4667" />
        <path
           style="fill:#90dcaf;fill-opacity:1;fill-rule:evenodd;stroke:#24365b;stroke-width:2.82251;stroke-linecap:round;stroke-linejoin:bevel;stroke-dasharray:none;stroke-dashoffset:107.717;stroke-opacity:1"
           id="path141-5-48-2-96"
           sodipodi:type="arc"
           sodipodi:cx="1157.0507"
           sodipodi:cy="1569.8409"
           sodipodi:rx="3.1500003"
           sodipodi:ry="3.1500015"
           sodipodi:start="5.6147128"
           sodipodi:end="5.6012455"
           sodipodi:open="true"
           sodipodi:arc-type="arc"
           d="m 1159.5227,1567.8886 a 3.1500003,3.1500015 0 0 1 -0.5114,4.4178 3.1500003,3.1500015 0 0 1 -4.4195,-0.4965 3.1500003,3.1500015 0 0 1 0.4817,-4.4211 3.1500003,3.1500015 0 0 1 4.4227,0.4667" />
        <path
           style="fill:#90dcaf;fill-opacity:1;fill-rule:evenodd;stroke:#24365b;stroke-width:2.82251;stroke-linecap:round;stroke-linejoin:bevel;stroke-dasharray:none;stroke-dashoffset:107.717;stroke-opacity:1"
           id="path141-5-48-2-3-7"
           sodipodi:type="arc"
           sodipodi:cx="1156.038"
           sodipodi:cy="1586.8297"
           sodipodi:rx="3.1500003"
           sodipodi:ry="3.1500015"
           sodipodi:start="5.6147128"
           sodipodi:end="5.6012455"
           sodipodi:open="true"
           sodipodi:arc-type="arc"
           d="m 1158.51,1584.8774 a 3.1500003,3.1500015 0 0 1 -0.5114,4.4177 3.1500003,3.1500015 0 0 1 -4.4195,-0.4965 3.1500003,3.1500015 0 0 1 0.4817,-4.4211 3.1500003,3.1500015 0 0 1 4.4227,0.4668" />
        <path
           style="fill:#90dcaf;fill-opacity:1;fill-rule:evenodd;stroke:#24365b;stroke-width:2.82251;stroke-linecap:round;stroke-linejoin:bevel;stroke-dasharray:none;stroke-dashoffset:107.717;stroke-opacity:1"
           id="path141-5-48-2-7-7"
           sodipodi:type="arc"
           sodipodi:cx="1142.1057"
           sodipodi:cy="1616.2579"
           sodipodi:rx="3.1500003"
           sodipodi:ry="3.1500015"
           sodipodi:start="5.6147128"
           sodipodi:end="5.6012455"
           sodipodi:open="true"
           sodipodi:arc-type="arc"
           d="m 1144.5777,1614.3056 a 3.1500003,3.1500015 0 0 1 -0.5113,4.4178 3.1500003,3.1500015 0 0 1 -4.4195,-0.4965 3.1500003,3.1500015 0 0 1 0.4816,-4.4211 3.1500003,3.1500015 0 0 1 4.4227,0.4667" />
        <path
           style="fill:#90dcaf;fill-opacity:1;fill-rule:evenodd;stroke:#24365b;stroke-width:2.82251;stroke-linecap:round;stroke-linejoin:bevel;stroke-dasharray:none;stroke-dashoffset:107.717;stroke-opacity:1"
           id="path141-5-48-2-0-3"
           sodipodi:type="arc"
           sodipodi:cx="1166.1819"
           sodipodi:cy="1602.5824"
           sodipodi:rx="3.1500003"
           sodipodi:ry="3.1500015"
           sodipodi:start="5.6147128"
           sodipodi:end="5.6012455"
           sodipodi:open="true"
           sodipodi:arc-type="arc"
           d="m 1168.6539,1600.6301 a 3.1500003,3.1500015 0 0 1 -0.5114,4.4177 3.1500003,3.1500015 0 0 1 -4.4194,-0.4965 3.1500003,3.1500015 0 0 1 0.4816,-4.4211 3.1500003,3.1500015 0 0 1 4.4227,0.4668" />
        <path
           style="fill:#90dcaf;fill-opacity:1;fill-rule:evenodd;stroke:#24365b;stroke-width:2.82251;stroke-linecap:round;stroke-linejoin:bevel;stroke-dasharray:none;stroke-dashoffset:107.717;stroke-opacity:1"
           id="path141-5-48-2-5-71"
           sodipodi:type="arc"
           sodipodi:cx="1172.9885"
           sodipodi:cy="1566.4719"
           sodipodi:rx="3.1500003"
           sodipodi:ry="3.1500015"
           sodipodi:start="5.6147128"
           sodipodi:end="5.6012455"
           sodipodi:open="true"
           sodipodi:arc-type="arc"
           d="m 1175.4605,1564.5196 a 3.1500003,3.1500015 0 0 1 -0.5113,4.4178 3.1500003,3.1500015 0 0 1 -4.4195,-0.4965 3.1500003,3.1500015 0 0 1 0.4816,-4.4212 3.1500003,3.1500015 0 0 1 4.4227,0.4668" />
        <path
           style="fill:#90dcaf;fill-opacity:1;fill-rule:evenodd;stroke:#24365b;stroke-width:2.82251;stroke-linecap:round;stroke-linejoin:bevel;stroke-dasharray:none;stroke-dashoffset:107.717;stroke-opacity:1"
           id="path141-5-48-2-38-2"
           sodipodi:type="arc"
           sodipodi:cx="1185.194"
           sodipodi:cy="1586.8765"
           sodipodi:rx="3.1500003"
           sodipodi:ry="3.1500015"
           sodipodi:start="5.6147128"
           sodipodi:end="5.6012455"
           sodipodi:open="true"
           sodipodi:arc-type="arc"
           d="m 1187.666,1584.9241 a 3.1500003,3.1500015 0 0 1 -0.5114,4.4178 3.1500003,3.1500015 0 0 1 -4.4195,-0.4965 3.1500003,3.1500015 0 0 1 0.4817,-4.4211 3.1500003,3.1500015 0 0 1 4.4227,0.4667" />
        <path
           style="fill:#90dcaf;fill-opacity:1;fill-rule:evenodd;stroke:#24365b;stroke-width:2.82251;stroke-linecap:round;stroke-linejoin:bevel;stroke-dasharray:none;stroke-dashoffset:107.717;stroke-opacity:1"
           id="path141-5-48-2-76-21"
           sodipodi:type="arc"
           sodipodi:cx="1126.8743"
           sodipodi:cy="1595.1923"
           sodipodi:rx="3.1500003"
           sodipodi:ry="3.1500015"
           sodipodi:start="5.6147128"
           sodipodi:end="5.6012455"
           sodipodi:open="true"
           sodipodi:arc-type="arc"
           d="m 1129.3463,1593.2399 a 3.1500003,3.1500015 0 0 1 -0.5114,4.4178 3.1500003,3.1500015 0 0 1 -4.4195,-0.4965 3.1500003,3.1500015 0 0 1 0.4817,-4.4211 3.1500003,3.1500015 0 0 1 4.4227,0.4667" />
        <path
           style="fill:#90dcaf;fill-opacity:1;fill-rule:evenodd;stroke:#24365b;stroke-width:2.82251;stroke-linecap:round;stroke-linejoin:bevel;stroke-dasharray:none;stroke-dashoffset:107.717;stroke-opacity:1"
           id="path141-5-48-2-04-50"
           sodipodi:type="arc"
           sodipodi:cx="1155.9447"
           sodipodi:cy="1544.0916"
           sodipodi:rx="3.1500003"
           sodipodi:ry="3.1500015"
           sodipodi:start="5.6147128"
           sodipodi:end="5.6012455"
           sodipodi:open="true"
           sodipodi:arc-type="arc"
           d="m 1158.4167,1542.1392 a 3.1500003,3.1500015 0 0 1 -0.5114,4.4178 3.1500003,3.1500015 0 0 1 -4.4194,-0.4965 3.1500003,3.1500015 0 0 1 0.4816,-4.4211 3.1500003,3.1500015 0 0 1 4.4227,0.4667" />
        <path
           style="fill:#90dcaf;fill-opacity:1;fill-rule:evenodd;stroke:#24365b;stroke-width:2.82251;stroke-linecap:round;stroke-linejoin:bevel;stroke-dasharray:none;stroke-dashoffset:107.717;stroke-opacity:1"
           id="path141-5-48-2-99-9"
           sodipodi:type="arc"
           sodipodi:cx="1067.4033"
           sodipodi:cy="1563.9672"
           sodipodi:rx="3.1500003"
           sodipodi:ry="3.1500015"
           sodipodi:start="5.6147128"
           sodipodi:end="5.6012455"
           sodipodi:open="true"
           sodipodi:arc-type="arc"
           d="m 1069.8753,1562.0148 a 3.1500003,3.1500015 0 0 1 -0.5113,4.4178 3.1500003,3.1500015 0 0 1 -4.4195,-0.4965 3.1500003,3.1500015 0 0 1 0.4816,-4.4211 3.1500003,3.1500015 0 0 1 4.4227,0.4667" />
        <path
           style="fill:#90dcaf;fill-opacity:1;fill-rule:evenodd;stroke:#24365b;stroke-width:2.82251;stroke-linecap:round;stroke-linejoin:bevel;stroke-dasharray:none;stroke-dashoffset:107.717;stroke-opacity:1"
           id="path141-5-48-2-761-0"
           sodipodi:type="arc"
           sodipodi:cx="1076.427"
           sodipodi:cy="1581.7111"
           sodipodi:rx="3.1500003"
           sodipodi:ry="3.1500015"
           sodipodi:start="5.6147128"
           sodipodi:end="5.6012455"
           sodipodi:open="true"
           sodipodi:arc-type="arc"
           d="m 1078.899,1579.7587 a 3.1500003,3.1500015 0 0 1 -0.5114,4.4178 3.1500003,3.1500015 0 0 1 -4.4194,-0.4965 3.1500003,3.1500015 0 0 1 0.4816,-4.4211 3.1500003,3.1500015 0 0 1 4.4227,0.4667" />
        <path
           style="fill:#90dcaf;fill-opacity:1;fill-rule:evenodd;stroke:#24365b;stroke-width:2.82251;stroke-linecap:round;stroke-linejoin:bevel;stroke-dasharray:none;stroke-dashoffset:107.717;stroke-opacity:1"
           id="path141-5-48-2-9-40"
           sodipodi:type="arc"
           sodipodi:cx="1166.7654"
           sodipodi:cy="1554.2743"
           sodipodi:rx="3.1500003"
           sodipodi:ry="3.1500015"
           sodipodi:start="5.6147128"
           sodipodi:end="5.6012455"
           sodipodi:open="true"
           sodipodi:arc-type="arc"
           d="m 1169.2374,1552.322 a 3.1500003,3.1500015 0 0 1 -0.5114,4.4177 3.1500003,3.1500015 0 0 1 -4.4194,-0.4965 3.1500003,3.1500015 0 0 1 0.4816,-4.4211 3.1500003,3.1500015 0 0 1 4.4227,0.4667" />
        <path
           style="fill:#90dcaf;fill-opacity:1;fill-rule:evenodd;stroke:#24365b;stroke-width:2.82251;stroke-linecap:round;stroke-linejoin:bevel;stroke-dasharray:none;stroke-dashoffset:107.717;stroke-opacity:1"
           id="path141-5-48-2-6-1"
           sodipodi:type="arc"
           sodipodi:cx="1112.4525"
           sodipodi:cy="1590.6312"
           sodipodi:rx="3.1500003"
           sodipodi:ry="3.1500015"
           sodipodi:start="5.6147128"
           sodipodi:end="5.6012455"
           sodipodi:open="true"
           sodipodi:arc-type="arc"
           d="m 1114.9245,1588.6789 a 3.1500003,3.1500015 0 0 1 -0.5113,4.4178 3.1500003,3.1500015 0 0 1 -4.4195,-0.4965 3.1500003,3.1500015 0 0 1 0.4816,-4.4212 3.1500003,3.1500015 0 0 1 4.4227,0.4668" />
        <path
           style="fill:#90dcaf;fill-opacity:1;fill-rule:evenodd;stroke:#24365b;stroke-width:2.82251;stroke-linecap:round;stroke-linejoin:bevel;stroke-dasharray:none;stroke-dashoffset:107.717;stroke-opacity:1"
           id="path139-2-7-3"
           sodipodi:type="arc"
           sodipodi:cx="1137.4982"
           sodipodi:cy="1585.9795"
           sodipodi:rx="4.0500002"
           sodipodi:ry="4.0500016"
           sodipodi:start="5.6147128"
           sodipodi:end="5.6012455"
           sodipodi:open="true"
           sodipodi:arc-type="arc"
           d="m 1140.6765,1583.4693 a 4.0500002,4.0500016 0 0 1 -0.6575,5.68 4.0500002,4.0500016 0 0 1 -5.6822,-0.6383 4.0500002,4.0500016 0 0 1 0.6193,-5.6843 4.0500002,4.0500016 0 0 1 5.6863,0.6001" />
        <path
           style="fill:#90dcaf;fill-opacity:1;fill-rule:evenodd;stroke:#24365b;stroke-width:2.82251;stroke-linecap:round;stroke-linejoin:bevel;stroke-dasharray:none;stroke-dashoffset:107.717;stroke-opacity:1"
           id="path139-2-6-7"
           sodipodi:type="arc"
           sodipodi:cx="1150.6058"
           sodipodi:cy="1602.261"
           sodipodi:rx="4.0500002"
           sodipodi:ry="4.0500016"
           sodipodi:start="5.6147128"
           sodipodi:end="5.6012455"
           sodipodi:open="true"
           sodipodi:arc-type="arc"
           d="m 1153.7842,1599.7508 a 4.0500002,4.0500016 0 0 1 -0.6575,5.68 4.0500002,4.0500016 0 0 1 -5.6822,-0.6383 4.0500002,4.0500016 0 0 1 0.6192,-5.6843 4.0500002,4.0500016 0 0 1 5.6864,0.6001" />
        <path
           style="fill:#90dcaf;fill-opacity:1;fill-rule:evenodd;stroke:#24365b;stroke-width:2.82251;stroke-linecap:round;stroke-linejoin:bevel;stroke-dasharray:none;stroke-dashoffset:107.717;stroke-opacity:1"
           id="path139-2-9-4"
           sodipodi:type="arc"
           sodipodi:cx="1172.6361"
           sodipodi:cy="1579.1261"
           sodipodi:rx="4.0500002"
           sodipodi:ry="4.0500016"
           sodipodi:start="5.6147128"
           sodipodi:end="5.6012455"
           sodipodi:open="true"
           sodipodi:arc-type="arc"
           d="m 1175.8144,1576.616 a 4.0500002,4.0500016 0 0 1 -0.6575,5.6799 4.0500002,4.0500016 0 0 1 -5.6821,-0.6383 4.0500002,4.0500016 0 0 1 0.6192,-5.6843 4.0500002,4.0500016 0 0 1 5.6863,0.6001" />
        <path
           style="fill:#90dcaf;fill-opacity:1;fill-rule:evenodd;stroke:#24365b;stroke-width:2.82251;stroke-linecap:round;stroke-linejoin:bevel;stroke-dasharray:none;stroke-dashoffset:107.717;stroke-opacity:1"
           id="path139-2-1-1"
           sodipodi:type="arc"
           sodipodi:cx="1108.1788"
           sodipodi:cy="1618.1226"
           sodipodi:rx="4.0500002"
           sodipodi:ry="4.0500016"
           sodipodi:start="5.6147128"
           sodipodi:end="5.6012455"
           sodipodi:open="true"
           sodipodi:arc-type="arc"
           d="m 1111.3571,1615.6124 a 4.0500002,4.0500016 0 0 1 -0.6574,5.68 4.0500002,4.0500016 0 0 1 -5.6822,-0.6384 4.0500002,4.0500016 0 0 1 0.6192,-5.6842 4.0500002,4.0500016 0 0 1 5.6864,0.6" />
        <path
           style="fill:#90dcaf;fill-opacity:1;fill-rule:evenodd;stroke:#24365b;stroke-width:2.82251;stroke-linecap:round;stroke-linejoin:bevel;stroke-dasharray:none;stroke-dashoffset:107.717;stroke-opacity:1"
           id="path139-2-8-1"
           sodipodi:type="arc"
           sodipodi:cx="1095.6779"
           sodipodi:cy="1595.6799"
           sodipodi:rx="4.0500002"
           sodipodi:ry="4.0500016"
           sodipodi:start="5.6147128"
           sodipodi:end="5.6012455"
           sodipodi:open="true"
           sodipodi:arc-type="arc"
           d="m 1098.8562,1593.1698 a 4.0500002,4.0500016 0 0 1 -0.6575,5.68 4.0500002,4.0500016 0 0 1 -5.6822,-0.6384 4.0500002,4.0500016 0 0 1 0.6192,-5.6843 4.0500002,4.0500016 0 0 1 5.6864,0.6001" />
        <path
           style="fill:#90dcaf;fill-opacity:1;fill-rule:evenodd;stroke:#24365b;stroke-width:2.82251;stroke-linecap:round;stroke-linejoin:bevel;stroke-dasharray:none;stroke-dashoffset:107.717;stroke-opacity:1"
           id="path139-2-8-0-3"
           sodipodi:type="arc"
           sodipodi:cx="1089.8358"
           sodipodi:cy="1581.5531"
           sodipodi:rx="4.0500002"
           sodipodi:ry="4.0500016"
           sodipodi:start="5.6147128"
           sodipodi:end="5.6012455"
           sodipodi:open="true"
           sodipodi:arc-type="arc"
           d="m 1093.0141,1579.043 a 4.0500002,4.0500016 0 0 1 -0.6575,5.6799 4.0500002,4.0500016 0 0 1 -5.6821,-0.6383 4.0500002,4.0500016 0 0 1 0.6192,-5.6843 4.0500002,4.0500016 0 0 1 5.6863,0.6001" />
        <path
           style="fill:#90dcaf;fill-opacity:1;fill-rule:evenodd;stroke:#24365b;stroke-width:2.82251;stroke-linecap:round;stroke-linejoin:bevel;stroke-dasharray:none;stroke-dashoffset:107.717;stroke-opacity:1"
           id="path139-2-8-6-0"
           sodipodi:type="arc"
           sodipodi:cx="1143.3792"
           sodipodi:cy="1572.3816"
           sodipodi:rx="4.0500002"
           sodipodi:ry="4.0500016"
           sodipodi:start="5.6147128"
           sodipodi:end="5.6012455"
           sodipodi:open="true"
           sodipodi:arc-type="arc"
           d="m 1146.5575,1569.8714 a 4.0500002,4.0500016 0 0 1 -0.6575,5.68 4.0500002,4.0500016 0 0 1 -5.6822,-0.6383 4.0500002,4.0500016 0 0 1 0.6192,-5.6843 4.0500002,4.0500016 0 0 1 5.6864,0.6001" />
        <path
           style="fill:#90dcaf;fill-opacity:1;fill-rule:evenodd;stroke:#24365b;stroke-width:2.82251;stroke-linecap:round;stroke-linejoin:bevel;stroke-dasharray:none;stroke-dashoffset:107.717;stroke-opacity:1"
           id="path139-2-8-2-32"
           sodipodi:type="arc"
           sodipodi:cx="1157.2335"
           sodipodi:cy="1621.2729"
           sodipodi:rx="4.0500002"
           sodipodi:ry="4.0500016"
           sodipodi:start="5.6147128"
           sodipodi:end="5.6012455"
           sodipodi:open="true"
           sodipodi:arc-type="arc"
           d="m 1160.4118,1618.7628 a 4.0500002,4.0500016 0 0 1 -0.6575,5.68 4.0500002,4.0500016 0 0 1 -5.6821,-0.6384 4.0500002,4.0500016 0 0 1 0.6192,-5.6843 4.0500002,4.0500016 0 0 1 5.6863,0.6001" />
        <path
           style="fill:#90dcaf;fill-opacity:1;fill-rule:evenodd;stroke:#24365b;stroke-width:2.82251;stroke-linecap:round;stroke-linejoin:bevel;stroke-dasharray:none;stroke-dashoffset:107.717;stroke-opacity:1"
           id="path139-2-2-17"
           sodipodi:type="arc"
           sodipodi:cx="1128.35"
           sodipodi:cy="1607.8541"
           sodipodi:rx="4.0500002"
           sodipodi:ry="4.0500016"
           sodipodi:start="5.6147128"
           sodipodi:end="5.6012455"
           sodipodi:open="true"
           sodipodi:arc-type="arc"
           d="m 1131.5283,1605.344 a 4.0500002,4.0500016 0 0 1 -0.6575,5.68 4.0500002,4.0500016 0 0 1 -5.6822,-0.6384 4.0500002,4.0500016 0 0 1 0.6193,-5.6843 4.0500002,4.0500016 0 0 1 5.6863,0.6001" />
        <path
           style="fill:#90dcaf;fill-opacity:1;fill-rule:evenodd;stroke:#24365b;stroke-width:2.82251;stroke-linecap:round;stroke-linejoin:bevel;stroke-dasharray:none;stroke-dashoffset:107.717;stroke-opacity:1"
           id="path139-2-4-5"
           sodipodi:type="arc"
           sodipodi:cx="1180.7653"
           sodipodi:cy="1600.7207"
           sodipodi:rx="4.0500002"
           sodipodi:ry="4.0500016"
           sodipodi:start="5.6147128"
           sodipodi:end="5.6012455"
           sodipodi:open="true"
           sodipodi:arc-type="arc"
           d="m 1183.9436,1598.2106 a 4.0500002,4.0500016 0 0 1 -0.6575,5.68 4.0500002,4.0500016 0 0 1 -5.6822,-0.6384 4.0500002,4.0500016 0 0 1 0.6192,-5.6843 4.0500002,4.0500016 0 0 1 5.6864,0.6001" />
        <path
           style="fill:#90dcaf;fill-opacity:1;fill-rule:evenodd;stroke:#24365b;stroke-width:2.82251;stroke-linecap:round;stroke-linejoin:bevel;stroke-dasharray:none;stroke-dashoffset:107.717;stroke-opacity:1"
           id="path141-5-48-2-08-6"
           sodipodi:type="arc"
           sodipodi:cx="1091.5652"
           sodipodi:cy="1611.1937"
           sodipodi:rx="3.1500003"
           sodipodi:ry="3.1500015"
           sodipodi:start="5.6147128"
           sodipodi:end="5.6012455"
           sodipodi:open="true"
           sodipodi:arc-type="arc"
           d="m 1094.0372,1609.2414 a 3.1500003,3.1500015 0 0 1 -0.5114,4.4178 3.1500003,3.1500015 0 0 1 -4.4194,-0.4965 3.1500003,3.1500015 0 0 1 0.4816,-4.4212 3.1500003,3.1500015 0 0 1 4.4227,0.4668" />
        <g
           id="g134-7-2-8-4"
           inkscape:label="Enterocyte Squished 1"
           style="stroke:#24365b;stroke-width:2.82251;stroke-dasharray:none;stroke-opacity:1"
           transform="translate(395.92626,105.29811)">
          <path
             id="path133-27-10-1-2"
             style="font-variation-settings:normal;opacity:1;fill:#5c7bbe;fill-opacity:1;stroke:#24365b;stroke-width:6.96917;stroke-linecap:butt;stroke-linejoin:bevel;stroke-miterlimit:4;stroke-dasharray:none;stroke-dashoffset:0;stroke-opacity:1;stop-color:#000000;stop-opacity:1"
             inkscape:path-effect="#path-effect133-8-2-04-9"
             inkscape:original-d="m 1040.2168,1280.0005 c 0,113.3334 0,226.6671 0,340.0002 0.063,11.6788 0.1253,23.3573 0.188,35.0363 -13.3962,1.6546 -26.792,3.3091 -40.188,4.9637 -96.5747,11.0918 -193.14727,22.1834 -289.72397,33.2754 5.9665,-29.3896 11.93274,-58.778 17.89912,-88.1671 -5.49156,-64.1529 -10.9831,-128.3056 -16.47465,-192.4584 -14.48726,-44.6694 -28.97452,-89.3388 -43.46177,-134.0083 3.84818,-19.5473 7.69637,-39.0945 11.54455,-58.6418 0,-6.6668 0,-13.3333 0,-20 6.6668,-5.6446 13.3332,-11.2888 20,-16.9333 6.6668,5.6445 13.33334,11.2889 20.00001,16.9333 0,6.6668 0,13.3334 0,20 0,13.3336 0,26.6667 0,40 0,6.6668 0,13.3334 0,20.0001 6.6668,0 13.33333,0 20,0 6.6668,0 13.33333,0 20,0 0,-6.6668 0,-13.3334 0,-20.0001 0,-20.0004 0,-40 0,-60 0,-6.6668 0,-13.3333 0,-20 0,-6.6668 0,-13.3333 0,-20 6.6668,-5.6446 13.3332,-11.2888 20,-16.9333 6.6668,5.6445 13.33334,11.2889 20.00001,16.9333 0,6.6668 0,13.3333 0,20 0,26.6672 0,53.3334 0,80 0,6.6668 0,13.3334 0,20.0001 6.6668,0 13.33333,0 20,0 6.6668,0 13.33333,0 20,0 0,-6.6668 0,-13.3334 0,-20.0001 0,-20.0004 0,-40 0,-60 0,-6.6668 0,-13.3333 0,-20 6.6668,-5.6446 13.3332,-11.2888 20,-16.9333 6.6668,5.6445 13.33334,11.2889 20,16.9333 0,6.6668 0,13.3334 0,20 0,20.0004 0,40 0,60 0,6.6668 0,13.3334 0,20.0001 6.66681,0 13.33334,0 20.00001,0 6.6668,0 13.33333,0 20,0 0,-6.6668 0,-13.3334 0,-20.0001 0,-26.6672 0,-53.3333 0,-80 0,-6.6668 0,-13.3333 0,-20 6.6668,-5.6446 13.3332,-11.2888 20,-16.9333 6.6668,5.6445 13.33334,11.2889 20,16.9333 0,6.6668 0,13.3333 0,20 0,26.6672 0,53.3334 0,80 0,6.6668 0,13.3334 0,20.0001 6.66681,0 13.33334,0 20.00001,0 6.6668,0 13.33333,0 19.99998,0 0,-6.6668 0,-13.3334 0,-20.0001 0,-6.6668 0,-13.3333 0,-20 0,-6.6668 0,-13.3333 0,-20 6.6668,-5.6446 13.3332,-11.2888 20,-16.9333 6.6668,5.6445 13.3334,11.2889 20,16.9333 0,6.6668 0,13.3334 0,20 0.072,13.3336 0.1445,26.6667 0.2167,40 z"
             d="m 1040.1807,1330.0006 c 0.036,63.3333 0.036,176.667 0.067,239.173 0.031,62.5059 0.094,74.1844 -6.5727,80.8512 -6.6668,6.6668 -20.0626,8.3213 -75.04795,14.6945 -54.98535,6.3732 -151.55792,17.4648 -196.86303,8.316 -45.3051,-9.1488 -39.33886,-38.5372 -39.10144,-85.3082 0.23741,-46.771 -5.25413,-110.9237 -15.24353,-165.3348 -9.9894,-54.4111 -24.47664,-99.0805 -29.79619,-131.1889 -5.31954,-32.1084 -1.47137,-51.6556 0.45273,-64.7627 1.92409,-13.107 1.92409,-19.7735 5.2575,-25.9291 3.33342,-6.1557 9.99981,-11.7999 16.66659,-11.7999 6.66678,0 13.33336,5.6444 16.66668,11.8 3.33333,6.1556 3.33333,12.8222 3.33333,22.8223 0,10.0001 0,23.3332 0,33.3333 0,10 0,16.6666 3.3334,20 3.3334,3.3333 9.99993,3.3333 16.66666,3.3333 6.66674,0 13.33327,0 16.6666,-3.3334 3.33334,-3.3334 3.33334,-10 3.33334,-23.3335 0,-13.3336 0,-33.3332 0,-46.6666 0,-13.3334 0,-19.9999 0,-26.6666 0,-6.6668 0,-13.3333 3.33341,-19.4889 3.33342,-6.1557 9.99981,-11.7999 16.66659,-11.7999 6.66678,0 13.33336,5.6444 16.66668,11.8 3.33333,6.1556 3.33333,12.8221 3.33333,29.4891 0,16.6669 0,43.3331 0,59.9998 0,16.6667 0,23.3333 3.3334,26.6667 3.3334,3.3333 9.99993,3.3333 16.66666,3.3333 6.66674,0 13.33327,0 16.6666,-3.3334 3.33334,-3.3334 3.33334,-10 3.33334,-23.3335 0,-13.3336 0,-33.3332 0,-46.6666 0,-13.3334 0,-19.9999 3.33341,-26.1555 3.33342,-6.1557 9.99981,-11.7999 16.66659,-11.7999 6.66678,0 13.33335,5.6444 16.66668,11.8 3.33332,6.1556 3.33332,12.8222 3.33332,26.1557 0,13.3335 0,33.3331 0,46.6665 0,13.3334 0,20 3.3334,23.3334 3.33341,3.3333 9.99994,3.3333 16.66667,3.3333 6.66674,0 13.33327,0 16.66661,-3.3334 3.33333,-3.3334 3.33333,-10 3.33333,-26.667 0,-16.6669 0,-43.333 0,-59.9997 0,-16.6668 0,-23.3333 3.33341,-29.4889 3.33342,-6.1557 9.99981,-11.7999 16.66659,-11.7999 6.66678,0 13.33335,5.6444 16.66668,11.8 3.33332,6.1556 3.33332,12.8221 3.33332,29.4891 0,16.6669 0,43.3331 0,59.9998 0,16.6667 0,23.3333 3.3334,26.6667 3.33341,3.3333 9.99994,3.3333 16.66667,3.3333 6.66674,0 13.33327,0 16.66659,-3.3334 3.33333,-3.3334 3.33333,-10 3.33333,-16.6667 0,-6.6668 0,-13.3333 0,-20 0,-6.6668 0,-13.3333 3.3334,-19.4889 3.3334,-6.1557 9.9998,-11.7999 16.6666,-11.7999 6.6668,0 13.3334,5.6444 16.6667,11.8 3.3333,6.1556 3.3333,12.8222 3.3694,22.8223 0.036,10.0001 0.1084,23.3332 0.1445,86.6666 z"
             transform="matrix(0.405,0,0,0.405,511.01773,833.13395)"
             sodipodi:nodetypes="cccccccsscccsscscssscccsscscsscccsscscsscccsscscssccccc" />
          <path
             style="fill:#38b26b;fill-opacity:1;fill-rule:evenodd;stroke:#24365b;stroke-width:2.52386;stroke-linecap:round;stroke-linejoin:bevel;stroke-dasharray:none;stroke-dashoffset:107.717;stroke-opacity:1"
             id="path134-2-51-6-2"
             sodipodi:type="arc"
             sodipodi:cx="-1465.4822"
             sodipodi:cy="878.16626"
             sodipodi:rx="21.572096"
             sodipodi:ry="24.164251"
             sodipodi:start="5.6147128"
             sodipodi:end="5.6012455"
             sodipodi:open="true"
             sodipodi:arc-type="arc"
             d="m -1448.5531,863.18955 a 21.572096,24.164251 0 0 1 -3.502,33.88954 21.572096,24.164251 0 0 1 -30.2658,-3.80877 21.572096,24.164251 0 0 1 3.2983,-33.91519 21.572096,24.164251 0 0 1 30.288,3.5804"
             transform="rotate(-90)" />
        </g>
        <g
           id="g134-7-2-8-9-1"
           inkscape:label="Enterocyte Squished 1"
           style="stroke:#24365b;stroke-width:2.82251;stroke-dasharray:none;stroke-opacity:1"
           transform="matrix(-0.99999999,0,0,0.99999999,1857.2734,106.63606)">
          <path
             id="path133-27-10-1-6-7"
             style="font-variation-settings:normal;opacity:1;fill:#5c7bbe;fill-opacity:1;stroke:#24365b;stroke-width:6.96917;stroke-linecap:butt;stroke-linejoin:bevel;stroke-miterlimit:4;stroke-dasharray:none;stroke-dashoffset:0;stroke-opacity:1;stop-color:#000000;stop-opacity:1"
             inkscape:path-effect="#path-effect133-8-2-04-2-0"
             inkscape:original-d="m 1040.2168,1280.0005 c 0,113.3334 0,226.6671 0,340.0002 0.063,11.6788 0.1253,23.3573 0.188,35.0363 -13.3962,1.6546 -26.792,3.3091 -40.188,4.9637 -96.5747,11.0918 -193.14727,22.1834 -289.72397,33.2754 5.9665,-29.3896 11.93274,-58.778 17.89912,-88.1671 -5.49156,-64.1529 -10.9831,-128.3056 -16.47465,-192.4584 -14.48726,-44.6694 -28.97452,-89.3388 -43.46177,-134.0083 3.84818,-19.5473 7.69637,-39.0945 11.54455,-58.6418 0,-6.6668 0,-13.3333 0,-20 6.6668,-5.6446 13.3332,-11.2888 20,-16.9333 6.6668,5.6445 13.33334,11.2889 20.00001,16.9333 0,6.6668 0,13.3334 0,20 0,13.3336 0,26.6667 0,40 0,6.6668 0,13.3334 0,20.0001 6.6668,0 13.33333,0 20,0 6.6668,0 13.33333,0 20,0 0,-6.6668 0,-13.3334 0,-20.0001 0,-20.0004 0,-40 0,-60 0,-6.6668 0,-13.3333 0,-20 0,-6.6668 0,-13.3333 0,-20 6.6668,-5.6446 13.3332,-11.2888 20,-16.9333 6.6668,5.6445 13.33334,11.2889 20.00001,16.9333 0,6.6668 0,13.3333 0,20 0,26.6672 0,53.3334 0,80 0,6.6668 0,13.3334 0,20.0001 6.6668,0 13.33333,0 20,0 6.6668,0 13.33333,0 20,0 0,-6.6668 0,-13.3334 0,-20.0001 0,-20.0004 0,-40 0,-60 0,-6.6668 0,-13.3333 0,-20 6.6668,-5.6446 13.3332,-11.2888 20,-16.9333 6.6668,5.6445 13.33334,11.2889 20,16.9333 0,6.6668 0,13.3334 0,20 0,20.0004 0,40 0,60 0,6.6668 0,13.3334 0,20.0001 6.66681,0 13.33334,0 20.00001,0 6.6668,0 13.33333,0 20,0 0,-6.6668 0,-13.3334 0,-20.0001 0,-26.6672 0,-53.3333 0,-80 0,-6.6668 0,-13.3333 0,-20 6.6668,-5.6446 13.3332,-11.2888 20,-16.9333 6.6668,5.6445 13.33334,11.2889 20,16.9333 0,6.6668 0,13.3333 0,20 0,26.6672 0,53.3334 0,80 0,6.6668 0,13.3334 0,20.0001 6.66681,0 13.33334,0 20.00001,0 6.6668,0 13.33333,0 19.99998,0 0,-6.6668 0,-13.3334 0,-20.0001 0,-6.6668 0,-13.3333 0,-20 0,-6.6668 0,-13.3333 0,-20 6.6668,-5.6446 13.3332,-11.2888 20,-16.9333 6.6668,5.6445 13.3334,11.2889 20,16.9333 0,6.6668 0,13.3334 0,20 0.072,13.3336 0.1445,26.6667 0.2167,40 z"
             d="m 1040.1807,1330.0006 c 0.036,63.3333 0.036,176.667 0.067,239.173 0.031,62.5059 0.094,74.1844 -6.5727,80.8512 -6.6668,6.6668 -20.0626,8.3213 -75.04795,14.6945 -54.98535,6.3732 -151.55792,17.4648 -196.86303,8.316 -45.3051,-9.1488 -39.33886,-38.5372 -39.10144,-85.3082 0.23741,-46.771 -5.25413,-110.9237 -15.24353,-165.3348 -9.9894,-54.4111 -24.47664,-99.0805 -29.79619,-131.1889 -5.31954,-32.1084 -1.47137,-51.6556 0.45273,-64.7627 1.92409,-13.107 1.92409,-19.7735 5.2575,-25.9291 3.33342,-6.1557 9.99981,-11.7999 16.66659,-11.7999 6.66678,0 13.33336,5.6444 16.66668,11.8 3.33333,6.1556 3.33333,12.8222 3.33333,22.8223 0,10.0001 0,23.3332 0,33.3333 0,10 0,16.6666 3.3334,20 3.3334,3.3333 9.99993,3.3333 16.66666,3.3333 6.66674,0 13.33327,0 16.6666,-3.3334 3.33334,-3.3334 3.33334,-10 3.33334,-23.3335 0,-13.3336 0,-33.3332 0,-46.6666 0,-13.3334 0,-19.9999 0,-26.6666 0,-6.6668 0,-13.3333 3.33341,-19.4889 3.33342,-6.1557 9.99981,-11.7999 16.66659,-11.7999 6.66678,0 13.33336,5.6444 16.66668,11.8 3.33333,6.1556 3.33333,12.8221 3.33333,29.4891 0,16.6669 0,43.3331 0,59.9998 0,16.6667 0,23.3333 3.3334,26.6667 3.3334,3.3333 9.99993,3.3333 16.66666,3.3333 6.66674,0 13.33327,0 16.6666,-3.3334 3.33334,-3.3334 3.33334,-10 3.33334,-23.3335 0,-13.3336 0,-33.3332 0,-46.6666 0,-13.3334 0,-19.9999 3.33341,-26.1555 3.33342,-6.1557 9.99981,-11.7999 16.66659,-11.7999 6.66678,0 13.33335,5.6444 16.66668,11.8 3.33332,6.1556 3.33332,12.8222 3.33332,26.1557 0,13.3335 0,33.3331 0,46.6665 0,13.3334 0,20 3.3334,23.3334 3.33341,3.3333 9.99994,3.3333 16.66667,3.3333 6.66674,0 13.33327,0 16.66661,-3.3334 3.33333,-3.3334 3.33333,-10 3.33333,-26.667 0,-16.6669 0,-43.333 0,-59.9997 0,-16.6668 0,-23.3333 3.33341,-29.4889 3.33342,-6.1557 9.99981,-11.7999 16.66659,-11.7999 6.66678,0 13.33335,5.6444 16.66668,11.8 3.33332,6.1556 3.33332,12.8221 3.33332,29.4891 0,16.6669 0,43.3331 0,59.9998 0,16.6667 0,23.3333 3.3334,26.6667 3.33341,3.3333 9.99994,3.3333 16.66667,3.3333 6.66674,0 13.33327,0 16.66659,-3.3334 3.33333,-3.3334 3.33333,-10 3.33333,-16.6667 0,-6.6668 0,-13.3333 0,-20 0,-6.6668 0,-13.3333 3.3334,-19.4889 3.3334,-6.1557 9.9998,-11.7999 16.6666,-11.7999 6.6668,0 13.3334,5.6444 16.6667,11.8 3.3333,6.1556 3.3333,12.8222 3.3694,22.8223 0.036,10.0001 0.1084,23.3332 0.1445,86.6666 z"
             transform="matrix(0.405,0,0,0.405,511.01773,833.13395)"
             sodipodi:nodetypes="cccccccsscccsscscssscccsscscsscccsscscsscccsscscssccccc" />
          <path
             style="fill:#38b26b;fill-opacity:1;fill-rule:evenodd;stroke:#24365b;stroke-width:2.52386;stroke-linecap:round;stroke-linejoin:bevel;stroke-dasharray:none;stroke-dashoffset:107.717;stroke-opacity:1"
             id="path134-2-51-6-0-2"
             sodipodi:type="arc"
             sodipodi:cx="-1465.4822"
             sodipodi:cy="878.16626"
             sodipodi:rx="21.572096"
             sodipodi:ry="24.164251"
             sodipodi:start="5.6147128"
             sodipodi:end="5.6012455"
             sodipodi:open="true"
             sodipodi:arc-type="arc"
             d="m -1448.5531,863.18955 a 21.572096,24.164251 0 0 1 -3.502,33.88954 21.572096,24.164251 0 0 1 -30.2658,-3.80877 21.572096,24.164251 0 0 1 3.2983,-33.91519 21.572096,24.164251 0 0 1 30.288,3.5804"
             transform="rotate(-90)" />
        </g>
      </g>
    </g>
  </g>
</svg>
