<?xml version="1.0" encoding="UTF-8" standalone="no"?>
<!-- Created with Inkscape (http://www.inkscape.org/) -->

<svg
   width="78.053772mm"
   height="126.00153mm"
   viewBox="0 0 78.053772 126.00153"
   version="1.1"
   id="svg1"
   inkscape:export-filename="Plus_4_Reserve_ISC_Section.svg"
   inkscape:export-xdpi="96"
   inkscape:export-ydpi="96"
   xmlns:inkscape="http://www.inkscape.org/namespaces/inkscape"
   xmlns:sodipodi="http://sodipodi.sourceforge.net/DTD/sodipodi-0.dtd"
   xmlns="http://www.w3.org/2000/svg"
   xmlns:svg="http://www.w3.org/2000/svg">
  <sodipodi:namedview
     id="namedview1"
     pagecolor="#ffffff"
     bordercolor="#000000"
     borderopacity="0.25"
     inkscape:showpageshadow="2"
     inkscape:pageopacity="0.0"
     inkscape:pagecheckerboard="0"
     inkscape:deskcolor="#d1d1d1"
     inkscape:document-units="mm">
    <inkscape:page
       x="0"
       y="0"
       width="78.053772"
       height="126.00153"
       id="page2"
       margin="0"
       bleed="0" />
  </sodipodi:namedview>
  <defs
     id="defs1">
    <inkscape:path-effect
       effect="bspline"
       id="path-effect133-7-43"
       is_visible="true"
       lpeversion="1.3"
       weight="33.333333"
       steps="2"
       helper_size="0"
       apply_no_weight="true"
       apply_with_weight="true"
       only_selected="false"
       uniform="false" />
  </defs>
  <g
     inkscape:label="Layer 1"
     inkscape:groupmode="layer"
     id="layer1"
     transform="translate(-66.107933,-83.790833)">
    <g
       id="g7"
       inkscape:label="Goblet cell section"
       transform="translate(-1166.727,-926.83291)">
      <g
         id="g134-9-38"
         inkscape:label="Enteroendocrine_Cell"
         style="stroke:#24365b;stroke-width:2.82251;stroke-dasharray:none;stroke-opacity:1"
         transform="matrix(0.531441,0,0,0.531441,1009.3629,287.64782)">
        <path
           id="path133-8-0"
           style="font-variation-settings:normal;opacity:1;fill:#5c7bbe;fill-opacity:1;stroke:#24365b;stroke-width:9.55991;stroke-linecap:butt;stroke-linejoin:bevel;stroke-miterlimit:4;stroke-dasharray:none;stroke-dashoffset:0;stroke-opacity:1;stop-color:#000000;stop-opacity:1"
           inkscape:path-effect="#path-effect133-7-43"
           inkscape:original-d="m 1040.2168,1144.5029 c -5.3674,45.8209 -10.7349,91.642 -16.1023,137.4629 21.6128,45.821 43.2255,91.6421 64.8383,137.4632 6.3376,107.7217 12.6752,215.4435 19.0128,323.1648 -2.8222,10.1583 -5.6445,20.3167 -8.4667,30.475 -10.833,23.7552 -21.6659,47.5103 -32.4989,71.2655 -69.28576,8.603 -138.57145,17.2061 -207.85715,25.8091 -69.28572,-8.603 -138.57141,-17.2061 -207.8572,-25.8091 -10.36564,-24.108 -20.73123,-48.2158 -31.09691,-72.3238 -2.64584,-9.8056 -5.29165,-19.6111 -7.9375,-29.4167 5.70222,-106.2026 11.40436,-212.4037 17.10658,-318.6062 21.42991,-47.4591 42.8598,-94.9181 64.28948,-142.3766 -4.54905,-45.7024 -9.09811,-91.4049 -13.64724,-137.1081 1e-5,-18.6015 1e-5,-37.2022 2e-5,-55.804 6.66684,-5.6446 13.33324,-11.2888 20,-16.9333 6.66677,5.6445 13.33318,11.2887 20.00001,16.9333 0,11.935 0,23.8692 0,35.804 0,6.6668 0,13.3332 0,20.0001 6.6668,0 13.3332,0 20,0 6.6668,0 13.33323,0 20,0 0,-6.6668 0,-13.3333 0,-20.0001 0,-12.3636 0,-24.7266 0,-37.0904 6.66684,-5.6446 13.33324,-11.2888 20,-16.9333 6.66677,5.6445 13.33334,11.2889 20.00001,16.9333 0,12.3635 0,24.7269 0,37.0904 0,6.6668 0,13.3332 0,20.0001 6.6668,0 13.3332,0 20,0 6.6668,0 13.33323,0 20,0 0,-6.6668 0,-13.3333 0,-20.0001 0,-7.31 0,-14.6195 0,-21.9296 6.66684,-5.6446 13.33323,-11.2888 20,-16.9333 6.66677,5.6445 13.33317,11.2887 20,16.9333 0,7.3101 0,14.6196 0,21.9296 0,6.6668 0,13.3332 0,20.0001 6.66681,0 13.33321,0 20.00001,0 6.6668,0 13.33323,0 20,0 0,-6.6668 0,-13.3333 0,-20.0001 0,-15.0521 0,-30.1034 0,-45.1557 6.66684,-5.6446 13.33323,-11.2888 20,-16.9333 6.66677,5.6445 13.33317,11.2887 20,16.9333 0,15.0522 0,30.1036 0,45.1557 0,6.6668 0,13.3332 0,20.0001 6.66681,0 13.3332,0 20.00001,0 6.6668,0 13.33322,0 19.99998,0 0,-6.6668 0,-13.3333 0,-20.0001 0,-5.8058 0,-11.6112 0,-17.4171 6.6668,-5.6445 13.3332,-11.2887 20,-16.9333 6.6668,5.6446 13.3334,11.2889 20,16.9333 0.072,12.4723 0.1445,24.9447 0.2167,37.4171 z"
           d="m 1037.497,1161.1771 c -2.6476,29.1467 -8.0151,74.9678 0.1076,120.7888 8.1226,45.8209 29.7354,91.642 43.7106,168.4134 13.9752,76.7714 20.3128,184.4932 22.0705,243.433 1.7577,58.9398 -1.0646,69.0982 -7.8922,86.055 -6.8276,16.9567 -17.6605,40.7118 -57.7199,56.8909 -40.05936,16.1791 -109.34505,24.7822 -178.63076,24.7822 -69.28571,0 -138.5714,-8.6031 -178.39713,-24.9586 -39.82572,-16.3555 -50.1913,-40.4633 -56.69706,-57.4201 -6.50575,-16.9568 -9.15157,-26.7623 -7.62338,-84.7664 1.52819,-58.0041 7.23033,-164.2052 20.79641,-241.036 13.56607,-76.8308 34.99596,-124.2898 43.43626,-170.8702 8.44031,-46.5805 3.89125,-92.283 1.61669,-124.4353 -2.27456,-32.1524 -2.27456,-50.7531 1.05887,-62.8763 3.33343,-12.1232 9.99983,-17.7674 16.66658,-17.7674 6.66676,0 13.33316,5.6442 16.66659,14.434 3.33342,8.7898 3.33342,20.724 3.33342,30.0248 0,9.3008 0,15.9672 3.3334,19.3007 3.3334,3.3334 9.9998,3.3334 16.6666,3.3334 6.6668,0 13.33323,0 16.66661,-3.3334 3.33339,-3.3334 3.33339,-9.9999 3.33339,-19.5151 0,-9.5152 0,-21.8782 3.33342,-30.8824 3.33343,-9.0042 9.99983,-14.6484 16.66658,-14.6484 6.66676,0 13.33336,5.6444 16.66668,14.6483 3.33333,9.004 3.33333,21.3674 3.33333,30.8826 0,9.5151 0,16.1815 3.3334,19.515 3.3334,3.3334 9.9998,3.3334 16.6666,3.3334 6.6668,0 13.33323,0 16.66661,-3.3334 3.33339,-3.3334 3.33339,-9.9999 3.33339,-16.9883 0,-6.9884 0,-14.2979 3.33342,-20.7752 3.33343,-6.4774 9.99982,-12.1216 16.66658,-12.1216 6.66676,0 13.33316,5.6442 16.66658,12.1216 3.33342,6.4773 3.33342,13.7868 3.33342,20.7752 0,6.9884 0,13.6548 3.3334,16.9883 3.33341,3.3334 9.99981,3.3334 16.66661,3.3334 6.6668,0 13.33323,0 16.66661,-3.3334 3.33339,-3.3334 3.33339,-9.9999 3.33339,-20.8593 0,-10.8595 0,-25.9108 3.33342,-36.2592 3.33343,-10.3485 9.99982,-15.9927 16.66658,-15.9927 6.66676,0 13.33316,5.6442 16.66658,15.9926 3.33342,10.3484 3.33342,25.3998 3.33342,36.2593 0,10.8594 0,17.5258 3.3334,20.8593 3.33341,3.3334 9.9998,3.3334 16.6666,3.3334 6.66681,0 13.33323,0 16.66661,-3.3334 3.33338,-3.3334 3.33338,-9.9999 3.33338,-16.2362 0,-6.2363 0,-12.0417 3.3334,-17.7669 3.3334,-5.7252 9.9998,-11.3694 16.6666,-11.3694 6.6668,0 13.3334,5.6443 16.7028,14.7027 3.3694,9.0583 3.4417,21.5307 0.7941,50.6773 z"
           transform="matrix(0.295245,0,0,0.295245,240.04212,1046.4791)"
           sodipodi:nodetypes="ccccccccccccscccscscscccscscscccscscscccscscscccc" />
        <path
           style="fill:#38b26b;fill-opacity:1;fill-rule:evenodd;stroke:#24365b;stroke-width:3.56948;stroke-linecap:round;stroke-linejoin:bevel;stroke-dasharray:none;stroke-dashoffset:107.717;stroke-opacity:1"
           id="path134-8-97"
           sodipodi:type="arc"
           sodipodi:cx="-1508.1063"
           sodipodi:cy="478.28329"
           sodipodi:rx="30.459515"
           sodipodi:ry="32.070118"
           sodipodi:start="5.6147128"
           sodipodi:end="5.6012455"
           sodipodi:open="true"
           sodipodi:arc-type="arc"
           d="m -1484.2026,458.40662 a 30.459515,32.070118 0 0 1 -4.9449,44.97725 30.459515,32.070118 0 0 1 -42.7349,-5.05488 30.459515,32.070118 0 0 1 4.6572,-45.0113 30.459515,32.070118 0 0 1 42.7662,4.7518"
           transform="rotate(-90)" />
        <path
           style="fill:#90dcaf;fill-opacity:1;fill-rule:evenodd;stroke:#24365b;stroke-width:2.82251;stroke-linecap:round;stroke-linejoin:bevel;stroke-dasharray:none;stroke-dashoffset:107.717;stroke-opacity:1"
           id="path141-5-48"
           sodipodi:type="arc"
           sodipodi:cx="444.74548"
           sodipodi:cy="1560.0066"
           sodipodi:rx="3.1500003"
           sodipodi:ry="3.1500015"
           sodipodi:start="5.6147128"
           sodipodi:end="5.6012455"
           sodipodi:open="true"
           sodipodi:arc-type="arc"
           d="m 447.21751,1558.0543 a 3.1500003,3.1500015 0 0 1 -0.51138,4.4177 3.1500003,3.1500015 0 0 1 -4.41947,-0.4965 3.1500003,3.1500015 0 0 1 0.48162,-4.4211 3.1500003,3.1500015 0 0 1 4.42271,0.4667" />
        <path
           style="fill:#90dcaf;fill-opacity:1;fill-rule:evenodd;stroke:#24365b;stroke-width:2.82251;stroke-linecap:round;stroke-linejoin:bevel;stroke-dasharray:none;stroke-dashoffset:107.717;stroke-opacity:1"
           id="path141-5-48-2"
           sodipodi:type="arc"
           sodipodi:cx="523.89728"
           sodipodi:cy="1532.7083"
           sodipodi:rx="3.1500003"
           sodipodi:ry="3.1500015"
           sodipodi:start="5.6147128"
           sodipodi:end="5.6012455"
           sodipodi:open="true"
           sodipodi:arc-type="arc"
           d="m 526.3693,1530.7559 a 3.1500003,3.1500015 0 0 1 -0.51138,4.4178 3.1500003,3.1500015 0 0 1 -4.41946,-0.4965 3.1500003,3.1500015 0 0 1 0.48162,-4.4211 3.1500003,3.1500015 0 0 1 4.42271,0.4667" />
        <path
           style="fill:#90dcaf;fill-opacity:1;fill-rule:evenodd;stroke:#24365b;stroke-width:2.82251;stroke-linecap:round;stroke-linejoin:bevel;stroke-dasharray:none;stroke-dashoffset:107.717;stroke-opacity:1"
           id="path141-5-48-2-3"
           sodipodi:type="arc"
           sodipodi:cx="522.88464"
           sodipodi:cy="1549.697"
           sodipodi:rx="3.1500003"
           sodipodi:ry="3.1500015"
           sodipodi:start="5.6147128"
           sodipodi:end="5.6012455"
           sodipodi:open="true"
           sodipodi:arc-type="arc"
           d="m 525.35667,1547.7447 a 3.1500003,3.1500015 0 0 1 -0.51138,4.4178 3.1500003,3.1500015 0 0 1 -4.41947,-0.4965 3.1500003,3.1500015 0 0 1 0.48162,-4.4212 3.1500003,3.1500015 0 0 1 4.42271,0.4668" />
        <path
           style="fill:#90dcaf;fill-opacity:1;fill-rule:evenodd;stroke:#24365b;stroke-width:2.82251;stroke-linecap:round;stroke-linejoin:bevel;stroke-dasharray:none;stroke-dashoffset:107.717;stroke-opacity:1"
           id="path141-5-48-2-7"
           sodipodi:type="arc"
           sodipodi:cx="508.95233"
           sodipodi:cy="1579.1252"
           sodipodi:rx="3.1500003"
           sodipodi:ry="3.1500015"
           sodipodi:start="5.6147128"
           sodipodi:end="5.6012455"
           sodipodi:open="true"
           sodipodi:arc-type="arc"
           d="m 511.42436,1577.1729 a 3.1500003,3.1500015 0 0 1 -0.51138,4.4178 3.1500003,3.1500015 0 0 1 -4.41947,-0.4965 3.1500003,3.1500015 0 0 1 0.48162,-4.4211 3.1500003,3.1500015 0 0 1 4.42271,0.4667" />
        <path
           style="fill:#90dcaf;fill-opacity:1;fill-rule:evenodd;stroke:#24365b;stroke-width:2.82251;stroke-linecap:round;stroke-linejoin:bevel;stroke-dasharray:none;stroke-dashoffset:107.717;stroke-opacity:1"
           id="path141-5-48-2-0"
           sodipodi:type="arc"
           sodipodi:cx="533.02856"
           sodipodi:cy="1565.4497"
           sodipodi:rx="3.1500003"
           sodipodi:ry="3.1500015"
           sodipodi:start="5.6147128"
           sodipodi:end="5.6012455"
           sodipodi:open="true"
           sodipodi:arc-type="arc"
           d="m 535.50059,1563.4974 a 3.1500003,3.1500015 0 0 1 -0.51138,4.4177 3.1500003,3.1500015 0 0 1 -4.41947,-0.4965 3.1500003,3.1500015 0 0 1 0.48162,-4.4211 3.1500003,3.1500015 0 0 1 4.42271,0.4668" />
        <path
           style="fill:#90dcaf;fill-opacity:1;fill-rule:evenodd;stroke:#24365b;stroke-width:2.82251;stroke-linecap:round;stroke-linejoin:bevel;stroke-dasharray:none;stroke-dashoffset:107.717;stroke-opacity:1"
           id="path141-5-48-2-5"
           sodipodi:type="arc"
           sodipodi:cx="539.83521"
           sodipodi:cy="1529.3392"
           sodipodi:rx="3.1500003"
           sodipodi:ry="3.1500015"
           sodipodi:start="5.6147128"
           sodipodi:end="5.6012455"
           sodipodi:open="true"
           sodipodi:arc-type="arc"
           d="m 542.30723,1527.3869 a 3.1500003,3.1500015 0 0 1 -0.51138,4.4178 3.1500003,3.1500015 0 0 1 -4.41947,-0.4965 3.1500003,3.1500015 0 0 1 0.48162,-4.4211 3.1500003,3.1500015 0 0 1 4.42271,0.4667" />
        <path
           style="fill:#90dcaf;fill-opacity:1;fill-rule:evenodd;stroke:#24365b;stroke-width:2.82251;stroke-linecap:round;stroke-linejoin:bevel;stroke-dasharray:none;stroke-dashoffset:107.717;stroke-opacity:1"
           id="path141-5-48-2-38"
           sodipodi:type="arc"
           sodipodi:cx="552.04059"
           sodipodi:cy="1549.7438"
           sodipodi:rx="3.1500003"
           sodipodi:ry="3.1500015"
           sodipodi:start="5.6147128"
           sodipodi:end="5.6012455"
           sodipodi:open="true"
           sodipodi:arc-type="arc"
           d="m 554.51261,1547.7914 a 3.1500003,3.1500015 0 0 1 -0.51138,4.4178 3.1500003,3.1500015 0 0 1 -4.41946,-0.4965 3.1500003,3.1500015 0 0 1 0.48162,-4.4211 3.1500003,3.1500015 0 0 1 4.42271,0.4667" />
        <path
           style="fill:#90dcaf;fill-opacity:1;fill-rule:evenodd;stroke:#24365b;stroke-width:2.82251;stroke-linecap:round;stroke-linejoin:bevel;stroke-dasharray:none;stroke-dashoffset:107.717;stroke-opacity:1"
           id="path141-5-48-2-76"
           sodipodi:type="arc"
           sodipodi:cx="493.72095"
           sodipodi:cy="1558.0596"
           sodipodi:rx="3.1500003"
           sodipodi:ry="3.1500015"
           sodipodi:start="5.6147128"
           sodipodi:end="5.6012455"
           sodipodi:open="true"
           sodipodi:arc-type="arc"
           d="m 496.19297,1556.1072 a 3.1500003,3.1500015 0 0 1 -0.51138,4.4178 3.1500003,3.1500015 0 0 1 -4.41946,-0.4965 3.1500003,3.1500015 0 0 1 0.48162,-4.4211 3.1500003,3.1500015 0 0 1 4.4227,0.4667" />
        <path
           style="fill:#90dcaf;fill-opacity:1;fill-rule:evenodd;stroke:#24365b;stroke-width:2.82251;stroke-linecap:round;stroke-linejoin:bevel;stroke-dasharray:none;stroke-dashoffset:107.717;stroke-opacity:1"
           id="path141-5-48-2-04"
           sodipodi:type="arc"
           sodipodi:cx="522.79132"
           sodipodi:cy="1506.9589"
           sodipodi:rx="3.1500003"
           sodipodi:ry="3.1500015"
           sodipodi:start="5.6147128"
           sodipodi:end="5.6012455"
           sodipodi:open="true"
           sodipodi:arc-type="arc"
           d="m 525.26334,1505.0065 a 3.1500003,3.1500015 0 0 1 -0.51138,4.4178 3.1500003,3.1500015 0 0 1 -4.41946,-0.4965 3.1500003,3.1500015 0 0 1 0.48162,-4.4211 3.1500003,3.1500015 0 0 1 4.42271,0.4667" />
        <path
           style="fill:#90dcaf;fill-opacity:1;fill-rule:evenodd;stroke:#24365b;stroke-width:2.82251;stroke-linecap:round;stroke-linejoin:bevel;stroke-dasharray:none;stroke-dashoffset:107.717;stroke-opacity:1"
           id="path141-5-48-2-99"
           sodipodi:type="arc"
           sodipodi:cx="434.24997"
           sodipodi:cy="1526.8345"
           sodipodi:rx="3.1500003"
           sodipodi:ry="3.1500015"
           sodipodi:start="5.6147128"
           sodipodi:end="5.6012455"
           sodipodi:open="true"
           sodipodi:arc-type="arc"
           d="m 436.72199,1524.8821 a 3.1500003,3.1500015 0 0 1 -0.51138,4.4178 3.1500003,3.1500015 0 0 1 -4.41946,-0.4965 3.1500003,3.1500015 0 0 1 0.48162,-4.4211 3.1500003,3.1500015 0 0 1 4.42271,0.4667" />
        <path
           style="fill:#90dcaf;fill-opacity:1;fill-rule:evenodd;stroke:#24365b;stroke-width:2.82251;stroke-linecap:round;stroke-linejoin:bevel;stroke-dasharray:none;stroke-dashoffset:107.717;stroke-opacity:1"
           id="path141-5-48-2-761"
           sodipodi:type="arc"
           sodipodi:cx="443.27368"
           sodipodi:cy="1544.5784"
           sodipodi:rx="3.1500003"
           sodipodi:ry="3.1500015"
           sodipodi:start="5.6147128"
           sodipodi:end="5.6012455"
           sodipodi:open="true"
           sodipodi:arc-type="arc"
           d="m 445.74571,1542.626 a 3.1500003,3.1500015 0 0 1 -0.51138,4.4178 3.1500003,3.1500015 0 0 1 -4.41947,-0.4965 3.1500003,3.1500015 0 0 1 0.48162,-4.4211 3.1500003,3.1500015 0 0 1 4.42271,0.4667" />
        <path
           style="fill:#90dcaf;fill-opacity:1;fill-rule:evenodd;stroke:#24365b;stroke-width:2.82251;stroke-linecap:round;stroke-linejoin:bevel;stroke-dasharray:none;stroke-dashoffset:107.717;stroke-opacity:1"
           id="path141-5-48-2-9"
           sodipodi:type="arc"
           sodipodi:cx="533.612"
           sodipodi:cy="1517.1416"
           sodipodi:rx="3.1500003"
           sodipodi:ry="3.1500015"
           sodipodi:start="5.6147128"
           sodipodi:end="5.6012455"
           sodipodi:open="true"
           sodipodi:arc-type="arc"
           d="m 536.08402,1515.1893 a 3.1500003,3.1500015 0 0 1 -0.51138,4.4177 3.1500003,3.1500015 0 0 1 -4.41946,-0.4965 3.1500003,3.1500015 0 0 1 0.48162,-4.4211 3.1500003,3.1500015 0 0 1 4.42271,0.4668" />
        <path
           style="fill:#90dcaf;fill-opacity:1;fill-rule:evenodd;stroke:#24365b;stroke-width:2.82251;stroke-linecap:round;stroke-linejoin:bevel;stroke-dasharray:none;stroke-dashoffset:107.717;stroke-opacity:1"
           id="path141-5-48-2-6"
           sodipodi:type="arc"
           sodipodi:cx="479.29919"
           sodipodi:cy="1553.4985"
           sodipodi:rx="3.1500003"
           sodipodi:ry="3.1500015"
           sodipodi:start="5.6147128"
           sodipodi:end="5.6012455"
           sodipodi:open="true"
           sodipodi:arc-type="arc"
           d="m 481.77122,1551.5462 a 3.1500003,3.1500015 0 0 1 -0.51138,4.4178 3.1500003,3.1500015 0 0 1 -4.41947,-0.4965 3.1500003,3.1500015 0 0 1 0.48162,-4.4211 3.1500003,3.1500015 0 0 1 4.42271,0.4667" />
        <path
           style="fill:#90dcaf;fill-opacity:1;fill-rule:evenodd;stroke:#24365b;stroke-width:2.82251;stroke-linecap:round;stroke-linejoin:bevel;stroke-dasharray:none;stroke-dashoffset:107.717;stroke-opacity:1"
           id="path139-2-7"
           sodipodi:type="arc"
           sodipodi:cx="504.34479"
           sodipodi:cy="1548.8468"
           sodipodi:rx="4.0500002"
           sodipodi:ry="4.0500016"
           sodipodi:start="5.6147128"
           sodipodi:end="5.6012455"
           sodipodi:open="true"
           sodipodi:arc-type="arc"
           d="m 507.5231,1546.3367 a 4.0500002,4.0500016 0 0 1 -0.65748,5.6799 4.0500002,4.0500016 0 0 1 -5.68217,-0.6383 4.0500002,4.0500016 0 0 1 0.61922,-5.6843 4.0500002,4.0500016 0 0 1 5.68634,0.6001" />
        <path
           style="fill:#90dcaf;fill-opacity:1;fill-rule:evenodd;stroke:#24365b;stroke-width:2.82251;stroke-linecap:round;stroke-linejoin:bevel;stroke-dasharray:none;stroke-dashoffset:107.717;stroke-opacity:1"
           id="path139-2-6"
           sodipodi:type="arc"
           sodipodi:cx="517.45251"
           sodipodi:cy="1565.1283"
           sodipodi:rx="4.0500002"
           sodipodi:ry="4.0500016"
           sodipodi:start="5.6147128"
           sodipodi:end="5.6012455"
           sodipodi:open="true"
           sodipodi:arc-type="arc"
           d="m 520.63083,1562.6182 a 4.0500002,4.0500016 0 0 1 -0.65749,5.6799 4.0500002,4.0500016 0 0 1 -5.68217,-0.6383 4.0500002,4.0500016 0 0 1 0.61923,-5.6843 4.0500002,4.0500016 0 0 1 5.68634,0.6001" />
        <path
           style="fill:#90dcaf;fill-opacity:1;fill-rule:evenodd;stroke:#24365b;stroke-width:2.82251;stroke-linecap:round;stroke-linejoin:bevel;stroke-dasharray:none;stroke-dashoffset:107.717;stroke-opacity:1"
           id="path139-2-9"
           sodipodi:type="arc"
           sodipodi:cx="539.48279"
           sodipodi:cy="1541.9934"
           sodipodi:rx="4.0500002"
           sodipodi:ry="4.0500016"
           sodipodi:start="5.6147128"
           sodipodi:end="5.6012455"
           sodipodi:open="true"
           sodipodi:arc-type="arc"
           d="m 542.6611,1539.4833 a 4.0500002,4.0500016 0 0 1 -0.65748,5.68 4.0500002,4.0500016 0 0 1 -5.68217,-0.6384 4.0500002,4.0500016 0 0 1 0.61922,-5.6843 4.0500002,4.0500016 0 0 1 5.68634,0.6001" />
        <path
           style="fill:#90dcaf;fill-opacity:1;fill-rule:evenodd;stroke:#24365b;stroke-width:2.82251;stroke-linecap:round;stroke-linejoin:bevel;stroke-dasharray:none;stroke-dashoffset:107.717;stroke-opacity:1"
           id="path139-2-1"
           sodipodi:type="arc"
           sodipodi:cx="475.02548"
           sodipodi:cy="1580.9899"
           sodipodi:rx="4.0500002"
           sodipodi:ry="4.0500016"
           sodipodi:start="5.6147128"
           sodipodi:end="5.6012455"
           sodipodi:open="true"
           sodipodi:arc-type="arc"
           d="m 478.2038,1578.4797 a 4.0500002,4.0500016 0 0 1 -0.65749,5.68 4.0500002,4.0500016 0 0 1 -5.68217,-0.6383 4.0500002,4.0500016 0 0 1 0.61923,-5.6843 4.0500002,4.0500016 0 0 1 5.68634,0.6001" />
        <path
           style="fill:#90dcaf;fill-opacity:1;fill-rule:evenodd;stroke:#24365b;stroke-width:2.82251;stroke-linecap:round;stroke-linejoin:bevel;stroke-dasharray:none;stroke-dashoffset:107.717;stroke-opacity:1"
           id="path139-2-8"
           sodipodi:type="arc"
           sodipodi:cx="462.52451"
           sodipodi:cy="1558.5472"
           sodipodi:rx="4.0500002"
           sodipodi:ry="4.0500016"
           sodipodi:start="5.6147128"
           sodipodi:end="5.6012455"
           sodipodi:open="true"
           sodipodi:arc-type="arc"
           d="m 465.70282,1556.0371 a 4.0500002,4.0500016 0 0 1 -0.65749,5.68 4.0500002,4.0500016 0 0 1 -5.68217,-0.6384 4.0500002,4.0500016 0 0 1 0.61923,-5.6843 4.0500002,4.0500016 0 0 1 5.68634,0.6001" />
        <path
           style="fill:#90dcaf;fill-opacity:1;fill-rule:evenodd;stroke:#24365b;stroke-width:2.82251;stroke-linecap:round;stroke-linejoin:bevel;stroke-dasharray:none;stroke-dashoffset:107.717;stroke-opacity:1"
           id="path139-2-8-0"
           sodipodi:type="arc"
           sodipodi:cx="456.68243"
           sodipodi:cy="1544.4204"
           sodipodi:rx="4.0500002"
           sodipodi:ry="4.0500016"
           sodipodi:start="5.6147128"
           sodipodi:end="5.6012455"
           sodipodi:open="true"
           sodipodi:arc-type="arc"
           d="m 459.86075,1541.9103 a 4.0500002,4.0500016 0 0 1 -0.65749,5.68 4.0500002,4.0500016 0 0 1 -5.68217,-0.6384 4.0500002,4.0500016 0 0 1 0.61923,-5.6843 4.0500002,4.0500016 0 0 1 5.68634,0.6001" />
        <path
           style="fill:#90dcaf;fill-opacity:1;fill-rule:evenodd;stroke:#24365b;stroke-width:2.82251;stroke-linecap:round;stroke-linejoin:bevel;stroke-dasharray:none;stroke-dashoffset:107.717;stroke-opacity:1"
           id="path139-2-8-6"
           sodipodi:type="arc"
           sodipodi:cx="510.22574"
           sodipodi:cy="1535.2489"
           sodipodi:rx="4.0500002"
           sodipodi:ry="4.0500016"
           sodipodi:start="5.6147128"
           sodipodi:end="5.6012455"
           sodipodi:open="true"
           sodipodi:arc-type="arc"
           d="m 513.40405,1532.7388 a 4.0500002,4.0500016 0 0 1 -0.65748,5.6799 4.0500002,4.0500016 0 0 1 -5.68217,-0.6383 4.0500002,4.0500016 0 0 1 0.61922,-5.6843 4.0500002,4.0500016 0 0 1 5.68634,0.6001" />
        <path
           style="fill:#90dcaf;fill-opacity:1;fill-rule:evenodd;stroke:#24365b;stroke-width:2.82251;stroke-linecap:round;stroke-linejoin:bevel;stroke-dasharray:none;stroke-dashoffset:107.717;stroke-opacity:1"
           id="path139-2-8-2"
           sodipodi:type="arc"
           sodipodi:cx="524.0802"
           sodipodi:cy="1584.1403"
           sodipodi:rx="4.0500002"
           sodipodi:ry="4.0500016"
           sodipodi:start="5.6147128"
           sodipodi:end="5.6012455"
           sodipodi:open="true"
           sodipodi:arc-type="arc"
           d="m 527.25852,1581.6301 a 4.0500002,4.0500016 0 0 1 -0.65749,5.68 4.0500002,4.0500016 0 0 1 -5.68217,-0.6384 4.0500002,4.0500016 0 0 1 0.61922,-5.6842 4.0500002,4.0500016 0 0 1 5.68634,0.6" />
        <path
           style="fill:#90dcaf;fill-opacity:1;fill-rule:evenodd;stroke:#24365b;stroke-width:2.82251;stroke-linecap:round;stroke-linejoin:bevel;stroke-dasharray:none;stroke-dashoffset:107.717;stroke-opacity:1"
           id="path139-2-2"
           sodipodi:type="arc"
           sodipodi:cx="495.19659"
           sodipodi:cy="1570.7214"
           sodipodi:rx="4.0500002"
           sodipodi:ry="4.0500016"
           sodipodi:start="5.6147128"
           sodipodi:end="5.6012455"
           sodipodi:open="true"
           sodipodi:arc-type="arc"
           d="m 498.37491,1568.2113 a 4.0500002,4.0500016 0 0 1 -0.65749,5.68 4.0500002,4.0500016 0 0 1 -5.68217,-0.6384 4.0500002,4.0500016 0 0 1 0.61923,-5.6843 4.0500002,4.0500016 0 0 1 5.68634,0.6001" />
        <path
           style="fill:#90dcaf;fill-opacity:1;fill-rule:evenodd;stroke:#24365b;stroke-width:2.82251;stroke-linecap:round;stroke-linejoin:bevel;stroke-dasharray:none;stroke-dashoffset:107.717;stroke-opacity:1"
           id="path139-2-4"
           sodipodi:type="arc"
           sodipodi:cx="547.61194"
           sodipodi:cy="1563.588"
           sodipodi:rx="4.0500002"
           sodipodi:ry="4.0500016"
           sodipodi:start="5.6147128"
           sodipodi:end="5.6012455"
           sodipodi:open="true"
           sodipodi:arc-type="arc"
           d="m 550.79025,1561.0779 a 4.0500002,4.0500016 0 0 1 -0.65748,5.68 4.0500002,4.0500016 0 0 1 -5.68217,-0.6384 4.0500002,4.0500016 0 0 1 0.61922,-5.6843 4.0500002,4.0500016 0 0 1 5.68634,0.6001" />
        <path
           style="fill:#90dcaf;fill-opacity:1;fill-rule:evenodd;stroke:#24365b;stroke-width:2.82251;stroke-linecap:round;stroke-linejoin:bevel;stroke-dasharray:none;stroke-dashoffset:107.717;stroke-opacity:1"
           id="path141-5-48-2-08"
           sodipodi:type="arc"
           sodipodi:cx="458.41177"
           sodipodi:cy="1574.061"
           sodipodi:rx="3.1500003"
           sodipodi:ry="3.1500015"
           sodipodi:start="5.6147128"
           sodipodi:end="5.6012455"
           sodipodi:open="true"
           sodipodi:arc-type="arc"
           d="m 460.8838,1572.1087 a 3.1500003,3.1500015 0 0 1 -0.51138,4.4178 3.1500003,3.1500015 0 0 1 -4.41947,-0.4965 3.1500003,3.1500015 0 0 1 0.48162,-4.4211 3.1500003,3.1500015 0 0 1 4.42271,0.4667" />
      </g>
    </g>
  </g>
</svg>
