<?xml version="1.0" encoding="UTF-8" standalone="no"?>
<!-- Created with Inkscape (http://www.inkscape.org/) -->

<svg
   width="228.90341mm"
   height="149.54045mm"
   viewBox="0 0 228.90341 149.54045"
   version="1.1"
   id="svg1"
   inkscape:export-filename="Enteroendocrine_Cell_With_Foot.svg"
   inkscape:export-xdpi="96"
   inkscape:export-ydpi="96"
   xmlns:inkscape="http://www.inkscape.org/namespaces/inkscape"
   xmlns:sodipodi="http://sodipodi.sourceforge.net/DTD/sodipodi-0.dtd"
   xmlns="http://www.w3.org/2000/svg"
   xmlns:svg="http://www.w3.org/2000/svg">
  <sodipodi:namedview
     id="namedview1"
     pagecolor="#ffffff"
     bordercolor="#000000"
     borderopacity="0.25"
     inkscape:showpageshadow="2"
     inkscape:pageopacity="0.0"
     inkscape:pagecheckerboard="0"
     inkscape:deskcolor="#d1d1d1"
     inkscape:document-units="mm">
    <inkscape:page
       x="1.3175269e-14"
       y="0"
       width="228.90343"
       height="149.54045"
       id="page2"
       margin="0"
       bleed="0" />
  </sodipodi:namedview>
  <defs
     id="defs1">
    <inkscape:path-effect
       effect="bspline"
       id="path-effect133-8-2-04-2-0-6"
       is_visible="true"
       lpeversion="1.3"
       weight="33.333333"
       steps="2"
       helper_size="0"
       apply_no_weight="true"
       apply_with_weight="true"
       only_selected="false"
       uniform="false" />
    <inkscape:path-effect
       effect="bspline"
       id="path-effect133-7-43-0-3"
       is_visible="true"
       lpeversion="1.3"
       weight="33.333333"
       steps="2"
       helper_size="0"
       apply_no_weight="true"
       apply_with_weight="true"
       only_selected="false"
       uniform="false" />
    <inkscape:path-effect
       effect="bspline"
       id="path-effect133-8-2-04"
       is_visible="true"
       lpeversion="1.3"
       weight="33.333333"
       steps="2"
       helper_size="0"
       apply_no_weight="true"
       apply_with_weight="true"
       only_selected="false"
       uniform="false" />
  </defs>
  <g
     inkscape:label="Layer 1"
     inkscape:groupmode="layer"
     id="layer1"
     transform="translate(12.928854,-111.63749)">
    <g
       id="g7"
       inkscape:label="Goblet cell section"
       transform="translate(-1166.727,-926.83291)">
      <g
         id="g21"
         inkscape:label="Enteroendocrine_Cell_With_Foot_Section"
         transform="translate(393.92261,-402.55062)">
        <g
           id="g19"
           style="stroke:#24365b;stroke-width:2.82251;stroke-dasharray:none;stroke-opacity:1"
           transform="matrix(0.531441,0,0,0.531441,-193.23967,670.51973)">
          <path
             id="path133-27-10-1-6-7-5"
             style="font-variation-settings:normal;fill:#5c7bbe;fill-opacity:1;stroke:#24365b;stroke-width:6.96917;stroke-linecap:butt;stroke-linejoin:bevel;stroke-miterlimit:4;stroke-dasharray:none;stroke-dashoffset:0;stroke-opacity:1;stop-color:#000000"
             inkscape:path-effect="#path-effect133-8-2-04-2-0-6"
             inkscape:original-d="m 1040.2168,1280.0005 c 0,113.3334 0,226.6671 0,340.0002 0.063,11.6788 0.1253,23.3573 0.188,35.0363 -13.3962,1.6546 -26.792,3.3091 -40.188,4.9637 -96.5747,11.0918 -193.14727,22.1834 -289.72397,33.2754 5.9665,-29.3896 11.93274,-58.778 17.89912,-88.1671 -5.49156,-64.1529 -10.9831,-128.3056 -16.47465,-192.4584 -14.48726,-44.6694 -28.97452,-89.3388 -43.46177,-134.0083 3.84818,-19.5473 7.69637,-39.0945 11.54455,-58.6418 0,-6.6668 0,-13.3333 0,-20 6.6668,-5.6446 13.3332,-11.2888 20,-16.9333 6.6668,5.6445 13.33334,11.2889 20.00001,16.9333 0,6.6668 0,13.3334 0,20 0,13.3336 0,26.6667 0,40 0,6.6668 0,13.3334 0,20.0001 6.6668,0 13.33333,0 20,0 6.6668,0 13.33333,0 20,0 0,-6.6668 0,-13.3334 0,-20.0001 0,-20.0004 0,-40 0,-60 0,-6.6668 0,-13.3333 0,-20 0,-6.6668 0,-13.3333 0,-20 6.6668,-5.6446 13.3332,-11.2888 20,-16.9333 6.6668,5.6445 13.33334,11.2889 20.00001,16.9333 0,6.6668 0,13.3333 0,20 0,26.6672 0,53.3334 0,80 0,6.6668 0,13.3334 0,20.0001 6.6668,0 13.33333,0 20,0 6.6668,0 13.33333,0 20,0 0,-6.6668 0,-13.3334 0,-20.0001 0,-20.0004 0,-40 0,-60 0,-6.6668 0,-13.3333 0,-20 6.6668,-5.6446 13.3332,-11.2888 20,-16.9333 6.6668,5.6445 13.33334,11.2889 20,16.9333 0,6.6668 0,13.3334 0,20 0,20.0004 0,40 0,60 0,6.6668 0,13.3334 0,20.0001 6.66681,0 13.33334,0 20.00001,0 6.6668,0 13.33333,0 20,0 0,-6.6668 0,-13.3334 0,-20.0001 0,-26.6672 0,-53.3333 0,-80 0,-6.6668 0,-13.3333 0,-20 6.6668,-5.6446 13.3332,-11.2888 20,-16.9333 6.6668,5.6445 13.33334,11.2889 20,16.9333 0,6.6668 0,13.3333 0,20 0,26.6672 0,53.3334 0,80 0,6.6668 0,13.3334 0,20.0001 6.66681,0 13.33334,0 20.00001,0 6.6668,0 13.33333,0 19.99998,0 0,-6.6668 0,-13.3334 0,-20.0001 0,-6.6668 0,-13.3333 0,-20 0,-6.6668 0,-13.3333 0,-20 6.6668,-5.6446 13.3332,-11.2888 20,-16.9333 6.6668,5.6445 13.3334,11.2889 20,16.9333 0,6.6668 0,13.3334 0,20 0.072,13.3336 0.1445,26.6667 0.2167,40 z"
             d="m 1040.1807,1330.0006 c 0.036,63.3333 0.036,176.667 0.067,239.173 0.031,62.5059 0.094,74.1844 -6.5727,80.8512 -6.6668,6.6668 -20.0626,8.3213 -75.04795,14.6945 -54.98535,6.3732 -151.55792,17.4648 -196.86303,8.316 -45.3051,-9.1488 -39.33886,-38.5372 -39.10144,-85.3082 0.23741,-46.771 -5.25413,-110.9237 -15.24353,-165.3348 -9.9894,-54.4111 -24.47664,-99.0805 -29.79619,-131.1889 -5.31954,-32.1084 -1.47137,-51.6556 0.45273,-64.7627 1.92409,-13.107 1.92409,-19.7735 5.2575,-25.9291 3.33342,-6.1557 9.99981,-11.7999 16.66659,-11.7999 6.66678,0 13.33336,5.6444 16.66668,11.8 3.33333,6.1556 3.33333,12.8222 3.33333,22.8223 0,10.0001 0,23.3332 0,33.3333 0,10 0,16.6666 3.3334,20 3.3334,3.3333 9.99993,3.3333 16.66666,3.3333 6.66674,0 13.33327,0 16.6666,-3.3334 3.33334,-3.3334 3.33334,-10 3.33334,-23.3335 0,-13.3336 0,-33.3332 0,-46.6666 0,-13.3334 0,-19.9999 0,-26.6666 0,-6.6668 0,-13.3333 3.33341,-19.4889 3.33342,-6.1557 9.99981,-11.7999 16.66659,-11.7999 6.66678,0 13.33336,5.6444 16.66668,11.8 3.33333,6.1556 3.33333,12.8221 3.33333,29.4891 0,16.6669 0,43.3331 0,59.9998 0,16.6667 0,23.3333 3.3334,26.6667 3.3334,3.3333 9.99993,3.3333 16.66666,3.3333 6.66674,0 13.33327,0 16.6666,-3.3334 3.33334,-3.3334 3.33334,-10 3.33334,-23.3335 0,-13.3336 0,-33.3332 0,-46.6666 0,-13.3334 0,-19.9999 3.33341,-26.1555 3.33342,-6.1557 9.99981,-11.7999 16.66659,-11.7999 6.66678,0 13.33335,5.6444 16.66668,11.8 3.33332,6.1556 3.33332,12.8222 3.33332,26.1557 0,13.3335 0,33.3331 0,46.6665 0,13.3334 0,20 3.3334,23.3334 3.33341,3.3333 9.99994,3.3333 16.66667,3.3333 6.66674,0 13.33327,0 16.66661,-3.3334 3.33333,-3.3334 3.33333,-10 3.33333,-26.667 0,-16.6669 0,-43.333 0,-59.9997 0,-16.6668 0,-23.3333 3.33341,-29.4889 3.33342,-6.1557 9.99981,-11.7999 16.66659,-11.7999 6.66678,0 13.33335,5.6444 16.66668,11.8 3.33332,6.1556 3.33332,12.8221 3.33332,29.4891 0,16.6669 0,43.3331 0,59.9998 0,16.6667 0,23.3333 3.3334,26.6667 3.33341,3.3333 9.99994,3.3333 16.66667,3.3333 6.66674,0 13.33327,0 16.66659,-3.3334 3.33333,-3.3334 3.33333,-10 3.33333,-16.6667 0,-6.6668 0,-13.3333 0,-20 0,-6.6668 0,-13.3333 3.3334,-19.4889 3.3334,-6.1557 9.9998,-11.7999 16.6666,-11.7999 6.6668,0 13.3334,5.6444 16.6667,11.8 3.3333,6.1556 3.3333,12.8222 3.3694,22.8223 0.036,10.0001 0.1084,23.3332 0.1445,86.6666 z"
             transform="matrix(-0.405,0,0,0.405,2216.1683,994.81034)"
             sodipodi:nodetypes="cccccccsscccsscscssscccsscscsscccsscscsscccsscscssccccc" />
          <path
             style="fill:#38b26b;fill-opacity:1;fill-rule:evenodd;stroke:#24365b;stroke-width:2.52386;stroke-linecap:round;stroke-linejoin:bevel;stroke-dasharray:none;stroke-dashoffset:107.717;stroke-opacity:1"
             id="path134-2-51-6-0-2-9"
             sodipodi:type="arc"
             sodipodi:cx="-1627.1586"
             sodipodi:cy="-1849.0198"
             sodipodi:rx="21.572096"
             sodipodi:ry="24.164251"
             sodipodi:start="5.6147128"
             sodipodi:end="5.6012455"
             sodipodi:open="true"
             sodipodi:arc-type="arc"
             d="m -1610.2295,-1863.9965 a 21.572096,24.164251 0 0 1 -3.502,33.8896 21.572096,24.164251 0 0 1 -30.2658,-3.8088 21.572096,24.164251 0 0 1 3.2983,-33.9152 21.572096,24.164251 0 0 1 30.288,3.5804"
             transform="matrix(0,-1,-1,0,0,0)" />
        </g>
        <g
           id="g20-7"
           inkscape:label="Enteroendocrine_Cell_With_Foot"
           transform="translate(-26.770342,21.671895)">
          <path
             id="path133-8-0-3-9"
             style="font-variation-settings:normal;fill:#5c7bbe;fill-opacity:1;stroke:#24365b;stroke-width:9.55991;stroke-linecap:butt;stroke-linejoin:bevel;stroke-miterlimit:4;stroke-dasharray:none;stroke-dashoffset:0;stroke-opacity:1;stop-color:#000000"
             inkscape:path-effect="#path-effect133-7-43-0-3"
             inkscape:original-d="m 1040.2168,1144.5029 c -5.3674,45.8209 -10.7349,91.642 -16.1023,137.4629 21.6128,45.821 43.2255,91.6421 64.8383,137.4632 6.3376,121.2118 12.6752,242.424 19.0128,363.6351 20.1528,13.4765 40.3058,26.9531 60.459,40.4297 78.9656,20.9725 157.93,41.9446 236.895,62.9169 49.4796,3.0644 98.9589,6.1288 148.4387,9.1932 31.7847,-9.195 63.569,-18.3899 95.3536,-27.585 -14.1447,24.7247 -28.2892,49.4491 -42.4339,74.1738 -0.1531,4.7645 -0.3062,9.5289 -0.4593,14.2934 -0.106,3.3004 -0.2121,6.6006 -0.3181,9.901 -0.047,1.4642 -0.094,2.9284 -0.1411,4.3925 1.3994,20.7556 2.7989,41.5116 4.1984,62.2676 -18.4543,-22.2404 -36.9083,-44.4804 -55.3625,-66.7206 -162.8424,-24.3794 -325.6845,-48.7588 -488.5271,-73.1382 -68.9753,5.8084 -137.95045,11.6168 -206.92565,17.4253 -69.28572,-8.6031 -138.5713,-17.2061 -207.8572,-25.8091 -10.36566,-24.108 -20.73124,-48.2158 -31.09691,-72.3238 -2.64584,-9.8056 -5.29165,-19.6111 -7.9375,-29.4167 5.70222,-119.6928 11.40436,-239.3839 17.10658,-359.0765 23.07665,-47.1297 46.15329,-94.2594 69.2297,-141.3886 -6.19578,-46.0317 -12.39157,-92.0635 -18.58746,-138.0961 10e-6,-18.6015 10e-6,-37.2022 2e-5,-55.804 6.66684,-5.6446 13.33324,-11.2888 20,-16.9333 6.66677,5.6445 13.33318,11.2887 20.00001,16.9333 0,11.935 0,23.8692 0,35.804 0,6.6668 0,13.3332 0,20.0001 6.6668,0 13.3332,0 20,0 6.6668,0 13.33323,0 20,0 0,-6.6668 0,-13.3333 0,-20.0001 0,-12.3636 0,-24.7266 0,-37.0904 6.66684,-5.6446 13.33324,-11.2888 20,-16.9333 6.66677,5.6445 13.33334,11.2889 20.00001,16.9333 0,12.3635 0,24.7269 0,37.0904 0,6.6668 0,13.3332 0,20.0001 6.6668,0 13.3332,0 20,0 6.6668,0 13.33323,0 20,0 0,-6.6668 0,-13.3333 0,-20.0001 0,-7.31 0,-14.6195 0,-21.9296 6.66684,-5.6446 13.33323,-11.2888 20,-16.9333 6.66677,5.6445 13.33317,11.2887 20,16.9333 0,7.3101 0,14.6196 0,21.9296 0,6.6668 0,13.3332 0,20.0001 6.66681,0 13.33321,0 20.00001,0 6.6668,0 13.33323,0 20,0 0,-6.6668 0,-13.3333 0,-20.0001 0,-15.0521 0,-30.1034 0,-45.1557 6.66684,-5.6446 13.33323,-11.2888 20,-16.9333 6.66677,5.6445 13.33317,11.2887 20,16.9333 0,15.0522 0,30.1036 0,45.1557 0,6.6668 0,13.3332 0,20.0001 6.66681,0 13.3332,0 20.00001,0 6.6668,0 13.33322,0 19.99998,0 0,-6.6668 0,-13.3333 0,-20.0001 0,-5.8058 0,-11.6112 0,-17.4171 6.6668,-5.6445 13.3332,-11.2887 20,-16.9333 6.6668,5.6446 13.3334,11.2889 20,16.9333 0.072,12.4723 0.1445,24.9447 0.2167,37.4171 z"
             d="m 1037.5331,1167.4133 c -2.6837,22.9105 -8.0512,68.7316 0.071,114.5526 8.1226,45.8209 29.7354,91.642 43.7106,175.1584 13.9752,83.5165 20.3128,204.7287 33.558,272.0725 13.2452,67.3438 33.3982,80.8203 82.9576,98.0449 49.5594,17.2246 128.5238,38.1967 192.7461,50.2151 64.2223,12.0183 113.7016,15.0827 154.3338,12.0174 40.6323,-3.0653 72.4166,-12.2603 81.2365,-4.4954 8.82,7.7648 -5.3245,32.4892 -12.4734,47.2338 -7.1489,14.7446 -7.302,19.509 -7.4316,23.5414 -0.1295,4.0325 -0.2356,7.3327 -0.3121,9.715 -0.077,2.3823 -0.1236,3.8465 0.5526,14.9563 0.6762,11.1099 2.0757,31.8659 -6.4517,31.1237 -8.5274,-0.7422 -26.9814,-22.9822 -117.6297,-46.292 -90.6483,-23.3098 -253.4904,-47.6892 -369.3994,-56.9747 -115.9089,-9.2855 -184.88404,-3.477 -254.01451,-4.8743 -69.13047,-1.3973 -138.41605,-10.0003 -178.24183,-26.3559 -39.82577,-16.3555 -50.19135,-40.4633 -56.69711,-57.4201 -6.50575,-16.9568 -9.15157,-26.7623 -7.62338,-91.5115 1.52819,-64.7492 7.23034,-184.4403 21.61977,-267.8515 14.38943,-83.4111 37.46608,-130.5408 45.90639,-177.1212 8.44031,-46.5805 2.24453,-92.6123 -0.85342,-124.9294 -3.09794,-32.317 -3.09794,-50.9177 0.23549,-63.0409 3.33343,-12.1232 9.99983,-17.7674 16.66658,-17.7674 6.66676,0 13.33316,5.6442 16.66659,14.434 3.33342,8.7898 3.33342,20.724 3.33342,30.0248 0,9.3008 0,15.9672 3.3334,19.3006 3.3334,3.3335 9.9998,3.3335 16.6666,3.3335 6.6668,0 13.33323,0 16.66661,-3.3334 3.33339,-3.3334 3.33339,-9.9999 3.33339,-19.5151 0,-9.5152 0,-21.8782 3.33342,-30.8824 3.33343,-9.0042 9.99983,-14.6484 16.66658,-14.6484 6.66676,0 13.33336,5.6444 16.66668,14.6483 3.33333,9.004 3.33333,21.3674 3.33333,30.8825 0,9.5152 0,16.1816 3.3334,19.515 3.3334,3.3335 9.9998,3.3335 16.6666,3.3335 6.6668,0 13.33323,0 16.66661,-3.3334 3.33339,-3.3334 3.33339,-9.9999 3.33339,-16.9883 0,-6.9884 0,-14.2979 3.33342,-20.7752 3.33343,-6.4774 9.99982,-12.1216 16.66658,-12.1216 6.66676,0 13.33316,5.6442 16.66658,12.1216 3.33342,6.4773 3.33342,13.7868 3.33342,20.7752 0,6.9884 0,13.6548 3.3334,16.9882 3.33341,3.3335 9.99981,3.3335 16.66661,3.3335 6.6668,0 13.33323,0 16.66661,-3.3334 3.33339,-3.3334 3.33339,-9.9999 3.33339,-20.8594 0,-10.8594 0,-25.9107 3.33342,-36.2591 3.33343,-10.3485 9.99982,-15.9927 16.66658,-15.9927 6.66676,0 13.33316,5.6442 16.66658,15.9926 3.33342,10.3484 3.33342,25.3998 3.33342,36.2592 0,10.8595 0,17.5259 3.3334,20.8593 3.33341,3.3335 9.9998,3.3335 16.6666,3.3335 6.66681,0 13.33323,0 16.66661,-3.3334 3.33338,-3.3334 3.33338,-9.9999 3.33338,-16.2362 0,-6.2363 0,-12.0417 3.3334,-17.7669 3.3334,-5.7252 9.9998,-11.3694 16.6666,-11.3694 6.6668,0 13.3334,5.6443 16.7028,14.7027 3.3694,9.0583 3.4417,21.5307 3.4778,27.7669 0.036,6.2362 0.036,6.2362 -2.6474,29.1466 z"
             transform="matrix(0.1569053,0,0,0.1569053,759.2082,1252.5151)"
             sodipodi:nodetypes="cccccccccccccccccccccscccscscscccscscscccscscscccscscsccccc" />
          <path
             style="fill:#38b26b;fill-opacity:1;fill-rule:evenodd;stroke:#24365b;stroke-width:1.89697;stroke-linecap:round;stroke-linejoin:bevel;stroke-dasharray:none;stroke-dashoffset:107.717;stroke-opacity:1"
             id="path134-8-97-7-7"
             sodipodi:type="arc"
             sodipodi:cx="-1497.8427"
             sodipodi:cy="885.81927"
             sodipodi:rx="16.187435"
             sodipodi:ry="17.043375"
             sodipodi:start="5.6147128"
             sodipodi:end="5.6012455"
             sodipodi:open="true"
             sodipodi:arc-type="arc"
             d="m -1485.1392,875.256 a 16.187435,17.043375 0 0 1 -2.628,23.90275 16.187435,17.043375 0 0 1 -22.711,-2.68637 16.187435,17.043375 0 0 1 2.475,-23.92085 16.187435,17.043375 0 0 1 22.7277,2.5253"
             transform="rotate(-90)" />
          <path
             style="fill:#90dcaf;fill-opacity:1;fill-rule:evenodd;stroke:#24365b;stroke-width:1.5;stroke-linecap:round;stroke-linejoin:bevel;stroke-dasharray:none;stroke-dashoffset:107.717;stroke-opacity:1"
             id="path141-5-48-0-2"
             sodipodi:type="arc"
             sodipodi:cx="867.99591"
             sodipodi:cy="1525.4247"
             sodipodi:rx="1.6740394"
             sodipodi:ry="1.67404"
             sodipodi:start="5.6147128"
             sodipodi:end="5.6012455"
             sodipodi:open="true"
             sodipodi:arc-type="arc"
             d="m 869.30965,1524.3871 a 1.6740394,1.67404 0 0 1 -0.27177,2.3478 1.6740394,1.67404 0 0 1 -2.34869,-0.2638 1.6740394,1.67404 0 0 1 0.25595,-2.3496 1.6740394,1.67404 0 0 1 2.35041,0.248" />
          <path
             style="fill:#90dcaf;fill-opacity:1;fill-rule:evenodd;stroke:#24365b;stroke-width:1.5;stroke-linecap:round;stroke-linejoin:bevel;stroke-dasharray:none;stroke-dashoffset:107.717;stroke-opacity:1"
             id="path141-5-48-2-03-2"
             sodipodi:type="arc"
             sodipodi:cx="969.12439"
             sodipodi:cy="1551.2528"
             sodipodi:rx="1.6740394"
             sodipodi:ry="1.67404"
             sodipodi:start="5.6147128"
             sodipodi:end="5.6012455"
             sodipodi:open="true"
             sodipodi:arc-type="arc"
             d="m 970.43812,1550.2153 a 1.6740394,1.67404 0 0 1 -0.27176,2.3477 1.6740394,1.67404 0 0 1 -2.34869,-0.2638 1.6740394,1.67404 0 0 1 0.25595,-2.3496 1.6740394,1.67404 0 0 1 2.35041,0.2481" />
          <path
             style="fill:#90dcaf;fill-opacity:1;fill-rule:evenodd;stroke:#24365b;stroke-width:1.5;stroke-linecap:round;stroke-linejoin:bevel;stroke-dasharray:none;stroke-dashoffset:107.717;stroke-opacity:1"
             id="path141-5-48-2-3-4-1"
             sodipodi:type="arc"
             sodipodi:cx="934.22388"
             sodipodi:cy="1542.6309"
             sodipodi:rx="1.6740394"
             sodipodi:ry="1.67404"
             sodipodi:start="5.6147128"
             sodipodi:end="5.6012455"
             sodipodi:open="true"
             sodipodi:arc-type="arc"
             d="m 935.53761,1541.5933 a 1.6740394,1.67404 0 0 1 -0.27177,2.3478 1.6740394,1.67404 0 0 1 -2.34868,-0.2639 1.6740394,1.67404 0 0 1 0.25595,-2.3495 1.6740394,1.67404 0 0 1 2.35041,0.248" />
          <path
             style="fill:#90dcaf;fill-opacity:1;fill-rule:evenodd;stroke:#24365b;stroke-width:1.5;stroke-linecap:round;stroke-linejoin:bevel;stroke-dasharray:none;stroke-dashoffset:107.717;stroke-opacity:1"
             id="path141-5-48-2-7-9-6"
             sodipodi:type="arc"
             sodipodi:cx="898.90253"
             sodipodi:cy="1539.8239"
             sodipodi:rx="1.6740394"
             sodipodi:ry="1.67404"
             sodipodi:start="5.6147128"
             sodipodi:end="5.6012455"
             sodipodi:open="true"
             sodipodi:arc-type="arc"
             d="m 900.21626,1538.7863 a 1.6740394,1.67404 0 0 1 -0.27177,2.3478 1.6740394,1.67404 0 0 1 -2.34868,-0.2639 1.6740394,1.67404 0 0 1 0.25595,-2.3495 1.6740394,1.67404 0 0 1 2.35041,0.248" />
          <path
             style="fill:#90dcaf;fill-opacity:1;fill-rule:evenodd;stroke:#24365b;stroke-width:1.5;stroke-linecap:round;stroke-linejoin:bevel;stroke-dasharray:none;stroke-dashoffset:107.717;stroke-opacity:1"
             id="path141-5-48-2-0-2-30"
             sodipodi:type="arc"
             sodipodi:cx="914.91321"
             sodipodi:cy="1528.3174"
             sodipodi:rx="1.6740394"
             sodipodi:ry="1.67404"
             sodipodi:start="5.6147128"
             sodipodi:end="5.6012455"
             sodipodi:open="true"
             sodipodi:arc-type="arc"
             d="m 916.22694,1527.2798 a 1.6740394,1.67404 0 0 1 -0.27177,2.3478 1.6740394,1.67404 0 0 1 -2.34868,-0.2638 1.6740394,1.67404 0 0 1 0.25595,-2.3496 1.6740394,1.67404 0 0 1 2.35041,0.248" />
          <path
             style="fill:#90dcaf;fill-opacity:1;fill-rule:evenodd;stroke:#24365b;stroke-width:1.5;stroke-linecap:round;stroke-linejoin:bevel;stroke-dasharray:none;stroke-dashoffset:107.717;stroke-opacity:1"
             id="path141-5-48-2-0-2-3-2"
             sodipodi:type="arc"
             sodipodi:cx="946.38617"
             sodipodi:cy="1542.8694"
             sodipodi:rx="1.6740394"
             sodipodi:ry="1.67404"
             sodipodi:start="5.6147128"
             sodipodi:end="5.6012455"
             sodipodi:open="true"
             sodipodi:arc-type="arc"
             d="m 947.6999,1541.8318 a 1.6740394,1.67404 0 0 1 -0.27176,2.3478 1.6740394,1.67404 0 0 1 -2.34869,-0.2638 1.6740394,1.67404 0 0 1 0.25595,-2.3496 1.6740394,1.67404 0 0 1 2.35041,0.248" />
          <path
             style="fill:#90dcaf;fill-opacity:1;fill-rule:evenodd;stroke:#24365b;stroke-width:1.5;stroke-linecap:round;stroke-linejoin:bevel;stroke-dasharray:none;stroke-dashoffset:107.717;stroke-opacity:1"
             id="path141-5-48-2-0-2-8-1"
             sodipodi:type="arc"
             sodipodi:cx="1009.8469"
             sodipodi:cy="1551.6068"
             sodipodi:rx="1.6740394"
             sodipodi:ry="1.67404"
             sodipodi:start="5.6147128"
             sodipodi:end="5.6012455"
             sodipodi:open="true"
             sodipodi:arc-type="arc"
             d="m 1011.1607,1550.5693 a 1.6740394,1.67404 0 0 1 -0.2718,2.3477 1.6740394,1.67404 0 0 1 -2.3487,-0.2638 1.6740394,1.67404 0 0 1 0.256,-2.3496 1.6740394,1.67404 0 0 1 2.3504,0.2481" />
          <path
             style="fill:#90dcaf;fill-opacity:1;fill-rule:evenodd;stroke:#24365b;stroke-width:1.5;stroke-linecap:round;stroke-linejoin:bevel;stroke-dasharray:none;stroke-dashoffset:107.717;stroke-opacity:1"
             id="path141-5-48-2-5-7-5"
             sodipodi:type="arc"
             sodipodi:cx="918.53052"
             sodipodi:cy="1509.1267"
             sodipodi:rx="1.6740394"
             sodipodi:ry="1.67404"
             sodipodi:start="5.6147128"
             sodipodi:end="5.6012455"
             sodipodi:open="true"
             sodipodi:arc-type="arc"
             d="m 919.84425,1508.0892 a 1.6740394,1.67404 0 0 1 -0.27177,2.3477 1.6740394,1.67404 0 0 1 -2.34868,-0.2638 1.6740394,1.67404 0 0 1 0.25595,-2.3496 1.6740394,1.67404 0 0 1 2.35041,0.2481" />
          <path
             style="fill:#90dcaf;fill-opacity:1;fill-rule:evenodd;stroke:#24365b;stroke-width:1.5;stroke-linecap:round;stroke-linejoin:bevel;stroke-dasharray:none;stroke-dashoffset:107.717;stroke-opacity:1"
             id="path141-5-48-2-38-4-6"
             sodipodi:type="arc"
             sodipodi:cx="925.01697"
             sodipodi:cy="1519.9706"
             sodipodi:rx="1.6740394"
             sodipodi:ry="1.67404"
             sodipodi:start="5.6147128"
             sodipodi:end="5.6012455"
             sodipodi:open="true"
             sodipodi:arc-type="arc"
             d="m 926.3307,1518.933 a 1.6740394,1.67404 0 0 1 -0.27177,2.3478 1.6740394,1.67404 0 0 1 -2.34868,-0.2638 1.6740394,1.67404 0 0 1 0.25595,-2.3496 1.6740394,1.67404 0 0 1 2.35041,0.248" />
          <path
             style="fill:#90dcaf;fill-opacity:1;fill-rule:evenodd;stroke:#24365b;stroke-width:1.5;stroke-linecap:round;stroke-linejoin:bevel;stroke-dasharray:none;stroke-dashoffset:107.717;stroke-opacity:1"
             id="path141-5-48-2-76-2-5"
             sodipodi:type="arc"
             sodipodi:cx="909.37061"
             sodipodi:cy="1518.5435"
             sodipodi:rx="1.6740394"
             sodipodi:ry="1.67404"
             sodipodi:start="5.6147128"
             sodipodi:end="5.6012455"
             sodipodi:open="true"
             sodipodi:arc-type="arc"
             d="m 910.68434,1517.5059 a 1.6740394,1.67404 0 0 1 -0.27177,2.3478 1.6740394,1.67404 0 0 1 -2.34868,-0.2639 1.6740394,1.67404 0 0 1 0.25595,-2.3495 1.6740394,1.67404 0 0 1 2.35041,0.248" />
          <path
             style="fill:#90dcaf;fill-opacity:1;fill-rule:evenodd;stroke:#24365b;stroke-width:1.5;stroke-linecap:round;stroke-linejoin:bevel;stroke-dasharray:none;stroke-dashoffset:107.717;stroke-opacity:1"
             id="path141-5-48-2-04-5-0"
             sodipodi:type="arc"
             sodipodi:cx="909.47272"
             sodipodi:cy="1497.2329"
             sodipodi:rx="1.6740394"
             sodipodi:ry="1.67404"
             sodipodi:start="5.6147128"
             sodipodi:end="5.6012455"
             sodipodi:open="true"
             sodipodi:arc-type="arc"
             d="m 910.78645,1496.1954 a 1.6740394,1.67404 0 0 1 -0.27177,2.3477 1.6740394,1.67404 0 0 1 -2.34868,-0.2638 1.6740394,1.67404 0 0 1 0.25595,-2.3496 1.6740394,1.67404 0 0 1 2.35041,0.2481" />
          <path
             style="fill:#90dcaf;fill-opacity:1;fill-rule:evenodd;stroke:#24365b;stroke-width:1.5;stroke-linecap:round;stroke-linejoin:bevel;stroke-dasharray:none;stroke-dashoffset:107.717;stroke-opacity:1"
             id="path141-5-48-2-99-2-0"
             sodipodi:type="arc"
             sodipodi:cx="862.41821"
             sodipodi:cy="1507.7957"
             sodipodi:rx="1.6740394"
             sodipodi:ry="1.67404"
             sodipodi:start="5.6147128"
             sodipodi:end="5.6012455"
             sodipodi:open="true"
             sodipodi:arc-type="arc"
             d="m 863.73195,1506.7581 a 1.6740394,1.67404 0 0 1 -0.27177,2.3478 1.6740394,1.67404 0 0 1 -2.34869,-0.2639 1.6740394,1.67404 0 0 1 0.25596,-2.3495 1.6740394,1.67404 0 0 1 2.35041,0.248" />
          <path
             style="fill:#90dcaf;fill-opacity:1;fill-rule:evenodd;stroke:#24365b;stroke-width:1.5;stroke-linecap:round;stroke-linejoin:bevel;stroke-dasharray:none;stroke-dashoffset:107.717;stroke-opacity:1"
             id="path141-5-48-2-761-4-3"
             sodipodi:type="arc"
             sodipodi:cx="867.21375"
             sodipodi:cy="1517.2255"
             sodipodi:rx="1.6740394"
             sodipodi:ry="1.67404"
             sodipodi:start="5.6147128"
             sodipodi:end="5.6012455"
             sodipodi:open="true"
             sodipodi:arc-type="arc"
             d="m 868.52748,1516.1879 a 1.6740394,1.67404 0 0 1 -0.27177,2.3478 1.6740394,1.67404 0 0 1 -2.34868,-0.2639 1.6740394,1.67404 0 0 1 0.25595,-2.3495 1.6740394,1.67404 0 0 1 2.35041,0.248" />
          <path
             style="fill:#90dcaf;fill-opacity:1;fill-rule:evenodd;stroke:#24365b;stroke-width:1.5;stroke-linecap:round;stroke-linejoin:bevel;stroke-dasharray:none;stroke-dashoffset:107.717;stroke-opacity:1"
             id="path141-5-48-2-9-4-4"
             sodipodi:type="arc"
             sodipodi:cx="915.22327"
             sodipodi:cy="1502.6444"
             sodipodi:rx="1.6740394"
             sodipodi:ry="1.67404"
             sodipodi:start="5.6147128"
             sodipodi:end="5.6012455"
             sodipodi:open="true"
             sodipodi:arc-type="arc"
             d="m 916.537,1501.6069 a 1.6740394,1.67404 0 0 1 -0.27177,2.3477 1.6740394,1.67404 0 0 1 -2.34868,-0.2638 1.6740394,1.67404 0 0 1 0.25595,-2.3496 1.6740394,1.67404 0 0 1 2.35041,0.2481" />
          <path
             style="fill:#90dcaf;fill-opacity:1;fill-rule:evenodd;stroke:#24365b;stroke-width:1.5;stroke-linecap:round;stroke-linejoin:bevel;stroke-dasharray:none;stroke-dashoffset:107.717;stroke-opacity:1"
             id="path141-5-48-2-6-3-6"
             sodipodi:type="arc"
             sodipodi:cx="886.35919"
             sodipodi:cy="1521.9659"
             sodipodi:rx="1.6740394"
             sodipodi:ry="1.67404"
             sodipodi:start="5.6147128"
             sodipodi:end="5.6012455"
             sodipodi:open="true"
             sodipodi:arc-type="arc"
             d="m 887.67293,1520.9284 a 1.6740394,1.67404 0 0 1 -0.27177,2.3478 1.6740394,1.67404 0 0 1 -2.34869,-0.2639 1.6740394,1.67404 0 0 1 0.25596,-2.3495 1.6740394,1.67404 0 0 1 2.3504,0.248" />
          <path
             style="fill:#90dcaf;fill-opacity:1;fill-rule:evenodd;stroke:#24365b;stroke-width:1.5;stroke-linecap:round;stroke-linejoin:bevel;stroke-dasharray:none;stroke-dashoffset:107.717;stroke-opacity:1"
             id="path139-2-7-8-6"
             sodipodi:type="arc"
             sodipodi:cx="899.66943"
             sodipodi:cy="1519.4939"
             sodipodi:rx="2.1523361"
             sodipodi:ry="2.1523368"
             sodipodi:start="5.6147128"
             sodipodi:end="5.6012455"
             sodipodi:open="true"
             sodipodi:arc-type="arc"
             d="m 901.35852,1518.1599 a 2.1523361,2.1523368 0 0 1 -0.34942,3.0186 2.1523361,2.1523368 0 0 1 -3.01973,-0.3393 2.1523361,2.1523368 0 0 1 0.32908,-3.0208 2.1523361,2.1523368 0 0 1 3.02195,0.3189" />
          <path
             style="fill:#90dcaf;fill-opacity:1;fill-rule:evenodd;stroke:#24365b;stroke-width:1.5;stroke-linecap:round;stroke-linejoin:bevel;stroke-dasharray:none;stroke-dashoffset:107.717;stroke-opacity:1"
             id="path139-2-6-6-0"
             sodipodi:type="arc"
             sodipodi:cx="906.48926"
             sodipodi:cy="1534.0228"
             sodipodi:rx="2.1523361"
             sodipodi:ry="2.1523368"
             sodipodi:start="5.6147128"
             sodipodi:end="5.6012455"
             sodipodi:open="true"
             sodipodi:arc-type="arc"
             d="m 908.17835,1532.6888 a 2.1523361,2.1523368 0 0 1 -0.34942,3.0186 2.1523361,2.1523368 0 0 1 -3.01974,-0.3392 2.1523361,2.1523368 0 0 1 0.32908,-3.0209 2.1523361,2.1523368 0 0 1 3.02196,0.3189" />
          <path
             style="fill:#90dcaf;fill-opacity:1;fill-rule:evenodd;stroke:#24365b;stroke-width:1.5;stroke-linecap:round;stroke-linejoin:bevel;stroke-dasharray:none;stroke-dashoffset:107.717;stroke-opacity:1"
             id="path139-2-9-0-2"
             sodipodi:type="arc"
             sodipodi:cx="918.3432"
             sodipodi:cy="1521.1434"
             sodipodi:rx="2.1523361"
             sodipodi:ry="2.1523368"
             sodipodi:start="5.6147128"
             sodipodi:end="5.6012455"
             sodipodi:open="true"
             sodipodi:arc-type="arc"
             d="m 920.03229,1519.8094 a 2.1523361,2.1523368 0 0 1 -0.34942,3.0186 2.1523361,2.1523368 0 0 1 -3.01974,-0.3392 2.1523361,2.1523368 0 0 1 0.32909,-3.0209 2.1523361,2.1523368 0 0 1 3.02195,0.3189" />
          <path
             style="fill:#90dcaf;fill-opacity:1;fill-rule:evenodd;stroke:#24365b;stroke-width:1.5;stroke-linecap:round;stroke-linejoin:bevel;stroke-dasharray:none;stroke-dashoffset:107.717;stroke-opacity:1"
             id="path139-2-1-8-5"
             sodipodi:type="arc"
             sodipodi:cx="884.08795"
             sodipodi:cy="1541.8677"
             sodipodi:rx="2.1523361"
             sodipodi:ry="2.1523368"
             sodipodi:start="5.6147128"
             sodipodi:end="5.6012455"
             sodipodi:open="true"
             sodipodi:arc-type="arc"
             d="m 885.77704,1540.5337 a 2.1523361,2.1523368 0 0 1 -0.34942,3.0186 2.1523361,2.1523368 0 0 1 -3.01973,-0.3393 2.1523361,2.1523368 0 0 1 0.32908,-3.0209 2.1523361,2.1523368 0 0 1 3.02195,0.319" />
          <path
             style="fill:#90dcaf;fill-opacity:1;fill-rule:evenodd;stroke:#24365b;stroke-width:1.5;stroke-linecap:round;stroke-linejoin:bevel;stroke-dasharray:none;stroke-dashoffset:107.717;stroke-opacity:1"
             id="path139-2-8-9-8"
             sodipodi:type="arc"
             sodipodi:cx="877.44446"
             sodipodi:cy="1524.649"
             sodipodi:rx="2.1523361"
             sodipodi:ry="2.1523368"
             sodipodi:start="5.6147128"
             sodipodi:end="5.6012455"
             sodipodi:open="true"
             sodipodi:arc-type="arc"
             d="m 879.13355,1523.3151 a 2.1523361,2.1523368 0 0 1 -0.34942,3.0185 2.1523361,2.1523368 0 0 1 -3.01974,-0.3392 2.1523361,2.1523368 0 0 1 0.32908,-3.0209 2.1523361,2.1523368 0 0 1 3.02196,0.3189" />
          <path
             style="fill:#90dcaf;fill-opacity:1;fill-rule:evenodd;stroke:#24365b;stroke-width:1.5;stroke-linecap:round;stroke-linejoin:bevel;stroke-dasharray:none;stroke-dashoffset:107.717;stroke-opacity:1"
             id="path139-2-8-0-2-9"
             sodipodi:type="arc"
             sodipodi:cx="874.33972"
             sodipodi:cy="1517.1415"
             sodipodi:rx="2.1523361"
             sodipodi:ry="2.1523368"
             sodipodi:start="5.6147128"
             sodipodi:end="5.6012455"
             sodipodi:open="true"
             sodipodi:arc-type="arc"
             d="m 876.02881,1515.8075 a 2.1523361,2.1523368 0 0 1 -0.34942,3.0186 2.1523361,2.1523368 0 0 1 -3.01973,-0.3393 2.1523361,2.1523368 0 0 1 0.32908,-3.0208 2.1523361,2.1523368 0 0 1 3.02195,0.3189" />
          <path
             style="fill:#90dcaf;fill-opacity:1;fill-rule:evenodd;stroke:#24365b;stroke-width:1.5;stroke-linecap:round;stroke-linejoin:bevel;stroke-dasharray:none;stroke-dashoffset:107.717;stroke-opacity:1"
             id="path139-2-8-6-2-5"
             sodipodi:type="arc"
             sodipodi:cx="902.7948"
             sodipodi:cy="1512.2673"
             sodipodi:rx="2.1523361"
             sodipodi:ry="2.1523368"
             sodipodi:start="5.6147128"
             sodipodi:end="5.6012455"
             sodipodi:open="true"
             sodipodi:arc-type="arc"
             d="m 904.48389,1510.9333 a 2.1523361,2.1523368 0 0 1 -0.34942,3.0186 2.1523361,2.1523368 0 0 1 -3.01974,-0.3392 2.1523361,2.1523368 0 0 1 0.32909,-3.0209 2.1523361,2.1523368 0 0 1 3.02195,0.3189" />
          <path
             style="fill:#90dcaf;fill-opacity:1;fill-rule:evenodd;stroke:#24365b;stroke-width:1.5;stroke-linecap:round;stroke-linejoin:bevel;stroke-dasharray:none;stroke-dashoffset:107.717;stroke-opacity:1"
             id="path139-2-8-2-3-0"
             sodipodi:type="arc"
             sodipodi:cx="910.15765"
             sodipodi:cy="1543.542"
             sodipodi:rx="2.1523361"
             sodipodi:ry="2.1523368"
             sodipodi:start="5.6147128"
             sodipodi:end="5.6012455"
             sodipodi:open="true"
             sodipodi:arc-type="arc"
             d="m 911.84674,1542.208 a 2.1523361,2.1523368 0 0 1 -0.34941,3.0186 2.1523361,2.1523368 0 0 1 -3.01974,-0.3393 2.1523361,2.1523368 0 0 1 0.32908,-3.0208 2.1523361,2.1523368 0 0 1 3.02195,0.3189" />
          <path
             style="fill:#90dcaf;fill-opacity:1;fill-rule:evenodd;stroke:#24365b;stroke-width:1.5;stroke-linecap:round;stroke-linejoin:bevel;stroke-dasharray:none;stroke-dashoffset:107.717;stroke-opacity:1"
             id="path139-2-2-1-6"
             sodipodi:type="arc"
             sodipodi:cx="893.93073"
             sodipodi:cy="1534.2181"
             sodipodi:rx="2.1523361"
             sodipodi:ry="2.1523368"
             sodipodi:start="5.6147128"
             sodipodi:end="5.6012455"
             sodipodi:open="true"
             sodipodi:arc-type="arc"
             d="m 895.61981,1532.8841 a 2.1523361,2.1523368 0 0 1 -0.34941,3.0186 2.1523361,2.1523368 0 0 1 -3.01974,-0.3392 2.1523361,2.1523368 0 0 1 0.32908,-3.0209 2.1523361,2.1523368 0 0 1 3.02195,0.3189" />
          <path
             style="fill:#90dcaf;fill-opacity:1;fill-rule:evenodd;stroke:#24365b;stroke-width:1.5;stroke-linecap:round;stroke-linejoin:bevel;stroke-dasharray:none;stroke-dashoffset:107.717;stroke-opacity:1"
             id="path139-2-4-8-0"
             sodipodi:type="arc"
             sodipodi:cx="925.00201"
             sodipodi:cy="1534.6659"
             sodipodi:rx="2.1523361"
             sodipodi:ry="2.1523368"
             sodipodi:start="5.6147128"
             sodipodi:end="5.6012455"
             sodipodi:open="true"
             sodipodi:arc-type="arc"
             d="m 926.6911,1533.3319 a 2.1523361,2.1523368 0 0 1 -0.34941,3.0186 2.1523361,2.1523368 0 0 1 -3.01974,-0.3393 2.1523361,2.1523368 0 0 1 0.32908,-3.0208 2.1523361,2.1523368 0 0 1 3.02195,0.3189" />
          <path
             style="fill:#90dcaf;fill-opacity:1;fill-rule:evenodd;stroke:#24365b;stroke-width:1.5;stroke-linecap:round;stroke-linejoin:bevel;stroke-dasharray:none;stroke-dashoffset:107.717;stroke-opacity:1"
             id="path139-2-4-8-5-8"
             sodipodi:type="arc"
             sodipodi:cx="992.41003"
             sodipodi:cy="1555.4296"
             sodipodi:rx="2.1523361"
             sodipodi:ry="2.1523368"
             sodipodi:start="5.6147128"
             sodipodi:end="5.6012455"
             sodipodi:open="true"
             sodipodi:arc-type="arc"
             d="m 994.09912,1554.0956 a 2.1523361,2.1523368 0 0 1 -0.34941,3.0186 2.1523361,2.1523368 0 0 1 -3.01974,-0.3393 2.1523361,2.1523368 0 0 1 0.32908,-3.0209 2.1523361,2.1523368 0 0 1 3.02195,0.3189" />
          <path
             style="fill:#90dcaf;fill-opacity:1;fill-rule:evenodd;stroke:#24365b;stroke-width:1.5;stroke-linecap:round;stroke-linejoin:bevel;stroke-dasharray:none;stroke-dashoffset:107.717;stroke-opacity:1"
             id="path139-2-4-8-1-3"
             sodipodi:type="arc"
             sodipodi:cx="957.94183"
             sodipodi:cy="1548.2548"
             sodipodi:rx="2.1523361"
             sodipodi:ry="2.1523368"
             sodipodi:start="5.6147128"
             sodipodi:end="5.6012455"
             sodipodi:open="true"
             sodipodi:arc-type="arc"
             d="m 959.63092,1546.9208 a 2.1523361,2.1523368 0 0 1 -0.34942,3.0185 2.1523361,2.1523368 0 0 1 -3.01973,-0.3392 2.1523361,2.1523368 0 0 1 0.32908,-3.0209 2.1523361,2.1523368 0 0 1 3.02195,0.3189" />
          <path
             style="fill:#90dcaf;fill-opacity:1;fill-rule:evenodd;stroke:#24365b;stroke-width:1.5;stroke-linecap:round;stroke-linejoin:bevel;stroke-dasharray:none;stroke-dashoffset:107.717;stroke-opacity:1"
             id="path141-5-48-2-08-3-7"
             sodipodi:type="arc"
             sodipodi:cx="875.25879"
             sodipodi:cy="1538.1854"
             sodipodi:rx="1.6740394"
             sodipodi:ry="1.67404"
             sodipodi:start="5.6147128"
             sodipodi:end="5.6012455"
             sodipodi:open="true"
             sodipodi:arc-type="arc"
             d="m 876.57252,1537.1479 a 1.6740394,1.67404 0 0 1 -0.27176,2.3478 1.6740394,1.67404 0 0 1 -2.34869,-0.2639 1.6740394,1.67404 0 0 1 0.25595,-2.3496 1.6740394,1.67404 0 0 1 2.35041,0.2481" />
        </g>
        <g
           id="g134-7-2-8"
           inkscape:label="Enterocyte Squished 1"
           style="stroke:#24365b;stroke-width:2.82251;stroke-dasharray:none;stroke-opacity:1"
           transform="matrix(0.531441,0,0,0.531441,193.13567,715.51538)">
          <path
             id="path133-27-10-1"
             style="font-variation-settings:normal;opacity:1;fill:#5c7bbe;fill-opacity:1;stroke:#24365b;stroke-width:6.96917;stroke-linecap:butt;stroke-linejoin:bevel;stroke-miterlimit:4;stroke-dasharray:none;stroke-dashoffset:0;stroke-opacity:1;stop-color:#000000;stop-opacity:1"
             inkscape:path-effect="#path-effect133-8-2-04"
             inkscape:original-d="m 1040.2168,1280.0005 c 0.6791,122.3796 1.3582,244.7588 2.0373,367.1387 0.7029,15.2002 1.4058,30.4001 2.1087,45.6005 -14.1165,-0.026 -28.2325,-0.052 -42.3488,-0.078 -85.61178,-5.5518 -171.22196,-11.1035 -256.83517,-16.6554 -4.17383,-14.3181 -8.34751,-28.6358 -12.52126,-42.9536 -2.02329,-13.1859 -4.04657,-26.3718 -6.06987,-39.5578 -4.89017,-60.2818 -9.78026,-120.5626 -14.6704,-180.844 -14.48726,-44.6694 -28.97452,-89.3388 -43.46177,-134.0083 3.84818,-19.5473 7.69637,-39.0945 11.54455,-58.6418 0,-6.6668 0,-13.3333 0,-20 6.6668,-5.6446 13.3332,-11.2888 20,-16.9333 6.6668,5.6445 13.33334,11.2889 20.00001,16.9333 0,6.6668 0,13.3334 0,20 0,13.3336 0,26.6667 0,40 0,6.6668 0,13.3334 0,20.0001 6.6668,0 13.33333,0 20,0 6.6668,0 13.33333,0 20,0 0,-6.6668 0,-13.3334 0,-20.0001 0,-20.0004 0,-40 0,-60 0,-6.6668 0,-13.3333 0,-20 0,-6.6668 0,-13.3333 0,-20 6.6668,-5.6446 13.3332,-11.2888 20,-16.9333 6.6668,5.6445 13.33334,11.2889 20.00001,16.9333 0,6.6668 0,13.3333 0,20 0,26.6672 0,53.3334 0,80 0,6.6668 0,13.3334 0,20.0001 6.6668,0 13.33333,0 20,0 6.6668,0 13.33333,0 20,0 0,-6.6668 0,-13.3334 0,-20.0001 0,-20.0004 0,-40 0,-60 0,-6.6668 0,-13.3333 0,-20 6.6668,-5.6446 13.3332,-11.2888 20,-16.9333 6.6668,5.6445 13.33334,11.2889 20,16.9333 0,6.6668 0,13.3334 0,20 0,20.0004 0,40 0,60 0,6.6668 0,13.3334 0,20.0001 6.66681,0 13.33334,0 20.00001,0 6.6668,0 13.33333,0 20,0 0,-6.6668 0,-13.3334 0,-20.0001 0,-26.6672 0,-53.3333 0,-80 0,-6.6668 0,-13.3333 0,-20 6.6668,-5.6446 13.3332,-11.2888 20,-16.9333 6.6668,5.6445 13.33334,11.2889 20,16.9333 0,6.6668 0,13.3333 0,20 0,26.6672 0,53.3334 0,80 0,6.6668 0,13.3334 0,20.0001 6.66681,0 13.33334,0 20.00001,0 6.6668,0 13.33333,0 19.99998,0 0,-6.6668 0,-13.3334 0,-20.0001 0,-6.6668 0,-13.3333 0,-20 0,-6.6668 0,-13.3333 0,-20 6.6668,-5.6446 13.3332,-11.2888 20,-16.9333 6.6668,5.6445 13.3334,11.2889 20,16.9333 0,6.6668 0,13.3334 0,20 0.072,13.3336 0.1445,26.6667 0.2167,40 z"
             d="m 1040.5564,1341.1903 c 0.3395,61.1898 1.0186,183.569 1.7096,252.359 0.691,68.7901 1.3939,83.99 -5.3129,91.5772 -6.7068,7.5872 -20.8228,7.5612 -70.68684,4.7723 -49.86404,-2.7889 -135.47422,-8.3406 -180.36774,-18.2756 -44.89351,-9.935 -49.06721,-24.2527 -52.16572,-38.0045 -3.09852,-13.7519 -5.1218,-26.9378 -8.57854,-63.6717 -3.45673,-36.7339 -8.34682,-97.0147 -18.03551,-149.4901 -9.6887,-52.4754 -24.17594,-97.1448 -29.49549,-129.2532 -5.31954,-32.1084 -1.47137,-51.6556 0.45273,-64.7627 1.92409,-13.107 1.92409,-19.7735 5.2575,-25.9291 3.33342,-6.1557 9.99981,-11.7999 16.66659,-11.7999 6.66678,0 13.33336,5.6444 16.66668,11.8 3.33333,6.1556 3.33333,12.8222 3.33333,22.8223 0,10.0001 0,23.3332 0,33.3332 0,10.0001 0,16.6667 3.3334,20 3.3334,3.3334 9.99993,3.3334 16.66666,3.3334 6.66674,0 13.33327,0 16.6666,-3.3334 3.33334,-3.3334 3.33334,-10 3.33334,-23.3336 0,-13.3335 0,-33.3331 0,-46.6665 0,-13.3334 0,-19.9999 0,-26.6667 0,-6.6667 0,-13.3332 3.33341,-19.4888 3.33342,-6.1557 9.99981,-11.7999 16.66659,-11.7999 6.66678,0 13.33336,5.6444 16.66668,11.8 3.33333,6.1556 3.33333,12.8221 3.33333,29.489 0,16.667 0,43.3332 0,59.9999 0,16.6667 0,23.3333 3.3334,26.6666 3.3334,3.3334 9.99993,3.3334 16.66666,3.3334 6.66674,0 13.33327,0 16.6666,-3.3334 3.33334,-3.3334 3.33334,-10 3.33334,-23.3336 0,-13.3335 0,-33.3331 0,-46.6665 0,-13.3334 0,-19.9999 3.33341,-26.1555 3.33342,-6.1557 9.99981,-11.7999 16.66659,-11.7999 6.66678,0 13.33335,5.6444 16.66668,11.8 3.33332,6.1556 3.33332,12.8222 3.33332,26.1557 0,13.3335 0,33.3331 0,46.6665 0,13.3334 0,20 3.3334,23.3333 3.33341,3.3334 9.99994,3.3334 16.66667,3.3334 6.66674,0 13.33327,0 16.6666,-3.3334 3.33334,-3.3334 3.33334,-10 3.33334,-26.667 0,-16.6669 0,-43.333 0,-59.9998 0,-16.6667 0,-23.3332 3.33341,-29.4888 3.33342,-6.1557 9.99981,-11.7999 16.66659,-11.7999 6.66678,0 13.33335,5.6444 16.66668,11.8 3.33332,6.1556 3.33332,12.8221 3.33332,29.489 0,16.667 0,43.3332 0,59.9999 0,16.6667 0,23.3333 3.3334,26.6666 3.33341,3.3334 9.99994,3.3334 16.66667,3.3334 6.66674,0 13.33327,0 16.66659,-3.3334 3.33333,-3.3334 3.33333,-10 3.33333,-16.6668 0,-6.6667 0,-13.3332 0,-20 0,-6.6667 0,-13.3332 3.3334,-19.4888 3.3334,-6.1557 9.9998,-11.7999 16.6666,-11.7999 6.6668,0 13.3334,5.6444 16.6667,11.8 3.3333,6.1556 3.3333,12.8222 3.3694,22.8223 0.036,10.0001 0.1084,23.3332 0.1445,29.9999 0.036,6.6666 0.036,6.6663 0.3757,67.8561 z"
             transform="matrix(0.405,0,0,0.405,1046.2175,907.81298)"
             sodipodi:nodetypes="ccccccccsscccsscscssscccsscscsscccsscscsscccsscscsscccccc" />
          <path
             style="fill:#38b26b;fill-opacity:1;fill-rule:evenodd;stroke:#24365b;stroke-width:2.52386;stroke-linecap:round;stroke-linejoin:bevel;stroke-dasharray:none;stroke-dashoffset:107.717;stroke-opacity:1"
             id="path134-2-51-6"
             sodipodi:type="arc"
             sodipodi:cx="-1540.1613"
             sodipodi:cy="1413.366"
             sodipodi:rx="21.572096"
             sodipodi:ry="24.164251"
             sodipodi:start="5.6147128"
             sodipodi:end="5.6012455"
             sodipodi:open="true"
             sodipodi:arc-type="arc"
             d="m -1523.2321,1398.3893 a 21.572096,24.164251 0 0 1 -3.5021,33.8895 21.572096,24.164251 0 0 1 -30.2658,-3.8088 21.572096,24.164251 0 0 1 3.2983,-33.9152 21.572096,24.164251 0 0 1 30.288,3.5804"
             transform="rotate(-90)" />
        </g>
      </g>
    </g>
  </g>
</svg>
