<?xml version="1.0" encoding="UTF-8" standalone="no"?>
<!-- Created with Inkscape (http://www.inkscape.org/) -->

<svg
   width="217.91539mm"
   height="144.28708mm"
   viewBox="0 0 217.91539 144.28708"
   version="1.1"
   id="svg1"
   inkscape:export-filename="Paneth_Cell.svg"
   inkscape:export-xdpi="96"
   inkscape:export-ydpi="96"
   xmlns:inkscape="http://www.inkscape.org/namespaces/inkscape"
   xmlns:sodipodi="http://sodipodi.sourceforge.net/DTD/sodipodi-0.dtd"
   xmlns="http://www.w3.org/2000/svg"
   xmlns:svg="http://www.w3.org/2000/svg">
  <sodipodi:namedview
     id="namedview1"
     pagecolor="#ffffff"
     bordercolor="#000000"
     borderopacity="0.25"
     inkscape:showpageshadow="2"
     inkscape:pageopacity="0.0"
     inkscape:pagecheckerboard="0"
     inkscape:deskcolor="#d1d1d1"
     inkscape:document-units="mm">
    <inkscape:page
       x="1.5540441e-14"
       y="0"
       width="217.91537"
       height="144.28708"
       id="page2"
       margin="0"
       bleed="0" />
  </sodipodi:namedview>
  <defs
     id="defs1">
    <inkscape:path-effect
       effect="bspline"
       id="path-effect133-0-8"
       is_visible="true"
       lpeversion="1.3"
       weight="33.333333"
       steps="2"
       helper_size="0"
       apply_no_weight="true"
       apply_with_weight="true"
       only_selected="false"
       uniform="false" />
    <inkscape:path-effect
       effect="bspline"
       id="path-effect147-9"
       is_visible="true"
       lpeversion="1.3"
       weight="33.333333"
       steps="2"
       helper_size="0"
       apply_no_weight="true"
       apply_with_weight="true"
       only_selected="false"
       uniform="false" />
    <inkscape:path-effect
       effect="bspline"
       id="path-effect148-6"
       is_visible="true"
       lpeversion="1.3"
       weight="33.333333"
       steps="2"
       helper_size="0"
       apply_no_weight="true"
       apply_with_weight="true"
       only_selected="false"
       uniform="false" />
    <inkscape:path-effect
       effect="bspline"
       id="path-effect149-4"
       is_visible="true"
       lpeversion="1.3"
       weight="33.333333"
       steps="2"
       helper_size="0"
       apply_no_weight="true"
       apply_with_weight="true"
       only_selected="false"
       uniform="false" />
    <inkscape:path-effect
       effect="bspline"
       id="path-effect150-3"
       is_visible="true"
       lpeversion="1.3"
       weight="33.333333"
       steps="2"
       helper_size="0"
       apply_no_weight="true"
       apply_with_weight="true"
       only_selected="false"
       uniform="false" />
    <inkscape:path-effect
       effect="bspline"
       id="path-effect151-3"
       is_visible="true"
       lpeversion="1.3"
       weight="33.333333"
       steps="2"
       helper_size="0"
       apply_no_weight="true"
       apply_with_weight="true"
       only_selected="false"
       uniform="false" />
    <inkscape:path-effect
       effect="bspline"
       id="path-effect133-8-1-3-3"
       is_visible="true"
       lpeversion="1.3"
       weight="33.333333"
       steps="2"
       helper_size="0"
       apply_no_weight="true"
       apply_with_weight="true"
       only_selected="false"
       uniform="false" />
    <inkscape:path-effect
       effect="bspline"
       id="path-effect133-8-1-3-3-7"
       is_visible="true"
       lpeversion="1.3"
       weight="33.333333"
       steps="2"
       helper_size="0"
       apply_no_weight="true"
       apply_with_weight="true"
       only_selected="false"
       uniform="false" />
  </defs>
  <g
     inkscape:label="Layer 1"
     inkscape:groupmode="layer"
     id="layer1"
     transform="translate(32.782789,-91.048962)">
    <g
       id="g7"
       inkscape:label="Goblet cell section"
       transform="translate(-1166.727,-926.83291)">
      <g
         id="g134-1-4"
         inkscape:label="Goblet Cell"
         style="stroke:#24365b;stroke-width:3.48459;stroke-dasharray:none;stroke-opacity:1"
         transform="matrix(0.43046721,0,0,0.43046721,889.46694,506.35557)">
        <path
           id="path133-2-8"
           style="font-variation-settings:normal;opacity:1;fill:#5c7bbe;fill-opacity:1;stroke:#24365b;stroke-width:8.60392;stroke-linecap:butt;stroke-linejoin:bevel;stroke-miterlimit:4;stroke-dasharray:none;stroke-dashoffset:0;stroke-opacity:1;stop-color:#000000;stop-opacity:1"
           inkscape:path-effect="#path-effect133-0-8"
           inkscape:original-d="m 1040.2168,1150.9551 c 17.4314,50.6154 34.8628,101.2307 52.2943,151.8462 -3.6882,72.5773 -7.3764,145.1544 -11.0646,217.7313 -14.2823,20.3221 -28.5647,40.6442 -42.8471,60.9663 0,104.9468 0,209.893 0,314.8403 -59.49705,-0.2769 -118.9941,-0.5538 -178.49027,-0.8307 -62.43526,0.2769 -124.87083,0.5538 -187.30765,0.8307 0,-101.3777 0,-202.7519 0,-304.1285 -12.53401,-23.8928 -25.06789,-47.7854 -37.60185,-71.6781 -7.78816,-73.0459 -15.57629,-146.0915 -23.36447,-219.1375 22.7217,-50.1468 45.4433,-100.2934 68.1649,-150.44 1e-5,-14.2998 1e-5,-28.5994 2e-5,-42.8995 6.66679,-5.6445 13.33322,-11.2887 20,-16.9333 6.66679,4.0315 13.33327,8.0628 20.00001,12.0942 0,9.2463 0,18.4923 0,27.7386 0,6.6668 0,13.3333 0,20.0001 6.6668,0 13.3332,0 20,0 6.6668,0 13.33323,0 20,0 0,-6.6668 0,-13.3334 0,-20.0001 0,-4.8358 0,-9.6714 0,-14.5074 6.66685,-5.6446 13.33324,-11.2888 20,-16.9333 6.66676,5.6445 13.33334,11.2889 20.00001,16.9333 0,4.8358 0,9.6716 0,14.5074 0,6.6668 0,13.3333 0,20.0001 6.6668,0 13.3332,0 20,0 6.6668,0 13.33323,0 20,0 0,-6.6668 0,-13.3334 0,-20.0001 0,-14.2998 0,-28.5994 0,-42.8995 6.66679,-5.6445 13.33319,-11.2887 20,-16.9333 6.66681,5.6446 13.33335,11.2889 20,16.9333 0,14.2998 0,28.5995 0,42.8995 0,6.6668 0,13.3333 0,20.0001 6.66681,0 13.33321,0 20.00001,0 6.6668,0 13.33323,0 20,0 0,-6.6668 0,-13.3334 0,-20.0001 0,-5.9112 0,-11.8223 0,-17.7336 6.66679,-5.6445 13.33323,-11.2888 20,-16.9333 6.66677,5.6445 13.33333,11.2889 20,16.9333 0,5.9112 0,11.8223 0,17.7336 0,6.6668 0,13.3333 0,20.0001 6.66681,0 13.3332,0 20.00001,0 6.6668,0 13.33332,0 19.99998,0 0,-7.6332 0,-15.2662 0,-22.8996 6.6668,-5.6445 13.3332,-11.2887 20,-16.9333 6.6668,5.6446 13.3333,11.2889 20,16.9333 0.072,7.6332 0.1445,15.2663 0.2167,22.8995 z"
           d="m 1048.8964,1172.4462 c 8.7518,29.1243 26.1832,79.7396 33.0549,141.336 6.8716,61.5964 3.1834,134.1735 -5.8019,180.623 -8.9852,46.4495 -23.2676,66.7716 -30.4088,129.406 -7.1412,62.6345 -7.1412,167.5807 -36.8897,219.9159 -29.74855,52.3352 -89.2456,52.0583 -150.21131,52.0583 -60.96572,0 -123.40129,0.2769 -154.6197,-50.2735 -31.21841,-50.5504 -31.21841,-151.9246 -37.48541,-214.5593 -6.267,-62.6347 -18.8009,-86.5273 -28.96196,-134.9966 -10.16105,-48.4693 -17.94919,-121.5149 -10.48243,-183.1113 7.46676,-61.5964 30.18837,-111.743 41.54917,-143.9662 11.36081,-32.2232 11.36081,-46.5228 14.6942,-56.4951 3.33339,-9.9723 9.99981,-15.6165 16.66661,-16.4231 6.66681,-0.8065 13.3333,3.2248 16.66666,9.8636 3.33336,6.6389 3.33336,15.8849 3.33336,23.8414 0,7.9566 0,14.6231 3.3334,17.9565 3.3334,3.3334 9.9998,3.3334 16.6666,3.3334 6.6668,0 13.33323,0 16.66661,-3.3334 3.33339,-3.3334 3.33339,-10 3.33339,-15.7513 0,-5.7512 0,-10.5868 3.33343,-15.8271 3.33343,-5.2403 9.99982,-10.8845 16.66657,-10.8845 6.66676,0 13.33336,5.6444 16.66668,10.8845 3.33333,5.2401 3.33333,10.0759 3.33333,15.8272 0,5.7513 0,12.4178 3.3334,15.7512 3.3334,3.3334 9.9998,3.3334 16.6666,3.3334 6.6668,0 13.33323,0 16.66661,-3.3334 3.33339,-3.3334 3.33339,-10 3.33339,-20.4833 0,-10.4832 0,-24.7828 3.33339,-34.7551 3.33338,-9.9723 9.99978,-15.6165 16.66661,-15.6165 6.66683,0 13.33336,5.6443 16.66668,15.6164 3.33332,9.9721 3.33332,24.2718 3.33332,34.7552 0,10.4834 0,17.1499 3.3334,20.4833 3.33341,3.3334 9.99981,3.3334 16.66661,3.3334 6.6668,0 13.33323,0 16.66661,-3.3334 3.33339,-3.3334 3.33339,-10 3.33339,-16.289 0,-6.2889 0,-12.2 3.33339,-17.9779 3.33338,-5.7779 9.99985,-11.4222 16.66661,-11.4222 6.66676,0 13.33335,5.6444 16.66667,11.4222 3.33333,5.7778 3.33333,11.6889 3.33333,17.9779 0,6.2891 0,12.9556 3.3334,16.289 3.33341,3.3334 9.9998,3.3334 16.6666,3.3334 6.66681,0 13.33333,0 16.66666,-3.8166 3.33333,-3.8166 3.33333,-11.4496 6.66673,-18.0886 3.3334,-6.6389 9.9998,-12.2831 16.6666,-12.2831 6.6668,0 13.3333,5.6443 16.7028,12.2831 3.3694,6.6388 3.4417,14.2719 12.1935,43.3962 z"
           transform="matrix(0.405,0,0,0.405,474.42197,753.95663)"
           sodipodi:nodetypes="ccccccccccscccscscscccscscscccscscscccscsccccc" />
        <path
           style="fill:#38b26b;fill-opacity:1;fill-rule:evenodd;stroke:#24365b;stroke-width:3.48459;stroke-linecap:round;stroke-linejoin:bevel;stroke-dasharray:none;stroke-dashoffset:107.717;stroke-opacity:1"
           id="path146-8"
           sodipodi:type="arc"
           sodipodi:cx="820.98065"
           sodipodi:cy="1460.2882"
           sodipodi:rx="37.457184"
           sodipodi:ry="46.700184"
           sodipodi:start="5.6147128"
           sodipodi:end="5.6012455"
           sodipodi:open="true"
           sodipodi:arc-type="arc"
           d="m 850.3759,1431.344 a 37.457184,46.700184 0 0 1 -6.0809,65.4954 37.457184,46.700184 0 0 1 -52.55261,-7.3609 37.457184,46.700184 0 0 1 5.72703,-65.5449 37.457184,46.700184 0 0 1 52.59117,6.9195" />
        <path
           style="font-variation-settings:normal;opacity:1;fill:#90dcaf;fill-opacity:1;stroke:#24365b;stroke-width:3.48459;stroke-linecap:butt;stroke-linejoin:bevel;stroke-miterlimit:4;stroke-dasharray:none;stroke-dashoffset:0;stroke-opacity:1;stop-color:#000000;stop-opacity:1"
           d="m 783.51482,1424.0455 c 2.95198,-3.3695 8.22592,-9.2854 15.66913,-12.7963 7.44321,-3.511 17.05525,-4.6168 21.95484,-6.0178 4.89959,-1.401 5.08651,-3.0971 4.13511,-4.5485 -0.9514,-1.4513 -2.99292,-2.63 -8.61523,-2.3816 -5.62232,0.2484 -14.82498,1.9238 -22.58433,5.8481 -7.75935,3.9242 -14.07488,10.0969 -17.41318,14.3343 -3.33831,4.2374 -3.69919,6.5392 -3.37992,8.0887 0.31926,1.5494 1.31856,2.3464 2.43554,2.6358 1.11697,0.2894 2.35151,0.071 3.2838,-0.4495 0.9323,-0.5207 1.56226,-1.3437 4.51424,-4.7132 z"
           id="path147-8"
           inkscape:path-effect="#path-effect147-9"
           inkscape:original-d="m 781.19282,1426.592 c 5.27396,-5.916 10.54792,-11.8319 15.82192,-17.7479 9.61241,-1.1059 19.22446,-2.2117 28.83671,-3.3175 0.18693,-1.6962 0.37384,-3.3923 0.56078,-5.0885 -2.18817,-1.036 -4.18048,-2.2999 -6.17286,-3.5639 -9.20302,1.6755 -18.40569,3.3509 -27.60855,5.0264 -6.31583,6.173 -12.63137,12.3457 -18.94707,18.5186 -0.36092,2.3019 -0.72179,4.6037 -1.08267,6.9056 0.99937,0.7971 1.99871,1.594 2.99809,2.391 1.23459,-0.2182 2.46911,-0.4365 3.7037,-0.6547 0.62997,-0.8231 1.25994,-1.6461 1.88995,-2.4691 z" />
        <path
           style="font-variation-settings:normal;opacity:1;fill:#90dcaf;fill-opacity:1;stroke:#24365b;stroke-width:3.48459;stroke-linecap:butt;stroke-linejoin:bevel;stroke-miterlimit:4;stroke-dasharray:none;stroke-dashoffset:0;stroke-opacity:1;stop-color:#000000;stop-opacity:1"
           d="m 834.36529,1386.7046 c -2.91725,-0.3565 -5.09308,0.4856 -5.88023,1.9593 -0.78715,1.4736 -0.18567,3.5788 1.82939,5.1728 2.01506,1.5939 5.44349,2.6766 9.05247,5.4435 3.60899,2.7669 7.39833,7.2179 10.58649,12.5111 3.18815,5.2932 5.77498,11.4284 8.12082,14.0355 2.34585,2.6071 4.45058,1.6862 5.77367,0.1523 1.32309,-1.5338 1.86442,-3.6804 0.36086,-8.1222 -1.50355,-4.4418 -5.05178,-11.1782 -8.66081,-16.1751 -3.60904,-4.9968 -7.27848,-8.2535 -10.94265,-10.6595 -3.66416,-2.406 -7.32277,-3.9611 -10.24001,-4.3177 z"
           id="path148-9"
           inkscape:path-effect="#path-effect148-6"
           inkscape:original-d="m 833.62386,1385.506 c -2.17582,0.8421 -4.35165,1.6842 -6.52744,2.5263 0.60149,2.1052 1.20298,4.2104 1.80446,6.3156 3.42861,1.0828 6.85706,2.1654 10.28557,3.2481 3.78948,4.4511 7.57881,8.9021 11.36823,13.3532 2.5869,6.1353 5.17368,12.2705 7.76055,18.4057 2.10484,-0.921 4.20959,-1.8419 6.3144,-2.7629 0.54135,-2.1467 1.0827,-4.2933 1.62405,-6.44 -3.54846,-6.7369 -7.09672,-13.4733 -10.64517,-20.2102 -3.66961,-3.2568 -7.33903,-6.5135 -11.00864,-9.7703 -3.65873,-1.5552 -7.31735,-3.1103 -10.97601,-4.6655 z"
           transform="translate(8.3618179,11.729132)"
           sodipodi:nodetypes="ccccccccccc" />
        <path
           style="font-variation-settings:normal;opacity:1;fill:#90dcaf;fill-opacity:1;stroke:#24365b;stroke-width:3.48459;stroke-linecap:butt;stroke-linejoin:bevel;stroke-miterlimit:4;stroke-dasharray:none;stroke-dashoffset:0;stroke-opacity:1;stop-color:#000000;stop-opacity:1"
           d="m 796.79304,1389.2634 c -3.91016,1.6704 -5.1444,2.9046 -5.55596,4.5508 -0.41156,1.6462 -7e-5,3.7036 3.08641,3.2681 3.08647,-0.4355 8.84767,-3.3641 17.28401,-4.8285 8.43634,-1.4643 19.54724,-1.4643 27.57197,-0.097 8.02473,1.3675 12.96268,4.1022 16.00829,4.6424 3.04561,0.5402 4.26215,-1.2061 4.06776,-2.761 -0.19439,-1.5549 -1.8452,-3.2831 -5.91957,-5.2636 -4.07437,-1.9805 -10.6586,-4.3039 -17.65456,-5.2598 -6.99597,-0.956 -14.40305,-0.5444 -21.39909,0.7142 -6.99604,1.2586 -13.5791,3.3638 -17.48926,5.0342 z"
           id="path149-7"
           inkscape:path-effect="#path-effect149-4"
           inkscape:original-d="m 794.11768,1389.699 c -1.23479,1.2348 -2.46908,2.469 -3.70371,3.7037 0.41155,2.0577 0.82305,4.1151 1.23459,6.1728 5.76141,-2.9287 11.52261,-5.8573 17.28392,-8.786 11.11136,0 22.22226,0 33.33336,0 4.93835,2.735 9.87634,5.4697 14.8148,8.2048 1.15273,-1.6547 2.36923,-3.401 3.45807,-4.9639 -1.47756,-1.5469 -3.12839,-3.2751 -4.69263,-4.9127 -6.58448,-2.3235 -13.16873,-4.6468 -19.75307,-6.9702 -7.40759,0.4115 -14.81467,0.8231 -22.22224,1.2346 -6.5845,2.1057 -13.16757,4.2109 -19.75309,6.3169 z"
           sodipodi:nodetypes="ccccccccccc" />
        <path
           style="font-variation-settings:normal;opacity:1;fill:#90dcaf;fill-opacity:1;stroke:#24365b;stroke-width:3.48459;stroke-linecap:butt;stroke-linejoin:bevel;stroke-miterlimit:4;stroke-dasharray:none;stroke-dashoffset:0;stroke-opacity:1;stop-color:#000000;stop-opacity:1"
           d="m 762.26634,1355.4239 c -2.71657,0.09 -2.71657,3.0863 0.15041,6.0882 2.86699,3.0018 8.60074,6.0092 16.40002,8.6264 7.79927,2.6172 17.6636,4.844 27.70865,5.9574 10.04506,1.1134 20.27026,1.1134 29.44312,1.1134 9.17286,0 17.29286,0 24.95718,-0.9787 7.66433,-0.9786 14.87234,-2.9358 20.94758,-5.4452 6.07524,-2.5095 11.01696,-5.5709 13.18713,-8.3047 2.17016,-2.7337 1.56869,-5.1396 -0.2659,-5.7656 -1.83459,-0.6259 -4.90209,0.5282 -9.65398,2.225 -4.7519,1.6967 -11.18777,3.9359 -16.81177,5.8219 -5.62399,1.8861 -10.43577,3.4187 -20.20002,4.0949 -9.76425,0.6761 -24.47984,0.4957 -37.35207,-0.9624 -12.87222,-1.4582 -23.89976,-4.1938 -32.13026,-6.9695 -8.2305,-2.7757 -13.66352,-5.5914 -16.38009,-5.5011 z"
           id="path150-7"
           inkscape:path-effect="#path-effect150-3"
           inkscape:original-d="m 759.54977,1352.5179 c 0,2.9962 0,5.9923 0,8.9885 5.73398,3.0075 11.46773,6.0149 17.20161,9.0224 9.86468,2.2268 19.729,4.4536 29.59348,6.6805 10.22562,0 20.45082,0 30.67622,0 8.12032,0 16.24032,0 24.36048,0 7.20849,-1.9573 14.4165,-3.9145 21.62501,-5.8718 4.94196,-3.0616 9.88369,-6.123 14.82552,-9.1845 -0.6015,-2.406 -1.20298,-4.8119 -1.80449,-7.218 -3.06766,1.1542 -6.13516,2.3083 -9.20283,3.4625 -6.43612,2.2393 -12.872,4.4785 -19.30798,6.7178 -4.81202,1.5327 -9.62379,3.0654 -14.43583,4.5982 -14.71645,-0.1805 -29.43204,-0.361 -44.14848,-0.5414 -11.028,-2.7358 -22.05555,-5.4714 -33.08336,-8.2071 -5.43321,-2.8157 -10.86621,-5.6314 -16.29935,-8.4471 z"
           sodipodi:nodetypes="ccccscccccccccc" />
        <path
           style="font-variation-settings:normal;opacity:1;fill:#90dcaf;fill-opacity:1;stroke:#24365b;stroke-width:3.48459;stroke-linecap:butt;stroke-linejoin:bevel;stroke-miterlimit:4;stroke-dasharray:none;stroke-dashoffset:0;stroke-opacity:1;stop-color:#000000;stop-opacity:1"
           d="m 775.27771,1346.3601 c -3.0977,0 -3.33829,3.0788 1.26321,5.936 4.60149,2.8571 14.04462,5.4923 25.56346,7.0505 11.51884,1.5583 25.11233,2.0395 36.81148,1.6485 11.69916,-0.391 21.5033,-1.6541 27.93934,-3.5488 6.43603,-1.8948 9.50357,-4.421 9.95466,-6.1052 0.4511,-1.6842 -1.71422,-2.5262 -4.45105,-2.3345 -2.73684,0.1918 -6.04502,1.4174 -13.72276,2.7173 -7.67774,1.2998 -19.68996,2.6699 -31.81031,2.8147 -12.12035,0.1447 -24.33042,-0.938 -33.41304,-3.0188 -9.08262,-2.0809 -15.03728,-5.1598 -18.13499,-5.1597 z"
           id="path151-6"
           inkscape:path-effect="#path-effect151-3"
           inkscape:original-d="m 772.42061,1343.2811 c -0.2406,3.079 -0.48118,6.1578 -0.72179,9.2368 9.44359,2.6353 18.88671,5.2705 28.33036,7.9058 13.59404,0.4812 27.18753,0.9624 40.78128,1.4436 9.80455,-1.2632 19.6087,-2.5263 29.41308,-3.7894 3.06766,-2.5264 6.13523,-5.0526 9.20283,-7.5789 -2.1654,-0.8421 -4.33074,-1.6841 -6.49611,-2.5262 -3.3083,1.2256 -6.61648,2.4512 -9.92465,3.6768 -12.0473,1.3741 -24.05952,2.7442 -36.08964,4.1164 -12.21058,-1.0827 -24.42065,-2.1654 -36.63099,-3.2481 -5.9549,-3.079 -11.90959,-6.1578 -17.86437,-9.2368 z"
           sodipodi:nodetypes="ccccccccscc"
           transform="translate(0,1.3065844)" />
        <path
           style="fill:#90dcaf;fill-opacity:1;fill-rule:evenodd;stroke:#24365b;stroke-width:3.48459;stroke-linecap:round;stroke-linejoin:bevel;stroke-dasharray:none;stroke-dashoffset:107.717;stroke-opacity:1"
           id="path153-4"
           sodipodi:type="arc"
           sodipodi:cx="874.08276"
           sodipodi:cy="1289.9244"
           sodipodi:rx="23.73288"
           sodipodi:ry="24.243265"
           sodipodi:start="5.6147128"
           sodipodi:end="5.6012455"
           sodipodi:open="true"
           sodipodi:arc-type="arc"
           d="m 892.7076,1274.8988 a 23.73288,24.243265 0 0 1 -3.85286,34.0003 23.73288,24.243265 0 0 1 -33.29734,-3.8212 23.73288,24.243265 0 0 1 3.62864,-34.0261 23.73288,24.243265 0 0 1 33.32178,3.5921" />
        <path
           style="fill:#90dcaf;fill-opacity:1;fill-rule:evenodd;stroke:#24365b;stroke-width:3.48459;stroke-linecap:round;stroke-linejoin:bevel;stroke-dasharray:none;stroke-dashoffset:107.717;stroke-opacity:1"
           id="path156-3"
           sodipodi:type="arc"
           sodipodi:cx="831.87836"
           sodipodi:cy="1252.4088"
           sodipodi:rx="22.945894"
           sodipodi:ry="23.347855"
           sodipodi:start="5.6147128"
           sodipodi:end="5.6012455"
           sodipodi:open="true"
           sodipodi:arc-type="arc"
           d="m 849.88559,1237.9381 a 22.945894,23.347855 0 0 1 -3.7251,32.7446 22.945894,23.347855 0 0 1 -32.1932,-3.6801 22.945894,23.347855 0 0 1 3.50832,-32.7694 22.945894,23.347855 0 0 1 32.21683,3.4595" />
        <path
           style="fill:#90dcaf;fill-opacity:1;fill-rule:evenodd;stroke:#24365b;stroke-width:3.48459;stroke-linecap:round;stroke-linejoin:bevel;stroke-dasharray:none;stroke-dashoffset:107.717;stroke-opacity:1"
           id="path158-0"
           sodipodi:type="arc"
           sodipodi:cx="766.95721"
           sodipodi:cy="1308.7367"
           sodipodi:rx="21.484634"
           sodipodi:ry="20.324385"
           sodipodi:start="5.6147128"
           sodipodi:end="5.6012455"
           sodipodi:open="true"
           sodipodi:arc-type="arc"
           d="m 783.8177,1296.1399 a 21.484634,20.324385 0 0 1 -3.48788,28.5042 21.484634,20.324385 0 0 1 -30.14304,-3.2035 21.484634,20.324385 0 0 1 3.2849,-28.5258 21.484634,20.324385 0 0 1 30.16516,3.0114" />
        <path
           style="fill:#90dcaf;fill-opacity:1;fill-rule:evenodd;stroke:#24365b;stroke-width:3.48459;stroke-linecap:round;stroke-linejoin:bevel;stroke-dasharray:none;stroke-dashoffset:107.717;stroke-opacity:1"
           id="path159-3"
           sodipodi:type="arc"
           sodipodi:cx="788.56213"
           sodipodi:cy="1341.4069"
           sodipodi:rx="6.7901239"
           sodipodi:ry="6.172842"
           sodipodi:start="5.6147128"
           sodipodi:end="5.6012455"
           sodipodi:open="true"
           sodipodi:arc-type="arc"
           d="m 793.89081,1337.581 a 6.7901239,6.172842 0 0 1 -1.10232,8.6572 6.7901239,6.172842 0 0 1 -9.52658,-0.973 6.7901239,6.172842 0 0 1 1.03818,-8.6637 6.7901239,6.172842 0 0 1 9.53357,0.9146" />
        <path
           style="fill:#90dcaf;fill-opacity:1;fill-rule:evenodd;stroke:#24365b;stroke-width:3.48459;stroke-linecap:round;stroke-linejoin:bevel;stroke-dasharray:none;stroke-dashoffset:107.717;stroke-opacity:1"
           id="path161-0"
           sodipodi:type="arc"
           sodipodi:cx="749.70074"
           sodipodi:cy="1279.334"
           sodipodi:rx="9.8490601"
           sodipodi:ry="8.8041325"
           sodipodi:start="5.6147128"
           sodipodi:end="5.6012455"
           sodipodi:open="true"
           sodipodi:arc-type="arc"
           d="m 757.42998,1273.8773 a 9.8490601,8.8041325 0 0 1 -1.59892,12.3475 9.8490601,8.8041325 0 0 1 -13.81828,-1.3877 9.8490601,8.8041325 0 0 1 1.50588,-12.3569 9.8490601,8.8041325 0 0 1 13.82842,1.3045" />
        <path
           style="fill:#90dcaf;fill-opacity:1;fill-rule:evenodd;stroke:#24365b;stroke-width:3.48459;stroke-linecap:round;stroke-linejoin:bevel;stroke-dasharray:none;stroke-dashoffset:107.717;stroke-opacity:1"
           id="path162-9"
           sodipodi:type="arc"
           sodipodi:cx="899.78766"
           sodipodi:cy="1319.8549"
           sodipodi:rx="7.9103174"
           sodipodi:ry="7.9716935"
           sodipodi:start="5.6147128"
           sodipodi:end="5.6012455"
           sodipodi:open="true"
           sodipodi:arc-type="arc"
           d="m 905.99543,1314.9141 a 7.9103174,7.9716935 0 0 1 -1.28418,11.18 7.9103174,7.9716935 0 0 1 -11.09821,-1.2565 7.9103174,7.9716935 0 0 1 1.20945,-11.1885 7.9103174,7.9716935 0 0 1 11.10636,1.1812" />
        <path
           style="fill:#90dcaf;fill-opacity:1;fill-rule:evenodd;stroke:#24365b;stroke-width:3.48459;stroke-linecap:round;stroke-linejoin:bevel;stroke-dasharray:none;stroke-dashoffset:107.717;stroke-opacity:1"
           id="path163-2"
           sodipodi:type="arc"
           sodipodi:cx="845.77277"
           sodipodi:cy="1343.0088"
           sodipodi:rx="6.40591"
           sodipodi:ry="6.2424202"
           sodipodi:start="5.6147128"
           sodipodi:end="5.6012455"
           sodipodi:open="true"
           sodipodi:arc-type="arc"
           d="m 850.79993,1339.1398 a 6.40591,6.2424202 0 0 1 -1.03995,8.7548 6.40591,6.2424202 0 0 1 -8.98753,-0.9839 6.40591,6.2424202 0 0 1 0.97944,-8.7614 6.40591,6.2424202 0 0 1 8.99411,0.9249" />
        <path
           style="fill:#90dcaf;fill-opacity:1;fill-rule:evenodd;stroke:#24365b;stroke-width:3.48459;stroke-linecap:round;stroke-linejoin:bevel;stroke-dasharray:none;stroke-dashoffset:107.717;stroke-opacity:1"
           id="path164-5"
           sodipodi:type="arc"
           sodipodi:cx="842.65393"
           sodipodi:cy="1281.5303"
           sodipodi:rx="4.5501785"
           sodipodi:ry="4.3209896"
           sodipodi:start="5.6147128"
           sodipodi:end="5.6012455"
           sodipodi:open="true"
           sodipodi:arc-type="arc"
           d="m 846.22477,1278.8522 a 4.5501785,4.3209896 0 0 1 -0.73869,6.06 4.5501785,4.3209896 0 0 1 -6.38392,-0.6811 4.5501785,4.3209896 0 0 1 0.6957,-6.0646 4.5501785,4.3209896 0 0 1 6.38861,0.6403" />
        <path
           style="fill:#90dcaf;fill-opacity:1;fill-rule:evenodd;stroke:#24365b;stroke-width:3.48459;stroke-linecap:round;stroke-linejoin:bevel;stroke-dasharray:none;stroke-dashoffset:107.717;stroke-opacity:1"
           id="path166-4"
           sodipodi:type="arc"
           sodipodi:cx="799.67328"
           sodipodi:cy="1234.6166"
           sodipodi:rx="9.2592602"
           sodipodi:ry="9.259264"
           sodipodi:start="5.6147128"
           sodipodi:end="5.6012455"
           sodipodi:open="true"
           sodipodi:arc-type="arc"
           d="m 806.93966,1228.8778 a 9.2592602,9.259264 0 0 1 -1.50317,12.9858 9.2592602,9.259264 0 0 1 -12.99079,-1.4594 9.2592602,9.259264 0 0 1 1.4157,-12.9957 9.2592602,9.259264 0 0 1 13.00032,1.372" />
        <path
           style="fill:#90dcaf;fill-opacity:1;fill-rule:evenodd;stroke:#24365b;stroke-width:3.48459;stroke-linecap:round;stroke-linejoin:bevel;stroke-dasharray:none;stroke-dashoffset:107.717;stroke-opacity:1"
           id="path167-0"
           sodipodi:type="arc"
           sodipodi:cx="761.40161"
           sodipodi:cy="1231.5302"
           sodipodi:rx="9.2592602"
           sodipodi:ry="8.6419792"
           sodipodi:start="5.6147128"
           sodipodi:end="5.6012455"
           sodipodi:open="true"
           sodipodi:arc-type="arc"
           d="m 768.66799,1226.174 a 9.2592602,8.6419792 0 0 1 -1.50317,12.12 9.2592602,8.6419792 0 0 1 -12.99078,-1.3621 9.2592602,8.6419792 0 0 1 1.41569,-12.1293 9.2592602,8.6419792 0 0 1 13.00032,1.2805" />
        <path
           style="fill:#90dcaf;fill-opacity:1;fill-rule:evenodd;stroke:#24365b;stroke-width:3.48459;stroke-linecap:round;stroke-linejoin:bevel;stroke-dasharray:none;stroke-dashoffset:107.717;stroke-opacity:1"
           id="path168-5"
           sodipodi:type="arc"
           sodipodi:cx="877.23303"
           sodipodi:cy="1245.5934"
           sodipodi:rx="16.448698"
           sodipodi:ry="15.24787"
           sodipodi:start="5.6147128"
           sodipodi:end="5.6012455"
           sodipodi:open="true"
           sodipodi:arc-type="arc"
           d="m 890.14147,1236.1429 a 16.448698,15.24787 0 0 1 -2.67033,21.3847 16.448698,15.24787 0 0 1 -23.0776,-2.4034 16.448698,15.24787 0 0 1 2.51493,-21.4008 16.448698,15.24787 0 0 1 23.09453,2.2592" />
        <path
           style="fill:#90dcaf;fill-opacity:1;fill-rule:evenodd;stroke:#24365b;stroke-width:3.48459;stroke-linecap:round;stroke-linejoin:bevel;stroke-dasharray:none;stroke-dashoffset:107.717;stroke-opacity:1"
           id="path169-9"
           sodipodi:type="arc"
           sodipodi:cx="874.36462"
           sodipodi:cy="1332.1475"
           sodipodi:rx="13.580248"
           sodipodi:ry="12.962968"
           sodipodi:start="5.6147128"
           sodipodi:end="5.6012455"
           sodipodi:open="true"
           sodipodi:arc-type="arc"
           d="m 885.02199,1324.1132 a 13.580248,12.962968 0 0 1 -2.20466,18.1801 13.580248,12.962968 0 0 1 -19.05315,-2.0432 13.580248,12.962968 0 0 1 2.07636,-18.1939 13.580248,12.962968 0 0 1 19.06713,1.9207" />
        <path
           style="fill:#90dcaf;fill-opacity:1;fill-rule:evenodd;stroke:#24365b;stroke-width:3.48459;stroke-linecap:round;stroke-linejoin:bevel;stroke-dasharray:none;stroke-dashoffset:107.717;stroke-opacity:1"
           id="path170-4"
           sodipodi:type="arc"
           sodipodi:cx="819.27509"
           sodipodi:cy="1315.9874"
           sodipodi:rx="28.330345"
           sodipodi:ry="27.021286"
           sodipodi:start="5.6147128"
           sodipodi:end="5.6012455"
           sodipodi:open="true"
           sodipodi:arc-type="arc"
           d="m 841.50787,1299.24 a 28.330345,27.021286 0 0 1 -4.59922,37.8964 28.330345,27.021286 0 0 1 -39.74761,-4.2591 28.330345,27.021286 0 0 1 4.33158,-37.9251 28.330345,27.021286 0 0 1 39.77677,4.0037" />
        <path
           style="fill:#90dcaf;fill-opacity:1;fill-rule:evenodd;stroke:#24365b;stroke-width:3.48459;stroke-linecap:round;stroke-linejoin:bevel;stroke-dasharray:none;stroke-dashoffset:107.717;stroke-opacity:1"
           id="path171-6"
           sodipodi:type="arc"
           sodipodi:cx="810.76581"
           sodipodi:cy="1279.6783"
           sodipodi:rx="8.6163998"
           sodipodi:ry="7.4074106"
           sodipodi:start="5.6147128"
           sodipodi:end="5.6012455"
           sodipodi:open="true"
           sodipodi:arc-type="arc"
           d="m 817.52769,1275.0873 a 8.6163998,7.4074106 0 0 1 -1.39881,10.3887 8.6163998,7.4074106 0 0 1 -12.08884,-1.1676 8.6163998,7.4074106 0 0 1 1.3174,-10.3965 8.6163998,7.4074106 0 0 1 12.09772,1.0976" />
        <path
           style="fill:#90dcaf;fill-opacity:1;fill-rule:evenodd;stroke:#24365b;stroke-width:3.48459;stroke-linecap:round;stroke-linejoin:bevel;stroke-dasharray:none;stroke-dashoffset:107.717;stroke-opacity:1"
           id="path172-9"
           sodipodi:type="arc"
           sodipodi:cx="781.15466"
           sodipodi:cy="1265.4807"
           sodipodi:rx="21.60494"
           sodipodi:ry="20.370378"
           sodipodi:start="5.6147128"
           sodipodi:end="5.6012455"
           sodipodi:open="true"
           sodipodi:arc-type="arc"
           d="m 798.10956,1252.8554 a 21.60494,20.370378 0 0 1 -3.50741,28.5688 21.60494,20.370378 0 0 1 -30.31183,-3.2108 21.60494,20.370378 0 0 1 3.30329,-28.5904 21.60494,20.370378 0 0 1 30.33408,3.0183" />
      </g>
      <g
         id="g5-8-2"
         style="stroke:#24365b;stroke-width:2.82251;stroke-dasharray:none;stroke-opacity:1"
         transform="matrix(0.531441,0,0,0.531441,800.31423,507.24996)"
         inkscape:label="Enterocyte Squished 5">
        <path
           id="path133-27-1-8-2"
           style="font-variation-settings:normal;fill:#5c7bbe;fill-opacity:1;stroke:#24365b;stroke-width:6.96917;stroke-linecap:butt;stroke-linejoin:bevel;stroke-miterlimit:4;stroke-dasharray:none;stroke-dashoffset:0;stroke-opacity:1;stop-color:#000000"
           inkscape:path-effect="#path-effect133-8-1-3-3"
           inkscape:original-d="m 1040.2168,1280.0005 c 0,113.3334 0,226.6671 0,340.0002 -0.05,10.3206 -0.101,20.641 -0.1515,30.9617 -13.0043,6.0793 -26.0081,12.1584 -39.0122,18.2376 -76.45804,36.5113 -152.91528,73.0223 -229.37291,109.5334 -23.77121,-14.9211 -47.54205,-29.842 -71.31364,-44.7634 -6.24973,-47.9764 -12.49926,-95.9511 -18.7489,-143.9268 12.86988,-33.6186 25.73963,-67.2368 38.60958,-100.8556 2.61435,-24.2206 5.22865,-48.4409 7.84298,-72.6613 -0.61669,-21.3862 -1.23337,-42.7719 -1.85006,-64.1584 0.2189,-22.7074 0.43779,-45.4137 0.6567,-68.1213 11.04133,-1.4153 22.08219,-2.8307 33.12324,-4.246 0,-6.6668 0,-13.3334 0,-20.0001 0,-20.0004 0,-40 0,-60 0,-6.6668 0,-13.3333 0,-20 0,-6.6668 0,-13.3333 0,-20 6.6668,-5.6446 13.3332,-11.2888 20,-16.9333 6.6668,5.6445 13.33334,11.2889 20.00001,16.9333 0,6.6668 0,13.3333 0,20 0,26.6672 0,53.3334 0,80 0,6.6668 0,13.3334 0,20.0001 6.6668,0 13.33333,0 20,0 6.6668,0 13.33333,0 20,0 0,-6.6668 0,-13.3334 0,-20.0001 0,-20.0004 0,-40 0,-60 0,-6.6668 0,-13.3333 0,-20 6.6668,-5.6446 13.3332,-11.2888 20,-16.9333 6.6668,5.6445 13.33334,11.2889 20,16.9333 0,6.6668 0,13.3334 0,20 0,20.0004 0,40 0,60 0,6.6668 0,13.3334 0,20.0001 6.66681,0 13.33334,0 20.00001,0 6.6668,0 13.33333,0 20,0 0,-6.6668 0,-13.3334 0,-20.0001 0,-26.6672 0,-53.3333 0,-80 0,-6.6668 0,-13.3333 0,-20 6.6668,-5.6446 13.3332,-11.2888 20,-16.9333 6.6668,5.6445 13.33334,11.2889 20,16.9333 0,6.6668 0,13.3333 0,20 0,26.6672 0,53.3334 0,80 0,6.6668 0,13.3334 0,20.0001 6.66681,0 13.33334,0 20.00001,0 6.6668,0 13.33333,0 19.99998,0 0,-6.6668 0,-13.3334 0,-20.0001 0,-6.6668 0,-13.3333 0,-20 0,-6.6668 0,-13.3333 0,-20 6.6668,-5.6446 13.3332,-11.2888 20,-16.9333 6.6668,5.6445 13.3334,11.2889 20,16.9333 0,6.6668 0,13.3334 0,20 0.072,13.3336 0.1445,26.6667 0.2167,40 z"
           d="m 1040.1807,1330.0006 c 0.036,63.3333 0.036,176.667 0.011,238.4938 -0.025,61.8269 -0.076,72.1473 -6.6031,80.3473 -6.5274,8.2 -19.5312,14.2791 -64.26227,35.5744 -44.73106,21.2952 -121.18832,57.8062 -171.30273,68.6012 -50.11441,10.795 -73.88525,-4.1259 -88.89592,-35.5748 -15.01067,-31.4489 -21.26018,-79.4236 -17.95006,-120.2207 3.31011,-40.7972 16.17985,-74.4154 23.922,-103.3351 7.74215,-28.9197 10.35647,-53.14 11.35528,-75.9433 0.99882,-22.8033 0.38215,-44.189 0.18325,-66.236 -0.1989,-22.0469 0.02,-44.7532 5.65011,-56.8147 5.63011,-12.0615 16.67098,-13.4768 22.19151,-17.5178 5.52052,-4.0411 5.52052,-10.7077 5.52052,-24.0412 0,-13.3336 0,-33.3332 0,-46.6666 0,-13.3334 0,-19.9999 0,-26.6666 0,-6.6668 0,-13.3333 3.33341,-19.4889 3.33342,-6.1557 9.99981,-11.7999 16.66659,-11.7999 6.66678,0 13.33336,5.6444 16.66668,11.8 3.33333,6.1556 3.33333,12.8221 3.33333,29.4891 0,16.6669 0,43.3331 0,59.9998 0,16.6667 0,23.3333 3.3334,26.6667 3.3334,3.3333 9.99993,3.3333 16.66667,3.3333 6.66673,0 13.33326,0 16.6666,-3.3334 3.33333,-3.3334 3.33333,-10 3.33333,-23.3335 0,-13.3336 0,-33.3332 0,-46.6666 0,-13.3334 0,-19.9999 3.33341,-26.1555 3.33342,-6.1557 9.99981,-11.7999 16.66659,-11.7999 6.66678,0 13.33335,5.6444 16.66668,11.8 3.33332,6.1556 3.33332,12.8222 3.33332,26.1557 0,13.3335 0,33.3331 0,46.6665 0,13.3334 0,20 3.33341,23.3334 3.3334,3.3333 9.99993,3.3333 16.66667,3.3333 6.66673,0 13.33326,0 16.6666,-3.3334 3.33333,-3.3334 3.33333,-10 3.33333,-26.667 0,-16.6669 0,-43.333 0,-59.9997 0,-16.6668 0,-23.3333 3.33341,-29.4889 3.33342,-6.1557 9.99981,-11.7999 16.66659,-11.7999 6.66678,0 13.33335,5.6444 16.66668,11.8 3.33332,6.1556 3.33332,12.8221 3.33332,29.4891 0,16.6669 0,43.3331 0,59.9998 0,16.6667 0,23.3333 3.33341,26.6667 3.3334,3.3333 9.99993,3.3333 16.66667,3.3333 6.66673,0 13.33326,0 16.66659,-3.3334 3.33332,-3.3334 3.33332,-10 3.33332,-16.6667 0,-6.6668 0,-13.3333 0,-20 0,-6.6668 0,-13.3333 3.3334,-19.4889 3.3334,-6.1557 9.9998,-11.7999 16.6666,-11.7999 6.6668,0 13.3334,5.6444 16.6667,11.8 3.3333,6.1556 3.3333,12.8222 3.3694,22.8223 0.036,10.0001 0.1084,23.3332 0.1445,86.6666 z"
           transform="matrix(-0.405,0,0,0.405,1050.4797,504.63634)"
           sodipodi:nodetypes="ccccccccccscssscccsscscsscccsscscsscccsscscssccccc" />
        <path
           style="fill:#38b26b;fill-opacity:1;fill-rule:evenodd;stroke:#24365b;stroke-width:2.52386;stroke-linecap:round;stroke-linejoin:bevel;stroke-dasharray:none;stroke-dashoffset:107.717;stroke-opacity:1"
           id="path134-2-5-5-4"
           sodipodi:type="arc"
           sodipodi:cx="-1136.9845"
           sodipodi:cy="-683.33118"
           sodipodi:rx="21.572096"
           sodipodi:ry="24.164251"
           sodipodi:start="5.6147128"
           sodipodi:end="5.6012455"
           sodipodi:open="true"
           sodipodi:arc-type="arc"
           d="m -1120.0554,-698.30789 a 21.572096,24.164251 0 0 1 -3.502,33.88954 21.572096,24.164251 0 0 1 -30.2658,-3.80876 21.572096,24.164251 0 0 1 3.2983,-33.91519 21.572096,24.164251 0 0 1 30.2879,3.58039"
           transform="matrix(0,-1,-1,0,0,0)" />
        <path
           id="path133-27-1-8-2-0"
           style="font-variation-settings:normal;fill:#5c7bbe;fill-opacity:1;stroke:#24365b;stroke-width:6.96917;stroke-linecap:butt;stroke-linejoin:bevel;stroke-miterlimit:4;stroke-dasharray:none;stroke-dashoffset:0;stroke-opacity:1;stop-color:#000000"
           inkscape:path-effect="#path-effect133-8-1-3-3-7"
           inkscape:original-d="m 1040.2168,1280.0005 c 0,113.3334 0,226.6671 0,340.0002 -0.05,10.3206 -0.101,20.641 -0.1515,30.9617 -13.0043,6.0793 -26.0081,12.1584 -39.0122,18.2376 -76.45804,36.5113 -152.91528,73.0223 -229.37291,109.5334 -23.77121,-14.9211 -47.54205,-29.842 -71.31364,-44.7634 -6.24973,-47.9764 -12.49926,-95.9511 -18.7489,-143.9268 12.86988,-33.6186 25.73963,-67.2368 38.60958,-100.8556 2.61435,-24.2206 5.22865,-48.4409 7.84298,-72.6613 -0.61669,-21.3862 -1.23337,-42.7719 -1.85006,-64.1584 0.2189,-22.7074 0.43779,-45.4137 0.6567,-68.1213 11.04133,-1.4153 22.08219,-2.8307 33.12324,-4.246 0,-6.6668 0,-13.3334 0,-20.0001 0,-20.0004 0,-40 0,-60 0,-6.6668 0,-13.3333 0,-20 0,-6.6668 0,-13.3333 0,-20 6.6668,-5.6446 13.3332,-11.2888 20,-16.9333 6.6668,5.6445 13.33334,11.2889 20.00001,16.9333 0,6.6668 0,13.3333 0,20 0,26.6672 0,53.3334 0,80 0,6.6668 0,13.3334 0,20.0001 6.6668,0 13.33333,0 20,0 6.6668,0 13.33333,0 20,0 0,-6.6668 0,-13.3334 0,-20.0001 0,-20.0004 0,-40 0,-60 0,-6.6668 0,-13.3333 0,-20 6.6668,-5.6446 13.3332,-11.2888 20,-16.9333 6.6668,5.6445 13.33334,11.2889 20,16.9333 0,6.6668 0,13.3334 0,20 0,20.0004 0,40 0,60 0,6.6668 0,13.3334 0,20.0001 6.66681,0 13.33334,0 20.00001,0 6.6668,0 13.33333,0 20,0 0,-6.6668 0,-13.3334 0,-20.0001 0,-26.6672 0,-53.3333 0,-80 0,-6.6668 0,-13.3333 0,-20 6.6668,-5.6446 13.3332,-11.2888 20,-16.9333 6.6668,5.6445 13.33334,11.2889 20,16.9333 0,6.6668 0,13.3333 0,20 0,26.6672 0,53.3334 0,80 0,6.6668 0,13.3334 0,20.0001 6.66681,0 13.33334,0 20.00001,0 6.6668,0 13.33333,0 19.99998,0 0,-6.6668 0,-13.3334 0,-20.0001 0,-6.6668 0,-13.3333 0,-20 0,-6.6668 0,-13.3333 0,-20 6.6668,-5.6446 13.3332,-11.2888 20,-16.9333 6.6668,5.6445 13.3334,11.2889 20,16.9333 0,6.6668 0,13.3334 0,20 0.072,13.3336 0.1445,26.6667 0.2167,40 z"
           d="m 1040.1807,1330.0006 c 0.036,63.3333 0.036,176.667 0.011,238.4938 -0.025,61.8269 -0.076,72.1473 -6.6031,80.3473 -6.5274,8.2 -19.5312,14.2791 -64.26227,35.5744 -44.73106,21.2952 -121.18832,57.8062 -171.30273,68.6012 -50.11441,10.795 -73.88525,-4.1259 -88.89592,-35.5748 -15.01067,-31.4489 -21.26018,-79.4236 -17.95006,-120.2207 3.31011,-40.7972 16.17985,-74.4154 23.922,-103.3351 7.74215,-28.9197 10.35647,-53.14 11.35528,-75.9433 0.99882,-22.8033 0.38215,-44.189 0.18325,-66.236 -0.1989,-22.0469 0.02,-44.7532 5.65011,-56.8147 5.63011,-12.0615 16.67098,-13.4768 22.19151,-17.5178 5.52052,-4.0411 5.52052,-10.7077 5.52052,-24.0412 0,-13.3336 0,-33.3332 0,-46.6666 0,-13.3334 0,-19.9999 0,-26.6666 0,-6.6668 0,-13.3333 3.33341,-19.4889 3.33342,-6.1557 9.99981,-11.7999 16.66659,-11.7999 6.66678,0 13.33336,5.6444 16.66668,11.8 3.33333,6.1556 3.33333,12.8221 3.33333,29.4891 0,16.6669 0,43.3331 0,59.9998 0,16.6667 0,23.3333 3.3334,26.6667 3.3334,3.3333 9.99993,3.3333 16.66667,3.3333 6.66673,0 13.33326,0 16.6666,-3.3334 3.33333,-3.3334 3.33333,-10 3.33333,-23.3335 0,-13.3336 0,-33.3332 0,-46.6666 0,-13.3334 0,-19.9999 3.33341,-26.1555 3.33342,-6.1557 9.99981,-11.7999 16.66659,-11.7999 6.66678,0 13.33335,5.6444 16.66668,11.8 3.33332,6.1556 3.33332,12.8222 3.33332,26.1557 0,13.3335 0,33.3331 0,46.6665 0,13.3334 0,20 3.33341,23.3334 3.3334,3.3333 9.99993,3.3333 16.66667,3.3333 6.66673,0 13.33326,0 16.6666,-3.3334 3.33333,-3.3334 3.33333,-10 3.33333,-26.667 0,-16.6669 0,-43.333 0,-59.9997 0,-16.6668 0,-23.3333 3.33341,-29.4889 3.33342,-6.1557 9.99981,-11.7999 16.66659,-11.7999 6.66678,0 13.33335,5.6444 16.66668,11.8 3.33332,6.1556 3.33332,12.8221 3.33332,29.4891 0,16.6669 0,43.3331 0,59.9998 0,16.6667 0,23.3333 3.33341,26.6667 3.3334,3.3333 9.99993,3.3333 16.66667,3.3333 6.66673,0 13.33326,0 16.66659,-3.3334 3.33332,-3.3334 3.33332,-10 3.33332,-16.6667 0,-6.6668 0,-13.3333 0,-20 0,-6.6668 0,-13.3333 3.3334,-19.4889 3.3334,-6.1557 9.9998,-11.7999 16.6666,-11.7999 6.6668,0 13.3334,5.6444 16.6667,11.8 3.3333,6.1556 3.3333,12.8222 3.3694,22.8223 0.036,10.0001 0.1084,23.3332 0.1445,86.6666 z"
           transform="matrix(0.405,0,0,0.405,615.13389,501.95691)"
           sodipodi:nodetypes="ccccccccccscssscccsscscsscccsscscsscccsscscssccccc" />
        <path
           style="fill:#38b26b;fill-opacity:1;fill-rule:evenodd;stroke:#24365b;stroke-width:2.52386;stroke-linecap:round;stroke-linejoin:bevel;stroke-dasharray:none;stroke-dashoffset:107.717;stroke-opacity:1"
           id="path134-2-5-5-4-1"
           sodipodi:type="arc"
           sodipodi:cx="-1134.3051"
           sodipodi:cy="982.28241"
           sodipodi:rx="21.572096"
           sodipodi:ry="24.164251"
           sodipodi:start="5.6147128"
           sodipodi:end="5.6012455"
           sodipodi:open="true"
           sodipodi:arc-type="arc"
           d="m -1117.3759,967.3057 a 21.572096,24.164251 0 0 1 -3.5021,33.8895 21.572096,24.164251 0 0 1 -30.2658,-3.80873 21.572096,24.164251 0 0 1 3.2983,-33.91519 21.572096,24.164251 0 0 1 30.288,3.5804"
           transform="rotate(-90)" />
      </g>
    </g>
  </g>
</svg>
