<?xml version="1.0" encoding="UTF-8" standalone="no"?>
<!-- Created with Inkscape (http://www.inkscape.org/) -->

<svg
   width="81.166428mm"
   height="76.68766mm"
   viewBox="0 0 81.166428 76.68766"
   version="1.1"
   id="svg1"
   xmlns="http://www.w3.org/2000/svg"
   xmlns:svg="http://www.w3.org/2000/svg">
  <defs
     id="defs1" />
  <g
     id="layer1"
     transform="translate(-68.483254,-119.8346)">
    <g
       id="g241"
       transform="matrix(0.59049,0,0,0.59049,-1032.8112,-536.17356)"
       style="stroke-width:1.69351;stroke-dasharray:none">
      <path
         style="fill:#a6b7db;fill-opacity:1;fill-rule:evenodd;stroke:#24365b;stroke-width:1.69351;stroke-linejoin:round;stroke-dasharray:none;stroke-opacity:1"
         d="m 1926.0922,1202.1219 c -6.3616,0.073 -12.9889,1.0034 -20.3763,3.5665 -7.3874,2.5631 -15.5346,6.7585 -22.8885,13.1738 -7.3539,6.4152 -13.914,15.0498 -18.0175,23.438 -4.1035,8.3882 -5.7502,16.5296 -5.901,23.4522 -0.1508,6.9226 1.1943,12.6259 3.1752,18.6356 1.9809,6.0096 4.5973,12.325 10.1668,16.5123 5.5696,4.1873 14.0919,6.2462 21.7602,10.874 7.6683,4.6277 14.4819,11.824 22.0263,15.4928 7.5443,3.6689 15.8185,3.8101 25.6246,1.4847 9.8061,-2.3254 21.1429,-7.117 27.9129,-12.6762 6.7699,-5.5593 8.9722,-11.8856 12.4251,-18.2355 3.4529,-6.3499 8.1561,-12.7228 10.5077,-19.8337 2.3516,-7.1109 2.3516,-12.7937 1.9589,-17.4904 -0.3928,-4.6966 -1.1782,-8.4066 -2.6268,-12.614 -1.4487,-4.2073 -3.5603,-8.9114 -5.2897,-12.2548 -1.7293,-3.3435 -3.0761,-5.326 -6.816,-9.0814 -3.7399,-3.7554 -9.8726,-9.2834 -16.1196,-13.4036 -6.247,-4.1201 -12.6079,-6.8321 -18.8364,-8.5804 -6.2285,-1.7483 -12.3243,-2.5328 -18.6859,-2.4599 z"
         id="path238"
         transform="translate(7.0011594,-90.314956)" />
      <ellipse
         style="fill:#90dcaf;fill-opacity:1;fill-rule:evenodd;stroke:#24365b;stroke-width:1.18546;stroke-linejoin:round;stroke-dasharray:none;stroke-opacity:1"
         id="path239"
         cx="1966.7806"
         cy="1211.1772"
         rx="7.2350693"
         ry="6.9427438" />
      <ellipse
         style="fill:#90dcaf;fill-opacity:1;fill-rule:evenodd;stroke:#24365b;stroke-width:1.18546;stroke-linejoin:round;stroke-dasharray:none;stroke-opacity:1"
         id="path239-9"
         cx="1926.5812"
         cy="1215.0275"
         rx="7.2350693"
         ry="6.9427438" />
      <ellipse
         style="fill:#90dcaf;fill-opacity:1;fill-rule:evenodd;stroke:#24365b;stroke-width:1.18546;stroke-linejoin:round;stroke-dasharray:none;stroke-opacity:1"
         id="path239-4"
         cx="1914.3281"
         cy="1173.2092"
         rx="7.2350693"
         ry="6.9427438" />
      <ellipse
         style="fill:#90dcaf;fill-opacity:1;fill-rule:evenodd;stroke:#24365b;stroke-width:1.18546;stroke-linejoin:round;stroke-dasharray:none;stroke-opacity:1"
         id="path240"
         cx="1930.8353"
         cy="1189.6346"
         rx="3.4713719"
         ry="3.2155864" />
      <ellipse
         style="fill:#90dcaf;fill-opacity:1;fill-rule:evenodd;stroke:#24365b;stroke-width:1.18546;stroke-linejoin:round;stroke-dasharray:none;stroke-opacity:1"
         id="path240-9"
         cx="1959.6738"
         cy="1171.1183"
         rx="3.4713719"
         ry="3.2155864" />
      <ellipse
         style="fill:#90dcaf;fill-opacity:1;fill-rule:evenodd;stroke:#24365b;stroke-width:1.18546;stroke-linejoin:round;stroke-dasharray:none;stroke-opacity:1"
         id="path240-89"
         cx="1969.5588"
         cy="1136.8423"
         rx="3.4713719"
         ry="3.2155864" />
      <ellipse
         style="fill:#90dcaf;fill-opacity:1;fill-rule:evenodd;stroke:#24365b;stroke-width:1.18546;stroke-linejoin:round;stroke-dasharray:none;stroke-opacity:1"
         id="path240-4"
         cx="1888.3907"
         cy="1141.6422"
         rx="3.4713719"
         ry="3.2155864" />
      <ellipse
         style="fill:#90dcaf;fill-opacity:1;fill-rule:evenodd;stroke:#24365b;stroke-width:1.18546;stroke-linejoin:round;stroke-dasharray:none;stroke-opacity:1"
         id="path240-90"
         cx="1946.7357"
         cy="1196.4492"
         rx="3.4713719"
         ry="3.2155864" />
      <ellipse
         style="fill:#90dcaf;fill-opacity:1;fill-rule:evenodd;stroke:#24365b;stroke-width:1.18546;stroke-linejoin:round;stroke-dasharray:none;stroke-opacity:1"
         id="path240-906"
         cx="1931.6167"
         cy="1230.791"
         rx="3.4713719"
         ry="3.2155864" />
      <ellipse
         style="fill:#90dcaf;fill-opacity:1;fill-rule:evenodd;stroke:#24365b;stroke-width:1.18546;stroke-linejoin:round;stroke-dasharray:none;stroke-opacity:1"
         id="path240-97"
         cx="1940.3802"
         cy="1171.8252"
         rx="3.4713719"
         ry="3.2155864" />
      <ellipse
         style="fill:#90dcaf;fill-opacity:1;fill-rule:evenodd;stroke:#24365b;stroke-width:1.18546;stroke-linejoin:round;stroke-dasharray:none;stroke-opacity:1"
         id="path240-99"
         cx="1982.449"
         cy="1203.4307"
         rx="3.4713719"
         ry="3.2155864" />
      <ellipse
         style="fill:#90dcaf;fill-opacity:1;fill-rule:evenodd;stroke:#24365b;stroke-width:1.18546;stroke-linejoin:round;stroke-dasharray:none;stroke-opacity:1"
         id="path240-99-9"
         cx="1994.3678"
         cy="1168.5026"
         rx="3.4713719"
         ry="3.2155864" />
      <ellipse
         style="fill:#90dcaf;fill-opacity:1;fill-rule:evenodd;stroke:#24365b;stroke-width:1.18546;stroke-linejoin:round;stroke-dasharray:none;stroke-opacity:1"
         id="path240-81"
         cx="1950.5997"
         cy="1226.412"
         rx="3.4713719"
         ry="3.2155864" />
      <ellipse
         style="fill:#90dcaf;fill-opacity:1;fill-rule:evenodd;stroke:#24365b;stroke-width:1.18546;stroke-linejoin:round;stroke-dasharray:none;stroke-opacity:1"
         id="path240-3"
         cx="1901.0287"
         cy="1212.4696"
         rx="3.4713719"
         ry="3.2155864" />
      <ellipse
         style="fill:#90dcaf;fill-opacity:1;fill-rule:evenodd;stroke:#24365b;stroke-width:1.18546;stroke-linejoin:round;stroke-dasharray:none;stroke-opacity:1"
         id="path240-7"
         cx="1944.2991"
         cy="1121.3833"
         rx="3.4713719"
         ry="3.2155864" />
      <ellipse
         style="fill:#90dcaf;fill-opacity:1;fill-rule:evenodd;stroke:#24365b;stroke-width:1.18546;stroke-linejoin:round;stroke-dasharray:none;stroke-opacity:1"
         id="path240-99-1"
         cx="1871.2909"
         cy="1175.8468"
         rx="3.4713719"
         ry="3.2155864" />
      <path
         style="fill:#38b26b;fill-opacity:1;fill-rule:evenodd;stroke:#24365b;stroke-width:1.35481;stroke-linejoin:round;stroke-dasharray:none;stroke-opacity:1"
         d="m 1893.7855,1243.0921 c 0.8283,-2.0706 2.1925,-5.3349 5.0914,-8.5018 2.899,-3.1669 7.3325,-6.2363 12.765,-7.4056 5.4324,-1.1693 11.8635,-0.4384 17.5395,0.1462 5.6761,0.5847 10.5968,1.0231 14.5919,1.4373 3.9952,0.4141 7.0645,0.8038 9.5006,2.972 2.4361,2.1681 4.2387,6.1144 4.2631,9.3787 0.024,3.2644 -1.7296,5.8466 -2.631,7.2352 -0.9013,1.3886 -0.95,1.5833 0.013,2.5791 0.9626,0.9959 2.9365,2.7926 6.0742,3.9463 3.1377,1.1538 7.4386,1.6644 11.4765,0.039 4.038,-1.6255 7.8118,-5.3869 11.1667,-4.0589 3.355,1.3281 6.2903,7.7454 6.7837,13.4879 0.4933,5.7425 -1.4554,10.8092 -4.4518,16.193 -2.9965,5.3838 -7.0402,11.0839 -11.888,13.6418 -4.8478,2.558 -10.4991,1.9734 -13.3006,-0.341 -2.8016,-2.3143 -2.7529,-6.358 -1.4862,-10.1095 1.2668,-3.7516 3.7514,-7.2106 6.4068,-10.5237 2.6554,-3.3132 5.481,-6.4798 5.8221,-8.8672 0.341,-2.3875 -1.8026,-3.9952 -4.5679,-4.4794 -2.7653,-0.4841 -6.1521,0.1553 -8.9418,-1.1084 -2.7896,-1.2638 -4.9821,-4.4306 -7.2232,-5.7947 -2.2412,-1.3642 -4.531,-0.9258 -7.2107,0.3654 -2.6797,1.2911 -5.7491,3.4348 -9.0622,4.531 -3.313,1.0962 -6.8696,1.145 -11.5712,0.7065 -4.7016,-0.4385 -10.548,-1.3642 -15.0547,-2.7041 -4.5068,-1.3398 -7.6736,-3.0938 -10.4263,-3.654 -2.7528,-0.5603 -5.0914,0.073 -6.7479,1.1206 -1.6565,1.0475 -2.6309,2.5091 -2.1924,4.4823 0.4385,1.9732 2.2899,4.458 4.0439,7.3082 1.7539,2.8502 3.4104,6.0657 3.3617,8.8185 -0.049,2.7527 -1.8028,5.0426 -2.2656,7.1863 -0.4628,2.1437 0.3655,4.1413 2.9477,6.5287 2.5823,2.3873 6.9183,5.1643 8.3556,8.0145 1.4373,2.8502 -0.024,5.7735 -2.9476,7.6492 -2.9233,1.8758 -7.3081,2.704 -11.961,2.2899 -4.653,-0.4142 -9.5737,-2.0707 -13.2521,-4.6042 -3.6785,-2.5335 -6.1145,-5.9439 -7.4786,-9.2813 -1.3642,-3.3374 -1.6566,-6.6017 -1.3399,-9.4032 0.3167,-2.8015 1.2424,-5.14 2.8259,-7.4055 1.5834,-2.2656 3.8245,-4.458 5.7977,-6.0658 1.9732,-1.6078 3.6784,-2.6309 4.9695,-3.6054 1.2912,-0.9744 2.1681,-1.9001 2.4361,-3.2886 0.268,-1.3886 -0.073,-3.24 0.049,-5.1157 0.1218,-1.8758 0.7065,-3.7759 1.5834,-5.067 0.877,-1.2911 2.0463,-1.9732 3.2157,-2.6797 1.1693,-0.7065 2.3385,-1.4372 3.0693,-2.2412 0.7309,-0.8039 1.0232,-1.6808 1.8514,-3.7515 z"
         id="path234"
         transform="translate(3.9481965,-99.060393)" />
      <ellipse
         style="fill:#90dcaf;fill-opacity:1;fill-rule:evenodd;stroke:#24365b;stroke-width:1.18546;stroke-linejoin:round;stroke-dasharray:none;stroke-opacity:1"
         id="path239-4-7"
         cx="1917.6232"
         cy="1127.5641"
         rx="7.2350693"
         ry="6.9427438" />
    </g>
  </g>
</svg>
