<?xml version="1.0" encoding="UTF-8" standalone="no"?>
<!-- Created with Inkscape (http://www.inkscape.org/) -->

<svg
   width="152.86304mm"
   height="126.00151mm"
   viewBox="0 0 152.86304 126.00151"
   version="1.1"
   id="svg1"
   inkscape:export-filename="Paneth_Cell_Sectionsvg"
   inkscape:export-xdpi="96"
   inkscape:export-ydpi="96"
   xmlns:inkscape="http://www.inkscape.org/namespaces/inkscape"
   xmlns:sodipodi="http://sodipodi.sourceforge.net/DTD/sodipodi-0.dtd"
   xmlns="http://www.w3.org/2000/svg"
   xmlns:svg="http://www.w3.org/2000/svg">
  <sodipodi:namedview
     id="namedview1"
     pagecolor="#ffffff"
     bordercolor="#000000"
     borderopacity="0.25"
     inkscape:showpageshadow="2"
     inkscape:pageopacity="0.0"
     inkscape:pagecheckerboard="0"
     inkscape:deskcolor="#d1d1d1"
     inkscape:document-units="mm">
    <inkscape:page
       x="0"
       y="-1.1193352e-13"
       width="152.86304"
       height="126.00152"
       id="page2"
       margin="0"
       bleed="0" />
  </sodipodi:namedview>
  <defs
     id="defs1">
    <inkscape:path-effect
       effect="bspline"
       id="path-effect133-7-9"
       is_visible="true"
       lpeversion="1.3"
       weight="33.333333"
       steps="2"
       helper_size="0"
       apply_no_weight="true"
       apply_with_weight="true"
       only_selected="false"
       uniform="false" />
    <inkscape:path-effect
       effect="bspline"
       id="path-effect133-8-9-6-4"
       is_visible="true"
       lpeversion="1.3"
       weight="33.333333"
       steps="2"
       helper_size="0"
       apply_no_weight="true"
       apply_with_weight="true"
       only_selected="false"
       uniform="false" />
  </defs>
  <g
     inkscape:label="Layer 1"
     inkscape:groupmode="layer"
     id="layer1"
     transform="translate(-24.262159,-88.644055)">
    <g
       id="g13"
       inkscape:label="Paneth Cell Section L"
       transform="translate(-1359.583,-725.35998)">
      <g
         id="g134-9-0"
         inkscape:label="Paneth Cell"
         style="stroke:#24365b;stroke-width:2.82251;stroke-dasharray:none;stroke-opacity:1"
         transform="matrix(0.531441,0,0,0.531441,1235.1824,91.028112)">
        <path
           id="path133-8-30"
           style="font-variation-settings:normal;opacity:1;fill:#5c7bbe;fill-opacity:1;stroke:#24365b;stroke-width:9.55991;stroke-linecap:butt;stroke-linejoin:bevel;stroke-miterlimit:4;stroke-dasharray:none;stroke-dashoffset:0;stroke-opacity:1;stop-color:#000000;stop-opacity:1"
           inkscape:path-effect="#path-effect133-7-9"
           inkscape:original-d="m 1040.2168,1144.5029 c 16.2453,91.6419 32.4906,183.2839 48.736,274.9261 6.3376,107.7218 12.6752,215.4435 19.0128,323.1648 -2.8222,10.1583 -5.6445,20.3167 -8.4667,30.475 -10.833,23.7552 -21.6659,47.5103 -32.4989,71.2655 -69.28576,8.603 -138.57145,17.2061 -207.85715,25.8091 -69.28572,-8.603 -138.57141,-17.2061 -207.8572,-25.8091 -10.36564,-24.108 -20.73123,-48.2158 -31.09691,-72.3238 -2.64584,-9.8056 -5.29165,-19.6111 -7.9375,-29.4167 5.70222,-106.2026 11.40439,-212.4041 17.10658,-318.6062 16.88075,-93.1616 33.76124,-186.3218 50.64224,-279.4847 1e-5,-18.6016 1e-5,-37.2022 2e-5,-55.804 6.66684,-5.6446 13.33324,-11.2888 20,-16.9333 6.66677,5.6445 13.33318,11.2887 20.00001,16.9333 0,11.935 0,23.8692 0,35.804 0,6.6668 0,13.3332 0,20.0001 6.6668,0 13.3332,0 20,0 6.6668,0 13.33323,0 20,0 0,-6.6668 0,-13.3333 0,-20.0001 0,-12.3636 0,-24.7266 0,-37.0904 6.66684,-5.6446 13.33324,-11.2888 20,-16.9333 6.66677,5.6445 13.33334,11.2889 20.00001,16.9333 0,12.3635 0,24.7269 0,37.0904 0,6.6668 0,13.3332 0,20.0001 6.6668,0 13.3332,0 20,0 6.6668,0 13.33323,0 20,0 0,-6.6668 0,-13.3333 0,-20.0001 0,-7.31 0,-14.6195 0,-21.9296 6.66684,-5.6446 13.33323,-11.2888 20,-16.9333 6.66677,5.6445 13.33317,11.2887 20,16.9333 0,7.3101 0,14.6196 0,21.9296 0,6.6668 0,13.3332 0,20.0001 6.66681,0 13.33321,0 20.00001,0 6.6668,0 13.33323,0 20,0 0,-6.6668 0,-13.3333 0,-20.0001 0,-15.0521 0,-30.1034 0,-45.1557 6.66684,-5.6446 13.33323,-11.2888 20,-16.9333 6.66677,5.6445 13.33317,11.2887 20,16.9333 0,15.0522 0,30.1036 0,45.1557 0,6.6668 0,13.3332 0,20.0001 6.66681,0 13.3332,0 20.00001,0 6.6668,0 13.33322,0 19.99998,0 0,-6.6668 0,-13.3333 0,-20.0001 0,-5.8058 0,-11.6112 0,-17.4171 6.6668,-5.6445 13.3332,-11.2887 20,-16.9333 6.6668,5.6446 13.3334,11.2889 20,16.9333 0.072,12.4723 0.1445,24.9447 0.2167,37.4171 z"
           d="m 1048.3033,1184.0876 c 8.1588,52.0572 24.4041,143.6992 35.6956,243.3812 11.2915,99.682 17.6291,207.4037 19.3868,266.3435 1.7577,58.9398 -1.0646,69.0982 -7.8922,86.055 -6.8276,16.9567 -17.6605,40.7118 -57.7199,56.8909 -40.05936,16.1791 -109.34505,24.7822 -178.63076,24.7822 -69.28571,0 -138.5714,-8.6031 -178.39713,-24.9586 -39.82572,-16.3555 -50.1913,-40.4633 -56.69706,-57.4201 -6.50575,-16.9568 -9.15157,-26.7623 -7.62338,-84.7664 1.52819,-58.0041 7.23035,-164.2056 18.52183,-263.8874 11.29147,-99.6819 28.17197,-192.8421 36.61247,-248.7243 8.4405,-55.8823 8.4405,-74.4829 11.77393,-86.6061 3.33343,-12.1232 9.99983,-17.7674 16.66658,-17.7674 6.66676,0 13.33316,5.6442 16.66659,14.434 3.33342,8.7898 3.33342,20.724 3.33342,30.0248 0,9.3008 0,15.9672 3.3334,19.3007 3.3334,3.3334 9.9998,3.3334 16.6666,3.3334 6.6668,0 13.33323,0 16.66661,-3.3334 3.33339,-3.3334 3.33339,-9.9999 3.33339,-19.5151 0,-9.5152 0,-21.8782 3.33342,-30.8824 3.33343,-9.0042 9.99983,-14.6484 16.66658,-14.6484 6.66676,0 13.33336,5.6444 16.66668,14.6483 3.33333,9.004 3.33333,21.3674 3.33333,30.8826 0,9.5151 0,16.1815 3.3334,19.515 3.3334,3.3334 9.9998,3.3334 16.6666,3.3334 6.6668,0 13.33323,0 16.66661,-3.3334 3.33339,-3.3334 3.33339,-9.9999 3.33339,-16.9883 0,-6.9884 0,-14.2979 3.33342,-20.7752 3.33343,-6.4774 9.99982,-12.1216 16.66658,-12.1216 6.66676,0 13.33316,5.6442 16.66658,12.1216 3.33342,6.4773 3.33342,13.7868 3.33342,20.7752 0,6.9884 0,13.6548 3.3334,16.9883 3.33341,3.3334 9.99981,3.3334 16.66661,3.3334 6.6668,0 13.33323,0 16.66661,-3.3334 3.33339,-3.3334 3.33339,-9.9999 3.33339,-20.8593 0,-10.8595 0,-25.9108 3.33342,-36.2592 3.33343,-10.3485 9.99982,-15.9927 16.66658,-15.9927 6.66676,0 13.33316,5.6442 16.66658,15.9926 3.33342,10.3484 3.33342,25.3998 3.33342,36.2593 0,10.8594 0,17.5258 3.3334,20.8593 3.33341,3.3334 9.9998,3.3334 16.6666,3.3334 6.66681,0 13.33323,0 16.66661,-3.3334 3.33338,-3.3334 3.33338,-9.9999 3.33338,-16.2362 0,-6.2363 0,-12.0417 3.3334,-17.7669 3.3334,-5.7252 9.9998,-11.3694 16.6666,-11.3694 6.6668,0 13.3334,5.6443 16.7028,14.7027 3.3694,9.0583 3.4417,21.5307 11.6004,73.5878 z"
           transform="matrix(0.295245,0,0,0.295245,240.04212,1046.4791)"
           sodipodi:nodetypes="ccccccccccscccscscscccscscscccscscscccscscscccc" />
        <path
           style="fill:#38b26b;fill-opacity:1;fill-rule:evenodd;stroke:#24365b;stroke-width:2.82251;stroke-linecap:round;stroke-linejoin:bevel;stroke-dasharray:none;stroke-dashoffset:107.717;stroke-opacity:1"
           id="path134-8-4"
           sodipodi:type="arc"
           sodipodi:cx="-1556.3427"
           sodipodi:cy="491.57449"
           sodipodi:rx="22.989876"
           sodipodi:ry="26.567385"
           sodipodi:start="5.6147128"
           sodipodi:end="5.6012455"
           sodipodi:open="true"
           sodipodi:arc-type="arc"
           d="m -1538.3009,475.10835 a 22.989876,26.567385 0 0 1 -3.7322,37.25985 22.989876,26.567385 0 0 1 -32.2549,-4.18754 22.989876,26.567385 0 0 1 3.515,-37.28806 22.989876,26.567385 0 0 1 32.2786,3.93647"
           transform="rotate(-90)" />
        <path
           style="fill:#90dcaf;fill-opacity:1;fill-rule:evenodd;stroke:#24365b;stroke-width:2.82251;stroke-linecap:round;stroke-linejoin:bevel;stroke-dasharray:none;stroke-dashoffset:107.717;stroke-opacity:1"
           id="path135-44"
           sodipodi:type="arc"
           sodipodi:cx="504.21201"
           sodipodi:cy="1515.4111"
           sodipodi:rx="7.4877558"
           sodipodi:ry="7.5639367"
           sodipodi:start="5.6147128"
           sodipodi:end="5.6012455"
           sodipodi:open="true"
           sodipodi:arc-type="arc"
           d="m 510.08817,1510.7231 a 7.4877558,7.5639367 0 0 1 -1.21559,10.6082 7.4877558,7.5639367 0 0 1 -10.50535,-1.1923 7.4877558,7.5639367 0 0 1 1.14484,-10.6162 7.4877558,7.5639367 0 0 1 10.51307,1.1208" />
        <path
           style="fill:#90dcaf;fill-opacity:1;fill-rule:evenodd;stroke:#24365b;stroke-width:2.82251;stroke-linecap:round;stroke-linejoin:bevel;stroke-dasharray:none;stroke-dashoffset:107.717;stroke-opacity:1"
           id="path135-2-4"
           sodipodi:type="arc"
           sodipodi:cx="478.67789"
           sodipodi:cy="1475.4456"
           sodipodi:rx="7.4877558"
           sodipodi:ry="7.5639367"
           sodipodi:start="5.6147128"
           sodipodi:end="5.6012455"
           sodipodi:open="true"
           sodipodi:arc-type="arc"
           d="m 484.55405,1470.7575 a 7.4877558,7.5639367 0 0 1 -1.21558,10.6082 7.4877558,7.5639367 0 0 1 -10.50536,-1.1922 7.4877558,7.5639367 0 0 1 1.14484,-10.6162 7.4877558,7.5639367 0 0 1 10.51307,1.1207" />
        <path
           style="fill:#90dcaf;fill-opacity:1;fill-rule:evenodd;stroke:#24365b;stroke-width:2.82251;stroke-linecap:round;stroke-linejoin:bevel;stroke-dasharray:none;stroke-dashoffset:107.717;stroke-opacity:1"
           id="path135-7-7"
           sodipodi:type="arc"
           sodipodi:cx="514.35138"
           sodipodi:cy="1447.0095"
           sodipodi:rx="7.4877558"
           sodipodi:ry="7.5639367"
           sodipodi:start="5.6147128"
           sodipodi:end="5.6012455"
           sodipodi:open="true"
           sodipodi:arc-type="arc"
           d="m 520.22754,1442.3215 a 7.4877558,7.5639367 0 0 1 -1.21558,10.6081 7.4877558,7.5639367 0 0 1 -10.50536,-1.1922 7.4877558,7.5639367 0 0 1 1.14484,-10.6162 7.4877558,7.5639367 0 0 1 10.51307,1.1208" />
        <path
           style="fill:#90dcaf;fill-opacity:1;fill-rule:evenodd;stroke:#24365b;stroke-width:2.82251;stroke-linecap:round;stroke-linejoin:bevel;stroke-dasharray:none;stroke-dashoffset:107.717;stroke-opacity:1"
           id="path135-5-6"
           sodipodi:type="arc"
           sodipodi:cx="469.82358"
           sodipodi:cy="1415.6976"
           sodipodi:rx="7.4877558"
           sodipodi:ry="7.5639367"
           sodipodi:start="5.6147128"
           sodipodi:end="5.6012455"
           sodipodi:open="true"
           sodipodi:arc-type="arc"
           d="m 475.69974,1411.0096 a 7.4877558,7.5639367 0 0 1 -1.21558,10.6082 7.4877558,7.5639367 0 0 1 -10.50536,-1.1923 7.4877558,7.5639367 0 0 1 1.14484,-10.6162 7.4877558,7.5639367 0 0 1 10.51307,1.1208" />
        <path
           style="fill:#90dcaf;fill-opacity:1;fill-rule:evenodd;stroke:#24365b;stroke-width:2.82251;stroke-linecap:round;stroke-linejoin:bevel;stroke-dasharray:none;stroke-dashoffset:107.717;stroke-opacity:1"
           id="path135-4-3"
           sodipodi:type="arc"
           sodipodi:cx="457.23981"
           sodipodi:cy="1512.375"
           sodipodi:rx="7.4877558"
           sodipodi:ry="7.5639367"
           sodipodi:start="5.6147128"
           sodipodi:end="5.6012455"
           sodipodi:open="true"
           sodipodi:arc-type="arc"
           d="m 463.11597,1507.687 a 7.4877558,7.5639367 0 0 1 -1.21558,10.6081 7.4877558,7.5639367 0 0 1 -10.50536,-1.1922 7.4877558,7.5639367 0 0 1 1.14484,-10.6162 7.4877558,7.5639367 0 0 1 10.51307,1.1207" />
        <path
           style="fill:#90dcaf;fill-opacity:1;fill-rule:evenodd;stroke:#24365b;stroke-width:2.82251;stroke-linecap:round;stroke-linejoin:bevel;stroke-dasharray:none;stroke-dashoffset:107.717;stroke-opacity:1"
           id="path137-1"
           sodipodi:type="arc"
           sodipodi:cx="517.48718"
           sodipodi:cy="1490.3516"
           sodipodi:rx="12.212488"
           sodipodi:ry="12.496939"
           sodipodi:start="5.6147128"
           sodipodi:end="5.6012455"
           sodipodi:open="true"
           sodipodi:arc-type="arc"
           d="m 527.07117,1482.6061 a 12.212488,12.496939 0 0 1 -1.98261,17.5265 12.212488,12.496939 0 0 1 -17.13418,-1.9697 12.212488,12.496939 0 0 1 1.86723,-17.5398 12.212488,12.496939 0 0 1 17.14676,1.8516" />
        <path
           style="fill:#90dcaf;fill-opacity:1;fill-rule:evenodd;stroke:#24365b;stroke-width:2.82251;stroke-linecap:round;stroke-linejoin:bevel;stroke-dasharray:none;stroke-dashoffset:107.717;stroke-opacity:1"
           id="path137-4-7"
           sodipodi:type="arc"
           sodipodi:cx="484.2186"
           sodipodi:cy="1450.3434"
           sodipodi:rx="12.212488"
           sodipodi:ry="12.496939"
           sodipodi:start="5.6147128"
           sodipodi:end="5.6012455"
           sodipodi:open="true"
           sodipodi:arc-type="arc"
           d="m 493.80258,1442.5979 a 12.212488,12.496939 0 0 1 -1.9826,17.5266 12.212488,12.496939 0 0 1 -17.13418,-1.9698 12.212488,12.496939 0 0 1 1.86723,-17.5398 12.212488,12.496939 0 0 1 17.14675,1.8517" />
        <path
           style="fill:#90dcaf;fill-opacity:1;fill-rule:evenodd;stroke:#24365b;stroke-width:2.82251;stroke-linecap:round;stroke-linejoin:bevel;stroke-dasharray:none;stroke-dashoffset:107.717;stroke-opacity:1"
           id="path137-0-5"
           sodipodi:type="arc"
           sodipodi:cx="506.53952"
           sodipodi:cy="1418.8865"
           sodipodi:rx="12.212488"
           sodipodi:ry="12.496939"
           sodipodi:start="5.6147128"
           sodipodi:end="5.6012455"
           sodipodi:open="true"
           sodipodi:arc-type="arc"
           d="m 516.12351,1411.141 a 12.212488,12.496939 0 0 1 -1.98261,17.5266 12.212488,12.496939 0 0 1 -17.13418,-1.9698 12.212488,12.496939 0 0 1 1.86723,-17.5398 12.212488,12.496939 0 0 1 17.14675,1.8517" />
        <path
           style="fill:#90dcaf;fill-opacity:1;fill-rule:evenodd;stroke:#24365b;stroke-width:2.82251;stroke-linecap:round;stroke-linejoin:bevel;stroke-dasharray:none;stroke-dashoffset:107.717;stroke-opacity:1"
           id="path137-2-9"
           sodipodi:type="arc"
           sodipodi:cx="456.25211"
           sodipodi:cy="1465.0096"
           sodipodi:rx="12.212488"
           sodipodi:ry="12.496939"
           sodipodi:start="5.6147128"
           sodipodi:end="5.6012455"
           sodipodi:open="true"
           sodipodi:arc-type="arc"
           d="m 465.83609,1457.2642 a 12.212488,12.496939 0 0 1 -1.98261,17.5265 12.212488,12.496939 0 0 1 -17.13418,-1.9697 12.212488,12.496939 0 0 1 1.86724,-17.5398 12.212488,12.496939 0 0 1 17.14675,1.8516" />
        <path
           style="fill:#90dcaf;fill-opacity:1;fill-rule:evenodd;stroke:#24365b;stroke-width:2.82251;stroke-linecap:round;stroke-linejoin:bevel;stroke-dasharray:none;stroke-dashoffset:107.717;stroke-opacity:1"
           id="path137-8-6"
           sodipodi:type="arc"
           sodipodi:cx="534.81281"
           sodipodi:cy="1460.1748"
           sodipodi:rx="12.212488"
           sodipodi:ry="12.496939"
           sodipodi:start="5.6147128"
           sodipodi:end="5.6012455"
           sodipodi:open="true"
           sodipodi:arc-type="arc"
           d="m 544.39679,1452.4294 a 12.212488,12.496939 0 0 1 -1.98261,17.5265 12.212488,12.496939 0 0 1 -17.13418,-1.9698 12.212488,12.496939 0 0 1 1.86724,-17.5398 12.212488,12.496939 0 0 1 17.14675,1.8517" />
        <path
           style="fill:#90dcaf;fill-opacity:1;fill-rule:evenodd;stroke:#24365b;stroke-width:2.82251;stroke-linecap:round;stroke-linejoin:bevel;stroke-dasharray:none;stroke-dashoffset:107.717;stroke-opacity:1"
           id="path139-2"
           sodipodi:type="arc"
           sodipodi:cx="472.54971"
           sodipodi:cy="1499.6595"
           sodipodi:rx="4.0500002"
           sodipodi:ry="4.0500016"
           sodipodi:start="5.6147128"
           sodipodi:end="5.6012455"
           sodipodi:open="true"
           sodipodi:arc-type="arc"
           d="m 475.72803,1497.1494 a 4.0500002,4.0500016 0 0 1 -0.65749,5.68 4.0500002,4.0500016 0 0 1 -5.68217,-0.6384 4.0500002,4.0500016 0 0 1 0.61923,-5.6843 4.0500002,4.0500016 0 0 1 5.68634,0.6001" />
        <path
           style="fill:#90dcaf;fill-opacity:1;fill-rule:evenodd;stroke:#24365b;stroke-width:2.82251;stroke-linecap:round;stroke-linejoin:bevel;stroke-dasharray:none;stroke-dashoffset:107.717;stroke-opacity:1"
           id="path140-1"
           sodipodi:type="arc"
           sodipodi:cx="494.59982"
           sodipodi:cy="1490.2096"
           sodipodi:rx="2.7000005"
           sodipodi:ry="2.700001"
           sodipodi:start="5.6147128"
           sodipodi:end="5.6012455"
           sodipodi:open="true"
           sodipodi:arc-type="arc"
           d="m 496.7187,1488.5362 a 2.7000005,2.700001 0 0 1 -0.43832,3.7866 2.7000005,2.700001 0 0 1 -3.78812,-0.4255 2.7000005,2.700001 0 0 1 0.41282,-3.7896 2.7000005,2.700001 0 0 1 3.79089,0.4001" />
        <path
           style="fill:#90dcaf;fill-opacity:1;fill-rule:evenodd;stroke:#24365b;stroke-width:2.82251;stroke-linecap:round;stroke-linejoin:bevel;stroke-dasharray:none;stroke-dashoffset:107.717;stroke-opacity:1"
           id="path140-8-7"
           sodipodi:type="arc"
           sodipodi:cx="458.55472"
           sodipodi:cy="1543.0083"
           sodipodi:rx="2.7000005"
           sodipodi:ry="2.700001"
           sodipodi:start="5.6147128"
           sodipodi:end="5.6012455"
           sodipodi:open="true"
           sodipodi:arc-type="arc"
           d="m 460.6736,1541.3349 a 2.7000005,2.700001 0 0 1 -0.43833,3.7866 2.7000005,2.700001 0 0 1 -3.78811,-0.4255 2.7000005,2.700001 0 0 1 0.41281,-3.7896 2.7000005,2.700001 0 0 1 3.7909,0.4001" />
        <path
           style="fill:#90dcaf;fill-opacity:1;fill-rule:evenodd;stroke:#24365b;stroke-width:2.82251;stroke-linecap:round;stroke-linejoin:bevel;stroke-dasharray:none;stroke-dashoffset:107.717;stroke-opacity:1"
           id="path141-8"
           sodipodi:type="arc"
           sodipodi:cx="486.9498"
           sodipodi:cy="1516.7595"
           sodipodi:rx="3.1500003"
           sodipodi:ry="3.1500015"
           sodipodi:start="5.6147128"
           sodipodi:end="5.6012455"
           sodipodi:open="true"
           sodipodi:arc-type="arc"
           d="m 489.42182,1514.8072 a 3.1500003,3.1500015 0 0 1 -0.51138,4.4178 3.1500003,3.1500015 0 0 1 -4.41946,-0.4965 3.1500003,3.1500015 0 0 1 0.48162,-4.4212 3.1500003,3.1500015 0 0 1 4.42271,0.4668" />
        <path
           style="fill:#90dcaf;fill-opacity:1;fill-rule:evenodd;stroke:#24365b;stroke-width:2.82251;stroke-linecap:round;stroke-linejoin:bevel;stroke-dasharray:none;stroke-dashoffset:107.717;stroke-opacity:1"
           id="path141-2-5"
           sodipodi:type="arc"
           sodipodi:cx="462.25842"
           sodipodi:cy="1530.3397"
           sodipodi:rx="3.1500003"
           sodipodi:ry="3.1500015"
           sodipodi:start="5.6147128"
           sodipodi:end="5.6012455"
           sodipodi:open="true"
           sodipodi:arc-type="arc"
           d="m 464.73045,1528.3874 a 3.1500003,3.1500015 0 0 1 -0.51138,4.4178 3.1500003,3.1500015 0 0 1 -4.41947,-0.4965 3.1500003,3.1500015 0 0 1 0.48162,-4.4212 3.1500003,3.1500015 0 0 1 4.42271,0.4668" />
        <path
           style="fill:#90dcaf;fill-opacity:1;fill-rule:evenodd;stroke:#24365b;stroke-width:2.82251;stroke-linecap:round;stroke-linejoin:bevel;stroke-dasharray:none;stroke-dashoffset:107.717;stroke-opacity:1"
           id="path141-5-7"
           sodipodi:type="arc"
           sodipodi:cx="525.77509"
           sodipodi:cy="1532.1281"
           sodipodi:rx="3.1500003"
           sodipodi:ry="3.1500015"
           sodipodi:start="5.6147128"
           sodipodi:end="5.6012455"
           sodipodi:open="true"
           sodipodi:arc-type="arc"
           d="m 528.24711,1530.1757 a 3.1500003,3.1500015 0 0 1 -0.51138,4.4178 3.1500003,3.1500015 0 0 1 -4.41947,-0.4965 3.1500003,3.1500015 0 0 1 0.48162,-4.4211 3.1500003,3.1500015 0 0 1 4.42271,0.4667" />
        <path
           style="fill:#90dcaf;fill-opacity:1;fill-rule:evenodd;stroke:#24365b;stroke-width:2.82251;stroke-linecap:round;stroke-linejoin:bevel;stroke-dasharray:none;stroke-dashoffset:107.717;stroke-opacity:1"
           id="path142-4"
           sodipodi:type="arc"
           sodipodi:cx="534.64972"
           sodipodi:cy="1430.3596"
           sodipodi:rx="3.1500003"
           sodipodi:ry="3.1500015"
           sodipodi:start="5.6147128"
           sodipodi:end="5.6012455"
           sodipodi:open="true"
           sodipodi:arc-type="arc"
           d="m 537.12174,1428.4073 a 3.1500003,3.1500015 0 0 1 -0.51138,4.4178 3.1500003,3.1500015 0 0 1 -4.41946,-0.4965 3.1500003,3.1500015 0 0 1 0.48162,-4.4212 3.1500003,3.1500015 0 0 1 4.42271,0.4668" />
        <path
           style="fill:#90dcaf;fill-opacity:1;fill-rule:evenodd;stroke:#24365b;stroke-width:2.82251;stroke-linecap:round;stroke-linejoin:bevel;stroke-dasharray:none;stroke-dashoffset:107.717;stroke-opacity:1"
           id="path143-1"
           sodipodi:type="arc"
           sodipodi:cx="465.34976"
           sodipodi:cy="1434.8595"
           sodipodi:rx="3.1500003"
           sodipodi:ry="3.1500015"
           sodipodi:start="5.6147128"
           sodipodi:end="5.6012455"
           sodipodi:open="true"
           sodipodi:arc-type="arc"
           d="m 467.82179,1432.9072 a 3.1500003,3.1500015 0 0 1 -0.51138,4.4177 3.1500003,3.1500015 0 0 1 -4.41947,-0.4965 3.1500003,3.1500015 0 0 1 0.48162,-4.4211 3.1500003,3.1500015 0 0 1 4.42271,0.4668" />
        <path
           style="fill:#90dcaf;fill-opacity:1;fill-rule:evenodd;stroke:#24365b;stroke-width:2.82251;stroke-linecap:round;stroke-linejoin:bevel;stroke-dasharray:none;stroke-dashoffset:107.717;stroke-opacity:1"
           id="path144-8"
           sodipodi:type="arc"
           sodipodi:cx="489.1998"
           sodipodi:cy="1403.8096"
           sodipodi:rx="3.5999999"
           sodipodi:ry="3.6000013"
           sodipodi:start="5.6147128"
           sodipodi:end="5.6012455"
           sodipodi:open="true"
           sodipodi:arc-type="arc"
           d="m 492.02497,1401.5783 a 3.5999999,3.6000013 0 0 1 -0.58444,5.0489 3.5999999,3.6000013 0 0 1 -5.05081,-0.5674 3.5999999,3.6000013 0 0 1 0.55042,-5.0527 3.5999999,3.6000013 0 0 1 5.05452,0.5334" />
        <path
           style="fill:#90dcaf;fill-opacity:1;fill-rule:evenodd;stroke:#24365b;stroke-width:2.82251;stroke-linecap:round;stroke-linejoin:bevel;stroke-dasharray:none;stroke-dashoffset:107.717;stroke-opacity:1"
           id="path145-5"
           sodipodi:type="arc"
           sodipodi:cx="514.39972"
           sodipodi:cy="1469.5096"
           sodipodi:rx="3.5999999"
           sodipodi:ry="3.6000013"
           sodipodi:start="5.6147128"
           sodipodi:end="5.6012455"
           sodipodi:open="true"
           sodipodi:arc-type="arc"
           d="m 517.22489,1467.2784 a 3.5999999,3.6000013 0 0 1 -0.58443,5.0489 3.5999999,3.6000013 0 0 1 -5.05082,-0.5674 3.5999999,3.6000013 0 0 1 0.55042,-5.0527 3.5999999,3.6000013 0 0 1 5.05452,0.5334" />
      </g>
      <g
         id="g134-7-6-4-3"
         inkscape:label="Enterocyte Squished 4"
         style="stroke:#24365b;stroke-width:2.82251;stroke-dasharray:none;stroke-opacity:1"
         transform="matrix(-0.531441,0,0,0.531441,1703.494,313.59556)">
        <path
           id="path133-27-7-8-8"
           style="font-variation-settings:normal;opacity:1;fill:#5c7bbe;fill-opacity:1;stroke:#24365b;stroke-width:6.96917;stroke-linecap:butt;stroke-linejoin:bevel;stroke-miterlimit:4;stroke-dasharray:none;stroke-dashoffset:0;stroke-opacity:1;stop-color:#000000;stop-opacity:1"
           inkscape:path-effect="#path-effect133-8-9-6-4"
           inkscape:original-d="m 1040.2168,1280.0005 c 0,113.3334 0,226.6671 0,340.0002 -0.05,11.6788 -0.101,23.3573 -0.1515,35.0363 -13.2831,1.6546 -26.5657,3.3091 -39.8485,4.9637 -95.96662,3.3613 -191.93113,6.7226 -287.89974,10.084 -4.56571,-21.0188 -9.13123,-42.0366 -13.69685,-63.055 -1.32991,-63.6726 -2.65981,-127.3451 -3.98972,-191.0178 -8.72499,-45.7899 -17.44996,-91.5797 -26.17496,-137.3696 3.84818,-19.5473 7.69637,-39.0945 11.54455,-58.6418 0,-6.6668 0,-13.3333 0,-20 6.6668,-5.6446 13.3332,-11.2888 20,-16.9333 6.6668,5.6445 13.33334,11.2889 20.00001,16.9333 0,6.6668 0,13.3334 0,20 0,13.3336 0,26.6667 0,40 0,6.6668 0,13.3334 0,20.0001 6.6668,0 13.33333,0 20,0 6.6668,0 13.33333,0 20,0 0,-6.6668 0,-13.3334 0,-20.0001 0,-20.0004 0,-40 0,-60 0,-6.6668 0,-13.3333 0,-20 0,-6.6668 0,-13.3333 0,-20 6.6668,-5.6446 13.3332,-11.2888 20,-16.9333 6.6668,5.6445 13.33334,11.2889 20.00001,16.9333 0,6.6668 0,13.3333 0,20 0,26.6672 0,53.3334 0,80 0,6.6668 0,13.3334 0,20.0001 6.6668,0 13.33333,0 20,0 6.6668,0 13.33333,0 20,0 0,-6.6668 0,-13.3334 0,-20.0001 0,-20.0004 0,-40 0,-60 0,-6.6668 0,-13.3333 0,-20 6.6668,-5.6446 13.3332,-11.2888 20,-16.9333 6.6668,5.6445 13.33334,11.2889 20,16.9333 0,6.6668 0,13.3334 0,20 0,20.0004 0,40 0,60 0,6.6668 0,13.3334 0,20.0001 6.66681,0 13.33334,0 20.00001,0 6.6668,0 13.33333,0 20,0 0,-6.6668 0,-13.3334 0,-20.0001 0,-26.6672 0,-53.3333 0,-80 0,-6.6668 0,-13.3333 0,-20 6.6668,-5.6446 13.3332,-11.2888 20,-16.9333 6.6668,5.6445 13.33334,11.2889 20,16.9333 0,6.6668 0,13.3333 0,20 0,26.6672 0,53.3334 0,80 0,6.6668 0,13.3334 0,20.0001 6.66681,0 13.33334,0 20.00001,0 6.6668,0 13.33333,0 19.99998,0 0,-6.6668 0,-13.3334 0,-20.0001 0,-6.6668 0,-13.3333 0,-20 0,-6.6668 0,-13.3333 0,-20 6.6668,-5.6446 13.3332,-11.2888 20,-16.9333 6.6668,5.6445 13.3334,11.2889 20,16.9333 0,6.6668 0,13.3334 0,20 0.072,13.3336 0.1445,26.6667 0.2167,40 z"
           d="m 1040.1807,1330.0006 c 0.036,63.3333 0.036,176.667 0.011,239.1729 -0.025,62.506 -0.076,74.1845 -6.7425,80.8513 -6.6668,6.6668 -19.9494,8.3213 -74.57411,10.8293 -54.62471,2.5079 -150.58922,5.8692 -200.85638,-2.9595 -50.26717,-8.8287 -54.83267,-29.8465 -57.78044,-72.192 -2.94777,-42.3455 -4.27767,-106.018 -9.30512,-160.7493 -5.02745,-54.7313 -13.75243,-100.5211 -16.19083,-133.1897 -2.4384,-32.6686 1.40977,-52.2158 3.33387,-65.3229 1.92409,-13.107 1.92409,-19.7735 5.2575,-25.9291 3.33342,-6.1557 9.99981,-11.7999 16.66659,-11.7999 6.66678,0 13.33336,5.6444 16.66668,11.8 3.33333,6.1556 3.33333,12.8222 3.33333,22.8223 0,10.0001 0,23.3332 0,33.3333 0,10 0,16.6666 3.3334,20 3.3334,3.3333 9.99993,3.3333 16.66666,3.3333 6.66674,0 13.33327,0 16.6666,-3.3334 3.33334,-3.3334 3.33334,-10 3.33334,-23.3335 0,-13.3336 0,-33.3332 0,-46.6666 0,-13.3334 0,-19.9999 0,-26.6666 0,-6.6668 0,-13.3333 3.33341,-19.4889 3.33342,-6.1557 9.99981,-11.7999 16.66659,-11.7999 6.66678,0 13.33336,5.6444 16.66668,11.8 3.33333,6.1556 3.33333,12.8221 3.33333,29.4891 0,16.6669 0,43.3331 0,59.9998 0,16.6667 0,23.3333 3.3334,26.6667 3.3334,3.3333 9.99993,3.3333 16.66666,3.3333 6.66674,0 13.33327,0 16.6666,-3.3334 3.33334,-3.3334 3.33334,-10 3.33334,-23.3335 0,-13.3336 0,-33.3332 0,-46.6666 0,-13.3334 0,-19.9999 3.33341,-26.1555 3.33342,-6.1557 9.99981,-11.7999 16.66659,-11.7999 6.66678,0 13.33335,5.6444 16.66668,11.8 3.33332,6.1556 3.33332,12.8222 3.33332,26.1557 0,13.3335 0,33.3331 0,46.6665 0,13.3334 0,20 3.3334,23.3334 3.33341,3.3333 9.99994,3.3333 16.66667,3.3333 6.66674,0 13.33327,0 16.6666,-3.3334 3.33334,-3.3334 3.33334,-10 3.33334,-26.667 0,-16.6669 0,-43.333 0,-59.9997 0,-16.6668 0,-23.3333 3.33341,-29.4889 3.33342,-6.1557 9.99981,-11.7999 16.66659,-11.7999 6.66678,0 13.33335,5.6444 16.66668,11.8 3.33332,6.1556 3.33332,12.8221 3.33332,29.4891 0,16.6669 0,43.3331 0,59.9998 0,16.6667 0,23.3333 3.3334,26.6667 3.33341,3.3333 9.99994,3.3333 16.66667,3.3333 6.66674,0 13.33327,0 16.66659,-3.3334 3.33333,-3.3334 3.33333,-10 3.33333,-16.6667 0,-6.6668 0,-13.3333 0,-20 0,-6.6668 0,-13.3333 3.3334,-19.4889 3.3334,-6.1557 9.9998,-11.7999 16.6666,-11.7999 6.6668,0 13.3334,5.6444 16.6667,11.8 3.3333,6.1556 3.3333,12.8222 3.3694,22.8223 0.036,10.0001 0.1084,23.3332 0.1445,86.6666 z"
           transform="matrix(0.405,0,0,0.405,178.77966,498.69563)"
           sodipodi:nodetypes="cccccccsscccsscscssscccsscscsscccsscscsscccsscscssccccc" />
        <path
           style="fill:#38b26b;fill-opacity:1;fill-rule:evenodd;stroke:#24365b;stroke-width:2.52386;stroke-linecap:round;stroke-linejoin:bevel;stroke-dasharray:none;stroke-dashoffset:107.717;stroke-opacity:1"
           id="path134-2-3-1-8"
           sodipodi:type="arc"
           sodipodi:cx="-1131.0438"
           sodipodi:cy="545.92816"
           sodipodi:rx="21.572096"
           sodipodi:ry="24.164251"
           sodipodi:start="5.6147128"
           sodipodi:end="5.6012455"
           sodipodi:open="true"
           sodipodi:arc-type="arc"
           d="m -1114.1147,530.95145 a 21.572096,24.164251 0 0 1 -3.5021,33.88954 21.572096,24.164251 0 0 1 -30.2657,-3.80876 21.572096,24.164251 0 0 1 3.2982,-33.91519 21.572096,24.164251 0 0 1 30.288,3.58039"
           transform="rotate(-90)" />
      </g>
    </g>
  </g>
</svg>
