<?xml version="1.0" encoding="UTF-8" standalone="no"?>
<!-- Created with Inkscape (http://www.inkscape.org/) -->

<svg
   width="47.436897mm"
   height="95.53231mm"
   viewBox="0 0 47.436897 95.53231"
   version="1.1"
   id="svg1"
   inkscape:export-filename="+4_Reserve_ISC.svg"
   inkscape:export-xdpi="96"
   inkscape:export-ydpi="96"
   xmlns:inkscape="http://www.inkscape.org/namespaces/inkscape"
   xmlns:sodipodi="http://sodipodi.sourceforge.net/DTD/sodipodi-0.dtd"
   xmlns="http://www.w3.org/2000/svg"
   xmlns:svg="http://www.w3.org/2000/svg">
  <sodipodi:namedview
     id="namedview1"
     pagecolor="#ffffff"
     bordercolor="#000000"
     borderopacity="0.25"
     inkscape:showpageshadow="2"
     inkscape:pageopacity="0.0"
     inkscape:pagecheckerboard="0"
     inkscape:deskcolor="#d1d1d1"
     inkscape:document-units="mm">
    <inkscape:page
       x="0"
       y="0"
       width="47.436897"
       height="95.53231"
       id="page2"
       margin="0"
       bleed="0" />
  </sodipodi:namedview>
  <defs
     id="defs1">
    <inkscape:path-effect
       effect="bspline"
       id="path-effect133-04-0-1-8-6-0"
       is_visible="true"
       lpeversion="1.3"
       weight="33.333333"
       steps="2"
       helper_size="0"
       apply_no_weight="true"
       apply_with_weight="true"
       only_selected="false"
       uniform="false" />
  </defs>
  <g
     inkscape:label="Layer 1"
     inkscape:groupmode="layer"
     id="layer1"
     transform="translate(-68.541666,-116.48581)">
    <g
       id="g7"
       inkscape:label="Goblet cell section"
       transform="translate(-1166.727,-926.83291)">
      <g
         id="g134-7-6-94-6-5-0"
         inkscape:label="+4 Reserve ISC"
         style="stroke:#24365b;stroke-width:2.82251;stroke-dasharray:none;stroke-opacity:1"
         transform="matrix(0.531441,0,0,0.531441,939.7384,459.70433)">
        <path
           id="path133-5-1-2-8-8-4"
           style="font-variation-settings:normal;opacity:1;fill:#5c7bbe;fill-opacity:1;stroke:#24365b;stroke-width:6.96917;stroke-linecap:butt;stroke-linejoin:bevel;stroke-miterlimit:4;stroke-dasharray:none;stroke-dashoffset:0;stroke-opacity:1;stop-color:#000000;stop-opacity:1"
           inkscape:path-effect="#path-effect133-04-0-1-8-6-0"
           inkscape:original-d="m 895.67681,1443.7937 c -1.81091,77.5847 -3.6218,155.169 -5.43272,232.7541 0.62193,27.763 1.24384,55.5253 1.86577,83.2888 -9.31497,6.6245 -18.62959,13.2488 -27.94442,19.8731 -48.05523,-0.5659 -96.10991,-1.1318 -144.16535,-1.6977 -13.39147,-2.4955 -26.78265,-4.9909 -40.17413,-7.4864 0.058,-31.3262 0.11607,-62.6518 0.1741,-93.9778 -1.35818,-77.3583 -2.71636,-154.7164 -4.07454,-232.075 14.69156,-28.7099 29.38285,-57.4193 44.07457,-86.1295 14.46534,-5.8855 28.9303,-11.7709 43.39545,-17.6563 16.67577,0 33.35131,0 50.02731,0 12.20168,5.8855 24.40302,11.7708 36.60454,17.6563 15.21648,28.4835 30.43294,56.9669 45.64942,85.4504 z"
           d="m 887.16311,1468.3443 c 6.70279,53.0341 4.8919,130.6184 4.2974,183.2925 -0.5945,52.674 0.0274,80.4363 -4.31911,97.6303 -4.34652,17.194 -13.66117,23.8182 -42.34618,26.8475 -28.68501,3.0292 -76.73969,2.4633 -107.46315,0.9326 -30.72345,-1.5307 -44.11463,-4.0261 -50.78135,-20.937 -6.66673,-16.9108 -6.60869,-48.2364 -7.25877,-102.5786 -0.65007,-54.3421 -2.00825,-131.7002 4.65844,-184.7345 6.66669,-53.0342 21.35799,-81.7436 35.93651,-99.0415 14.57853,-17.2978 29.0435,-23.1832 44.61396,-26.1259 15.57045,-2.9427 32.24599,-2.9427 46.68483,10e-5 14.43883,2.9427 26.64016,8.8281 40.34917,26.0125 13.70902,17.1845 28.92546,45.6679 35.62825,98.702 z"
           transform="matrix(0.405,0,0,0.405,282.62397,556.31075)"
           sodipodi:nodetypes="sccccccsssszs" />
        <path
           style="fill:#38b26b;fill-opacity:1;fill-rule:evenodd;stroke:#24365b;stroke-width:2.52386;stroke-linecap:round;stroke-linejoin:bevel;stroke-dasharray:none;stroke-dashoffset:107.717;stroke-opacity:1"
           id="path134-69-3-2-3-7-8"
           sodipodi:type="arc"
           sodipodi:cx="-1227.3092"
           sodipodi:cy="599.58942"
           sodipodi:rx="21.572096"
           sodipodi:ry="24.164251"
           sodipodi:start="5.6147128"
           sodipodi:end="5.6012455"
           sodipodi:open="true"
           sodipodi:arc-type="arc"
           d="m -1210.3801,584.6127 a 21.572096,24.164251 0 0 1 -3.5021,33.88955 21.572096,24.164251 0 0 1 -30.2657,-3.80877 21.572096,24.164251 0 0 1 3.2983,-33.91519 21.572096,24.164251 0 0 1 30.2879,3.58039"
           transform="rotate(-90)" />
      </g>
    </g>
  </g>
</svg>
