<?xml version="1.0" encoding="UTF-8" standalone="no"?>
<!-- Created with Inkscape (http://www.inkscape.org/) -->

<svg
   width="202.50468mm"
   height="112.20791mm"
   viewBox="0 0 202.50468 112.20791"
   version="1.1"
   id="svg1"
   inkscape:export-filename="Plus_4_Reserve_ISC.svg"
   inkscape:export-xdpi="96"
   inkscape:export-ydpi="96"
   xmlns:inkscape="http://www.inkscape.org/namespaces/inkscape"
   xmlns:sodipodi="http://sodipodi.sourceforge.net/DTD/sodipodi-0.dtd"
   xmlns="http://www.w3.org/2000/svg"
   xmlns:svg="http://www.w3.org/2000/svg">
  <sodipodi:namedview
     id="namedview1"
     pagecolor="#ffffff"
     bordercolor="#000000"
     borderopacity="0.25"
     inkscape:showpageshadow="2"
     inkscape:pageopacity="0.0"
     inkscape:pagecheckerboard="0"
     inkscape:deskcolor="#d1d1d1"
     inkscape:document-units="mm">
    <inkscape:page
       x="0"
       y="0"
       width="202.50468"
       height="112.20791"
       id="page2"
       margin="0"
       bleed="0" />
  </sodipodi:namedview>
  <defs
     id="defs1">
    <inkscape:path-effect
       effect="bspline"
       id="path-effect133-33"
       is_visible="true"
       lpeversion="1.3"
       weight="33.333333"
       steps="2"
       helper_size="0"
       apply_no_weight="true"
       apply_with_weight="true"
       only_selected="false"
       uniform="false" />
    <inkscape:path-effect
       effect="bspline"
       id="path-effect133-04-04"
       is_visible="true"
       lpeversion="1.3"
       weight="33.333333"
       steps="2"
       helper_size="0"
       apply_no_weight="true"
       apply_with_weight="true"
       only_selected="false"
       uniform="false" />
    <inkscape:path-effect
       effect="bspline"
       id="path-effect133-04-0-1-8-6"
       is_visible="true"
       lpeversion="1.3"
       weight="33.333333"
       steps="2"
       helper_size="0"
       apply_no_weight="true"
       apply_with_weight="true"
       only_selected="false"
       uniform="false" />
  </defs>
  <g
     inkscape:label="Layer 1"
     inkscape:groupmode="layer"
     id="layer1"
     transform="translate(-6.749988,-107.45124)">
    <g
       id="g7"
       inkscape:label="Goblet cell section"
       transform="translate(-1166.727,-926.83291)">
      <g
         id="g12"
         inkscape:label="+4 Reserve ISC Section"
         transform="translate(-233.71905,-366.31522)">
        <g
           id="g8-8"
           inkscape:label="Enterocyte section"
           transform="translate(6.7864916,886.99351)">
          <g
             id="g134-90"
             inkscape:label="Enterocyte"
             style="stroke:#24365b;stroke-width:2.82251;stroke-dasharray:none;stroke-opacity:1"
             transform="matrix(0.531441,0,0,0.531441,982.8323,-176.21094)">
            <path
               id="path133-68"
               style="font-variation-settings:normal;opacity:1;fill:#5c7bbe;fill-opacity:1;stroke:#24365b;stroke-width:6.96917;stroke-linecap:butt;stroke-linejoin:bevel;stroke-miterlimit:4;stroke-dasharray:none;stroke-dashoffset:0;stroke-opacity:1;stop-color:#000000;stop-opacity:1"
               inkscape:path-effect="#path-effect133-33"
               inkscape:original-d="m 1040.2168,1280.0005 c 0,113.3334 0,226.6671 0,340.0002 0.1625,12.9413 0.3251,25.8822 0.4876,38.8237 -13.4961,0.3921 -26.9917,0.7842 -40.4876,1.1763 -93.40561,0 -186.80928,0 -280.21671,0 -12.85772,-0.8581 -25.71517,-1.7163 -38.57293,-2.5744 -0.47571,-12.4753 -0.95139,-24.9501 -1.4271,-37.4256 0,-113.3334 0,-226.6668 0,-340.0002 1e-5,-20.0004 1e-5,-40 2e-5,-60 0,-6.6668 0,-13.3333 0,-20 6.6668,-5.6446 13.3332,-11.2888 20,-16.9333 6.6668,5.6445 13.33334,11.2889 20.00001,16.9333 0,6.6668 0,13.3334 0,20 0,13.3336 0,26.6667 0,40 0,6.6668 0,13.3334 0,20.0001 6.6668,0 13.33333,0 20,0 6.6668,0 13.33333,0 20,0 0,-6.6668 0,-13.3334 0,-20.0001 0,-20.0004 0,-40 0,-60 0,-6.6668 0,-13.3333 0,-20 0,-6.6668 0,-13.3333 0,-20 6.6668,-5.6446 13.3332,-11.2888 20,-16.9333 6.6668,5.6445 13.33334,11.2889 20.00001,16.9333 0,6.6668 0,13.3333 0,20 0,26.6672 0,53.3334 0,80 0,6.6668 0,13.3334 0,20.0001 6.6668,0 13.33333,0 20,0 6.6668,0 13.33333,0 20,0 0,-6.6668 0,-13.3334 0,-20.0001 0,-20.0004 0,-40 0,-60 0,-6.6668 0,-13.3333 0,-20 6.6668,-5.6446 13.3332,-11.2888 20,-16.9333 6.6668,5.6445 13.33334,11.2889 20,16.9333 0,6.6668 0,13.3334 0,20 0,20.0004 0,40 0,60 0,6.6668 0,13.3334 0,20.0001 6.66681,0 13.33334,0 20.00001,0 6.6668,0 13.33333,0 20,0 0,-6.6668 0,-13.3334 0,-20.0001 0,-26.6672 0,-53.3333 0,-80 0,-6.6668 0,-13.3333 0,-20 6.6668,-5.6446 13.3332,-11.2888 20,-16.9333 6.6668,5.6445 13.33334,11.2889 20,16.9333 0,6.6668 0,13.3333 0,20 0,26.6672 0,53.3334 0,80 0,6.6668 0,13.3334 0,20.0001 6.66681,0 13.33334,0 20.00001,0 6.6668,0 13.33333,0 19.99998,0 0,-6.6668 0,-13.3334 0,-20.0001 0,-6.6668 0,-13.3333 0,-20 0,-6.6668 0,-13.3333 0,-20 6.6668,-5.6446 13.3332,-11.2888 20,-16.9333 6.6668,5.6445 13.3334,11.2889 20,16.9333 0,6.6668 0,13.3334 0,20 0.072,13.3336 0.1445,26.6667 0.2167,40 z"
               d="m 1040.1807,1330.0006 c 0.036,63.3333 0.036,176.667 0.1174,239.8042 0.081,63.1372 0.2438,76.0781 -6.423,82.7449 -6.6668,6.6668 -20.1624,7.0589 -73.61316,7.2549 -53.45075,0.1961 -146.85442,0.1961 -199.98699,-0.233 -53.13258,-0.429 -65.99003,-1.2872 -72.65676,-7.9539 -6.66673,-6.6667 -7.14242,-19.1415 -7.38027,-82.046 -0.23786,-62.9044 -0.23786,-176.2378 -0.23786,-242.9047 1e-5,-66.6669 1e-5,-86.6665 2e-5,-99.9999 0,-13.3334 0,-19.9999 3.33341,-26.1555 3.33342,-6.1557 9.99981,-11.7999 16.66659,-11.7999 6.66678,0 13.33336,5.6444 16.66668,11.8 3.33333,6.1556 3.33333,12.8222 3.33333,22.8223 0,10.0001 0,23.3332 0,33.3333 0,10 0,16.6666 3.3334,20 3.3334,3.3333 9.99993,3.3333 16.66666,3.3333 6.66674,0 13.33327,0 16.6666,-3.3334 3.33334,-3.3334 3.33334,-10 3.33334,-23.3335 0,-13.3336 0,-33.3332 0,-46.6666 0,-13.3334 0,-19.9999 0,-26.6666 0,-6.6668 0,-13.3333 3.33341,-19.4889 3.33342,-6.1557 9.99981,-11.7999 16.66659,-11.7999 6.66678,0 13.33336,5.6444 16.66668,11.8 3.33333,6.1556 3.33333,12.8221 3.33333,29.4891 0,16.6669 0,43.3331 0,59.9998 0,16.6667 0,23.3333 3.3334,26.6667 3.3334,3.3333 9.99993,3.3333 16.66666,3.3333 6.66674,0 13.33327,0 16.6666,-3.3334 3.33334,-3.3334 3.33334,-10 3.33334,-23.3335 0,-13.3336 0,-33.3332 0,-46.6666 0,-13.3334 0,-19.9999 3.33341,-26.1555 3.33342,-6.1557 9.99981,-11.7999 16.66659,-11.7999 6.66678,0 13.33335,5.6444 16.66668,11.8 3.33332,6.1556 3.33332,12.8222 3.33332,26.1557 0,13.3335 0,33.3331 0,46.6665 0,13.3334 0,20 3.3334,23.3334 3.33341,3.3333 9.99994,3.3333 16.66667,3.3333 6.66674,0 13.33327,0 16.6666,-3.3334 3.33334,-3.3334 3.33334,-10 3.33334,-26.6669 0,-16.667 0,-43.3331 0,-59.9998 0,-16.6668 0,-23.3333 3.33341,-29.4889 3.33342,-6.1557 9.99981,-11.7999 16.66659,-11.7999 6.66678,0 13.33335,5.6444 16.66668,11.8 3.33332,6.1556 3.33332,12.8221 3.33332,29.4891 0,16.6669 0,43.3331 0,59.9998 0,16.6667 0,23.3333 3.3334,26.6667 3.33341,3.3333 9.99994,3.3333 16.66667,3.3333 6.66674,0 13.33327,0 16.66659,-3.3334 3.33333,-3.3334 3.33333,-10 3.33333,-16.6667 0,-6.6668 0,-13.3333 0,-20 0,-6.6668 0,-13.3333 3.3334,-19.4889 3.3334,-6.1557 9.9998,-11.7999 16.6666,-11.7999 6.6668,0 13.3334,5.6444 16.6667,11.8 3.3333,6.1556 3.3333,12.8222 3.3694,22.8223 0.036,10.0001 0.1084,23.3332 0.1445,86.6666 z"
               transform="matrix(0.405,0,0,0.405,511.75654,835.46767)"
               sodipodi:nodetypes="cccccccsscccsscscssscccsscscsscccsscscsscccsscscssccccc" />
            <path
               style="fill:#38b26b;fill-opacity:1;fill-rule:evenodd;stroke:#24365b;stroke-width:2.52386;stroke-linecap:round;stroke-linejoin:bevel;stroke-dasharray:none;stroke-dashoffset:107.717;stroke-opacity:1"
               id="path134-7"
               sodipodi:type="arc"
               sodipodi:cx="-1467.6824"
               sodipodi:cy="881.19159"
               sodipodi:rx="21.572096"
               sodipodi:ry="24.164251"
               sodipodi:start="5.6147128"
               sodipodi:end="5.6012455"
               sodipodi:open="true"
               sodipodi:arc-type="arc"
               d="m -1450.7533,866.21488 a 21.572096,24.164251 0 0 1 -3.502,33.88954 21.572096,24.164251 0 0 1 -30.2658,-3.80877 21.572096,24.164251 0 0 1 3.2983,-33.91519 21.572096,24.164251 0 0 1 30.288,3.5804"
               transform="rotate(-90)" />
          </g>
          <g
             id="g134-7-3"
             inkscape:label="Enterocyte"
             style="stroke:#24365b;stroke-width:2.82251;stroke-dasharray:none;stroke-opacity:1"
             transform="matrix(0.531441,0,0,0.531441,1106.284,-176.88729)">
            <path
               id="path133-5-3"
               style="font-variation-settings:normal;opacity:1;fill:#5c7bbe;fill-opacity:1;stroke:#24365b;stroke-width:6.96917;stroke-linecap:butt;stroke-linejoin:bevel;stroke-miterlimit:4;stroke-dasharray:none;stroke-dashoffset:0;stroke-opacity:1;stop-color:#000000;stop-opacity:1"
               inkscape:path-effect="#path-effect133-04-04"
               inkscape:original-d="m 1040.2168,1280.0005 c 0,113.3334 0,226.6671 0,340.0002 0.1625,12.9413 0.3251,25.8822 0.4876,38.8237 -13.4961,0.3921 -26.9917,0.7842 -40.4876,1.1763 -93.40561,0 -186.80928,0 -280.21671,0 -12.85772,-0.8581 -25.71517,-1.7163 -38.57293,-2.5744 -0.47571,-12.4753 -0.95139,-24.9501 -1.4271,-37.4256 0,-113.3334 0,-226.6668 0,-340.0002 1e-5,-20.0004 1e-5,-40 2e-5,-60 0,-6.6668 0,-13.3333 0,-20 6.6668,-5.6446 13.3332,-11.2888 20,-16.9333 6.6668,5.6445 13.33334,11.2889 20.00001,16.9333 0,6.6668 0,13.3334 0,20 0,13.3336 0,26.6667 0,40 0,6.6668 0,13.3334 0,20.0001 6.6668,0 13.33333,0 20,0 6.6668,0 13.33333,0 20,0 0,-6.6668 0,-13.3334 0,-20.0001 0,-20.0004 0,-40 0,-60 0,-6.6668 0,-13.3333 0,-20 0,-6.6668 0,-13.3333 0,-20 6.6668,-5.6446 13.3332,-11.2888 20,-16.9333 6.6668,5.6445 13.33334,11.2889 20.00001,16.9333 0,6.6668 0,13.3333 0,20 0,26.6672 0,53.3334 0,80 0,6.6668 0,13.3334 0,20.0001 6.6668,0 13.33333,0 20,0 6.6668,0 13.33333,0 20,0 0,-6.6668 0,-13.3334 0,-20.0001 0,-20.0004 0,-40 0,-60 0,-6.6668 0,-13.3333 0,-20 6.6668,-5.6446 13.3332,-11.2888 20,-16.9333 6.6668,5.6445 13.33334,11.2889 20,16.9333 0,6.6668 0,13.3334 0,20 0,20.0004 0,40 0,60 0,6.6668 0,13.3334 0,20.0001 6.66681,0 13.33334,0 20.00001,0 6.6668,0 13.33333,0 20,0 0,-6.6668 0,-13.3334 0,-20.0001 0,-26.6672 0,-53.3333 0,-80 0,-6.6668 0,-13.3333 0,-20 6.6668,-5.6446 13.3332,-11.2888 20,-16.9333 6.6668,5.6445 13.33334,11.2889 20,16.9333 0,6.6668 0,13.3333 0,20 0,26.6672 0,53.3334 0,80 0,6.6668 0,13.3334 0,20.0001 6.66681,0 13.33334,0 20.00001,0 6.6668,0 13.33333,0 19.99998,0 0,-6.6668 0,-13.3334 0,-20.0001 0,-6.6668 0,-13.3333 0,-20 0,-6.6668 0,-13.3333 0,-20 6.6668,-5.6446 13.3332,-11.2888 20,-16.9333 6.6668,5.6445 13.3334,11.2889 20,16.9333 0,6.6668 0,13.3334 0,20 0.072,13.3336 0.1445,26.6667 0.2167,40 z"
               d="m 1040.1807,1330.0006 c 0.036,63.3333 0.036,176.667 0.1174,239.8042 0.081,63.1372 0.2438,76.0781 -6.423,82.7449 -6.6668,6.6668 -20.1624,7.0589 -73.61316,7.2549 -53.45075,0.1961 -146.85442,0.1961 -199.98699,-0.233 -53.13258,-0.429 -65.99003,-1.2872 -72.65676,-7.9539 -6.66673,-6.6667 -7.14242,-19.1415 -7.38027,-82.046 -0.23786,-62.9044 -0.23786,-176.2378 -0.23786,-242.9047 1e-5,-66.6669 1e-5,-86.6665 2e-5,-99.9999 0,-13.3334 0,-19.9999 3.33341,-26.1555 3.33342,-6.1557 9.99981,-11.7999 16.66659,-11.7999 6.66678,0 13.33336,5.6444 16.66668,11.8 3.33333,6.1556 3.33333,12.8222 3.33333,22.8223 0,10.0001 0,23.3332 0,33.3333 0,10 0,16.6666 3.3334,20 3.3334,3.3333 9.99993,3.3333 16.66666,3.3333 6.66674,0 13.33327,0 16.6666,-3.3334 3.33334,-3.3334 3.33334,-10 3.33334,-23.3335 0,-13.3336 0,-33.3332 0,-46.6666 0,-13.3334 0,-19.9999 0,-26.6666 0,-6.6668 0,-13.3333 3.33341,-19.4889 3.33342,-6.1557 9.99981,-11.7999 16.66659,-11.7999 6.66678,0 13.33336,5.6444 16.66668,11.8 3.33333,6.1556 3.33333,12.8221 3.33333,29.4891 0,16.6669 0,43.3331 0,59.9998 0,16.6667 0,23.3333 3.3334,26.6667 3.3334,3.3333 9.99993,3.3333 16.66666,3.3333 6.66674,0 13.33327,0 16.6666,-3.3334 3.33334,-3.3334 3.33334,-10 3.33334,-23.3335 0,-13.3336 0,-33.3332 0,-46.6666 0,-13.3334 0,-19.9999 3.33341,-26.1555 3.33342,-6.1557 9.99981,-11.7999 16.66659,-11.7999 6.66678,0 13.33335,5.6444 16.66668,11.8 3.33332,6.1556 3.33332,12.8222 3.33332,26.1557 0,13.3335 0,33.3331 0,46.6665 0,13.3334 0,20 3.3334,23.3334 3.33341,3.3333 9.99994,3.3333 16.66667,3.3333 6.66674,0 13.33327,0 16.6666,-3.3334 3.33334,-3.3334 3.33334,-10 3.33334,-26.6669 0,-16.667 0,-43.3331 0,-59.9998 0,-16.6668 0,-23.3333 3.33341,-29.4889 3.33342,-6.1557 9.99981,-11.7999 16.66659,-11.7999 6.66678,0 13.33335,5.6444 16.66668,11.8 3.33332,6.1556 3.33332,12.8221 3.33332,29.4891 0,16.6669 0,43.3331 0,59.9998 0,16.6667 0,23.3333 3.3334,26.6667 3.33341,3.3333 9.99994,3.3333 16.66667,3.3333 6.66674,0 13.33327,0 16.66659,-3.3334 3.33333,-3.3334 3.33333,-10 3.33333,-16.6667 0,-6.6668 0,-13.3333 0,-20 0,-6.6668 0,-13.3333 3.3334,-19.4889 3.3334,-6.1557 9.9998,-11.7999 16.6666,-11.7999 6.6668,0 13.3334,5.6444 16.6667,11.8 3.3333,6.1556 3.3333,12.8222 3.3694,22.8223 0.036,10.0001 0.1084,23.3332 0.1445,86.6666 z"
               transform="matrix(0.405,0,0,0.405,511.75654,835.46767)"
               sodipodi:nodetypes="cccccccsscccsscscssscccsscscsscccsscscsscccsscscssccccc" />
            <path
               style="fill:#38b26b;fill-opacity:1;fill-rule:evenodd;stroke:#24365b;stroke-width:2.52386;stroke-linecap:round;stroke-linejoin:bevel;stroke-dasharray:none;stroke-dashoffset:107.717;stroke-opacity:1"
               id="path134-69-7"
               sodipodi:type="arc"
               sodipodi:cx="-1467.6824"
               sodipodi:cy="881.19159"
               sodipodi:rx="21.572096"
               sodipodi:ry="24.164251"
               sodipodi:start="5.6147128"
               sodipodi:end="5.6012455"
               sodipodi:open="true"
               sodipodi:arc-type="arc"
               d="m -1450.7533,866.21488 a 21.572096,24.164251 0 0 1 -3.502,33.88954 21.572096,24.164251 0 0 1 -30.2658,-3.80877 21.572096,24.164251 0 0 1 3.2983,-33.91519 21.572096,24.164251 0 0 1 30.288,3.5804"
               transform="rotate(-90)" />
          </g>
        </g>
        <g
           id="g134-7-6-94-6-5"
           inkscape:label="+4 Reserve ISC"
           style="stroke:#24365b;stroke-width:2.82251;stroke-dasharray:none;stroke-opacity:1"
           transform="matrix(0.531441,0,0,0.531441,1189.378,833.24586)">
          <path
             id="path133-5-1-2-8-8"
             style="font-variation-settings:normal;opacity:1;fill:#5c7bbe;fill-opacity:1;stroke:#24365b;stroke-width:6.96917;stroke-linecap:butt;stroke-linejoin:bevel;stroke-miterlimit:4;stroke-dasharray:none;stroke-dashoffset:0;stroke-opacity:1;stop-color:#000000;stop-opacity:1"
             inkscape:path-effect="#path-effect133-04-0-1-8-6"
             inkscape:original-d="m 895.67681,1443.7937 c -1.81091,77.5847 -3.6218,155.169 -5.43272,232.7541 0.62193,27.763 1.24384,55.5253 1.86577,83.2888 -9.31497,6.6245 -18.62959,13.2488 -27.94442,19.8731 -48.05523,-0.5659 -96.10991,-1.1318 -144.16535,-1.6977 -13.39147,-2.4955 -26.78265,-4.9909 -40.17413,-7.4864 0.058,-31.3262 0.11607,-62.6518 0.1741,-93.9778 -1.35818,-77.3583 -2.71636,-154.7164 -4.07454,-232.075 14.69156,-28.7099 29.38285,-57.4193 44.07457,-86.1295 14.46534,-5.8855 28.9303,-11.7709 43.39545,-17.6563 16.67577,0 33.35131,0 50.02731,0 12.20168,5.8855 24.40302,11.7708 36.60454,17.6563 15.21648,28.4835 30.43294,56.9669 45.64942,85.4504 z"
             d="m 887.16311,1468.3443 c 6.70279,53.0341 4.8919,130.6184 4.2974,183.2925 -0.5945,52.674 0.0274,80.4363 -4.31911,97.6303 -4.34652,17.194 -13.66117,23.8182 -42.34618,26.8475 -28.68501,3.0292 -76.73969,2.4633 -107.46315,0.9326 -30.72345,-1.5307 -44.11463,-4.0261 -50.78135,-20.937 -6.66673,-16.9108 -6.60869,-48.2364 -7.25877,-102.5786 -0.65007,-54.3421 -2.00825,-131.7002 4.65844,-184.7345 6.66669,-53.0342 21.35799,-81.7436 35.93651,-99.0415 14.57853,-17.2978 29.0435,-23.1832 44.61396,-26.1259 15.57045,-2.9427 32.24599,-2.9427 46.68483,10e-5 14.43883,2.9427 26.64016,8.8281 40.34917,26.0125 13.70902,17.1845 28.92546,45.6679 35.62825,98.702 z"
             transform="matrix(0.405,0,0,0.405,282.62397,556.31075)"
             sodipodi:nodetypes="sccccccsssszs" />
          <path
             style="fill:#38b26b;fill-opacity:1;fill-rule:evenodd;stroke:#24365b;stroke-width:2.52386;stroke-linecap:round;stroke-linejoin:bevel;stroke-dasharray:none;stroke-dashoffset:107.717;stroke-opacity:1"
             id="path134-69-3-2-3-7"
             sodipodi:type="arc"
             sodipodi:cx="-1227.3092"
             sodipodi:cy="599.58942"
             sodipodi:rx="21.572096"
             sodipodi:ry="24.164251"
             sodipodi:start="5.6147128"
             sodipodi:end="5.6012455"
             sodipodi:open="true"
             sodipodi:arc-type="arc"
             d="m -1210.3801,584.6127 a 21.572096,24.164251 0 0 1 -3.5021,33.88955 21.572096,24.164251 0 0 1 -30.2657,-3.80877 21.572096,24.164251 0 0 1 3.2983,-33.91519 21.572096,24.164251 0 0 1 30.2879,3.58039"
             transform="rotate(-90)" />
        </g>
      </g>
    </g>
  </g>
</svg>
