<?xml version="1.0" encoding="UTF-8" standalone="no"?>
<!-- Created with Inkscape (http://www.inkscape.org/) -->

<svg
   width="77.029114mm"
   height="166.19826mm"
   viewBox="0 0 77.029114 166.19826"
   version="1.1"
   id="svg1"
   inkscape:export-filename="Entrocyte_Section.svg"
   inkscape:export-xdpi="96"
   inkscape:export-ydpi="96"
   xmlns:inkscape="http://www.inkscape.org/namespaces/inkscape"
   xmlns:sodipodi="http://sodipodi.sourceforge.net/DTD/sodipodi-0.dtd"
   xmlns="http://www.w3.org/2000/svg"
   xmlns:svg="http://www.w3.org/2000/svg">
  <sodipodi:namedview
     id="namedview1"
     pagecolor="#ffffff"
     bordercolor="#000000"
     borderopacity="0.25"
     inkscape:showpageshadow="2"
     inkscape:pageopacity="0.0"
     inkscape:pagecheckerboard="0"
     inkscape:deskcolor="#d1d1d1"
     inkscape:document-units="mm">
    <inkscape:page
       x="0"
       y="0"
       width="77.029114"
       height="166.19826"
       id="page2"
       margin="0"
       bleed="0" />
  </sodipodi:namedview>
  <defs
     id="defs1">
    <inkscape:path-effect
       effect="bspline"
       id="path-effect133-7-4"
       is_visible="true"
       lpeversion="1.3"
       weight="33.333333"
       steps="2"
       helper_size="0"
       apply_no_weight="true"
       apply_with_weight="true"
       only_selected="false"
       uniform="false" />
  </defs>
  <g
     inkscape:label="Layer 1"
     inkscape:groupmode="layer"
     id="layer1"
     transform="translate(-74.380876,-64.663213)">
    <g
       id="g134-9-4"
       inkscape:label="Tuft Cell"
       style="stroke:#24365b;stroke-width:2.82251;stroke-dasharray:none;stroke-opacity:1"
       transform="matrix(0.531441,0,0,0.531441,-117.15927,-646.23794)">
      <path
         id="path133-8-3"
         style="font-variation-settings:normal;opacity:1;fill:#5c7bbe;fill-opacity:1;stroke:#24365b;stroke-width:9.55991;stroke-linecap:butt;stroke-linejoin:bevel;stroke-miterlimit:4;stroke-dasharray:none;stroke-dashoffset:0;stroke-opacity:1;stop-color:#000000;stop-opacity:1"
         inkscape:path-effect="#path-effect133-7-4"
         inkscape:original-d="m 1038.8292,1142.8893 c -14.0917,28.4222 -28.1835,56.8445 -42.2752,85.2668 -1.75865,43.8971 -3.51729,87.7942 -5.27594,131.6913 38.89584,114.0921 77.79184,228.1845 116.68754,342.2761 -2.8222,23.6484 -5.6445,47.297 -8.4667,70.9453 -10.833,23.7552 -21.6659,47.5103 -32.4989,71.2655 -35.082,9.4833 -72.97931,19.7276 -105.24598,28.4498 -7.80762,35.9485 -15.35475,70.6976 -25.46653,117.2551 -30.26132,13.2302 -58.09415,25.3986 -76.21311,33.3202 -22.24643,-5.8626 -55.12552,-14.5272 -93.57437,-24.6596 -6.80242,-49.2368 -11.55767,-83.6559 -16.5553,-119.8294 -29.78265,-10.4255 -65.7727,-23.0241 -98.65906,-34.5361 -10.36564,-24.1079 -20.73123,-48.2158 -31.09691,-72.3238 -2.64584,-23.2957 -5.29165,-46.5912 -7.9375,-69.887 40.47976,-111.3432 80.95925,-222.6857 121.43868,-334.0281 -5.22218,-43.941 -10.44437,-87.882 -15.66659,-131.8234 -12.67448,-30.5898 -25.34874,-61.1791 -38.02327,-91.7691 -12.78321,-33.598 -25.56582,-67.1944 -38.34926,-100.7929 6.00814,-8.6088 12.01585,-17.217 18.02392,-25.8257 7.54506,6.7423 15.08965,13.4843 22.63479,20.2268 12.56388,28.798 25.12692,57.5942 37.69058,86.3918 0,6.6668 0,13.3332 0,20.0001 6.6668,0 13.3332,0 20,0 6.6668,0 13.33323,0 20,0 0,-6.6668 0,-13.3333 0,-20.0001 0,-48.3376 0,-96.6728 0,-145.01112 6.66685,-5.64459 13.33324,-11.28879 20,-16.9333 6.66676,5.64451 13.33332,11.28885 20.00001,16.9333 0,48.33712 0,96.67392 0,145.01112 0,6.6668 0,13.3332 0,20.0001 6.6668,0 13.3332,0 20,0 6.6668,0 13.33323,0 20,0 0,-6.6668 0,-13.3333 0,-20.0001 0,-35.4149 0,-70.8275 0,-106.2427 6.66685,-5.6446 13.33324,-11.2888 20,-16.9333 6.66676,5.6445 13.33312,11.2887 20,16.9333 0,35.4154 0,70.8278 0,106.2427 0,6.6668 0,13.3332 0,20.0001 6.66681,0 13.33321,0 20.00001,0 6.6668,0 13.33323,0 20,0 0,-6.6668 0,-13.3333 0,-20.0001 0,-48.7778 0,-97.5529 0,-146.33138 6.66685,-5.64459 13.33324,-11.28879 20,-16.9333 6.66676,5.64451 13.3332,11.28876 20,16.9333 0,48.77808 0,97.55358 0,146.33138 0,6.6668 0,13.3332 0,20.0001 6.66681,0 13.3332,0 20.00001,0 6.6668,0 13.33322,0 19.99998,0 0,-6.6668 0,-13.3333 0,-20.0001 12.6164,-31.3899 25.2321,-62.778 37.8487,-94.1684 7.8745,-3.1195 15.7483,-6.2388 23.6228,-9.3583 6.6668,5.6446 13.3333,11.2889 20,16.9333 -14.2141,34.9932 -28.4283,69.9866 -42.6424,104.9798 z"
         d="m 1038.8904,1139.6038 c -14.1529,31.7077 -28.2447,60.13 -36.1699,96.2897 -7.92515,36.1597 -9.68379,80.0568 8.8848,159.0514 18.5686,78.9946 57.4646,193.087 75.5013,261.957 18.0368,68.87 15.2145,92.5186 8.3869,116.2204 -6.8276,23.7017 -17.6605,47.4568 -40.618,64.076 -22.9575,16.6193 -60.85482,26.8636 -80.89196,49.1989 -20.03714,22.3354 -27.58427,57.0845 -47.77082,86.9783 -20.18656,29.8939 -48.01937,42.0623 -68.20207,43.0918 -20.1827,1.0295 -53.06179,-7.6351 -75.68743,-37.3197 -22.62563,-29.6846 -27.38088,-64.1037 -44.77101,-87.4032 -17.39013,-23.2996 -53.38021,-35.8981 -75.0062,-53.708 -21.62599,-17.81 -31.9916,-41.9179 -38.49735,-65.6197 -6.50576,-23.7019 -9.15157,-46.9974 9.76538,-114.3169 18.91694,-67.3195 59.39643,-178.662 77.02507,-256.3037 17.62863,-77.6417 12.40645,-121.5827 3.4581,-158.8483 -8.94835,-37.2656 -21.6226,-67.8549 -34.35149,-99.9489 -12.72888,-32.094 -25.5115,-65.6904 -28.89914,-86.794 -3.38764,-21.1037 2.62007,-29.7119 9.39662,-30.6451 6.77654,-0.9332 14.32115,5.8088 24.37565,23.5791 10.05451,17.7702 22.61757,46.5664 28.8994,64.2986 6.28184,17.7322 6.28184,24.3986 9.61524,27.7321 3.3334,3.3334 9.9998,3.3334 16.6666,3.3334 6.6668,0 13.33323,0 16.66661,-3.3334 3.33339,-3.3334 3.33339,-9.9999 3.33339,-37.5021 0,-27.5022 0,-75.8374 3.33343,-102.8289 3.33342,-26.99141 9.99981,-32.63561 16.66657,-32.63561 6.66676,0 13.33332,5.64434 16.66667,32.63511 3.33334,26.9908 3.33334,75.3276 3.33334,102.8296 0,27.502 0,34.1684 3.3334,37.5019 3.3334,3.3334 9.9998,3.3334 16.6666,3.3334 6.6668,0 13.33323,0 16.66661,-3.3334 3.33339,-3.3334 3.33339,-9.9999 3.33339,-31.0407 0,-21.0409 0,-56.4535 3.33343,-76.9834 3.33343,-20.5299 9.99982,-26.1741 16.66657,-26.1741 6.66675,0 13.33313,5.6442 16.66656,26.1742 3.33344,20.53 3.33344,55.9424 3.33344,76.9833 0,21.0408 0,27.7072 3.3334,31.0407 3.33341,3.3334 9.99981,3.3334 16.66661,3.3334 6.6668,0 13.33323,0 16.66661,-3.3334 3.33339,-3.3334 3.33339,-9.9999 3.33339,-37.7222 0,-27.7223 0,-76.4974 3.33343,-103.70893 3.33342,-27.21154 9.99981,-32.85574 16.66657,-32.85574 6.66676,0 13.3332,5.64425 16.6666,32.85556 3.3334,27.21131 3.3334,75.98681 3.3334,103.70911 0,27.7223 0,34.3887 3.3334,37.7222 3.33341,3.3334 9.9998,3.3334 16.6666,3.3334 6.66681,0 13.33323,0 16.66661,-3.3334 3.33338,-3.3334 3.33338,-9.9999 9.64158,-29.0282 6.3082,-19.0284 18.9239,-50.4165 29.1694,-67.6715 10.2456,-17.2549 18.1194,-20.3742 25.3901,-19.1117 7.2706,1.2626 13.9371,6.9069 10.1634,27.2257 -3.7737,20.3188 -17.9879,55.3122 -32.1408,87.0199 z"
         transform="matrix(0.295245,0,0,0.295245,178.98512,1053.6299)"
         sodipodi:nodetypes="ccccccscscscccccscccscscscccscscscccscscscccscscscccc" />
      <path
         style="fill:#38b26b;fill-opacity:1;fill-rule:evenodd;stroke:#24365b;stroke-width:2.82251;stroke-linecap:round;stroke-linejoin:bevel;stroke-dasharray:none;stroke-dashoffset:107.717;stroke-opacity:1"
         id="path134-8-0"
         sodipodi:type="arc"
         sodipodi:cx="-1522.6534"
         sodipodi:cy="441.40817"
         sodipodi:rx="22.989876"
         sodipodi:ry="26.567385"
         sodipodi:start="5.6147128"
         sodipodi:end="5.6012455"
         sodipodi:open="true"
         sodipodi:arc-type="arc"
         d="m -1504.6117,424.94203 a 22.989876,26.567385 0 0 1 -3.7322,37.25985 22.989876,26.567385 0 0 1 -32.2549,-4.18754 22.989876,26.567385 0 0 1 3.515,-37.28806 22.989876,26.567385 0 0 1 32.2786,3.93647"
         transform="rotate(-90)" />
    </g>
  </g>
</svg>
