<?xml version="1.0" encoding="UTF-8" standalone="no"?>
<!-- Created with Inkscape (http://www.inkscape.org/) -->

<svg
   width="216.70601mm"
   height="141.01202mm"
   viewBox="0 0 216.70601 141.01202"
   version="1.1"
   id="svg1"
   xmlns="http://www.w3.org/2000/svg"
   xmlns:svg="http://www.w3.org/2000/svg">
  <defs
     id="defs1" />
  <g
     id="layer1"
     transform="translate(56.620826,-59.266669)">
    <g
       id="g23-9"
       transform="matrix(1.61051,0,0,1.61051,-266.34358,-16.783727)">
      <path
         style="fill:#38b26b;fill-opacity:1;fill-rule:evenodd;stroke:none;stroke-width:1.08038;stroke-linecap:butt;stroke-miterlimit:0;stroke-dasharray:none;stroke-opacity:1;paint-order:markers fill stroke"
         id="path5-50"
         d="m 130.5483,114.22199 a 4.778687,4.7786865 0 0 1 5.61529,-3.68554 4.778687,4.7786865 0 0 1 3.75375,5.56992 4.778687,4.7786865 0 0 1 -5.52374,3.8214 4.778687,4.7786865 0 0 1 -3.88847,-5.47673" />
      <path
         style="fill:#38b26b;fill-opacity:1;fill-rule:evenodd;stroke:none;stroke-width:1.08038;stroke-linecap:butt;stroke-miterlimit:0;stroke-dasharray:none;stroke-opacity:1;paint-order:markers fill stroke"
         id="path5-2-6"
         d="m 130.32699,51.221987 a 4.778687,4.7786865 0 0 1 5.61529,-3.685541 4.778687,4.7786865 0 0 1 3.75375,5.569929 4.778687,4.7786865 0 0 1 -5.52374,3.821393 4.778687,4.7786865 0 0 1 -3.88847,-5.476724" />
      <path
         style="fill:#38b26b;fill-opacity:1;fill-rule:evenodd;stroke:none;stroke-width:1.08038;stroke-linecap:butt;stroke-miterlimit:0;stroke-dasharray:none;stroke-opacity:1;paint-order:markers fill stroke"
         id="path5-2-5-0"
         d="m 130.32699,69.221987 a 4.778687,4.7786865 0 0 1 5.61529,-3.685541 4.778687,4.7786865 0 0 1 3.75375,5.569929 4.778687,4.7786865 0 0 1 -5.52374,3.821393 4.778687,4.7786865 0 0 1 -3.88847,-5.476724" />
      <path
         style="fill:#38b26b;fill-opacity:1;fill-rule:evenodd;stroke:none;stroke-width:1.08038;stroke-linecap:butt;stroke-miterlimit:0;stroke-dasharray:none;stroke-opacity:1;paint-order:markers fill stroke"
         id="path5-2-5-2-8"
         d="m 130.32699,87.221987 a 4.778687,4.7786865 0 0 1 5.61529,-3.685541 4.778687,4.7786865 0 0 1 3.75375,5.569929 4.778687,4.7786865 0 0 1 -5.52374,3.821393 4.778687,4.7786865 0 0 1 -3.88847,-5.476724" />
      <path
         style="fill:#38b26b;fill-opacity:1;fill-rule:evenodd;stroke:none;stroke-width:1.08038;stroke-linecap:butt;stroke-miterlimit:0;stroke-dasharray:none;stroke-opacity:1;paint-order:markers fill stroke"
         id="path5-6-3"
         d="m 146.32699,95.221987 a 4.778687,4.7786865 0 0 1 5.61529,-3.685541 4.778687,4.7786865 0 0 1 3.75375,5.569929 4.778687,4.7786865 0 0 1 -5.52374,3.821395 4.778687,4.7786865 0 0 1 -3.88847,-5.476726" />
      <path
         style="fill:#38b26b;fill-opacity:1;fill-rule:evenodd;stroke:none;stroke-width:1.08038;stroke-linecap:butt;stroke-miterlimit:0;stroke-dasharray:none;stroke-opacity:1;paint-order:markers fill stroke"
         id="path5-6-63-7"
         d="m 146.00001,78.999995 a 4.778687,4.7786865 0 0 1 5.61529,-3.685542 4.778687,4.7786865 0 0 1 3.75375,5.569929 4.778687,4.7786865 0 0 1 -5.52374,3.821393 4.778687,4.7786865 0 0 1 -3.88847,-5.476724" />
      <path
         style="fill:#38b26b;fill-opacity:1;fill-rule:evenodd;stroke:none;stroke-width:1.08038;stroke-linecap:butt;stroke-miterlimit:0;stroke-dasharray:none;stroke-opacity:1;paint-order:markers fill stroke"
         id="path5-6-63-8-8"
         d="m 175.32699,79.221987 a 4.778687,4.7786865 0 0 1 5.61529,-3.685541 4.778687,4.7786865 0 0 1 3.75375,5.569929 4.778687,4.7786865 0 0 1 -5.52374,3.821393 4.778687,4.7786865 0 0 1 -3.88847,-5.476724" />
      <path
         style="fill:#38b26b;fill-opacity:1;fill-rule:evenodd;stroke:none;stroke-width:1.08038;stroke-linecap:butt;stroke-miterlimit:0;stroke-dasharray:none;stroke-opacity:1;paint-order:markers fill stroke"
         id="path5-6-6-21"
         d="m 160.32699,104.22199 a 4.778687,4.7786865 0 0 1 5.61529,-3.68554 4.778687,4.7786865 0 0 1 3.75375,5.56992 4.778687,4.7786865 0 0 1 -5.52374,3.8214 4.778687,4.7786865 0 0 1 -3.88847,-5.47673" />
      <path
         style="fill:#38b26b;fill-opacity:1;fill-rule:evenodd;stroke:none;stroke-width:1.08038;stroke-linecap:butt;stroke-miterlimit:0;stroke-dasharray:none;stroke-opacity:1;paint-order:markers fill stroke"
         id="path5-6-6-2-0"
         d="m 160.5483,71.000674 a 4.778687,4.7786865 0 0 1 5.61529,-3.685542 4.778687,4.7786865 0 0 1 3.75375,5.569929 4.778687,4.7786865 0 0 1 -5.52374,3.821393 4.778687,4.7786865 0 0 1 -3.88847,-5.476724" />
      <path
         style="fill:#38b26b;fill-opacity:1;fill-rule:evenodd;stroke:none;stroke-width:1.08038;stroke-linecap:butt;stroke-miterlimit:0;stroke-dasharray:none;stroke-opacity:1;paint-order:markers fill stroke"
         id="path5-6-6-5-5"
         d="m 175.5483,96.000674 a 4.778687,4.7786865 0 0 1 5.61529,-3.685542 4.778687,4.7786865 0 0 1 3.75375,5.569929 4.778687,4.7786865 0 0 1 -5.52374,3.821389 4.778687,4.7786865 0 0 1 -3.88847,-5.47672" />
      <path
         style="fill:#38b26b;fill-opacity:1;fill-rule:evenodd;stroke:none;stroke-width:1.08038;stroke-linecap:butt;stroke-miterlimit:0;stroke-dasharray:none;stroke-opacity:1;paint-order:markers fill stroke"
         id="path5-5-8"
         d="m 149.5483,129.00067 a 4.778687,4.7786865 0 0 1 5.61529,-3.68554 4.778687,4.7786865 0 0 1 3.75375,5.56993 4.778687,4.7786865 0 0 1 -5.52374,3.82139 4.778687,4.7786865 0 0 1 -3.88847,-5.47672" />
      <path
         style="fill:#38b26b;fill-opacity:1;fill-rule:evenodd;stroke:none;stroke-width:1.08038;stroke-linecap:butt;stroke-miterlimit:0;stroke-dasharray:none;stroke-opacity:1;paint-order:markers fill stroke"
         id="path5-5-0-5"
         d="m 196.32699,128.77936 a 4.778687,4.7786865 0 0 1 5.61529,-3.68554 4.778687,4.7786865 0 0 1 3.75375,5.56993 4.778687,4.7786865 0 0 1 -5.52374,3.82139 4.778687,4.7786865 0 0 1 -3.88847,-5.47672" />
      <path
         style="fill:#38b26b;fill-opacity:1;fill-rule:evenodd;stroke:none;stroke-width:1.08038;stroke-linecap:butt;stroke-miterlimit:0;stroke-dasharray:none;stroke-opacity:1;paint-order:markers fill stroke"
         id="path5-5-0-0-50"
         d="m 207.43027,108.18736 a 4.778687,4.7786865 0 0 1 5.6153,-3.68554 4.778687,4.7786865 0 0 1 3.75374,5.56992 4.778687,4.7786865 0 0 1 -5.52374,3.8214 4.778687,4.7786865 0 0 1 -3.88847,-5.47673" />
      <path
         style="fill:#38b26b;fill-opacity:1;fill-rule:evenodd;stroke:none;stroke-width:1.08038;stroke-linecap:butt;stroke-miterlimit:0;stroke-dasharray:none;stroke-opacity:1;paint-order:markers fill stroke"
         id="path5-5-0-0-6-7"
         d="m 160.5483,51.000674 a 4.778687,4.7786865 0 0 1 5.61529,-3.685542 4.778687,4.7786865 0 0 1 3.75375,5.569929 4.778687,4.7786865 0 0 1 -5.52374,3.821393 4.778687,4.7786865 0 0 1 -3.88847,-5.476724" />
      <path
         style="fill:#38b26b;fill-opacity:1;fill-rule:evenodd;stroke:none;stroke-width:1.08038;stroke-linecap:butt;stroke-miterlimit:0;stroke-dasharray:none;stroke-opacity:1;paint-order:markers fill stroke"
         id="path5-5-0-0-6-5-3"
         d="m 184.5483,51.000674 a 4.778687,4.7786865 0 0 1 5.61529,-3.685542 4.778687,4.7786865 0 0 1 3.75375,5.569929 4.778687,4.7786865 0 0 1 -5.52374,3.821393 4.778687,4.7786865 0 0 1 -3.88847,-5.476724" />
      <path
         style="fill:#38b26b;fill-opacity:1;fill-rule:evenodd;stroke:none;stroke-width:1.08038;stroke-linecap:butt;stroke-miterlimit:0;stroke-dasharray:none;stroke-opacity:1;paint-order:markers fill stroke"
         id="path5-5-0-0-6-5-6-82"
         d="m 209.5483,51.000674 a 4.778687,4.7786865 0 0 1 5.61529,-3.685542 4.778687,4.7786865 0 0 1 3.75375,5.569929 4.778687,4.7786865 0 0 1 -5.52374,3.821393 4.778687,4.7786865 0 0 1 -3.88847,-5.476724" />
      <path
         style="fill:#38b26b;fill-opacity:1;fill-rule:evenodd;stroke:none;stroke-width:1.08038;stroke-linecap:butt;stroke-miterlimit:0;stroke-dasharray:none;stroke-opacity:1;paint-order:markers fill stroke"
         id="path5-5-0-0-6-5-6-3-3"
         d="m 235.5483,51.000674 a 4.778687,4.7786865 0 0 1 5.61529,-3.685542 4.778687,4.7786865 0 0 1 3.75375,5.569929 4.778687,4.7786865 0 0 1 -5.52374,3.821393 4.778687,4.7786865 0 0 1 -3.88847,-5.476724" />
      <path
         style="fill:#38b26b;fill-opacity:1;fill-rule:evenodd;stroke:none;stroke-width:1.08038;stroke-linecap:butt;stroke-miterlimit:0;stroke-dasharray:none;stroke-opacity:1;paint-order:markers fill stroke"
         id="path5-5-0-0-6-5-6-8-0"
         d="m 194.10567,79.000674 a 4.778687,4.7786865 0 0 1 5.6153,-3.685542 4.778687,4.7786865 0 0 1 3.75374,5.569929 4.778687,4.7786865 0 0 1 -5.52374,3.821393 4.778687,4.7786865 0 0 1 -3.88847,-5.476724" />
      <path
         style="fill:#38b26b;fill-opacity:1;fill-rule:evenodd;stroke:none;stroke-width:1.08038;stroke-linecap:butt;stroke-miterlimit:0;stroke-dasharray:none;stroke-opacity:1;paint-order:markers fill stroke"
         id="path5-5-0-0-6-5-6-8-8-7"
         d="m 213.5483,79.000674 a 4.778687,4.7786865 0 0 1 5.61529,-3.685542 4.778687,4.7786865 0 0 1 3.75375,5.569929 4.778687,4.7786865 0 0 1 -5.52374,3.821393 4.778687,4.7786865 0 0 1 -3.88847,-5.476724" />
      <path
         style="fill:#38b26b;fill-opacity:1;fill-rule:evenodd;stroke:none;stroke-width:1.08038;stroke-linecap:butt;stroke-miterlimit:0;stroke-dasharray:none;stroke-opacity:1;paint-order:markers fill stroke"
         id="path5-5-0-0-6-5-6-8-8-8-7"
         d="m 235.5483,107.77936 a 4.778687,4.7786865 0 0 1 5.61529,-3.68554 4.778687,4.7786865 0 0 1 3.75375,5.56993 4.778687,4.7786865 0 0 1 -5.52374,3.82139 4.778687,4.7786865 0 0 1 -3.88847,-5.47672" />
      <path
         style="fill:#38b26b;fill-opacity:1;fill-rule:evenodd;stroke:none;stroke-width:1.08038;stroke-linecap:butt;stroke-miterlimit:0;stroke-dasharray:none;stroke-opacity:1;paint-order:markers fill stroke"
         id="path5-5-0-0-6-5-6-8-8-8-0-76"
         d="m 255.327,63.77936 a 4.778687,4.7786865 0 0 1 5.61529,-3.685541 4.778687,4.7786865 0 0 1 3.75375,5.569929 4.778687,4.7786865 0 0 1 -5.52374,3.821393 4.778687,4.7786865 0 0 1 -3.88847,-5.476724" />
      <path
         style="fill:#38b26b;fill-opacity:1;fill-rule:evenodd;stroke:none;stroke-width:1.08038;stroke-linecap:butt;stroke-miterlimit:0;stroke-dasharray:none;stroke-opacity:1;paint-order:markers fill stroke"
         id="path5-5-0-0-6-5-6-8-8-8-0-7-91"
         d="m 254.54832,79.000674 a 4.778687,4.7786865 0 0 1 5.61529,-3.685542 4.778687,4.7786865 0 0 1 3.75374,5.569929 4.778687,4.7786865 0 0 1 -5.52373,3.821393 4.778687,4.7786865 0 0 1 -3.88848,-5.476724" />
      <path
         style="fill:#38b26b;fill-opacity:1;fill-rule:evenodd;stroke:none;stroke-width:1.08038;stroke-linecap:butt;stroke-miterlimit:0;stroke-dasharray:none;stroke-opacity:1;paint-order:markers fill stroke"
         id="path5-5-0-0-6-5-6-8-8-8-0-7-6-1"
         d="m 235.04319,78.770937 a 4.778687,4.7786865 0 0 1 5.61529,-3.685541 4.778687,4.7786865 0 0 1 3.75375,5.569929 4.778687,4.7786865 0 0 1 -5.52374,3.821393 4.778687,4.7786865 0 0 1 -3.88847,-5.476724" />
      <path
         style="fill:#38b26b;fill-opacity:1;fill-rule:evenodd;stroke:none;stroke-width:1.08038;stroke-linecap:butt;stroke-miterlimit:0;stroke-dasharray:none;stroke-opacity:1;paint-order:markers fill stroke"
         id="path5-5-0-0-6-5-6-8-8-8-0-7-6-9-9"
         d="m 254.327,108.22199 a 4.778687,4.7786865 0 0 1 5.61529,-3.68554 4.778687,4.7786865 0 0 1 3.75375,5.56992 4.778687,4.7786865 0 0 1 -5.52374,3.8214 4.778687,4.7786865 0 0 1 -3.88847,-5.47673" />
      <path
         style="fill:#38b26b;fill-opacity:1;fill-rule:evenodd;stroke:none;stroke-width:1.08038;stroke-linecap:butt;stroke-miterlimit:0;stroke-dasharray:none;stroke-opacity:1;paint-order:markers fill stroke"
         id="path5-5-0-0-6-5-6-8-6-0"
         d="m 223.99261,63.77936 a 4.778687,4.7786865 0 0 1 5.61529,-3.685541 4.778687,4.7786865 0 0 1 3.75374,5.569929 4.778687,4.7786865 0 0 1 -5.52373,3.821393 4.778687,4.7786865 0 0 1 -3.88847,-5.476724" />
      <path
         style="fill:#38b26b;fill-opacity:1;fill-rule:evenodd;stroke:none;stroke-width:1.08038;stroke-linecap:butt;stroke-miterlimit:0;stroke-dasharray:none;stroke-opacity:1;paint-order:markers fill stroke"
         id="path5-5-0-0-5-8"
         d="m 218.32699,128.77936 a 4.778687,4.7786865 0 0 1 5.61529,-3.68554 4.778687,4.7786865 0 0 1 3.75375,5.56993 4.778687,4.7786865 0 0 1 -5.52374,3.82139 4.778687,4.7786865 0 0 1 -3.88847,-5.47672" />
      <path
         style="fill:#38b26b;fill-opacity:1;fill-rule:evenodd;stroke:none;stroke-width:1.08038;stroke-linecap:butt;stroke-miterlimit:0;stroke-dasharray:none;stroke-opacity:1;paint-order:markers fill stroke"
         id="path5-5-0-0-5-7-9"
         d="m 234.32699,128.22199 a 4.778687,4.7786865 0 0 1 5.61529,-3.68554 4.778687,4.7786865 0 0 1 3.75375,5.56992 4.778687,4.7786865 0 0 1 -5.52374,3.8214 4.778687,4.7786865 0 0 1 -3.88847,-5.47673" />
      <path
         style="fill:#38b26b;fill-opacity:1;fill-rule:evenodd;stroke:none;stroke-width:1.08038;stroke-linecap:butt;stroke-miterlimit:0;stroke-dasharray:none;stroke-opacity:1;paint-order:markers fill stroke"
         id="path5-5-0-0-5-7-2-8"
         d="m 254.10569,128.00067 a 4.778687,4.7786865 0 0 1 5.61529,-3.68554 4.778687,4.7786865 0 0 1 3.75375,5.56993 4.778687,4.7786865 0 0 1 -5.52374,3.82139 4.778687,4.7786865 0 0 1 -3.88847,-5.47672" />
      <path
         style="fill:#38b26b;fill-opacity:1;fill-rule:evenodd;stroke:none;stroke-width:1.08038;stroke-linecap:butt;stroke-miterlimit:0;stroke-dasharray:none;stroke-opacity:1;paint-order:markers fill stroke"
         id="path5-5-9-80"
         d="m 174.32699,128.77936 a 4.778687,4.7786865 0 0 1 5.61529,-3.68554 4.778687,4.7786865 0 0 1 3.75375,5.56993 4.778687,4.7786865 0 0 1 -5.52374,3.82139 4.778687,4.7786865 0 0 1 -3.88847,-5.47672" />
      <path
         style="fill:none;fill-opacity:1;fill-rule:evenodd;stroke:#38b26b;stroke-width:1.591;stroke-linecap:butt;stroke-miterlimit:0;stroke-dasharray:none;stroke-opacity:1;paint-order:markers fill stroke"
         id="path6-3"
         d="M 149.62519,85.293925 A 15.964906,16.464905 0 0 1 168.57534,72.636148 15.964906,16.464905 0 0 1 180.84918,92.179483 15.964906,16.464905 0 0 1 161.89963,104.8382 15.964906,16.464905 0 0 1 149.62487,85.295474" />
      <path
         style="fill:none;fill-opacity:1;fill-rule:evenodd;stroke:#38b26b;stroke-width:1.591;stroke-linecap:butt;stroke-miterlimit:0;stroke-dasharray:none;stroke-opacity:1;paint-order:markers fill stroke"
         d="m 181.00001,79.999998 c 6.33333,0 12.66667,0 19,0"
         id="path7-7" />
      <path
         style="fill:none;fill-opacity:1;fill-rule:evenodd;stroke:#38b26b;stroke-width:1.591;stroke-linecap:butt;stroke-miterlimit:0;stroke-dasharray:none;stroke-opacity:1;paint-order:markers fill stroke"
         d="m 198.00001,79.999998 c 7,0 14,0 21,0"
         id="path8-06" />
      <path
         style="fill:none;fill-opacity:1;fill-rule:evenodd;stroke:#38b26b;stroke-width:1.591;stroke-linecap:butt;stroke-miterlimit:0;stroke-dasharray:none;stroke-opacity:1;paint-order:markers fill stroke"
         d="m 218.00001,79.999998 c 3,0 6,0 7.5,4.833429 1.5,4.83343 1.5,14.499902 3.00003,19.333233 1.50003,4.83333 4.49997,4.83333 7.49997,4.83333"
         id="path11-92"
         transform="translate(2.500005,0.1665701)" />
      <path
         style="fill:none;fill-opacity:1;fill-rule:evenodd;stroke:#38b26b;stroke-width:1.591;stroke-linecap:butt;stroke-miterlimit:0;stroke-dasharray:none;stroke-opacity:1;paint-order:markers fill stroke"
         d="m 218.00001,79.999998 c 3,0 6,0 7.5,4.833429 1.5,4.83343 1.5,14.499902 3.00003,19.333233 1.50003,4.83333 4.49997,4.83333 7.49997,4.83333"
         id="path11-9-17"
         transform="translate(22.500006,0.1665701)" />
      <path
         style="fill:none;fill-opacity:1;fill-rule:evenodd;stroke:#38b26b;stroke-width:1.591;stroke-linecap:butt;stroke-miterlimit:0;stroke-dasharray:none;stroke-opacity:1;paint-order:markers fill stroke"
         d="m 240.00001,108.99999 c 0,-9.666661 0,-19.333327 0,-28.999992"
         id="path12-7" />
      <path
         style="fill:none;fill-opacity:1;fill-rule:evenodd;stroke:#38b26b;stroke-width:1.591;stroke-linecap:butt;stroke-miterlimit:0;stroke-dasharray:none;stroke-opacity:1;paint-order:markers fill stroke"
         d="m 240.00001,108.99999 c 0,-9.666661 0,-19.333327 0,-28.999992"
         id="path12-8-9"
         transform="translate(19.000007,-1.999993)" />
      <path
         style="fill:none;fill-opacity:1;fill-rule:evenodd;stroke:#38b26b;stroke-width:1.591;stroke-linecap:butt;stroke-miterlimit:0;stroke-dasharray:none;stroke-opacity:1;paint-order:markers fill stroke"
         d="m 150.57006,79.999998 c 0.14332,-9.333333 0.28663,-18.666666 -2.30843,-23.333332 -2.59506,-4.666667 -7.92829,-4.666667 -13.26162,-4.666667"
         id="path13-7" />
      <path
         style="fill:none;fill-opacity:1;fill-rule:evenodd;stroke:#38b26b;stroke-width:1.591;stroke-linecap:butt;stroke-miterlimit:0;stroke-dasharray:none;stroke-opacity:1;paint-order:markers fill stroke"
         d="m 135.00001,51.999999 c -0.0208,11.991318 -0.0417,23.98264 -0.0625,35.973958"
         id="path14-6" />
      <path
         style="fill:none;fill-opacity:1;fill-rule:evenodd;stroke:#38b26b;stroke-width:1.591;stroke-linecap:butt;stroke-miterlimit:0;stroke-dasharray:none;stroke-opacity:1;paint-order:markers fill stroke"
         d="m 153.85521,130.175 c 23.04827,-0.0583 46.09653,-0.11667 69.1448,-0.175"
         id="path15-2" />
      <path
         style="fill:none;fill-opacity:1;fill-rule:evenodd;stroke:#38b26b;stroke-width:1.591;stroke-linecap:butt;stroke-miterlimit:0;stroke-dasharray:none;stroke-opacity:1;paint-order:markers fill stroke"
         d="m 153.85521,130.175 c 23.04827,-0.0583 46.09653,-0.11667 69.1448,-0.175"
         id="path15-3-7"
         transform="matrix(0.28896591,0,0,1.0216793,195.55187,-3.3493677)" />
      <path
         style="fill:none;fill-opacity:1;fill-rule:evenodd;stroke:#38b26b;stroke-width:1.591;stroke-linecap:butt;stroke-miterlimit:0;stroke-dasharray:none;stroke-opacity:1;paint-order:markers fill stroke"
         d="m 201.00001,130 c 0,-7 0,-14.00001 1.6667,-17.50001 1.6667,-3.5 4.99997,-3.5 8.3333,-3.5"
         id="path16-15" />
      <path
         style="fill:none;fill-opacity:1;fill-rule:evenodd;stroke:#38b26b;stroke-width:1.591;stroke-linecap:butt;stroke-miterlimit:0;stroke-dasharray:none;stroke-opacity:1;paint-order:markers fill stroke"
         d="m 154.00001,130 c -6,0 -12,0 -15.16667,-2.33338 -3.16667,-2.33339 -3.5,-6.99996 -3.83333,-11.66663"
         id="path17-8" />
      <path
         style="fill:none;fill-opacity:1;fill-rule:evenodd;stroke:#38b26b;stroke-width:1.591;stroke-linecap:butt;stroke-miterlimit:0;stroke-dasharray:none;stroke-opacity:1;paint-order:markers fill stroke"
         d="m 165.00001,105 c 0,4.33332 0,8.66658 2.33338,10.16661 2.33338,1.50003 6.99995,0.16672 9.33329,1.83344 2.33333,1.66671 2.33333,6.33328 2.33333,10.99994"
         id="path18-8" />
      <path
         style="fill:none;fill-opacity:1;fill-rule:evenodd;stroke:#38b26b;stroke-width:1.591;stroke-linecap:butt;stroke-miterlimit:0;stroke-dasharray:none;stroke-opacity:1;paint-order:markers fill stroke"
         d="m 165.00001,51.999999 c 16.33333,0 32.66667,0 49,0"
         id="path19-45" />
      <path
         style="fill:none;fill-opacity:1;fill-rule:evenodd;stroke:#38b26b;stroke-width:1.591;stroke-linecap:butt;stroke-miterlimit:0;stroke-dasharray:none;stroke-opacity:1;paint-order:markers fill stroke"
         d="m 218.00001,79.999998 c -0.33333,-5.666667 -0.66666,-11.33322 1.16671,-13.83327 1.83337,-2.500051 5.8333,-1.833396 9.8333,-1.16673"
         id="path20-6" />
      <path
         style="fill:none;fill-opacity:1;fill-rule:evenodd;stroke:#38b26b;stroke-width:1.591;stroke-linecap:butt;stroke-miterlimit:0;stroke-dasharray:none;stroke-opacity:1;paint-order:markers fill stroke"
         d="m 229.00001,64.999996 c 10.33334,0 20.66667,0 31,0"
         id="path21-5" />
      <path
         style="fill:none;fill-opacity:1;fill-rule:evenodd;stroke:#38b26b;stroke-width:1.77204;stroke-linecap:butt;stroke-miterlimit:0;stroke-dasharray:none;stroke-opacity:1;paint-order:markers fill stroke"
         id="path22-6"
         d="m 239.42827,54.016908 a 12.284636,8.5329723 0 0 1 -5.22425,8.637711 12.284636,8.5329723 0 0 1 -13.48745,0.100886 12.284636,8.5329723 0 0 1 -5.49084,-8.557562" />
    </g>
  </g>
</svg>
