<?xml version="1.0" encoding="UTF-8" standalone="no"?>
<!-- Created with Inkscape (http://www.inkscape.org/) -->

<svg
   width="160.4588mm"
   height="104.19071mm"
   viewBox="0 0 160.4588 104.19071"
   version="1.1"
   id="svg1"
   inkscape:export-filename="Spirochete.svg"
   inkscape:export-xdpi="96"
   inkscape:export-ydpi="96"
   xmlns:inkscape="http://www.inkscape.org/namespaces/inkscape"
   xmlns:sodipodi="http://sodipodi.sourceforge.net/DTD/sodipodi-0.dtd"
   xmlns="http://www.w3.org/2000/svg"
   xmlns:svg="http://www.w3.org/2000/svg">
  <sodipodi:namedview
     id="namedview1"
     pagecolor="#ffffff"
     bordercolor="#000000"
     borderopacity="0.25"
     inkscape:showpageshadow="2"
     inkscape:pageopacity="0.0"
     inkscape:pagecheckerboard="0"
     inkscape:deskcolor="#d1d1d1"
     inkscape:document-units="mm">
    <inkscape:page
       x="-5.2594387e-14"
       y="0"
       width="160.45882"
       height="104.19071"
       id="page2"
       margin="0"
       bleed="0" />
  </sodipodi:namedview>
  <defs
     id="defs1" />
  <g
     inkscape:label="Layer 1"
     inkscape:groupmode="layer"
     id="layer1"
     transform="translate(-26.503277,-111.1372)">
    <g
       id="g11-4"
       inkscape:label="DB"
       transform="matrix(2.25,0,0,2.25,-340.50931,19.777778)">
      <g
         id="g84"
         inkscape:label="Database"
         transform="translate(-8.8139595,-41.882402)"
         style="fill:#5879bc;fill-opacity:1;stroke:#24365b;stroke-opacity:1">
        <path
           d="m 242.58255,88.143029 m -70,0 m 65.05594,-2.562062 c 9.90392,2.371119 4.479,5.440238 -12.11749,6.855408 -16.59649,1.41516 -38.08106,0.64059 -47.98949,-1.730139 -9.90843,-2.370734 -4.48937,-5.440064 12.10442,-6.855877"
           style="fill:#5879bc;fill-opacity:1;fill-rule:evenodd;stroke:#24365b;stroke-width:1.3;stroke-dasharray:none;stroke-opacity:1"
           id="path1-4" />
        <path
           id="path11-1"
           style="fill:#5879bc;fill-opacity:1;fill-rule:evenodd;stroke:#24365b;stroke-width:1.3;stroke-dasharray:none;stroke-opacity:1"
           d="m 172.5824,88.143029 0.003,34.955271 c -0.2262,1.78383 6.55138,3.48436 17.6756,4.38946 11.12421,0.9051 24.81996,0.87036 35.7122,-0.0906 10.89223,-0.96096 17.24285,-2.69479 16.58445,-4.38758 l 0.0249,-34.866551 m -52.93024,-4.294066 c 16.59918,-1.414521 38.08227,-0.639115 47.98618,1.732004 9.90392,2.371119 4.479,5.440238 -12.11749,6.855406 -16.59649,1.415168 -38.08106,0.640597 -47.98949,-1.730137 -9.90843,-2.370734 -4.48937,-5.440064 12.10442,-6.855877"
           inkscape:label="Database"
           sodipodi:nodetypes="ccsscccsssc" />
      </g>
      <text
         xml:space="preserve"
         style="font-size:9.87778px;line-height:1.25;text-align:start;letter-spacing:0.449792px;word-spacing:0px;writing-mode:lr-tb;direction:ltr;text-anchor:start;fill:#90dcaf;fill-opacity:1;fill-rule:evenodd;stroke:#000000;stroke-width:1.368;stroke-opacity:1"
         x="176.42392"
         y="68.718956"
         id="text4-2-4"><tspan
           sodipodi:role="line"
           id="tspan4-7-9"
           style="font-size:9.87778px;fill:#90dcaf;fill-opacity:1;stroke:none;stroke-width:1.368"
           x="176.42392"
           y="68.718956">Database</tspan><tspan
           sodipodi:role="line"
           style="font-size:9.87778px;fill:#90dcaf;fill-opacity:1;stroke:none;stroke-width:1.368"
           x="176.42392"
           y="81.066177"
           id="tspan5-5" /></text>
    </g>
  </g>
</svg>
