<?xml version="1.0" encoding="UTF-8" standalone="no"?>
<!-- Created with Inkscape (http://www.inkscape.org/) -->

<svg
   width="172.63271mm"
   height="70.424995mm"
   viewBox="0 0 172.63271 70.424995"
   version="1.1"
   id="svg1"
   inkscape:export-filename="Database.svg"
   inkscape:export-xdpi="96"
   inkscape:export-ydpi="96"
   xmlns:inkscape="http://www.inkscape.org/namespaces/inkscape"
   xmlns:sodipodi="http://sodipodi.sourceforge.net/DTD/sodipodi-0.dtd"
   xmlns="http://www.w3.org/2000/svg"
   xmlns:svg="http://www.w3.org/2000/svg">
  <sodipodi:namedview
     id="namedview1"
     pagecolor="#ffffff"
     bordercolor="#000000"
     borderopacity="0.25"
     inkscape:showpageshadow="2"
     inkscape:pageopacity="0.0"
     inkscape:pagecheckerboard="0"
     inkscape:deskcolor="#d1d1d1"
     inkscape:document-units="mm">
    <inkscape:page
       x="0"
       y="0"
       width="172.63271"
       height="70.424995"
       id="page2"
       margin="0"
       bleed="0" />
  </sodipodi:namedview>
  <defs
     id="defs1" />
  <g
     inkscape:label="Layer 1"
     inkscape:groupmode="layer"
     id="layer1"
     transform="translate(-26.722918,-112.18335)">
    <g
       id="g4"
       inkscape:label="Stored data"
       style="fill:#38b26b;fill-opacity:1"
       transform="matrix(2.25,0,0,2.25,-48.604339,12.395835)">
      <path
         style="fill:#5879bc;fill-opacity:1;fill-rule:evenodd;stroke:#24365b;stroke-width:1.3;stroke-dasharray:none;stroke-opacity:1"
         d="m 34.999998,44.999999 c 0,0 2.750001,2.887379 4.000001,6.000002 1.250001,3.112623 1,6.450491 1,9 0,2.5 0.25,5.875001 -1,9.000001 C 37.749999,72.125001 34.999998,75 34.999998,75 H 105 c 0,0 1.8614,-2.359683 3,-5.484682 1.13861,-3.125 1.55443,-7.015317 1.55443,-9.515317 0,-2.5 -0.41582,-6.109684 -1.55442,-9.234684 C 106.8614,47.640316 105,44.999999 105,44.999999 Z"
         id="path3"
         sodipodi:nodetypes="csssccssscc" />
      <text
         xml:space="preserve"
         style="font-size:9.87778px;line-height:1.25;text-align:start;letter-spacing:0.449792px;word-spacing:0px;writing-mode:lr-tb;direction:ltr;text-anchor:start;fill:#90dcaf;fill-opacity:1;fill-rule:evenodd;stroke:#000000;stroke-width:1.368;stroke-opacity:1"
         x="44.800762"
         y="63.111057"
         id="text4-2-9"><tspan
           sodipodi:role="line"
           style="font-size:9.87778px;fill:#90dcaf;fill-opacity:1;stroke:none;stroke-width:1.368"
           x="44.800762"
           y="63.111057"
           id="tspan121">Stored Data</tspan><tspan
           sodipodi:role="line"
           style="font-size:9.87778px;fill:#90dcaf;fill-opacity:1;stroke:none;stroke-width:1.368"
           x="44.800762"
           y="75.458282"
           id="tspan5-0" /></text>
    </g>
  </g>
</svg>
